<?xml version="1.0" standalone="no"?>
<!DOCTYPE svg PUBLIC "-//W3C//DTD SVG 20010904//EN"
 "http://www.w3.org/TR/2001/REC-SVG-20010904/DTD/svg10.dtd">
<svg version="1.0" xmlns="http://www.w3.org/2000/svg"
 width="300.000000pt" height="300.000000pt" viewBox="0 0 300.000000 300.000000"
 preserveAspectRatio="xMidYMid meet">
<metadata>
Created by potrace 1.10, written by Peter Selinger 2001-2011
</metadata>
<g transform="translate(0.000000,300.000000) scale(0.050000,-0.050000)"
fill="#696e6d" stroke="none">
<path d="M5050 5116 c-462 -459 -755 -736 -779 -736 -23 0 -176 -135 -380
-335 -794 -781 -1277 -1236 -1322 -1245 -42 -9 -303 -250 -1558 -1439 -508
-481 -633 -596 -757 -701 -162 -135 -161 -126 -3 -260 72 -60 144 -130 160
-155 17 -25 40 -45 51 -45 30 0 219 183 208 201 -5 8 60 80 145 160 640 602
2007 1964 1997 1990 -5 13 359 386 810 828 450 443 818 820 818 838 0 31 1221
1261 1415 1425 99 84 103 102 36 169 -73 73 -48 94 -841 -695z m-1322 -1479
c-31 -50 -336 -357 -355 -357 -11 0 -43 -20 -70 -45 -27 -25 -42 -31 -33 -15
30 56 75 99 93 88 9 -5 27 13 40 41 13 28 30 51 39 51 8 0 75 59 147 130 125
123 171 158 139 107z m-599 -581 c-63 -69 -130 -136 -147 -149 -18 -12 -74
-64 -124 -115 -51 -50 -105 -92 -120 -92 -16 0 -1 27 36 65 36 36 88 90 116
120 29 30 65 55 81 55 16 0 29 8 29 18 0 26 222 247 235 234 6 -6 -42 -67
-106 -136z m-711 -728 c-400 -393 -534 -523 -705 -682 -73 -69 -133 -134 -133
-145 0 -11 -16 -14 -35 -7 -19 7 -28 5 -20 -4 8 -9 -4 -32 -27 -52 -26 -22
-36 -46 -26 -62 10 -17 3 -16 -22 4 -33 27 -36 27 -26 0 13 -37 -25 -76 -62
-64 -17 6 -22 0 -14 -13 9 -14 1 -23 -19 -23 -28 0 -30 -5 -9 -30 22 -26 20
-29 -11 -17 -29 11 -33 7 -22 -22 12 -32 10 -33 -20 -9 -31 25 -33 24 -21 -9
11 -28 7 -35 -15 -26 -19 7 -25 1 -18 -18 8 -22 2 -26 -24 -16 -24 10 -31 6
-21 -10 9 -14 2 -23 -18 -23 -18 0 -29 -7 -24 -15 5 -8 -13 -36 -39 -61 -26
-25 -47 -40 -47 -33 0 6 -14 -2 -31 -19 -17 -18 -26 -41 -19 -52 7 -12 -2 -14
-22 -6 -27 10 -32 5 -22 -22 9 -21 6 -29 -7 -21 -12 7 -37 -6 -57 -29 -20 -23
-43 -35 -52 -27 -9 8 -11 0 -5 -18 9 -24 -2 -37 -36 -45 -32 -8 -44 -22 -36
-42 8 -22 2 -27 -21 -18 -25 10 -29 4 -19 -23 10 -24 6 -31 -10 -21 -13 8 -37
0 -55 -17 -54 -54 -88 -39 -68 29 19 67 64 120 102 120 14 0 19 6 12 12 -20
20 44 72 69 56 14 -8 18 -5 10 7 -7 12 46 79 119 148 73 70 154 148 181 173
26 25 56 41 67 34 12 -7 14 2 6 22 -10 27 -5 32 20 22 21 -8 32 -3 29 12 -3
13 7 22 21 19 15 -4 21 3 14 15 -7 11 4 21 24 22 20 0 25 5 12 11 -23 9 256
291 301 303 13 4 -29 -43 -92 -105 -64 -61 -109 -111 -100 -111 26 0 227 211
214 224 -15 16 66 99 102 104 21 3 498 452 909 855 69 68 96 83 116 66 20 -17
-44 -91 -298 -341z m-1851 -1777 c9 -25 -9 -45 -148 -167 l-52 -44 -70 65
c-38 36 -50 49 -25 29 43 -37 45 -36 137 63 90 96 136 112 158 54z"/>
<path d="M4970 2257 c-143 -76 -557 -293 -920 -482 -363 -188 -795 -413 -960
-499 -313 -164 -493 -253 -706 -348 -172 -77 -173 -80 -83 -217 43 -66 94
-158 114 -205 47 -114 156 -96 335 54 22 19 148 91 280 160 132 69 591 315
1020 545 1512 812 1410 754 1410 806 0 26 16 58 36 73 107 77 11 293 -103 232
-26 -14 -53 -13 -86 2 -64 29 -41 37 -337 -121z m430 -42 c0 -24 -40 -54 -208
-153 -115 -68 -432 -238 -492 -263 -27 -12 -54 -28 -60 -35 -5 -8 -122 -70
-260 -139 -137 -69 -349 -179 -470 -244 -190 -103 -323 -161 -230 -101 34 22
19 26 -27 8 -17 -6 -26 -23 -21 -37 6 -14 -6 -32 -25 -40 -20 -7 -39 -4 -43 8
-4 11 -17 21 -28 21 -11 0 -16 -12 -10 -28 12 -30 -77 -80 -107 -61 -11 6 -19
-4 -19 -22 0 -28 -5 -30 -30 -9 -25 21 -29 21 -20 -2 6 -17 -14 -42 -50 -62
-33 -19 -60 -26 -60 -15 0 10 11 19 23 19 13 0 19 5 13 10 -20 20 -73 -13 -64
-39 14 -35 -54 -59 -75 -27 -12 20 -16 18 -17 -7 0 -35 -52 -64 -82 -46 -9 6
-12 -3 -6 -20 12 -29 -12 -39 -87 -36 -13 0 -19 -9 -12 -21 9 -13 1 -16 -20
-8 -23 9 -33 2 -35 -22 -1 -20 -5 -24 -11 -9 -6 14 -18 25 -28 25 -10 0 -13
-13 -7 -29 8 -20 -6 -34 -40 -42 -29 -8 -60 -28 -70 -45 -15 -26 -25 -20 -60
37 -53 87 -53 105 1 88 30 -9 38 -6 27 11 -11 18 -5 19 27 2 36 -20 40 -18 29
13 -12 32 -10 32 23 5 34 -28 36 -26 21 20 l-15 50 45 -40 46 -40 -26 50 -26
50 46 -40 c44 -37 46 -37 33 -3 -10 28 -6 35 17 26 19 -7 30 0 30 20 0 27 5
28 34 4 23 -18 29 -19 19 -2 -22 36 18 31 56 -6 42 -43 40 -12 -4 38 -34 38
-33 39 11 28 34 -9 41 -6 27 12 -14 16 -5 24 32 26 37 2 43 -2 23 -15 -32 -20
-16 -24 29 -6 19 7 26 24 18 45 -11 30 -9 30 25 3 22 -18 32 -20 23 -5 -9 14
-2 38 14 55 19 19 35 23 43 10 7 -11 21 -20 32 -20 11 0 15 8 9 18 -12 19 48
50 65 32 6 -5 -1 -10 -16 -10 -15 0 -22 -5 -16 -10 18 -19 76 14 63 35 -8 13
-4 15 11 6 38 -23 88 28 60 62 -17 20 -17 27 0 27 12 0 22 -9 22 -20 0 -11 10
-20 22 -20 12 0 17 15 10 33 -10 26 -7 28 15 9 42 -35 97 -7 73 38 -23 43 37
78 62 37 11 -19 34 -16 96 12 88 40 95 50 58 87 -16 16 -17 24 -2 24 12 0 27
-13 33 -30 10 -25 19 -24 71 5 32 19 54 42 48 52 -6 9 -18 6 -26 -7 -9 -15
-20 -17 -27 -4 -18 28 49 50 74 25 27 -27 45 -26 77 4 35 35 263 168 312 184
21 7 133 63 247 124 606 327 737 388 737 342z m-2745 -1469 c4 -13 -38 -47
-93 -75 -176 -89 -226 -55 -67 46 98 62 146 71 160 29z"/>
</g>
</svg>
