<?xml version="1.0" standalone="no"?>
<!DOCTYPE svg PUBLIC "-//W3C//DTD SVG 20010904//EN"
 "http://www.w3.org/TR/2001/REC-SVG-20010904/DTD/svg10.dtd">
<svg version="1.0" xmlns="http://www.w3.org/2000/svg"
 width="300.000000pt" height="159.000000pt" viewBox="0 0 300.000000 159.000000"
 preserveAspectRatio="xMidYMid meet">
<metadata>
Created by potrace 1.10, written by Peter Selinger 2001-2011
</metadata>
<g transform="translate(0.000000,159.000000) scale(0.050000,-0.050000)"
fill="#696e6d" stroke="none">
<path d="M1549 3087 c8 -50 19 -104 25 -120 14 -37 186 -32 186 6 0 20 33 27
120 27 79 0 118 -8 115 -23 -9 -39 84 -50 452 -55 206 -3 421 -17 507 -33 102
-20 160 -23 186 -9 54 29 74 25 85 -18 9 -34 20 -37 88 -21 42 10 635 17 1317
16 682 -2 1204 -9 1160 -17 -71 -13 -73 -15 -20 -17 111 -6 150 -25 150 -73 0
-64 3 -64 -768 -67 -383 -2 -704 -8 -714 -14 -10 -6 -18 -4 -18 5 0 42 -1180
18 -1182 -24 -2 -34 -4 -34 -12 -5 -5 19 -20 35 -32 36 -322 8 -334 12 -334
120 l0 79 -488 0 -487 0 -12 -65 c-7 -36 -17 -119 -22 -185 -6 -66 -16 -168
-22 -226 -9 -73 -4 -117 14 -140 24 -31 23 -31 -8 -7 -30 24 -35 24 -34 0 0
-31 68 -233 83 -248 19 -18 33 360 24 601 -6 132 -3 230 6 218 17 -23 338 -46
713 -50 210 -3 216 -4 205 -45 -6 -24 -12 -76 -12 -116 l0 -73 -269 -7 c-169
-4 -278 -16 -292 -30 -34 -34 165 -55 382 -41 l174 11 12 -91 c25 -177 16
-426 -15 -426 -22 0 -24 16 -11 72 l16 73 -264 -8 c-144 -5 -278 -17 -297 -28
-22 -13 47 -17 210 -13 158 4 234 -1 216 -13 -23 -15 -21 -21 10 -30 21 -6
-92 -8 -252 -4 -159 3 -325 17 -369 31 l-79 24 47 35 c26 20 42 43 36 53 -18
30 40 73 59 43 11 -18 90 -26 266 -27 302 -2 363 -8 348 -30 -5 -10 4 -18 21
-18 24 0 31 24 31 110 l0 110 -217 0 c-135 0 -254 11 -315 30 -113 34 -196 39
-178 10 7 -11 3 -20 -8 -20 -11 0 -25 8 -31 18 -6 10 -22 17 -36 15 -66 -10
-75 -37 -75 -233 0 -139 7 -200 25 -207 15 -6 11 -10 -10 -11 -19 -1 -35 -11
-35 -23 0 -34 900 -22 934 12 15 15 25 34 24 43 -2 9 -2 68 0 131 l2 115 145
0 145 0 -63 -39 c-35 -21 -69 -56 -76 -79 -7 -22 -31 -46 -52 -52 -51 -17 -50
-70 1 -70 38 0 99 -87 78 -109 -8 -8 -124 -26 -193 -30 -14 0 -25 -20 -25 -42
0 -23 9 -36 20 -29 11 7 20 3 20 -8 0 -11 29 -23 65 -28 l65 -8 -71 1 c-38 0
-80 -5 -92 -13 -26 -16 -47 28 -47 99 0 28 -9 44 -20 37 -11 -7 -20 -28 -20
-48 0 -43 -94 -91 -127 -65 -79 65 -430 90 -490 36 -20 -18 -63 -33 -95 -33
-33 0 -91 -16 -129 -35 -38 -19 -89 -34 -113 -33 -25 1 -40 -5 -34 -15 6 -9 1
-17 -11 -17 -11 0 -21 -9 -21 -21 0 -11 -14 -42 -32 -69 l-32 -50 -121 85
c-67 47 -139 109 -161 139 -22 30 -49 49 -60 42 -12 -7 -14 -2 -6 11 8 13 -4
49 -27 81 -22 32 -41 68 -41 80 0 12 -7 22 -15 22 -8 0 -17 27 -19 60 -8 110
-35 134 -191 166 -371 79 -384 74 -388 -140 -4 -177 -43 -298 -167 -516 -213
-373 -279 -533 -370 -899 -157 -628 -165 -617 442 -607 474 7 492 12 515 149
6 39 36 104 67 144 50 65 56 89 56 224 0 132 7 163 55 235 38 57 55 109 55
166 0 148 104 278 223 278 57 0 228 -72 255 -107 201 -272 902 -12 902 334 0
139 115 213 329 213 121 0 162 19 110 51 -14 8 -14 21 -1 36 12 15 13 35 1 54
-10 16 -18 47 -17 69 2 33 5 31 18 -10 12 -37 17 -17 18 76 1 69 15 150 30
180 63 122 37 118 832 132 402 7 975 18 1275 25 l545 13 0 63 c0 35 14 81 31
102 18 22 25 26 17 9 -14 -26 -11 -26 19 -2 49 40 11 69 -52 41 -28 -13 -62
-45 -76 -71 -25 -46 -35 -48 -247 -49 -502 -2 -1508 -20 -1589 -29 -75 -8 -84
-6 -64 19 13 16 21 50 18 75 -9 62 -657 85 -657 24 0 -30 30 -32 285 -26 243
7 285 4 285 -22 0 -25 -43 -29 -277 -27 -244 3 -279 0 -286 -30 -7 -26 -29
-32 -105 -26 -53 3 -128 -2 -167 -13 -76 -21 -97 20 -79 148 9 64 148 70 1710
74 l1376 4 10 43 c6 23 2 75 -9 114 -11 40 -15 90 -9 113 6 22 1 52 -11 67
-13 15 -17 33 -10 40 28 27 -95 113 -159 111 -60 -2 -61 -3 -14 -16 48 -14 48
-15 -16 -25 -41 -6 -71 -1 -80 14 -8 14 -32 29 -54 34 -22 6 30 11 115 13 157
2 188 21 131 78 -35 35 -84 30 -223 -24 -341 -131 -351 -132 -1428 -137 -542
-3 -987 1 -990 8 -3 8 -266 16 -585 19 -541 4 -585 7 -650 45 -43 25 -126 46
-217 54 -107 9 -153 22 -166 46 -38 66 -62 35 -48 -60z m4311 -157 c0 -12
-127 -22 -330 -25 -237 -4 -330 0 -330 17 0 13 20 19 50 13 28 -5 56 -2 62 8
15 25 548 12 548 -13z m-3080 -110 c0 -25 -459 -26 -497 -2 -17 10 79 18 235
19 160 2 262 -5 262 -17z m905 -495 c-80 -4 -210 -4 -290 0 -80 4 -14 7 145 7
160 0 225 -3 145 -7z m-1663 -120 c0 -8 4 -31 8 -50 10 -51 -24 -63 -49 -17
-12 22 -21 49 -21 61 0 24 59 30 62 6z m-1321 -320 c-13 -57 -32 -109 -42
-116 -11 -6 -10 11 1 41 11 29 20 100 20 158 0 58 7 112 15 121 26 26 30 -95
6 -204z m299 73 c0 -13 18 -18 40 -12 22 6 35 2 29 -8 -6 -10 -2 -18 10 -18
11 0 21 -14 21 -31 0 -18 23 -61 50 -97 28 -36 50 -76 50 -89 0 -13 10 -23 21
-23 12 0 16 9 9 20 -7 11 -3 20 9 20 11 0 21 -13 21 -30 0 -16 -8 -30 -18 -30
-41 0 -82 26 -82 52 0 15 -10 28 -23 28 -13 0 -18 5 -12 12 15 15 -47 88 -74
88 -12 0 -7 -9 9 -20 25 -16 24 -19 -7 -20 -20 0 -32 -11 -27 -25 5 -14 18
-23 29 -21 11 2 36 -27 56 -64 35 -64 43 -68 116 -59 105 13 147 -3 161 -62 7
-27 22 -49 32 -49 11 0 20 -13 20 -30 0 -16 14 -30 30 -30 17 0 30 -9 30 -20
0 -11 -8 -20 -18 -20 -10 0 -35 -6 -55 -13 -21 -7 -30 -6 -22 3 17 19 -76 110
-114 110 -15 0 -25 15 -24 33 2 18 -9 37 -23 42 -14 5 -23 -2 -20 -15 10 -43
-59 -38 -101 7 -74 81 -187 309 -173 352 13 43 50 57 50 19z m-163 -135 c3
-26 -1 -43 -11 -37 -10 6 -29 -15 -43 -48 -15 -32 -35 -53 -45 -47 -10 6 -18
2 -18 -10 0 -11 10 -21 22 -21 12 0 17 -15 10 -32 -9 -25 -4 -29 23 -19 27 10
30 8 12 -10 -13 -13 -19 -39 -14 -56 9 -26 7 -27 -9 -5 -20 28 -64 15 -64 -20
0 -11 9 -15 20 -8 11 7 20 -2 20 -20 0 -25 -8 -27 -40 -10 -44 24 -81 11 -78
-26 1 -17 4 -17 11 1 13 33 40 32 53 -2 6 -16 -4 -25 -28 -23 -56 4 -65 23
-33 69 16 22 35 35 42 27 8 -7 12 4 9 25 -10 71 89 331 123 324 17 -3 34 -27
38 -52z m178 -109 c81 -156 233 -314 269 -278 28 28 64 32 47 6 -6 -10 0 -24
14 -30 14 -6 3 -6 -25 1 -50 12 -50 12 -12 -30 21 -24 32 -49 25 -57 -7 -7
-25 2 -38 20 -19 25 -32 28 -55 12 -25 -18 -25 -20 5 -11 23 8 35 1 35 -18 0
-16 -7 -29 -15 -29 -8 0 -31 -28 -50 -61 -19 -34 -44 -56 -55 -49 -11 7 -20 2
-20 -11 0 -13 -14 -18 -31 -11 -19 7 -26 3 -18 -10 7 -11 26 -16 41 -10 32 12
33 9 16 -37 -12 -30 -17 -29 -55 3 -43 36 -43 36 -8 -6 38 -45 49 -197 15
-218 -11 -7 -20 0 -20 15 0 14 -18 26 -40 26 -22 0 -40 -7 -40 -16 0 -10 -9
-12 -20 -5 -12 8 -10 22 5 39 18 19 29 21 42 4 10 -15 13 -13 7 7 -4 17 -24
27 -43 24 -21 -4 -30 2 -22 15 22 35 0 24 -40 -20 -26 -29 -28 -37 -7 -29 30
11 37 -6 44 -118 2 -34 -7 -60 -21 -64 -15 -3 -17 0 -5 5 27 14 26 87 -1 87
-36 0 -82 -56 -58 -70 11 -8 15 -30 9 -51 -8 -23 3 -52 29 -78 58 -58 51 -72
-12 -22 -54 42 -119 56 -97 21 7 -12 21 -15 32 -9 10 6 24 -2 30 -20 7 -17 20
-26 29 -21 9 6 22 1 29 -10 7 -11 21 -15 31 -9 11 6 20 -5 21 -25 1 -20 5 -61
10 -91 5 -30 0 -55 -11 -55 -12 0 -21 20 -21 44 0 43 -1 43 -32 5 -26 -32 -29
-33 -21 -5 6 19 1 41 -11 48 -14 9 -16 5 -6 -12 12 -19 7 -23 -16 -14 -18 7
-38 4 -44 -6 -6 -10 -27 -13 -46 -7 -26 8 -27 6 -7 -8 21 -15 18 -22 -12 -30
-22 -5 -44 -30 -51 -54 -9 -37 -4 -43 27 -35 22 6 39 2 39 -8 0 -10 -13 -18
-28 -18 -16 0 -45 -5 -65 -12 -31 -10 -32 -8 -7 10 24 17 24 21 3 22 -24 0
-24 5 0 33 25 31 23 31 -21 8 -45 -24 -47 -23 -38 35 6 44 1 57 -18 50 -14 -6
-26 0 -26 12 0 12 20 22 45 22 36 1 39 4 15 20 -43 28 -56 25 -69 -18 -11 -34
-111 -53 -111 -20 0 19 73 98 90 98 9 0 0 -18 -20 -40 -42 -46 -22 -55 23 -10
16 17 48 30 71 30 32 0 38 9 29 44 -6 24 0 57 13 74 19 23 19 27 -1 15 -30
-19 -31 -12 -4 61 l20 56 -49 -60 c-27 -33 -40 -63 -30 -67 39 -14 14 -45 -72
-85 -54 -26 -85 -51 -77 -65 8 -13 6 -16 -3 -8 -18 16 -70 -19 -70 -47 0 -9
15 -11 33 -4 22 8 29 5 20 -9 -21 -34 -91 -23 -77 12 7 19 2 24 -12 15 -16 -9
-19 -3 -11 19 10 26 16 27 29 6 14 -21 17 -21 18 -2 0 14 23 36 50 49 28 12
50 30 50 40 0 9 -26 3 -59 -13 -43 -23 -63 -25 -73 -8 -8 13 -6 18 4 12 37
-23 122 62 88 86 -24 17 -21 19 15 9 37 -10 42 -6 31 24 -13 34 -12 34 20 2
39 -38 44 -58 12 -51 -13 3 -27 -6 -32 -18 -22 -60 71 4 95 65 26 66 73 124
104 127 8 0 47 1 86 1 39 0 66 8 60 18 -6 10 3 23 19 29 45 17 36 51 -10 39
-22 -6 -40 -25 -40 -42 0 -26 -6 -24 -30 7 -25 33 -28 33 -18 4 9 -24 2 -35
-21 -35 -18 0 -28 9 -21 20 7 11 1 20 -14 21 -17 0 -14 10 10 27 34 26 34 28
0 42 -25 10 -28 18 -11 24 14 5 19 19 12 31 -8 13 5 17 39 11 28 -6 63 -1 78
9 19 14 17 16 -9 8 -19 -7 -35 -3 -35 7 0 10 -16 13 -35 6 -31 -11 -31 -8 3
31 21 23 48 43 60 43 33 0 73 97 47 113 -12 7 -15 4 -8 -8 17 -27 -108 -149
-140 -137 -15 6 -21 -1 -14 -19 7 -19 -2 -30 -26 -31 -20 0 -26 -6 -12 -11 18
-8 14 -29 -14 -85 -35 -69 -35 -76 -4 -97 28 -20 25 -22 -22 -20 -66 4 -66 6
-16 99 29 53 33 76 15 83 -17 7 -14 19 11 39 37 30 49 65 15 44 -11 -7 -20 -3
-20 9 0 11 16 21 35 21 27 1 29 4 8 18 -18 11 -20 21 -6 30 12 7 16 26 10 43
-6 16 -1 29 12 29 13 0 18 -9 11 -20 -7 -11 -3 -20 9 -20 26 0 26 20 2 59 -23
36 17 68 50 40 15 -12 22 -8 22 11 0 17 -12 30 -26 30 -37 0 -34 53 3 67 17 7
24 25 18 42 -9 21 0 31 25 31 31 -1 32 -4 7 -20 -25 -16 -22 -19 12 -20 34 0
42 12 40 60 -2 55 -32 90 -32 37 0 -13 -4 -20 -9 -14 -15 15 12 97 33 97 10 0
13 -9 6 -20 -7 -11 3 -20 22 -20 32 0 32 3 -2 40 -22 25 -27 40 -12 40 13 0
18 10 11 21 -7 12 6 10 29 -4 23 -15 42 -35 42 -45 0 -9 16 -31 35 -46 33 -28
33 -29 0 -18 -34 10 -50 -16 -20 -33 8 -5 4 -6 -9 -3 -37 9 -50 -26 -16 -39
34 -13 41 -53 9 -53 -12 0 -16 9 -9 20 7 11 -1 14 -19 8 -17 -7 -26 -19 -21
-28 16 -25 78 -35 120 -18 32 12 33 15 7 17 -51 2 -56 45 -13 106 32 46 34 55
8 55 -45 0 -76 68 -46 99 19 21 16 22 -19 4 -36 -19 -44 -16 -53 19 -8 31 -5
35 15 19 20 -17 24 -10 20 29 -9 81 17 58 86 -76z m-406 -103 c-45 -119 -59
-106 -17 17 18 52 37 90 42 84 6 -5 -6 -51 -25 -101z m1923 4 c196 -214 -32
-498 -423 -527 -200 -15 -314 65 -343 240 -14 88 45 260 84 245 14 -6 63 -21
108 -35 73 -22 82 -31 82 -86 0 -123 108 -240 250 -272 100 -23 93 25 -10 65
-133 53 -193 300 -107 440 34 55 290 5 359 -70z m-793 -200 c0 -66 -5 -77 -20
-51 -18 30 -7 136 13 136 4 0 8 -38 7 -85z m-1327 -208 c-102 -200 -120 -251
-222 -624 -41 -151 -70 -301 -67 -345 7 -94 -29 -142 -60 -83 -12 22 -18 44
-13 48 5 5 41 139 81 298 111 446 187 645 336 875 56 87 22 -18 -55 -169z
m117 51 c-5 -8 5 -29 22 -46 18 -18 23 -32 12 -32 -12 0 -27 10 -34 21 -7 12
-26 17 -41 11 -15 -6 -28 -2 -28 9 0 10 10 19 21 19 12 0 17 8 11 17 -6 9 2
16 18 16 16 0 24 -6 19 -15z m-56 -108 c22 -22 23 -30 4 -30 -27 0 -117 -94
-117 -123 0 -34 31 -15 70 43 22 33 48 60 57 60 10 0 7 -13 -7 -30 -20 -24
-20 -30 2 -30 19 0 20 -6 4 -22 -28 -28 -9 -98 26 -98 16 0 28 10 28 21 0 12
-10 15 -22 8 -14 -9 -19 0 -15 24 8 40 97 65 97 27 0 -12 -8 -17 -17 -12 -10
6 -18 -12 -18 -40 0 -28 -15 -66 -32 -84 -23 -23 -33 -25 -33 -7 0 14 -9 20
-20 13 -11 -7 -15 0 -9 16 6 16 -2 27 -21 27 -18 0 -27 -11 -21 -27 8 -22 2
-22 -33 -4 -35 19 -47 17 -69 -13 -15 -20 -27 -29 -27 -19 0 10 20 39 45 65
34 37 37 44 9 34 -30 -12 -32 -7 -16 34 37 96 76 156 92 142 9 -8 11 1 4 20
-16 43 -1 45 39 5z m737 -172 c11 -57 6 -75 -19 -85 -43 -16 -59 29 -42 120
16 84 42 69 61 -35z m-641 -240 c-6 -10 -21 -18 -34 -18 -12 0 -16 5 -10 12
21 20 -33 64 -65 54 -25 -8 -26 -7 -2 10 33 23 129 -28 111 -58z m440 -45
c-11 -61 -17 -68 -41 -44 -31 31 -38 59 -10 42 10 -6 23 2 29 18 8 20 1 26
-23 17 -26 -9 -24 -4 6 20 51 39 55 34 39 -53z m-705 -99 c-16 -18 -16 -34 -3
-47 14 -14 11 -20 -9 -20 -16 0 -28 9 -26 21 2 12 -7 20 -21 17 -43 -9 -27 30
17 41 28 8 37 20 27 38 -12 20 -9 21 11 2 20 -18 21 -31 4 -52z m772 -58 c39
-39 31 -140 -11 -132 -24 4 -37 29 -41 81 -7 77 10 93 52 51z m-847 -59 c-8
-68 -22 -91 -41 -71 -7 7 -6 28 3 48 14 33 19 48 27 76 9 38 18 -2 11 -53z
m123 -112 c51 -34 67 -97 36 -142 -55 -78 -208 -35 -208 59 0 74 108 126 172
83z m260 -36 c-5 -14 1 -30 14 -34 18 -6 17 -17 -3 -41 -15 -18 -22 -44 -16
-58 6 -16 10 -11 11 11 1 24 12 33 31 26 19 -7 25 -1 18 17 -7 19 9 33 46 42
31 7 68 22 82 33 18 14 25 11 25 -11 0 -17 -8 -34 -19 -37 -10 -4 -5 -29 11
-57 23 -38 27 -41 19 -9 -8 30 -1 41 29 43 38 3 38 1 9 -57 -25 -47 -37 -55
-58 -38 -18 15 -30 16 -34 2 -4 -11 -74 -24 -157 -30 -82 -5 -139 -4 -125 2
41 17 29 40 -20 39 -25 -1 -52 -13 -61 -27 -9 -14 -36 -25 -60 -24 -41 1 -41
2 10 30 57 31 88 94 64 132 -9 15 -5 18 12 7 16 -10 35 -4 48 13 51 68 148 89
124 26z"/>
<path d="M840 1390 c-27 -16 -41 -30 -30 -31 11 -1 40 -6 65 -10 25 -5 45 1
45 12 0 12 -9 16 -20 9 -11 -7 -20 -4 -20 7 0 11 11 24 25 30 14 5 16 10 5 11
-11 0 -42 -12 -70 -28z"/>
<path d="M1053 1230 c-17 -16 -44 -30 -61 -30 -20 0 -26 -11 -19 -32 9 -23 17
-25 28 -7 8 13 25 18 37 10 12 -7 22 -4 22 6 0 11 14 34 31 52 18 17 23 31 12
31 -11 0 -34 -13 -50 -30z"/>
<path d="M1631 2827 c-17 -88 -119 -281 -176 -329 -78 -67 -128 -87 -64 -26
139 132 242 375 166 394 -25 7 -46 11 -47 8 -69 -215 -103 -241 -215 -161 -83
59 -235 88 -235 45 0 -16 44 -48 97 -73 216 -99 247 -182 98 -257 -58 -29
-123 -68 -145 -88 -22 -19 -83 -40 -136 -47 -53 -7 -112 -21 -130 -32 -34 -20
-2 -23 289 -32 65 -2 96 -17 153 -73 76 -77 93 -79 284 -36 194 43 268 141
157 206 -15 9 -27 27 -27 40 0 15 9 13 22 -6 18 -25 20 -24 10 7 -7 20 -12 41
-12 46 0 5 -11 4 -25 -3 -14 -7 -9 0 10 15 35 30 28 55 -16 55 -13 0 -29 -18
-35 -40 -6 -22 -22 -40 -37 -40 -22 1 -23 3 0 18 14 9 26 22 25 29 -1 7 -1 20
0 28 1 8 1 35 -1 60 -2 25 6 45 19 45 12 0 17 9 10 20 -7 12 -3 19 10 15 35
-8 100 87 112 166 11 68 9 70 -69 91 l-80 22 -12 -67z m60 -511 c64 -29 62
-47 -8 -81 -55 -28 -57 -27 -55 23 2 43 -7 52 -48 52 -40 0 -50 -10 -50 -50 0
-77 -183 -161 -220 -101 -17 28 41 132 95 171 49 36 193 28 286 -14z"/>
<path d="M2035 2684 c-31 -4 -50 -15 -44 -25 16 -26 84 -24 100 2 17 28 10 31
-56 23z"/>
</g>
</svg>
