<?xml version="1.0" standalone="no"?>
<!DOCTYPE svg PUBLIC "-//W3C//DTD SVG 20010904//EN"
 "http://www.w3.org/TR/2001/REC-SVG-20010904/DTD/svg10.dtd">
<svg version="1.0" xmlns="http://www.w3.org/2000/svg"
 width="250.000000pt" height="300.000000pt" viewBox="0 0 250.000000 300.000000"
 preserveAspectRatio="xMidYMid meet">
<metadata>
Created by potrace 1.10, written by Peter Selinger 2001-2011
</metadata>
<g transform="translate(0.000000,300.000000) scale(0.050000,-0.050000)"
fill="#696e6d" stroke="none">
<path d="M3359 5834 c-27 -14 -80 -72 -118 -129 -66 -101 -73 -105 -160 -105
-50 0 -177 -22 -282 -49 l-192 -49 -238 69 c-261 75 -408 86 -539 38 -44 -15
-125 -29 -180 -29 -293 -2 -649 -201 -763 -426 -29 -57 -69 -125 -89 -151 -48
-61 -207 -552 -236 -728 -12 -74 -31 -191 -42 -260 -11 -69 -34 -296 -52 -504
-32 -386 -37 -420 -68 -401 -32 20 -35 -20 -18 -218 l17 -198 -60 -68 c-64
-73 -63 -68 -67 -521 -1 -91 -9 -165 -18 -165 -9 0 -14 -23 -10 -51 4 -35 -9
-62 -41 -86 l-46 -36 69 -115 c39 -64 76 -106 83 -94 7 12 22 22 33 22 11 0
16 -7 10 -16 -5 -9 3 -54 19 -100 16 -46 39 -171 51 -279 32 -271 97 -385 280
-492 51 -29 108 -71 128 -93 20 -22 48 -40 64 -40 15 0 105 -37 201 -82 326
-154 713 -276 1005 -318 650 -94 1537 -131 1847 -78 85 15 124 14 144 -3 22
-18 47 -16 109 9 45 17 108 32 140 32 42 0 60 10 60 33 0 18 26 61 58 95 423
451 433 479 395 1142 -22 403 -37 737 -34 765 2 14 4 59 3 100 0 41 0 98 0
125 0 156 -28 306 -64 342 -30 30 -40 78 -49 233 -7 107 -24 249 -40 315 -41
177 -68 517 -70 890 -2 437 -41 757 -138 1117 -24 90 -150 263 -191 263 -15 0
-33 18 -40 39 -39 124 -339 247 -613 253 -95 2 -181 8 -191 14 -10 7 -40 1
-67 -12z m138 -139 c-32 -36 -89 -96 -125 -135 -36 -38 -99 -119 -141 -180
l-75 -110 112 120 c61 66 111 107 112 92 0 -38 22 -15 28 31 19 126 338 266
422 184 13 -13 8 -15 -15 -6 -28 11 -35 2 -35 -44 0 -31 7 -47 15 -35 40 59
165 86 223 49 36 -22 -19 -119 -65 -114 -38 4 -154 -148 -327 -424 -26 -42
-32 -43 -63 -16 -56 50 -348 157 -436 160 -79 3 -82 5 -52 38 25 28 36 30 48
10 12 -19 16 -17 17 7 0 38 84 141 254 313 127 128 210 177 103 60z m639 -128
c30 -8 42 -23 35 -41 -8 -22 0 -25 34 -16 42 13 42 11 -7 -33 -171 -151 -294
-313 -315 -413 -12 -57 -68 -204 -125 -328 -221 -488 -339 -1007 -342 -1506
-2 -315 32 -464 138 -606 l49 -65 69 60 c73 64 85 68 136 49 50 -19 38 -64
-27 -97 -89 -47 -90 -67 -1 -91 45 -12 76 -30 69 -41 -6 -10 -2 -19 10 -19 11
0 21 -9 21 -20 0 -79 -272 46 -402 185 -216 233 -230 778 -40 1585 39 164 55
218 101 340 9 22 27 76 41 120 14 44 59 152 99 240 62 134 97 231 173 486 5
19 17 20 46 5 56 -30 70 -26 33 10 -17 18 -31 42 -31 55 1 17 5 17 17 -1 11
-19 28 -12 64 27 62 66 146 115 99 58 -28 -34 -27 -35 16 -12 25 13 40 33 33
43 -20 33 -55 21 -126 -46 -65 -62 -67 -63 -33 -10 53 84 90 102 166 82z
m-960 -104 c-49 -71 -519 -547 -529 -537 -5 5 -60 -21 -122 -58 -62 -37 -127
-68 -144 -68 -27 -1 -27 -3 -1 -22 24 -17 21 -20 -15 -12 -25 6 -45 1 -45 -9
0 -12 -24 -15 -56 -8 -46 10 -56 5 -59 -30 -2 -33 5 -39 31 -28 19 8 48 16 64
19 74 11 294 109 322 143 12 13 36 20 54 14 29 -9 30 -8 4 11 -25 18 -22 21
15 22 25 0 45 9 45 19 0 25 308 341 332 341 38 0 440 -164 481 -196 l43 -34
-90 -136 c-87 -130 -89 -137 -53 -164 43 -33 75 -39 57 -10 -7 11 -2 20 11 20
13 0 18 14 11 33 -7 17 -2 45 10 60 13 15 27 57 31 92 4 36 18 74 32 85 14 11
42 54 63 95 21 41 46 75 55 75 8 0 29 43 45 95 17 55 30 76 31 50 2 -71 -82
-305 -110 -305 -15 0 -21 -15 -16 -37 6 -20 -4 -51 -20 -68 -17 -16 -26 -36
-19 -43 7 -6 2 -12 -12 -12 -13 0 -20 -8 -14 -17 6 -10 -7 -54 -29 -99 -21
-45 -39 -91 -39 -102 0 -46 -45 -40 -127 16 -48 33 -127 75 -175 94 -49 18
-137 56 -197 83 -60 27 -145 53 -190 58 -79 8 -45 -26 45 -44 47 -10 80 -50
70 -86 -10 -42 167 -130 302 -150 70 -10 74 -9 40 17 -57 43 -1 36 102 -12 50
-23 90 -45 90 -48 0 -3 -22 -73 -50 -157 -27 -84 -67 -249 -89 -368 -80 -434
-89 -468 -117 -424 -13 21 -16 39 -7 39 10 0 23 56 29 125 13 136 31 250 45
292 15 44 -16 363 -34 351 -9 -6 -17 -45 -17 -88 0 -43 -7 -82 -16 -87 -8 -6
-18 -130 -21 -276 -5 -277 -28 -371 -87 -361 -18 3 -36 -6 -39 -20 -4 -15 -58
-74 -121 -132 l-113 -107 -180 -9 c-171 -8 -253 13 -162 42 24 8 37 25 32 40
-6 15 2 32 18 38 45 17 34 47 -16 44 -54 -2 -82 -35 -49 -56 17 -11 17 -15 1
-16 -12 0 -33 13 -47 29 -21 26 -28 26 -53 1 -15 -15 -40 -24 -56 -18 -15 6
-33 1 -40 -10 -8 -13 -1 -17 18 -10 17 7 31 3 31 -8 0 -11 -25 -29 -55 -39
-75 -26 -85 -27 -87 -10 -1 8 -11 26 -22 40 -15 18 -14 25 3 25 13 0 17 10 10
22 -8 13 -19 15 -26 4 -7 -11 -40 -18 -73 -16 -33 1 -73 -4 -90 -11 -83 -37
-199 -40 -188 -4 10 32 9 32 -10 2 -18 -28 -35 -30 -107 -13 -134 32 -175 34
-176 9 0 -13 -9 -7 -21 12 -27 46 -4 85 32 55 15 -12 78 -19 143 -16 l117 6
20 117 c11 64 27 115 35 113 8 -1 43 -11 78 -21 35 -10 154 -23 265 -29 209
-12 584 -42 767 -62 59 -6 105 -3 105 8 0 10 -137 29 -305 42 -356 29 -839 77
-926 94 -59 11 -60 9 -87 -111 -30 -132 -32 -134 -189 -108 -77 13 -77 13 -65
90 12 75 -12 107 -35 47 -7 -16 -26 -30 -42 -30 -17 0 -31 14 -31 30 0 17 -13
30 -30 30 -39 0 -38 -9 4 -51 34 -34 47 -67 52 -132 2 -19 15 -29 33 -23 28 8
28 7 1 -11 -35 -22 -200 12 -225 47 -9 13 -14 12 -15 -3 0 -12 -16 -21 -35
-20 -21 2 -33 -9 -29 -27 3 -17 -12 -8 -33 19 -22 27 -34 63 -28 80 8 23 3 21
-18 -5 -27 -34 -109 -30 -88 5 5 8 -31 16 -81 18 -57 2 -86 -4 -78 -17 7 -11
3 -20 -9 -20 -12 0 -31 23 -41 50 -11 28 -30 48 -44 45 -13 -3 -26 9 -27 25
-7 71 -36 120 -70 120 -20 0 -43 10 -51 23 -10 17 12 20 84 11 54 -7 170 -22
258 -33 321 -40 381 -46 442 -43 35 2 86 -6 115 -17 45 -17 95 3 70 29 -4 4
-187 25 -407 48 -457 47 -544 61 -509 83 27 16 90 12 144 -11 26 -10 32 -7 25
14 -6 15 -36 27 -66 26 -50 -1 -83 20 -84 55 0 8 22 15 49 15 27 0 55 10 62
21 7 12 1 20 -14 18 -67 -9 -108 1 -78 20 24 15 24 23 1 51 -24 29 -23 33 9
27 20 -4 41 4 46 18 4 14 -8 26 -28 27 -25 1 -28 5 -10 12 15 6 49 -14 75 -45
27 -30 48 -46 48 -34 0 12 -24 51 -54 86 -47 56 -48 61 -10 37 24 -15 44 -35
44 -44 0 -9 8 -12 17 -6 18 11 12 121 -8 154 -6 10 -37 18 -69 18 -62 0 -106
39 -46 41 170 6 286 46 211 73 -33 12 -33 66 0 66 18 0 24 36 22 121 -3 114 0
122 50 141 29 11 88 38 130 60 54 28 96 35 145 26 46 -8 68 -5 68 11 0 44
-228 19 -371 -42 -169 -72 -173 -72 -82 14 41 39 69 79 63 90 -7 10 11 19 39
19 40 0 51 10 49 45 0 25 -6 34 -11 20 -6 -14 -20 -25 -32 -25 -12 0 -16 6 -9
13 8 7 5 24 -6 37 -21 26 184 150 248 150 17 0 43 18 57 40 44 71 55 44 55
-133 0 -143 7 -184 45 -244 56 -91 60 -120 24 -171 -42 -59 -35 -84 11 -42 22
20 40 53 40 73 0 46 27 47 70 5 18 -18 55 -33 82 -33 37 0 47 -8 39 -30 -10
-25 -7 -26 19 -5 37 31 98 -10 81 -54 -6 -17 -2 -23 12 -14 16 10 20 -3 13
-39 -7 -34 1 -61 22 -77 26 -19 28 -19 9 1 -27 31 47 183 89 183 16 0 20 -10
11 -25 -11 -19 -8 -20 14 -3 16 13 43 28 59 35 17 7 -31 10 -105 7 -74 -3
-135 0 -135 7 0 7 -36 24 -79 39 -44 14 -75 34 -69 43 5 9 -5 11 -24 3 -23 -9
-30 -5 -20 10 9 15 4 20 -13 13 -43 -16 -152 108 -115 132 17 10 39 18 50 17
11 -1 9 -6 -5 -11 -63 -26 75 -116 157 -103 44 6 42 10 -27 44 -77 38 -83 50
-62 127 17 64 31 57 85 -46 68 -127 98 -139 342 -137 420 3 595 85 990 465
213 204 327 281 246 166z m-1618 -51 c-58 -99 -38 -110 31 -17 31 41 50 57 43
35 -10 -29 1 -23 37 20 l51 60 -48 -90 c-26 -49 -63 -135 -83 -190 -48 -134
-64 -148 -64 -54 0 44 -14 108 -32 145 -44 88 -43 94 31 139 82 49 87 42 34
-48z m1394 47 l55 -21 -56 -29 c-68 -36 -189 -36 -321 0 l-100 26 158 1 c86 1
167 11 179 23 26 26 19 25 85 0z m-757 -121 c63 -24 167 -58 230 -76 163 -47
176 -68 81 -128 -228 -144 -625 -182 -740 -70 -199 193 112 391 429 274z
m-755 -160 c0 -10 -11 -19 -25 -20 -20 -1 -20 -3 0 -11 14 -6 25 -29 25 -52 0
-23 -6 -36 -13 -29 -7 8 -25 4 -39 -8 -20 -16 -24 -9 -18 36 4 31 8 71 9 90 1
36 61 29 61 -6z m2859 -173 c23 -141 22 -339 -1 -302 -9 15 -28 12 -60 -10
-250 -175 -345 265 -102 467 95 79 130 46 163 -155z m-3410 -290 c-6 -25 -12
-65 -14 -90 -2 -25 -11 -45 -19 -45 -17 0 -5 129 14 161 21 34 31 21 19 -26z
m3503 -4 c-2 -17 -10 -36 -18 -44 -25 -24 -15 -42 29 -53 28 -8 38 -22 30 -43
-6 -17 -5 -31 4 -31 20 0 19 10 30 -340 10 -341 30 -606 51 -690 9 -33 13 -77
10 -97 -3 -20 8 -73 24 -117 35 -100 35 -122 3 -106 -14 6 -10 1 8 -13 30 -22
28 -28 -16 -63 -37 -29 -56 -33 -72 -17 -39 39 -63 25 -27 -15 30 -33 31 -38
2 -49 -18 -7 -27 -5 -21 5 6 10 -22 47 -62 82 -95 83 -63 132 37 57 95 -72
125 -88 107 -59 -18 30 -171 142 -193 142 -16 0 -49 -80 -42 -105 6 -23 -22
-17 -65 16 -66 50 -84 31 -21 -23 43 -36 46 -42 11 -20 -63 41 -93 41 -61 2
22 -26 20 -29 -7 -18 -20 7 -33 2 -33 -13 0 -17 -12 -15 -37 8 -34 31 -40 31
-63 2 -23 -26 -17 -40 37 -89 60 -55 86 -96 43 -70 -11 7 -20 3 -20 -9 0 -14
-14 -13 -40 4 -22 13 -40 33 -40 44 0 10 11 8 24 -5 41 -41 64 -26 26 16 -57
63 -74 43 -94 -114 -1 -13 -15 -29 -31 -35 -15 -6 -22 -20 -15 -31 7 -11 -2
-20 -20 -20 -18 0 -27 -9 -19 -22 10 -16 3 -16 -27 0 -22 12 -85 18 -139 13
-118 -10 -106 -53 -118 423 -10 399 14 634 81 767 20 41 24 77 12 117 -14 50
-7 66 42 114 66 63 81 154 23 136 -33 -10 -33 -10 0 12 19 12 44 17 55 10 11
-7 20 -3 20 9 0 11 -13 21 -30 21 -16 0 -30 10 -30 22 0 12 14 17 30 11 17 -7
30 -3 30 8 0 10 -13 19 -30 19 -16 0 -29 16 -28 35 1 21 5 25 11 10 21 -52 52
-24 40 36 -9 43 -4 64 17 72 17 6 30 28 30 48 0 45 48 56 145 32 68 -16 72
-21 40 -44 -19 -14 -28 -32 -20 -41 8 -8 15 -4 15 9 0 13 9 23 20 23 11 0 20
-14 20 -32 0 -17 11 -27 25 -23 14 5 37 -10 51 -33 25 -40 26 -39 15 13 -12
55 16 78 36 30 6 -15 10 -11 11 10 2 37 19 43 70 23 18 -7 27 -20 21 -30 -6
-10 -2 -18 10 -18 11 0 21 22 21 49 0 26 14 62 31 80 39 39 47 39 41 2z
m-3532 -171 c0 -11 -14 -20 -31 -20 -17 0 -26 -8 -20 -18 9 -14 -30 -42 -58
-42 -33 0 11 73 49 83 28 7 52 13 55 15 3 1 5 -7 5 -18z m-174 -940 c9 -35 6
-38 -18 -19 -15 13 -28 40 -28 60 0 20 -9 42 -20 49 -11 7 -20 32 -20 55 0 47
64 -62 86 -145z m2556 -35 c21 -36 28 -87 23 -150 -13 -134 -36 -119 -31 20
l4 115 -24 -120 c-14 -67 -31 -110 -39 -97 -11 18 -30 18 -75 1 -83 -31 -75
-58 15 -53 140 9 136 13 136 -152 l0 -150 -300 12 c-592 23 -1414 96 -1476
130 -27 15 -35 12 -35 -16 -1 -22 -6 -27 -15 -12 -8 13 -87 33 -175 46 -88 13
-196 32 -240 41 -44 10 -104 23 -134 29 -50 10 -52 16 -35 76 24 83 24 135 0
135 -10 0 -22 -43 -25 -95 -7 -104 -6 -104 -151 -69 -68 16 -85 14 -85 -7 0
-17 12 -23 30 -16 17 6 30 1 30 -11 0 -12 23 -49 52 -81 62 -69 118 -62 99 14
-12 46 -10 47 19 17 31 -30 59 -40 95 -34 8 1 14 -5 13 -13 -8 -50 3 -69 29
-48 20 17 34 14 57 -12 46 -54 60 -105 25 -92 -16 6 -44 0 -62 -15 -27 -23
-31 -21 -24 13 6 26 21 37 47 32 33 -6 34 -2 10 26 -24 30 -29 30 -44 3 -19
-33 -161 -27 -173 8 -14 42 -45 18 -32 -25 l13 -45 -33 45 c-18 25 -53 44 -77
44 l-44 -2 45 -18 c62 -24 57 -29 -30 -29 -97 0 -109 85 -44 298 71 232 43
220 376 160 l187 -33 -14 -133 c-8 -72 -6 -125 3 -115 9 9 21 67 27 130 6 70
19 111 33 109 35 -7 359 -42 507 -56 72 -6 166 -15 210 -19 44 -4 193 -13 330
-20 321 -16 385 -26 367 -57 -11 -19 -8 -19 15 0 21 17 86 21 217 13 l186 -10
-14 54 c-14 59 104 209 165 209 19 0 25 14 18 40 -15 58 12 49 48 -15z m-2062
-499 c28 7 34 1 26 -23 -9 -26 -6 -28 13 -10 29 27 87 13 69 -16 -6 -10 -1
-32 13 -48 17 -20 17 -29 1 -29 -12 0 -22 10 -22 23 0 14 -15 9 -38 -11 -34
-31 -40 -31 -68 -3 -38 37 -74 40 -75 6 -1 -14 -10 -3 -21 25 -16 38 -13 54
11 72 17 12 32 35 33 50 2 15 7 11 12 -9 6 -24 22 -33 46 -27z m3187 -7 c28
-33 47 -72 41 -88 -6 -15 -1 -33 11 -40 12 -8 16 -24 8 -35 -8 -14 -4 -16 10
-8 13 8 19 22 14 31 -6 9 5 15 24 14 19 -2 34 9 35 24 0 45 70 85 100 57 21
-19 17 -29 -22 -50 -39 -21 -45 -33 -29 -63 15 -27 12 -43 -10 -62 -25 -20
-26 -29 -5 -42 20 -12 18 -16 -6 -17 -24 0 -30 -13 -23 -50 8 -40 19 -48 57
-41 27 4 48 0 48 -10 0 -11 16 -19 35 -20 48 -1 -151 -181 -255 -231 -54 -26
-80 -51 -80 -79 0 -23 -10 -51 -22 -63 -64 -64 3 -62 80 2 47 40 95 72 106 72
11 0 78 56 151 125 72 69 121 106 108 82 -12 -24 -49 -68 -83 -100 -33 -31
-60 -65 -60 -76 0 -10 31 12 70 49 l69 67 -24 -63 c-13 -35 -31 -64 -39 -64
-9 0 -16 -9 -16 -20 0 -11 11 -18 25 -15 15 3 27 -20 31 -56 6 -66 -58 -169
-106 -169 -16 0 -35 -12 -44 -27 -14 -25 -73 -60 -293 -177 -115 -61 -202 -56
-210 12 -3 32 4 64 17 72 18 11 17 25 -3 57 -36 57 -53 54 -63 -12 -5 -38 -9
-28 -11 31 -2 48 -11 102 -20 120 -10 19 -22 136 -28 260 l-10 227 66 32 c37
17 63 38 58 47 -14 22 16 36 88 42 93 7 86 81 -18 180 -45 42 -74 75 -65 73
33 -6 187 29 198 46 18 30 43 19 95 -44z m-2927 -24 c0 20 8 20 40 0 22 -13
40 -42 40 -64 0 -38 0 -38 31 0 18 22 26 28 19 14 -8 -16 -2 -21 18 -13 16 6
25 26 19 45 -9 28 -6 28 20 -3 16 -20 35 -36 41 -35 64 7 81 -1 47 -21 -43
-25 -46 -58 -4 -58 19 0 26 9 17 23 -10 16 -4 20 20 11 19 -8 30 -7 25 1 -5 9
2 37 16 64 l26 48 14 -45 c8 -24 5 -55 -6 -69 -16 -18 -10 -25 19 -28 31 -2
37 6 28 35 -11 33 -4 37 51 30 37 -4 76 4 91 19 15 15 45 23 66 17 51 -13 -5
-86 -66 -86 -22 0 -59 -19 -84 -42 -51 -48 -170 -66 -154 -24 12 31 -22 34
-75 6 -32 -17 -36 -15 -25 13 10 28 4 31 -42 19 -36 -9 -51 -6 -42 7 7 12 3
21 -9 21 -11 0 -21 -7 -21 -16 0 -8 -18 -15 -40 -15 -22 0 -40 6 -40 14 0 8
-16 15 -35 15 -83 3 -105 10 -105 35 0 15 -1 34 -1 42 -1 7 9 18 22 22 14 5
19 -1 11 -14 -8 -13 -8 -33 -1 -45 21 -34 50 24 37 72 -9 32 -7 34 10 10 15
-21 21 -22 22 -5z m-765 -85 l105 -33 0 -129 c0 -70 -2 -128 -5 -128 -20 1
-200 61 -229 77 -43 23 -42 267 1 253 13 -4 70 -22 128 -40z m1584 -45 c0 -14
-17 -41 -39 -60 -22 -18 -40 -44 -40 -56 0 -12 -14 -22 -31 -22 -21 0 -29 12
-22 36 5 21 -1 37 -14 37 -13 0 -10 9 7 20 20 13 22 19 5 20 -14 0 -25 9 -25
20 0 11 12 20 27 20 15 0 44 19 64 41 39 43 63 23 68 -56z m294 24 c2 -37 -10
-57 -45 -70 -26 -10 -48 -31 -48 -46 0 -44 -114 -81 -177 -57 -18 6 -20 14 -4
23 12 8 26 35 31 61 10 52 42 79 93 80 18 0 38 14 44 30 21 54 103 37 106 -21z
m612 -56 c-6 -46 -19 -94 -30 -108 -14 -17 -12 -25 8 -26 15 -1 5 -10 -22 -21
-26 -11 -60 -15 -75 -9 -14 5 -26 0 -26 -11 0 -12 -11 -17 -25 -12 -14 5 -23
19 -20 32 3 12 -5 22 -16 22 -12 0 -16 9 -9 20 7 11 2 20 -10 20 -14 0 -17
-16 -9 -43 11 -35 7 -41 -20 -30 -19 7 -47 13 -63 13 -15 0 -28 10 -28 22 0
12 13 17 29 11 17 -7 34 4 41 27 7 23 24 34 41 27 16 -6 29 -2 29 9 0 27 -48
19 -88 -14 -20 -17 -32 -19 -32 -5 0 11 15 29 33 40 46 25 19 84 -37 81 -34
-2 -37 -5 -11 -12 52 -13 43 -40 -19 -55 -42 -11 -48 -18 -25 -32 25 -16 25
-18 0 -19 -16 0 -49 -19 -74 -42 -47 -45 -147 -41 -147 5 0 11 14 16 30 10 17
-7 30 -4 30 5 0 26 -61 44 -103 31 -20 -6 -37 -2 -37 10 0 21 32 28 112 25 24
-1 63 24 90 57 l48 58 223 -1 223 -2 -11 -83z m99 20 c-3 -29 8 -79 25 -112
41 -78 40 -81 -24 -81 -55 0 -56 3 -62 128 -5 115 -2 128 31 123 26 -4 34 -20
30 -58z m-2314 -2 c151 -35 429 -82 650 -111 719 -91 999 -112 1451 -107 l282
3 38 -70 c77 -144 225 -257 359 -275 96 -12 126 -31 127 -77 0 -24 3 -62 6
-84 2 -22 3 -95 1 -162 l-4 -122 -215 -42 c-118 -24 -273 -48 -345 -54 -71 -6
-174 -17 -228 -23 -79 -9 -94 -6 -81 16 14 23 11 23 -16 0 -57 -46 -393 -10
-415 45 -17 42 -17 42 -19 1 -1 -39 -8 -41 -146 -26 -80 9 -198 20 -264 26
-65 6 -146 15 -180 20 -33 6 -92 15 -131 20 -129 18 -386 70 -397 81 -5 6 -9
62 -8 125 3 114 2 114 -17 36 -10 -44 -15 -91 -9 -105 19 -49 -120 -45 -249 7
-16 7 -43 15 -60 17 -16 2 -84 21 -150 41 -66 20 -124 38 -130 39 -182 42
-239 96 -229 214 4 41 -3 81 -14 88 -15 9 -19 -10 -14 -59 9 -74 -7 -89 -61
-55 -22 14 -23 31 -5 83 13 36 22 79 21 97 0 18 -15 -6 -31 -53 -31 -87 -55
-106 -73 -57 -10 24 40 232 54 232 26 0 92 -83 92 -115 0 -32 28 -49 145 -84
80 -25 185 -58 234 -73 48 -15 105 -28 125 -28 31 0 37 -19 40 -125 l4 -125 7
115 c8 129 6 128 165 84 61 -17 137 -35 170 -39 33 -5 105 -18 160 -29 98 -19
504 -69 740 -90 294 -27 583 -51 615 -51 24 0 35 16 35 50 0 37 -11 50 -40 50
-22 0 -40 -13 -40 -30 0 -20 -20 -30 -64 -30 -47 0 -58 6 -42 22 13 13 18 35
12 50 -6 17 3 28 22 28 18 0 32 14 32 30 0 17 17 30 38 30 28 0 36 11 28 38
-8 30 4 39 63 46 52 6 70 1 63 -17 -27 -68 -35 -167 -14 -167 12 0 22 14 22
31 0 17 9 26 19 20 27 -17 4 -74 -47 -117 -76 -65 203 -28 341 46 61 33 120
55 130 48 9 -6 42 9 72 34 30 24 40 39 22 33 -18 -7 -39 -7 -45 0 -20 20 -92
20 -92 0 0 -9 -9 -12 -19 -5 -11 6 -55 -12 -99 -41 -44 -29 -89 -47 -101 -40
-11 7 -21 4 -21 -8 0 -11 -9 -21 -20 -21 -11 0 -19 50 -18 115 2 63 7 99 12
80 5 -20 17 -30 28 -24 10 6 18 1 18 -12 0 -13 12 -19 28 -13 15 6 37 1 50
-12 16 -16 22 -15 22 3 0 14 7 21 16 16 9 -6 29 -2 45 7 22 14 12 25 -40 47
l-69 29 109 21 c92 17 78 18 -91 7 -322 -22 -683 -15 -719 15 -21 18 -31 19
-31 3 0 -15 -34 -19 -105 -12 -58 5 -150 14 -205 19 -55 4 -167 18 -250 29
-82 12 -181 25 -220 30 -38 4 -124 18 -190 29 -66 12 -151 27 -190 33 -172 27
-280 54 -280 71 0 10 -25 14 -55 8 -30 -5 -100 2 -155 17 l-100 27 0 133 c0
74 5 134 10 134 6 0 64 -13 130 -29z m1120 9 c-7 -11 -4 -20 6 -20 20 0 15
-96 -6 -117 -8 -7 -12 1 -10 17 9 59 0 84 -27 74 -35 -13 -87 19 -65 40 10 9
21 5 26 -9 7 -19 17 -17 39 5 34 34 55 40 37 10z m-1498 -235 c-6 -5 -2 -27
10 -48 13 -25 13 -49 -1 -72 -23 -41 -23 -42 -33 71 -5 57 0 82 14 73 11 -7
16 -18 10 -24z m123 -80 l68 -75 -33 70 -32 70 51 -56 c48 -52 91 -58 91 -12
0 11 -10 14 -23 6 -14 -9 -18 -5 -9 9 14 22 91 -9 88 -36 -5 -54 70 -100 95
-59 6 10 -3 18 -20 18 -17 0 -31 16 -31 35 0 20 7 26 15 15 8 -11 33 -23 54
-27 22 -4 52 -23 66 -44 29 -41 112 -45 96 -5 -5 14 -1 26 10 26 10 0 19 -10
19 -21 0 -12 9 -16 20 -9 11 7 14 -1 8 -19 -9 -22 0 -31 30 -31 23 0 42 8 42
18 0 10 14 23 31 30 18 6 26 3 19 -8 -7 -11 2 -20 20 -20 21 0 27 9 17 25 -11
19 -8 20 14 3 16 -13 43 -28 59 -35 21 -8 18 -11 -10 -10 -74 3 -90 -3 -90
-34 0 -24 -16 -28 -75 -19 -72 12 -73 11 -27 -16 55 -33 122 -23 122 18 0 16
8 28 18 28 10 0 14 -18 8 -40 -6 -23 -1 -40 13 -40 12 0 20 15 17 33 -3 18 7
37 22 43 18 6 22 1 12 -16 -11 -17 -8 -21 6 -12 13 8 43 4 66 -9 34 -18 47
-17 59 3 9 15 23 21 31 13 7 -7 31 -4 52 7 32 17 41 14 50 -20 6 -23 19 -37
28 -31 10 6 18 2 18 -10 0 -21 -27 -29 -75 -22 -14 1 -25 -6 -25 -16 0 -11 16
-17 35 -14 19 3 46 -3 59 -13 27 -21 66 -5 66 26 0 11 -10 14 -22 7 -14 -9
-19 0 -14 24 4 20 -6 49 -23 63 -26 22 -24 23 15 4 25 -12 39 -32 32 -44 -9
-14 4 -18 39 -12 29 6 53 3 53 -7 0 -9 9 -17 20 -17 11 0 18 10 15 22 -3 13 8
28 23 33 17 6 22 1 14 -12 -8 -13 -7 -24 2 -25 131 -13 138 -19 103 -76 -38
-60 -124 -58 -109 3 7 25 6 34 0 20 -6 -14 -20 -20 -29 -14 -10 6 -13 -2 -7
-18 10 -28 2 -29 -69 -15 -5 1 4 18 19 37 23 30 21 29 -17 -2 -30 -27 -59 -34
-96 -25 -31 8 -65 4 -81 -10 -16 -13 -35 -18 -42 -11 -7 7 -1 13 13 13 15 0
-4 21 -41 46 -79 53 -145 82 -129 55 19 -30 -22 -43 -76 -22 -29 11 -53 11
-57 1 -13 -37 -239 47 -229 85 10 39 9 40 -35 23 -18 -7 -27 -20 -21 -30 17
-27 -35 -20 -91 12 -58 33 -104 39 -60 8 25 -17 25 -20 1 -13 -16 4 -43 36
-60 71 -17 35 -38 63 -47 64 -8 0 -6 -18 6 -40 12 -22 17 -41 11 -42 -6 -2
-18 -4 -26 -6 -8 -1 -26 -10 -40 -18 -16 -10 -25 -6 -25 12 0 16 -16 41 -35
57 -32 24 -32 24 -8 -8 16 -19 19 -35 8 -35 -10 0 -43 45 -71 100 -62 119 -50
127 41 25z m1785 -256 c0 -16 -9 -29 -21 -29 -22 0 -63 -30 -115 -85 -18 -19
-53 -35 -78 -35 -26 0 -46 -10 -46 -21 0 -12 -14 -8 -31 10 -18 17 -45 31 -60
31 -16 0 -29 10 -29 21 0 12 17 16 39 9 50 -16 91 51 55 90 -13 14 -15 21 -4
15 12 -7 52 -5 90 3 125 27 200 23 200 -9z m300 -41 c0 -17 -10 -24 -21 -17
-13 8 -19 -2 -15 -24 3 -22 -4 -35 -20 -32 -15 4 -22 -3 -15 -14 25 -40 -74
-69 -102 -30 -37 50 -34 71 13 83 22 6 40 19 40 29 0 22 83 56 105 43 8 -4 15
-22 15 -38z m367 -10 c5 -29 2 -82 -7 -120 -14 -58 -16 -50 -18 60 -2 130 8
154 25 60z m-2685 -23 c2 -14 1 -32 0 -42 -2 -9 15 -10 37 -3 33 10 41 4 41
-31 0 -37 -5 -40 -30 -19 -38 31 -40 7 -2 -30 15 -16 33 -23 40 -16 6 7 13 0
14 -16 1 -15 4 -48 6 -73 5 -43 4 -44 -33 -10 -21 19 -52 35 -69 35 -22 0 -32
30 -39 115 -7 95 27 182 35 90z m2111 -46 c2 -39 -7 -49 -46 -49 -28 0 -44 -9
-37 -20 7 -11 -6 -20 -28 -20 -30 0 -37 9 -28 35 19 50 50 66 80 41 31 -25 33
-7 6 43 -16 30 -13 35 15 28 20 -5 36 -30 38 -58z m1403 -179 c14 -66 30 -160
35 -210 5 -49 13 -119 18 -155 5 -36 0 -65 -10 -65 -11 0 -19 -9 -19 -19 0
-11 14 -15 30 -8 25 9 30 -12 33 -116 5 -232 22 -389 60 -563 19 -83 17 -101
-14 -135 -51 -56 -66 -254 -21 -271 17 -7 32 -26 32 -43 0 -23 -6 -25 -28 -7
-50 42 -58 -100 -7 -144 33 -28 45 -30 58 -10 15 25 26 7 19 -32 -2 -9 12 -35
32 -57 48 -55 -20 -21 -89 44 l-44 42 -41 -41 c-49 -49 -110 -54 -92 -8 7 17
13 96 13 175 1 106 6 131 20 98 10 -25 27 -45 38 -45 30 0 26 55 -4 65 -19 6
-19 16 -3 37 54 68 48 118 -14 118 -61 0 -218 -90 -218 -125 0 -13 9 -13 25 0
73 59 118 51 111 -18 l-6 -67 -210 -3 c-115 -2 -224 -5 -240 -5 -24 -2 -29
-23 -23 -97 9 -126 38 -153 36 -34 l-2 95 224 2 225 2 0 -93 c0 -84 -6 -96
-55 -115 l-55 -22 54 7 c30 4 50 -1 44 -10 -6 -10 -57 -17 -114 -16 -57 1
-239 -3 -403 -9 -221 -7 -304 -4 -315 14 -12 18 -15 18 -16 -1 0 -16 -28 -24
-75 -24 -49 1 -63 7 -40 16 32 12 32 15 -5 38 -32 20 -40 20 -40 0 -1 -17 -7
-15 -20 5 -17 27 -19 27 -20 0 -1 -25 -6 -24 -27 4 -20 26 -32 29 -50 11 -17
-17 -23 -14 -23 16 -1 30 -5 33 -18 11 -24 -38 -82 -13 -82 36 0 63 -40 71
-42 8 -2 -31 -2 -63 0 -71 3 -20 -5 -19 -71 6 -45 17 -50 25 -26 40 21 13 11
18 -37 19 -37 0 -80 -14 -97 -30 -35 -35 -70 -22 -54 21 8 20 -2 29 -33 29
-40 0 -42 -4 -17 -35 24 -32 24 -32 -8 -8 -19 16 -36 43 -36 60 -1 30 -3 30
-24 0 -20 -29 -30 -30 -102 -5 -43 16 -84 24 -89 18 -6 -5 -24 2 -41 15 -25
21 -28 19 -18 -9 9 -24 5 -31 -16 -23 -16 6 -29 20 -29 30 0 11 -20 17 -44 13
-33 -4 -47 7 -56 44 l-12 50 -12 -45 c-13 -49 -26 -47 -174 22 -26 13 -65 20
-85 17 -20 -4 -37 1 -37 10 0 9 -6 36 -13 61 -12 44 -11 44 86 15 238 -74 775
-148 1153 -160 163 -5 305 -14 315 -21 10 -6 13 3 7 20 -7 17 -29 31 -50 31
-27 0 -38 14 -38 50 0 51 -27 67 -50 30 -7 -12 -23 -15 -36 -7 -13 7 -17 6 -9
-3 25 -28 -27 -70 -82 -68 -29 2 -38 7 -21 11 18 5 49 44 68 88 31 68 75 110
68 64 -7 -39 5 -48 32 -25 17 14 37 20 44 13 7 -7 28 1 47 18 32 29 38 28 65
-11 30 -44 24 -119 -13 -143 -14 -9 -12 -24 4 -43 19 -24 18 -36 -6 -60 -17
-17 -31 -39 -31 -48 0 -9 30 18 65 60 55 64 81 77 167 87 75 9 102 20 100 42
-3 39 157 129 248 139 38 5 90 21 114 37 25 16 76 29 115 29 39 0 71 10 71 22
0 14 27 19 70 14 l70 -8 -1 261 c-1 144 -10 279 -19 301 -14 33 -17 34 -19 6
0 -18 -11 -40 -24 -48 -17 -10 -20 9 -12 69 6 46 4 83 -5 83 -9 0 -12 18 -6
40 6 22 1 40 -12 40 -12 0 -22 18 -22 40 0 22 -7 40 -15 40 -8 0 -12 -184 -8
-410 l7 -410 -81 0 c-44 0 -104 -9 -133 -20 -29 -11 -102 -21 -162 -23 -64 -1
-108 -11 -109 -25 -1 -23 -155 -144 -211 -166 -28 -10 -30 -2 -18 56 18 85 11
79 125 111 93 27 91 27 -75 14 -175 -15 -704 -13 -810 2 -33 4 -99 9 -147 10
l-86 1 5 89 c3 49 0 96 -8 104 -44 43 -11 71 71 60 47 -6 132 -17 189 -24
l104 -12 13 -109 c18 -141 48 -140 41 3 l-6 110 251 -11 c155 -7 308 -2 399
12 146 24 205 8 172 -46 -6 -9 1 -16 16 -16 19 -1 18 -6 -4 -20 -16 -11 -20
-20 -7 -20 12 0 34 15 50 34 18 23 19 29 2 19 -18 -11 -25 1 -25 41 0 31 7 46
15 33 11 -16 22 -15 41 5 21 23 19 28 -15 28 -36 0 -41 13 -41 100 0 55 -9
100 -20 100 -11 0 -20 -44 -20 -98 0 -111 6 -107 -260 -134 -130 -12 -131 -12
-153 45 l-23 57 -2 -55 -2 -55 -175 0 c-214 1 -218 3 -222 142 l-4 111 267 -9
c198 -7 309 -1 428 24 88 17 240 33 338 33 98 1 196 10 218 19 69 29 -387 22
-560 -10 -272 -49 -270 -49 -261 80 4 60 0 115 -11 121 -18 12 -25 -48 -18
-166 l3 -65 -156 0 c-227 1 -239 6 -233 105 2 45 -4 96 -14 113 -13 22 -19 -4
-19 -85 l-1 -117 -145 13 c-256 23 -244 16 -251 147 -9 161 -39 174 -33 14 l4
-131 -62 10 c-35 6 -116 19 -182 31 -65 11 -119 20 -120 20 0 0 -2 59 -3 131
-2 131 -2 131 50 121 229 -43 697 -93 736 -78 18 7 27 5 21 -6 -9 -14 330 -22
510 -10 28 2 34 22 32 123 -1 67 4 127 11 134 7 6 12 -48 12 -122 0 -94 7
-133 25 -132 68 4 255 52 244 63 -7 7 -26 8 -43 2 -25 -10 -26 -6 -5 29 22 35
34 38 86 19 55 -19 57 -22 22 -37 -22 -10 42 -13 151 -7 251 14 274 17 293 38
10 10 8 13 -3 7 -26 -15 -14 140 12 156 10 6 18 31 18 55 -1 36 -4 38 -20 14
-16 -24 -19 -21 -20 16 0 26 9 41 20 34 11 -7 20 -3 20 9 0 11 -8 21 -17 21
-10 0 -18 49 -19 110 0 60 -7 139 -14 175 l-13 65 36 -50 c20 -27 49 -104 63
-170z m-3596 61 c0 -58 86 -151 140 -151 70 0 300 -107 300 -140 1 -24 4 -24
17 -4 14 21 40 19 135 -13 l118 -40 6 -122 c7 -137 7 -137 -133 -78 -102 42
-103 43 -103 130 0 51 -9 87 -23 87 -15 0 -18 -26 -9 -80 7 -44 9 -80 4 -80
-98 0 -314 154 -345 247 -21 62 -38 89 -43 68 -4 -20 14 -78 39 -130 66 -136
72 -194 17 -165 -23 12 -53 19 -66 15 -13 -5 3 -21 36 -37 54 -26 61 -39 66
-136 l6 -108 -46 31 c-25 17 -43 45 -40 63 5 29 -17 91 -81 226 -11 24 -15 84
-9 132 7 48 5 96 -5 106 -30 31 -35 245 -6 233 14 -5 25 -30 25 -54z m290 -84
c24 -24 30 -24 30 -2 0 15 -11 38 -24 51 -14 14 -16 24 -3 24 11 0 27 -6 34
-14 33 -33 151 -60 172 -39 14 14 33 8 61 -22 36 -39 37 -45 7 -61 -27 -15
-24 -21 20 -31 35 -9 48 -23 40 -44 -9 -23 -18 -25 -38 -8 -15 12 -37 17 -48
10 -12 -8 -21 1 -21 18 0 17 -9 31 -20 31 -11 0 -18 11 -15 23 5 25 -87 82
-104 65 -14 -15 44 -47 63 -35 9 5 16 0 16 -12 0 -26 -12 -26 -61 -1 -27 15
-50 14 -78 -4 -64 -40 -115 32 -102 144 2 19 11 13 22 -16 10 -26 32 -60 49
-77z m3982 20 c-6 -15 -3 -27 7 -27 24 0 3 -74 -29 -100 -21 -17 -26 -2 -23
77 1 73 9 96 29 88 14 -6 22 -23 16 -38z m-82 -101 c4 -58 -21 -106 -54 -106
-10 0 -12 11 -5 25 8 14 -14 -6 -49 -45 -62 -68 -78 -22 -18 53 12 16 5 28
-23 37 -41 13 -58 70 -21 70 11 0 20 -13 20 -30 0 -41 33 -38 83 8 25 24 35
49 26 65 -12 22 -9 22 12 3 14 -14 27 -50 29 -80z m-3517 23 c9 -24 18 -25 41
-6 24 20 26 16 15 -30 -8 -31 -5 -53 7 -53 11 0 18 15 17 33 -2 18 8 37 22 42
15 5 21 -3 14 -20 -9 -24 6 -27 78 -20 52 5 94 -1 102 -13 7 -12 4 -22 -8 -22
-11 0 -19 -11 -16 -25 3 -17 -17 -23 -65 -19 l-70 6 65 -41 c36 -22 65 -46 65
-52 0 -7 -30 6 -67 29 -37 23 -74 35 -83 27 -9 -8 -11 1 -4 20 7 19 6 34 -2
32 -56 -8 -89 11 -111 63 -14 34 -32 55 -39 47 -8 -8 -14 -3 -14 10 0 34 39
28 53 -8z m3635 -79 c-18 -28 -34 -91 -36 -140 -1 -49 -9 -90 -17 -90 -8 0
-16 -25 -17 -55 -2 -34 -6 -42 -12 -20 -7 29 -23 22 -92 -44 -98 -93 -93 -95
-112 48 l-16 113 92 63 c51 35 119 88 152 119 75 69 101 72 58 6z m-353 -81
c7 -94 4 -101 -51 -121 -95 -36 -179 26 -139 101 12 23 22 45 23 51 3 16 120
75 141 71 10 -2 22 -48 26 -102z m-2896 11 c12 0 19 11 16 24 -3 14 18 25 49
26 36 1 48 -5 37 -19 -10 -12 -18 -28 -19 -36 -3 -58 -35 -75 -73 -40 -21 20
-55 33 -74 29 -41 -8 -44 3 -10 56 24 39 24 39 39 0 8 -22 24 -40 35 -40z
m2420 -15 c-2 -41 0 -93 4 -115 5 -31 -6 -41 -46 -46 -42 -5 -53 1 -48 30 3
20 1 25 -3 11 -5 -14 -22 -25 -38 -25 -16 0 -34 -13 -41 -30 -18 -48 -49 -35
-39 17 10 58 55 133 79 133 9 0 35 23 57 50 55 70 77 62 75 -25z m-2147 1 c-6
-7 -25 0 -42 14 -19 15 -30 17 -30 4 0 -29 16 -36 108 -53 66 -12 76 -9 65 19
-7 19 -4 27 7 20 11 -7 17 -32 13 -56 -4 -24 -3 -33 1 -19 5 14 23 25 40 25
26 0 27 5 3 34 -23 29 -23 31 1 17 15 -9 59 -18 98 -19 39 -1 74 -13 79 -27 5
-16 -3 -21 -23 -13 -23 9 -32 0 -32 -29 0 -36 -9 -40 -58 -30 -32 6 -63 2 -71
-11 -20 -33 -92 -28 -79 5 17 45 -83 80 -129 45 -22 -16 -20 -23 10 -36 34
-14 34 -15 -3 -10 -25 3 -38 18 -34 40 3 20 -7 34 -25 34 -44 0 -62 -8 -56
-25 3 -8 -4 -15 -15 -15 -57 0 8 101 80 125 33 11 110 -22 92 -39z m1948 -25
c0 -22 -18 -49 -40 -61 -33 -18 -37 -16 -26 15 10 25 -4 20 -52 -20 -93 -79
-175 -69 -87 11 96 86 205 116 205 55z m-1155 -15 c-14 -5 -25 -22 -25 -38 0
-15 -13 -28 -30 -28 -16 0 -30 -9 -30 -20 0 -12 -20 -30 -45 -40 -25 -11 -61
-31 -79 -45 -27 -18 -40 -19 -58 -1 -30 30 -9 83 40 101 22 8 40 24 41 35 1
11 25 22 54 24 28 2 55 7 58 11 4 3 28 7 53 9 25 1 35 -2 21 -8z m914 -25
c-36 -60 -117 -149 -128 -139 -5 6 18 43 51 84 88 107 52 91 -61 -27 -105
-110 -120 -109 -106 6 8 64 19 78 72 93 101 30 194 21 172 -17z m-559 -28 c0
-13 10 -10 21 7 17 25 20 23 15 -10 -5 -29 -20 -38 -53 -33 -40 5 -45 0 -33
-38 10 -29 7 -40 -7 -31 -12 8 -40 -5 -62 -27 -40 -40 -102 -54 -127 -29 -7 7
1 26 17 42 16 16 25 36 20 44 -5 8 28 38 72 67 79 51 137 54 137 8z m220 24
c0 -12 -16 -36 -35 -51 -33 -28 -33 -29 0 -18 24 7 35 0 35 -24 0 -38 -76
-114 -95 -96 -6 7 -23 2 -37 -10 -26 -21 -68 -10 -68 18 0 8 23 39 51 69 28
30 41 55 29 55 -34 0 -2 40 47 60 59 24 73 24 73 -3z m-1848 -15 c32 -10 83
-24 113 -31 53 -11 55 -16 55 -140 l0 -128 -135 38 c-74 22 -135 39 -136 39 0
0 -2 54 -4 120 -3 130 2 135 107 102z m-624 -34 c18 -7 33 -27 34 -45 1 -20 5
-23 11 -8 7 17 35 12 104 -22 51 -25 148 -67 216 -93 l122 -47 12 -111 c14
-140 14 -140 -123 -74 -279 135 -354 192 -399 306 -41 105 -38 117 23 94z
m3759 -53 c30 -111 15 -207 -37 -235 -27 -15 -46 -30 -42 -35 5 -5 27 2 50 14
38 20 42 17 42 -36 0 -32 6 -86 12 -120 11 -55 6 -65 -42 -83 -31 -12 -51 -26
-44 -32 6 -6 29 -1 51 11 37 19 42 14 55 -54 19 -110 50 -153 39 -55 -5 44
-15 153 -23 242 l-13 162 77 72 c62 56 89 69 133 60 42 -8 55 -3 55 22 0 17 7
32 17 32 9 0 12 -29 8 -65 -6 -48 -3 -58 12 -36 12 17 28 23 37 14 9 -9 -1
-29 -22 -44 -30 -22 -33 -34 -15 -56 18 -21 17 -33 -7 -53 -16 -14 -30 -35
-30 -47 0 -13 9 -9 20 7 11 17 20 26 21 20 1 -5 5 -27 9 -49 8 -43 -13 -92
-64 -143 -69 -68 -93 187 -26 272 47 60 56 117 12 76 -15 -14 -24 -33 -19 -41
5 -8 0 -15 -12 -15 -11 0 -21 -13 -21 -29 0 -16 -28 -61 -62 -100 -34 -39 -53
-71 -43 -71 11 0 32 15 47 33 24 28 30 18 52 -85 l24 -118 -94 -91 c-52 -50
-124 -109 -161 -132 l-67 -42 50 -9 c39 -8 54 0 65 32 11 32 17 18 29 -58 18
-127 16 -128 -96 -70 -121 62 -118 59 -83 81 21 13 12 18 -36 19 -44 0 -65 10
-65 30 0 17 11 28 25 25 54 -11 2 697 -56 765 -22 26 -19 30 22 30 27 0 49 -7
49 -15 0 -8 29 -2 65 13 88 39 89 38 102 -13z m-2767 1 l140 -24 0 -134 0
-134 -85 19 c-238 53 -225 42 -232 176 -3 75 3 121 15 121 12 0 84 -11 162
-24z m-1000 -136 c0 -66 324 -237 632 -335 l168 -53 2 -81 c2 -45 1 -92 -1
-106 -1 -14 7 -25 18 -25 12 0 21 44 21 100 l0 99 65 -13 c36 -7 105 -23 154
-35 l88 -23 5 -124 c3 -68 3 -124 0 -124 -54 0 -409 106 -542 161 -33 14 -69
28 -80 31 -105 31 -177 69 -203 107 -21 29 -37 37 -46 23 -17 -28 -181 108
-181 150 0 15 -9 28 -20 28 -11 0 -20 14 -20 30 0 17 -13 30 -29 30 -16 0 -35
10 -42 21 -18 30 -22 197 -4 186 8 -5 15 -26 15 -47z m670 -78 l120 -37 6
-122 6 -122 -126 44 -126 45 -10 115 c-6 63 -6 115 0 115 5 0 64 -17 130 -38z
m233 -62 c11 0 13 -10 5 -23 -9 -14 -5 -18 8 -9 13 7 68 8 123 0 l101 -13 0
-125 0 -124 -144 34 c-79 18 -146 42 -148 52 -24 94 -19 229 6 219 16 -6 38
-11 49 -11z m-803 -177 c27 -29 47 -60 45 -68 -3 -9 16 -24 43 -34 26 -10 62
-39 80 -64 26 -37 32 -39 32 -11 0 43 32 45 48 3 6 -17 20 -26 31 -20 10 7 29
-6 41 -28 12 -23 35 -41 51 -41 16 0 27 -7 25 -15 -2 -8 3 -36 12 -62 9 -25
11 -50 6 -56 -29 -28 -334 176 -334 223 0 17 -24 57 -54 90 -29 34 -74 99 -99
145 -26 47 -31 64 -12 38 19 -26 57 -71 85 -100z m1270 87 c88 -16 162 -29
165 -29 11 -2 -1 -241 -12 -241 -42 2 -327 58 -336 66 -20 20 -17 234 3 234
11 -1 92 -14 180 -30z m471 -60 l111 -12 0 -121 -1 -121 -160 13 c-205 17
-240 27 -212 60 11 13 15 31 7 38 -7 7 4 27 25 43 28 22 30 27 6 19 -24 -9
-34 4 -41 51 -9 61 -9 61 72 51 45 -5 132 -15 193 -21z m-1802 -95 c0 -8 -15
-15 -34 -15 -30 -1 -31 -3 -5 -20 26 -17 25 -19 -5 -20 -22 0 -35 15 -35 40 0
22 -9 40 -20 40 -11 0 -20 10 -20 21 0 13 17 16 40 9 26 -8 40 -3 41 14 2 24
35 -36 38 -69z m97 -61 c20 -16 19 -27 -7 -55 -29 -32 -29 -35 2 -32 27 2 35
-16 38 -88 l4 -92 -77 42 c-82 44 -79 32 -44 211 11 59 23 61 84 14z m4004
-52 c-34 -61 -280 -307 -280 -279 0 15 10 61 21 102 20 71 36 84 94 76 14 -1
25 5 25 14 0 9 -11 30 -25 45 -21 24 -20 24 10 2 29 -23 40 -19 78 23 49 55
106 68 77 17z m-2760 -9 l170 -25 6 -130 6 -131 -186 33 -186 32 -6 124 c-3
68 1 124 10 123 9 0 93 -12 186 -26z m2738 -138 c-21 -57 -38 -107 -38 -110 0
-3 -14 -5 -31 -5 -17 0 -28 -11 -25 -25 3 -14 -20 -50 -50 -80 -31 -31 -51
-64 -44 -75 7 -11 7 -20 1 -20 -7 0 -21 20 -32 45 -15 35 -18 23 -14 -58 3
-57 -2 -99 -10 -94 -8 5 -21 -5 -27 -22 -7 -17 -26 -31 -42 -31 -20 0 -26 -11
-18 -32 9 -24 4 -29 -19 -20 -18 6 -26 3 -19 -8 18 -29 -76 -61 -95 -32 -10
16 -14 15 -15 -2 0 -13 16 -33 35 -45 30 -17 28 -20 -14 -14 -64 9 -104 302
-41 303 81 0 230 105 375 261 85 92 156 168 158 168 2 1 -14 -46 -35 -104z
m-3714 -61 c52 -32 169 -89 260 -125 158 -64 166 -71 172 -133 3 -36 -2 -56
-10 -44 -33 48 -179 107 -203 83 -17 -17 -23 -12 -23 21 0 24 -9 44 -20 44
-11 0 -20 -15 -20 -33 0 -24 -10 -19 -40 18 -22 28 -78 74 -125 101 -80 48
-100 67 -175 164 -30 39 -29 39 30 1 33 -21 102 -65 154 -97z m193 99 c13 -15
16 -34 8 -43 -8 -9 4 -11 27 -6 23 6 41 1 41 -12 0 -13 7 -47 14 -77 16 -64
-2 -69 -90 -24 -37 20 -56 42 -49 60 5 15 1 33 -10 40 -13 8 -13 21 1 38 11
13 15 31 7 38 -7 7 -3 13 8 13 12 0 31 -12 43 -27z m268 -142 c30 -9 55 -23
55 -33 0 -24 -55 -23 -70 2 -7 11 -23 20 -36 19 -13 0 -3 -18 23 -40 35 -28
39 -39 16 -39 -17 0 -36 9 -43 20 -7 12 -20 16 -29 11 -9 -6 -28 3 -41 19 -19
23 -19 30 -1 30 13 0 19 7 13 17 -11 18 31 16 113 -6z m2738 -39 c103 -43 152
-103 104 -128 -46 -23 -87 -10 -87 29 0 16 -8 24 -18 18 -10 -6 -14 -29 -8
-51 16 -61 -29 -48 -63 19 -64 123 -41 160 72 113z m-2453 -56 c13 -12 0 -14
-35 -5 -48 12 -54 8 -44 -24 12 -35 11 -36 -17 -1 -23 27 -33 30 -40 10 -7
-15 -11 -10 -12 13 -2 29 -8 33 -24 17 -33 -33 -84 -11 -53 22 26 28 187 5
225 -32z m282 -42 c53 -7 99 -74 51 -74 -11 0 -36 -5 -56 -12 -35 -10 -35 -10
0 13 30 19 32 27 11 40 -16 10 -33 8 -41 -6 -10 -16 -23 -15 -45 4 -20 16 -32
18 -32 4 0 -11 -22 0 -50 25 -68 64 -63 72 27 41 43 -15 103 -30 135 -35z
m208 -5 c0 -17 9 -26 20 -19 11 7 36 3 55 -8 28 -17 17 -21 -52 -21 -80 -1
-85 2 -60 33 23 29 23 31 -1 17 -19 -12 -24 -10 -14 6 21 33 52 28 52 -8z
m431 -36 c16 6 43 1 58 -12 16 -14 40 -18 53 -10 17 11 18 5 3 -22 -11 -20
-36 -38 -54 -41 -27 -4 -29 1 -10 24 13 15 16 29 6 31 -75 11 -107 9 -107 -6
0 -9 11 -17 25 -18 14 0 10 -9 -9 -20 -45 -26 -136 -3 -136 35 0 35 -78 17
-113 -27 -19 -24 -24 -24 -34 3 -7 18 -5 27 5 21 10 -6 22 1 28 15 13 36 105
39 134 4 14 -17 40 -30 57 -30 29 1 29 3 3 20 -26 17 -25 19 4 20 24 0 31 11
24 35 -10 33 -10 33 11 1 12 -19 35 -29 52 -23z"/>
<path d="M3391 2812 c22 -144 239 -372 353 -372 14 0 -13 19 -60 42 -102 51
-212 180 -266 312 l-39 96 12 -78z"/>
<path d="M1125 4994 c-25 -11 -45 -28 -45 -37 0 -29 61 -19 72 12 6 16 24 24
40 18 15 -6 28 -7 28 -1 0 22 -53 27 -95 8z"/>
<path d="M2483 4700 c-21 -61 -4 -80 31 -35 37 48 46 95 17 95 -15 0 -36 -27
-48 -60z"/>
<path d="M2090 4700 c-7 -11 -1 -20 12 -20 13 0 -1 -21 -31 -48 -40 -34 -48
-50 -28 -58 23 -9 23 -14 0 -30 -19 -13 -21 -23 -5 -33 14 -8 27 9 35 48 6 33
21 61 32 61 10 0 14 -13 7 -30 -35 -87 -35 -99 2 -54 39 47 72 42 52 -8 -6
-17 3 -28 22 -28 19 0 32 17 32 40 0 22 -8 40 -18 40 -10 0 -23 32 -31 70 -12
67 -54 93 -81 50z"/>
<path d="M1460 4619 c0 -11 9 -19 20 -19 11 0 20 -13 20 -29 0 -16 9 -34 20
-41 12 -7 20 12 20 45 0 42 -10 57 -40 60 -22 1 -40 -6 -40 -16z"/>
<path d="M1948 4559 c0 -43 11 -79 23 -79 12 0 18 29 13 70 -12 98 -38 105
-36 9z"/>
<path d="M2540 4625 c-35 -13 -79 -66 -79 -95 0 -11 12 -5 26 14 17 23 41 30
72 22 51 -13 95 33 55 58 -27 17 -32 17 -74 1z"/>
<path d="M2292 4577 c6 -9 1 -17 -11 -17 -11 0 -21 -13 -21 -30 0 -19 19 -30
51 -30 29 0 46 -9 39 -20 -14 -22 -10 -23 85 -31 36 -3 65 3 65 13 0 10 -19
18 -42 18 -28 0 -39 10 -32 28 7 17 -2 26 -23 25 -18 -2 -31 7 -29 20 3 12
-17 27 -44 32 -27 5 -44 2 -38 -8z"/>
<path d="M1150 4559 c-44 -18 -42 -20 30 -29 118 -14 220 -17 231 -6 31 31
-195 61 -261 35z"/>
<path d="M2974 4547 c9 -24 6 -29 -14 -17 -17 11 -21 8 -12 -7 8 -13 5 -23 -6
-23 -11 0 -26 11 -34 24 -11 16 -18 14 -27 -10 -10 -30 -17 -30 -66 -5 -30 16
-55 21 -55 11 0 -28 35 -43 105 -44 36 -1 75 -9 88 -19 15 -13 22 -7 20 17 -2
26 9 34 37 29 39 -7 39 -6 2 35 -46 51 -55 53 -38 9z"/>
<path d="M2533 4526 c-7 -7 -13 -26 -13 -43 0 -24 5 -26 24 -7 13 13 42 24 63
24 22 0 33 6 26 14 -20 19 -85 27 -100 12z"/>
<path d="M1040 4478 c0 -10 16 -19 35 -20 19 -1 67 -5 105 -8 39 -3 84 -7 102
-8 17 -1 73 -30 124 -63 68 -46 101 -57 126 -43 33 19 23 25 -142 86 -43 16
238 2 295 -14 19 -6 35 -1 35 10 0 11 14 16 30 9 17 -6 30 -2 30 9 0 12 -62
24 -140 27 -77 4 -140 -1 -140 -10 0 -10 -12 -8 -26 4 -32 27 -434 46 -434 21z"/>
<path d="M1800 4439 c0 -21 13 -23 215 -28 80 -2 145 4 145 12 0 9 -61 16
-135 16 -74 0 -155 4 -180 9 -25 5 -45 1 -45 -9z"/>
<path d="M2252 4424 c-8 -13 -5 -24 7 -24 11 0 21 -9 21 -19 0 -26 -147 -65
-187 -49 -17 6 -43 4 -57 -4 -18 -12 -11 -20 24 -30 105 -29 172 -18 251 41
93 70 103 72 116 26 9 -28 10 -27 7 4 -3 27 -25 44 -69 53 -35 7 -59 5 -53 -5
6 -9 2 -17 -9 -17 -11 0 -23 11 -28 24 -6 19 -11 19 -23 0z"/>
<path d="M2520 4419 c-82 -16 -79 -19 35 -28 47 -4 85 0 85 9 0 26 -45 33
-120 19z"/>
<path d="M3121 4430 c-1 -13 -86 -18 -231 -14 -220 5 -304 -17 -180 -48 27 -7
45 -20 39 -30 -6 -10 0 -18 15 -18 14 0 50 -13 79 -28 64 -33 217 -54 217 -29
0 9 -20 17 -44 17 -24 0 -87 20 -140 44 -95 43 -124 76 -66 76 17 0 30 -11 30
-25 1 -17 5 -18 15 -4 18 26 125 29 125 4 0 -10 9 -12 20 -5 11 7 20 3 20 -9
0 -11 16 -21 35 -21 30 1 31 3 5 20 -21 14 -22 19 -4 20 14 0 31 -14 37 -32
10 -25 16 -26 30 -5 14 23 20 23 34 0 14 -21 20 -19 31 8 7 19 8 39 2 45 -5 6
-10 -2 -11 -18 0 -15 -13 -5 -29 22 -16 28 -29 41 -29 30z"/>
<path d="M847 4310 c0 -16 6 -30 14 -30 7 0 9 -22 4 -50 -5 -27 -19 -50 -30
-50 -11 0 -9 -13 5 -30 29 -35 60 -39 60 -9 0 12 -9 16 -21 9 -13 -9 -16 6 -7
43 17 72 24 79 50 53 26 -26 98 -10 98 21 -1 41 -39 89 -40 49 0 -18 -10 -40
-23 -48 -15 -9 -18 -5 -8 11 10 15 5 33 -11 43 -44 27 -91 21 -91 -12z"/>
<path d="M2333 4327 c-28 -29 -10 -40 77 -44 55 -3 90 4 90 17 0 14 -25 17
-73 8 -52 -10 -69 -7 -59 9 15 25 -12 32 -35 10z"/>
<path d="M1036 4275 c-4 -29 8 -53 34 -67 22 -12 38 -32 35 -45 -3 -12 5 -23
16 -23 12 0 17 16 10 36 -8 26 0 36 29 39 27 2 36 -6 27 -21 -9 -14 -1 -13 19
3 19 16 34 42 34 59 0 26 5 26 37 -3 20 -18 42 -27 50 -20 7 8 13 4 13 -8 0
-25 -57 -49 -82 -34 -9 6 -13 -1 -7 -15 5 -15 29 -39 51 -53 23 -14 37 -17 30
-6 -16 26 29 125 50 112 9 -6 6 -33 -7 -61 -17 -39 -17 -60 1 -89 20 -32 19
-39 -7 -39 -17 0 -26 -9 -19 -20 7 -12 21 -15 31 -9 29 17 23 -19 -10 -62 -24
-32 -30 -33 -30 -7 -2 59 -66 100 -100 62 -26 -28 -26 -30 4 -19 23 9 42 0 55
-26 12 -22 13 -39 3 -39 -10 0 -23 -16 -28 -36 -6 -24 2 -35 26 -35 19 0 31 9
26 20 -4 12 13 30 38 41 44 20 72 210 30 210 -8 0 -15 9 -15 21 0 14 12 14 39
-1 32 -16 43 -13 61 20 23 44 70 56 54 14 -5 -14 3 -48 17 -75 15 -27 28 -38
28 -24 1 15 18 8 43 -17 22 -22 53 -36 68 -31 15 6 32 2 37 -9 6 -10 8 -8 5 7
-3 14 -21 25 -40 25 -20 0 -48 17 -62 37 -15 20 -37 31 -49 24 -11 -7 -22 -6
-22 3 -6 71 -21 155 -29 163 -27 26 -170 24 -170 -3 0 -15 -13 -27 -30 -27
-36 0 -40 26 -5 39 14 6 7 10 -15 11 -22 1 -91 6 -154 12 -106 10 -114 8 -120
-34z"/>
<path d="M2528 4297 c-12 -19 -2 -22 76 -26 29 -1 49 4 45 11 -14 22 -109 34
-121 15z"/>
<path d="M1560 4285 c0 -9 19 -27 42 -41 24 -15 37 -39 30 -56 -9 -23 -3 -25
28 -8 22 12 40 26 40 32 0 6 -9 5 -20 -2 -11 -7 -20 -4 -20 6 0 11 19 24 42
30 23 6 37 6 31 0 -18 -18 79 -86 123 -86 46 0 74 54 45 89 -11 13 -41 23 -66
21 -25 -2 -76 4 -114 12 -43 10 -79 8 -95 -6 -19 -15 -26 -14 -26 2 0 12 -9
22 -20 22 -11 0 -20 -7 -20 -15z"/>
<path d="M1961 4231 c-14 -17 -18 -40 -8 -55 52 -81 18 -132 -53 -81 -28 19
-63 36 -79 38 -17 3 -40 19 -53 36 -29 40 -50 40 -35 1 8 -22 2 -27 -21 -18
-25 10 -29 4 -18 -25 12 -33 10 -34 -20 -10 -20 17 -34 19 -34 7 0 -40 42 -48
78 -16 45 41 75 42 42 2 -14 -17 -20 -37 -13 -44 7 -7 13 -3 13 9 0 11 12 25
26 31 15 5 25 -5 25 -27 0 -20 -7 -32 -15 -26 -29 17 -17 -28 14 -53 26 -21
30 -16 30 38 l0 63 62 -32 62 -32 -51 -54 c-34 -35 -46 -63 -35 -80 12 -19 21
-21 31 -5 7 12 2 22 -13 23 -15 0 -6 17 20 39 25 21 59 33 75 27 18 -7 29 1
29 21 0 18 -8 32 -18 32 -10 0 -9 35 2 80 12 44 28 75 37 69 10 -6 13 -22 7
-37 -8 -20 6 -25 51 -20 33 4 59 1 57 -7 -3 -8 6 -44 19 -80 25 -71 64 -88 60
-26 -2 21 -9 35 -15 31 -7 -4 -23 10 -36 31 -13 22 -16 39 -5 39 10 0 25 -10
33 -23 10 -16 21 -13 39 11 13 18 36 31 51 28 14 -3 28 12 31 34 4 22 1 29 -5
15 -16 -36 -54 -31 -40 6 6 17 3 26 -7 20 -10 -7 -24 -3 -31 9 -7 11 -23 20
-36 20 -15 0 -17 -6 -4 -15 31 -23 35 -110 5 -100 -14 5 -24 24 -22 43 2 26
-3 28 -24 11 -20 -16 -36 -16 -63 0 -33 21 -32 22 7 11 29 -8 46 0 56 24 7 19
7 29 -1 21 -7 -7 -30 -5 -51 6 -27 15 -37 14 -37 -5 0 -16 -6 -18 -15 -6 -24
32 -78 33 -104 1z"/>
<path d="M2450 4220 c-7 -11 -7 -29 0 -40 7 -11 3 -20 -9 -20 -11 0 -21 -9
-21 -20 0 -11 14 -20 30 -20 17 0 30 9 30 20 0 11 13 20 28 20 18 0 25 14 18
40 -11 42 -55 54 -76 20z"/>
<path d="M986 4197 c14 -42 -5 -63 -35 -38 -15 13 -24 6 -26 -21 -2 -31 8 -39
41 -34 50 7 70 69 33 103 -19 18 -22 15 -13 -10z"/>
<path d="M2559 4215 c-23 -82 -13 -108 41 -105 44 3 54 -4 44 -28 -10 -28 -7
-29 24 -3 32 26 33 31 4 52 -35 25 -45 59 -12 39 11 -7 20 -4 20 7 0 27 -115
63 -121 38z"/>
<path d="M2719 4177 c-13 -23 -11 -36 6 -42 18 -6 15 -23 -11 -62 -19 -29 -26
-53 -14 -53 11 0 20 9 20 20 0 11 14 20 31 20 23 0 28 12 19 40 -8 27 -2 44
19 52 17 7 31 24 31 39 0 38 -80 27 -101 -14z"/>
<path d="M2846 4183 c-18 -29 -18 -43 0 -62 19 -18 15 -20 -16 -9 -34 12 -33
7 10 -35 49 -49 80 -54 80 -15 0 11 -8 16 -17 10 -9 -6 -18 16 -19 49 -1 32 7
59 17 59 11 0 19 9 19 20 0 34 -49 22 -74 -17z"/>
<path d="M3020 4200 c-16 -11 -21 -20 -10 -20 11 -1 3 -11 -17 -23 -35 -20
-34 -22 6 -50 51 -36 91 -26 91 23 0 20 11 40 25 45 16 5 21 -4 14 -28 -10
-31 -8 -31 13 3 25 39 26 39 40 -10 13 -46 14 -45 16 15 2 75 3 74 -87 37 -59
-25 -67 -25 -58 0 13 33 8 34 -33 8z"/>
<path d="M2925 4169 c-26 -29 -14 -89 19 -89 11 0 15 15 7 33 -7 19 -2 40 10
48 13 8 16 19 6 24 -9 6 -28 -1 -42 -16z"/>
<path d="M1011 4101 c-56 -24 -68 -39 -60 -71 10 -37 9 -37 -28 5 -33 37 -41
39 -51 13 -6 -17 -21 -25 -32 -18 -12 7 -14 -2 -6 -22 8 -22 5 -30 -9 -21 -30
18 -88 -7 -72 -31 7 -13 18 -11 27 5 11 17 20 12 29 -18 9 -27 27 -40 52 -37
60 10 70 32 28 63 -22 15 -32 34 -24 43 8 8 31 0 51 -19 42 -38 99 -5 64 37
-41 50 70 80 118 32 45 -45 55 -82 21 -82 -12 0 -17 7 -11 16 5 9 -10 28 -34
43 -40 25 -42 25 -17 -6 20 -23 21 -33 4 -33 -13 0 -18 -9 -11 -20 7 -12 21
-15 31 -9 11 6 19 1 19 -12 0 -18 7 -18 28 -1 29 25 57 102 35 99 -37 -5 -63
5 -63 25 0 14 24 19 60 14 33 -5 60 -3 60 5 0 30 -141 30 -209 0z"/>
<path d="M2042 4084 c-26 -48 -5 -73 68 -80 57 -6 58 -5 20 23 -22 16 -46 25
-55 20 -8 -5 -15 0 -15 12 0 11 9 21 20 21 11 0 20 9 20 20 0 33 -37 23 -58
-16z"/>
<path d="M2465 4090 c-34 -38 -33 -40 25 -43 55 -3 55 -3 38 41 -15 39 -30 39
-63 2z"/>
<path d="M3000 4059 c0 -12 -9 -16 -19 -10 -30 19 -79 -73 -73 -134 4 -31 -1
-61 -11 -67 -29 -18 -19 -47 13 -35 17 6 29 31 27 54 -8 100 4 153 34 153 20
0 26 -9 16 -24 -8 -14 -13 -50 -11 -82 3 -31 -10 -87 -27 -124 -40 -84 -26
-110 57 -104 73 6 114 27 114 56 0 11 -9 15 -20 8 -11 -7 -20 3 -20 21 0 21
11 29 30 22 17 -7 30 -4 30 5 0 53 -62 36 -73 -19 -7 -33 -20 -65 -29 -70 -10
-6 -12 3 -6 20 7 17 2 31 -10 31 -12 0 -22 -13 -22 -30 0 -16 -13 -30 -30 -30
-25 0 -24 10 5 70 20 38 46 65 60 60 36 -13 31 23 -5 37 -16 7 -30 22 -30 35
0 12 14 17 30 11 38 -15 90 4 90 32 0 12 -6 16 -13 9 -7 -8 -26 2 -42 21 -26
32 -27 32 -18 1 8 -23 2 -31 -17 -23 -19 7 -25 29 -17 69 7 32 6 58 0 58 -7 0
-13 -10 -13 -21z"/>
<path d="M2800 4041 c0 -10 13 -31 29 -47 21 -21 23 -34 6 -51 -17 -17 -17
-23 0 -23 38 0 45 32 19 87 -24 52 -54 71 -54 34z"/>
<path d="M2274 4025 c-5 -8 -8 -42 -6 -75 2 -33 -5 -71 -15 -85 -28 -39 -2
-51 45 -22 23 15 42 47 42 72 0 48 -30 61 -47 20 -5 -14 -6 4 -3 40 7 63 1 80
-16 50z"/>
<path d="M2610 3969 c-11 -17 -40 -32 -65 -34 -29 -2 -38 -10 -25 -23 11 -11
19 -38 19 -61 -2 -41 -2 -41 -19 -1 -13 29 -16 20 -10 -37 4 -42 14 -83 22
-90 8 -7 9 1 3 19 -18 51 17 94 49 60 21 -21 21 -29 1 -36 -35 -13 -31 -46 5
-46 39 0 39 59 0 114 -33 48 10 121 55 93 14 -9 10 -21 -11 -36 -19 -15 -25
-33 -15 -50 13 -21 19 -18 25 11 7 34 10 34 34 -10 22 -39 22 -50 -1 -66 -22
-15 -21 -17 3 -10 17 4 29 23 27 42 -2 26 3 28 24 11 15 -12 22 -35 16 -50 -6
-16 -2 -29 9 -29 35 0 40 48 8 85 -19 22 -22 35 -7 35 13 0 23 -9 23 -20 0
-29 26 -25 71 10 37 29 37 30 -14 19 -30 -7 -59 -3 -67 10 -10 17 -21 17 -40
1 -34 -28 -76 39 -58 94 9 27 7 29 -8 9 -13 -19 -22 -20 -27 -5 -4 14 -15 10
-27 -9z"/>
<path d="M1660 3959 c0 -12 9 -39 21 -60 14 -27 14 -39 0 -39 -12 0 -21 9 -21
19 0 11 -13 15 -30 8 -17 -6 -30 0 -30 13 0 20 -6 20 -30 0 -22 -19 -30 -19
-30 -1 0 13 -10 17 -23 9 -15 -9 -12 -19 10 -31 18 -10 27 -33 21 -53 -8 -24
-3 -22 16 7 29 46 100 44 83 -2 -12 -31 10 -38 44 -14 18 12 23 83 12 150 -4
23 -43 18 -43 -6z"/>
<path d="M2081 3955 c-1 -38 -31 -47 -51 -15 -7 11 -23 20 -36 19 -13 0 -8 -9
11 -21 71 -41 23 -137 -65 -127 -16 1 -51 4 -77 6 -40 3 -44 8 -23 33 16 20
17 30 3 30 -12 0 -17 16 -10 35 9 30 7 30 -11 5 -62 -87 -29 -134 95 -134 64
0 130 -7 145 -16 23 -13 23 -11 3 11 -36 39 -31 59 16 59 26 0 36 -8 27 -23
-9 -15 -5 -18 10 -8 18 11 18 21 1 43 -13 15 -31 23 -41 17 -10 -6 -12 3 -6
20 15 37 41 40 55 6 5 -14 11 -15 11 -4 1 12 -11 39 -27 60 -27 35 -30 36 -30
4z"/>
<path d="M1185 3937 c-36 -36 -31 -67 5 -37 26 21 29 20 19 -5 -6 -17 -2 -37
10 -44 12 -8 21 3 21 24 0 20 11 50 25 65 21 24 20 24 -8 3 -23 -17 -35 -18
-40 -3 -5 15 -16 13 -32 -3z"/>
<path d="M2357 3855 l-53 -21 43 -38 43 -38 -45 12 c-27 8 -45 4 -45 -10 0
-12 8 -17 19 -11 10 6 24 2 31 -10 10 -15 21 -14 40 1 19 16 29 15 35 -4 5
-14 16 -20 23 -13 8 7 -1 27 -19 45 -19 19 -29 51 -23 73 6 21 9 38 7 37 -2
-1 -27 -12 -56 -23z"/>
<path d="M2146 3789 c-20 -15 -27 -28 -15 -28 12 -1 32 10 45 23 19 19 24 18
24 -2 0 -15 13 -21 29 -15 15 6 33 0 38 -13 8 -19 10 -19 11 0 4 52 -80 74
-132 35z"/>
<path d="M2800 3748 c-55 -54 -34 -67 24 -15 20 18 43 26 51 17 8 -8 4 -19
-10 -24 -29 -11 -34 -46 -7 -46 31 0 44 66 18 91 -21 20 -36 15 -76 -23z"/>
<path d="M1600 3760 c40 -26 146 -26 130 0 -7 11 -46 20 -86 20 -55 -1 -66 -6
-44 -20z"/>
<path d="M2515 3582 c-7 -27 2 -42 30 -49 27 -7 42 1 49 27 6 21 25 42 43 47
22 6 18 9 -12 11 -28 1 -45 -9 -45 -29 0 -17 -9 -26 -20 -19 -12 7 -15 21 -9
31 6 11 3 19 -7 19 -11 0 -24 -17 -29 -38z"/>
<path d="M2773 3570 c8 -23 2 -27 -24 -17 -24 10 -31 6 -21 -10 8 -12 32 -23
54 -23 22 0 35 9 28 20 -7 11 8 29 34 39 43 17 41 19 -18 20 -50 1 -62 -6 -53
-29z"/>
<path d="M4222 4572 c-15 -18 -19 -32 -9 -32 9 0 5 -8 -10 -18 -21 -13 -20
-19 6 -29 19 -7 28 -4 21 7 -7 11 -3 20 9 20 11 0 21 -10 21 -21 0 -12 10 -15
22 -8 15 10 15 1 -1 -29 -18 -34 -17 -42 8 -42 17 0 37 -2 44 -5 7 -3 20 15
29 39 13 36 10 42 -16 32 -22 -9 -28 -5 -18 11 8 13 3 23 -14 23 -15 0 -36 19
-47 42 -17 38 -21 39 -45 10z"/>
<path d="M4080 4450 c0 -27 8 -50 18 -50 10 0 14 20 9 45 -10 44 -9 44 21 6
18 -21 38 -31 47 -23 15 15 -47 72 -79 72 -9 0 -16 -22 -16 -50z"/>
<path d="M3902 4366 c-2 -33 -11 -41 -35 -32 -23 9 -29 5 -19 -11 8 -12 5 -23
-7 -23 -11 0 -21 10 -21 21 0 12 -9 16 -20 9 -40 -25 5 -52 64 -39 40 9 57 6
48 -7 -7 -12 -4 -27 8 -34 11 -7 20 -2 20 11 0 14 17 19 39 14 26 -7 35 -2 28
16 -6 15 -22 22 -37 16 -15 -6 -34 13 -46 47 -18 49 -21 51 -22 12z"/>
<path d="M4260 4381 c0 -10 10 -25 21 -32 12 -7 17 -27 10 -43 -8 -22 -2 -27
20 -18 18 6 39 12 47 12 9 0 13 20 10 45 -7 67 -9 69 -28 25 -15 -34 -17 -35
-19 -5 -1 35 -61 51 -61 16z"/>
<path d="M4194 4328 c-32 -42 -32 -48 -4 -48 18 0 27 -9 20 -20 -7 -11 1 -14
19 -7 24 8 26 18 11 37 -14 17 -15 28 -1 33 11 4 13 17 5 30 -9 15 -26 7 -50
-25z"/>
<path d="M3800 4225 c0 -12 -16 -26 -35 -31 -30 -8 -30 -10 -2 -12 18 -1 37
-21 43 -45 7 -26 22 -38 40 -31 16 6 41 0 56 -13 22 -19 22 -17 0 12 -15 19
-35 30 -44 24 -10 -6 -19 3 -20 20 -5 57 -8 68 -23 83 -8 8 -15 5 -15 -7z"/>
<path d="M3680 4121 c0 -45 7 -57 30 -48 33 13 41 47 11 47 -11 0 -15 14 -8
30 6 17 1 30 -11 30 -12 0 -22 -27 -22 -59z"/>
<path d="M3987 4150 c7 -19 0 -30 -19 -30 -37 0 -20 -32 33 -61 31 -16 39 -14
39 12 0 22 -11 29 -31 21 -21 -8 -26 -4 -16 13 24 39 26 75 3 75 -11 0 -15
-13 -9 -30z"/>
<path d="M4354 4120 c6 -22 1 -40 -12 -40 -12 0 -22 14 -22 30 0 17 -7 30 -15
29 -28 -1 -84 -53 -71 -66 7 -7 2 -13 -11 -13 -12 0 -23 11 -23 23 0 13 -6 18
-13 11 -7 -7 -1 -27 13 -44 17 -20 18 -30 2 -30 -22 0 -31 -84 -11 -104 22
-22 89 9 89 41 -1 29 -3 29 -19 3 -16 -24 -24 -25 -44 -5 -20 20 -19 31 4 53
36 33 165 78 149 51 -7 -10 -25 -19 -41 -19 -34 0 -36 -18 -9 -60 17 -26 19
-25 20 5 0 19 11 33 24 30 13 -3 23 11 23 30 -5 98 -8 115 -25 115 -10 0 -14
-18 -8 -40z"/>
<path d="M4068 4070 c8 -31 4 -50 -10 -50 -15 0 -16 -9 -5 -25 10 -14 36 -78
57 -142 21 -65 50 -122 64 -127 14 -6 26 -19 26 -29 0 -11 -10 -13 -23 -5 -15
9 -18 5 -8 -11 54 -87 -19 -430 -105 -493 -29 -21 -19 -68 15 -68 17 0 73 121
66 144 -2 7 15 20 38 27 33 11 36 17 15 31 -23 14 -23 17 3 18 37 0 88 119 52
121 -13 1 -3 11 22 23 25 12 45 34 45 49 0 15 8 27 17 27 30 0 17 -58 -15 -71
-28 -10 -27 -16 7 -40 21 -16 29 -29 18 -29 -11 0 -20 -13 -20 -30 0 -38 25
-39 40 -2 6 18 28 25 57 19 33 -8 38 -5 19 9 -23 16 -23 21 0 31 15 7 7 8 -16
2 -34 -8 -42 -3 -37 25 4 20 8 51 8 70 2 24 13 31 37 24 19 -6 13 3 -15 20
-27 17 -38 31 -24 31 19 1 20 11 5 38 -11 21 -14 43 -7 50 7 7 -5 14 -26 14
-36 2 -36 3 2 19 22 9 29 18 15 19 -15 0 -34 23 -45 51 -12 33 -29 45 -50 37
-17 -6 -42 -2 -56 10 -20 16 -25 6 -23 -46 1 -48 -5 -64 -24 -57 -24 9 -35 50
-32 121 0 14 -8 25 -20 25 -11 0 -15 23 -10 50 5 28 0 50 -11 50 -11 0 -15 6
-8 13 7 7 4 29 -7 50 -16 28 -14 37 9 37 16 0 33 -11 39 -25 6 -15 10 -11 11
10 2 25 -13 35 -50 35 -46 0 -51 -6 -40 -50z m196 -395 c4 -25 19 -43 33 -40
14 4 20 -3 13 -15 -17 -28 -63 -25 -64 5 -1 14 -8 41 -16 60 -8 20 -5 35 6 35
12 0 24 -20 28 -45z"/>
<path d="M4290 3909 c-33 -15 -55 -28 -50 -29 41 -10 145 -15 125 -7 -38 16
-30 48 8 33 23 -9 29 -5 19 11 -17 28 -25 27 -102 -8z"/>
<path d="M4283 3405 c-11 -19 -20 -44 -21 -55 -7 -57 -28 -92 -52 -83 -15 6
-32 -3 -39 -20 -8 -22 -2 -28 19 -20 16 6 27 2 25 -10 -3 -12 8 -27 23 -32 17
-6 22 -1 14 12 -8 13 -4 23 8 23 12 0 17 8 11 18 -6 10 3 23 21 30 30 11 196
-72 219 -110 6 -10 21 -18 33 -18 12 0 2 17 -22 38 -24 21 -37 42 -28 47 9 5
6 6 -6 4 -59 -14 -111 98 -62 133 10 7 3 18 -15 25 -18 7 -28 5 -22 -5 17 -27
-48 -44 -86 -23 -18 11 -23 20 -11 20 12 1 21 15 21 31 0 39 -7 38 -30 -5z"/>
<path d="M1458 3305 c-2 -19 -6 -60 -9 -90 -4 -31 2 -51 12 -44 10 6 17 31 16
55 -1 24 4 60 12 79 9 21 7 35 -7 35 -12 0 -23 -16 -24 -35z"/>
<path d="M2591 3168 c-12 -48 -2 -87 16 -66 19 22 32 118 16 118 -10 0 -25
-24 -32 -52z"/>
<path d="M2737 3163 c-30 -36 -29 -38 15 -38 34 0 48 11 48 38 0 20 -7 37 -16
37 -8 0 -30 -17 -47 -37z"/>
<path d="M4201 3031 c-18 -22 -17 -39 5 -75 16 -25 35 -71 42 -101 15 -64 42
-71 70 -18 47 88 -59 264 -117 194z"/>
<path d="M4370 2724 c-33 -18 -65 -41 -72 -50 -6 -8 -26 -10 -45 -3 -18 8 -34
6 -34 -4 -1 -9 -6 -37 -10 -61 -5 -24 0 -49 11 -56 11 -7 21 12 21 44 2 55 2
55 23 11 12 -25 35 -45 50 -45 22 0 23 9 5 42 -12 23 -19 43 -16 46 76 48 117
49 117 2 0 -28 8 -50 17 -50 10 0 17 36 16 80 -3 91 -2 91 -83 44z"/>
<path d="M3994 2413 c1 -90 4 -179 5 -198 0 -19 11 -35 23 -35 13 0 18 18 12
41 -8 31 2 47 43 63 l53 22 -55 21 c-50 19 -55 30 -55 126 0 57 -7 109 -15
114 -8 5 -13 -64 -11 -154z"/>
<path d="M4505 2340 c-63 -34 -222 -156 -170 -130 18 9 26 -12 27 -74 l3 -86
15 80 c9 44 12 86 8 93 -8 13 140 117 167 117 9 0 13 -37 8 -82 -4 -45 2 -91
15 -104 16 -16 22 4 22 77 -1 136 -15 152 -95 109z"/>
<path d="M4155 2185 c-52 -4 -95 -17 -95 -28 0 -24 170 -5 220 24 27 16 27 17
0 15 -16 -2 -73 -7 -125 -11z"/>
<path d="M3098 2895 c0 -3 -4 -22 -8 -43 -4 -21 -19 -45 -33 -54 -14 -9 -19
-23 -10 -31 8 -9 23 -4 32 11 9 15 25 22 35 16 10 -6 19 6 21 27 1 22 -8 39
-21 39 -14 0 -12 8 6 20 20 13 22 19 5 20 -14 0 -26 -2 -27 -5z"/>
<path d="M1080 2736 c1 -74 6 -97 20 -76 22 36 20 157 -3 172 -9 6 -17 -37
-17 -96z"/>
<path d="M1400 2647 c0 -52 6 -88 13 -81 19 20 24 174 4 174 -9 0 -17 -42 -17
-93z"/>
<path d="M1753 2664 c-8 -13 -6 -40 5 -61 14 -25 13 -44 -3 -60 -17 -17 -17
-23 1 -23 13 0 25 7 26 15 0 8 4 29 7 45 9 47 -19 112 -36 84z"/>
<path d="M2145 2578 c-4 -46 3 -78 16 -78 12 0 16 8 10 18 -6 9 3 29 19 42 17
14 30 35 30 47 0 13 -9 10 -20 -7 -17 -26 -19 -25 -20 4 0 70 -30 49 -35 -26z"/>
<path d="M2978 2626 c-2 -9 -1 -24 1 -34 9 -50 -19 -77 -53 -49 -29 24 -30 23
-8 -18 28 -53 87 -16 93 58 2 37 -28 77 -33 43z"/>
<path d="M797 2230 c4 -49 13 -86 21 -81 17 10 3 171 -15 171 -7 0 -10 -40 -6
-90z"/>
<path d="M3721 2209 c-39 -27 -79 -49 -90 -49 -43 0 -174 -43 -164 -54 34 -33
293 57 329 115 32 51 9 48 -75 -12z"/>
<path d="M2137 2045 c-8 -119 -7 -145 7 -145 9 0 16 41 16 90 0 86 -17 128
-23 55z"/>
<path d="M3412 1959 c5 -126 27 -155 31 -42 2 46 4 94 5 106 1 13 -8 27 -19
31 -14 4 -20 -29 -17 -95z"/>
<path d="M2540 1961 c0 -44 8 -81 17 -81 23 0 26 136 2 150 -11 7 -19 -22 -19
-69z"/>
<path d="M3602 1114 c-1 -20 -9 -32 -17 -27 -8 5 -26 -3 -40 -18 -34 -37 1
-54 44 -22 21 15 31 41 25 64 -8 35 -10 35 -12 3z"/>
<path d="M3700 962 c-89 -10 -101 -15 -64 -29 52 -18 198 1 215 29 6 10 0 17
-15 15 -14 -2 -75 -9 -136 -15z"/>
<path d="M2994 833 c-6 -14 -3 -57 6 -95 15 -66 16 -66 18 27 2 96 -5 117 -24
68z"/>
<path d="M3140 361 c0 -10 -15 -33 -33 -51 -24 -24 -27 -38 -10 -55 16 -16 23
-16 23 -1 0 12 16 20 35 19 45 -4 59 77 16 94 -17 6 -31 4 -31 -6z"/>
<path d="M680 1579 c0 -12 -9 -16 -20 -9 -11 7 -20 3 -20 -9 0 -11 18 -21 40
-21 26 0 40 -13 40 -39 0 -21 9 -44 20 -51 29 -18 24 23 -11 91 -31 61 -49 75
-49 38z"/>
<path d="M4553 1472 c-39 -59 -64 -181 -34 -162 12 7 21 34 21 61 0 27 8 49
18 49 9 0 22 23 27 50 12 62 8 62 -32 2z"/>
<path d="M1129 1088 c16 -101 31 -112 31 -23 0 40 -10 79 -22 86 -14 9 -17
-11 -9 -63z"/>
<path d="M1678 1270 c-1 -5 -3 -30 -4 -55 -2 -44 -26 -74 -61 -75 -10 0 -12
14 -6 30 8 20 -1 30 -28 30 -21 0 -39 -4 -39 -8 0 -5 -5 -22 -11 -38 -17 -43
71 -59 126 -23 33 22 44 47 41 90 -4 53 -12 76 -18 49z"/>
<path d="M1891 1162 c-27 -44 28 -131 58 -90 32 44 20 76 -23 59 -21 -8 -27
-2 -19 19 13 33 2 41 -16 12z"/>
<path d="M2375 1106 c-64 -10 -69 -27 -18 -73 53 -48 76 -40 31 10 -32 37 -33
42 -5 32 20 -7 38 -1 45 16 6 16 9 28 6 26 -2 -2 -29 -7 -59 -11z"/>
</g>
</svg>
