<?xml version="1.0" standalone="no"?>
<!DOCTYPE svg PUBLIC "-//W3C//DTD SVG 20010904//EN"
 "http://www.w3.org/TR/2001/REC-SVG-20010904/DTD/svg10.dtd">
<svg version="1.0" xmlns="http://www.w3.org/2000/svg"
 width="675.000000pt" height="675.000000pt" viewBox="0 0 675.000000 675.000000"
 preserveAspectRatio="xMidYMid meet">
<metadata>
Created by potrace 1.10, written by Peter Selinger 2001-2011
</metadata>
<g transform="translate(0.000000,675.000000) scale(0.100000,-0.100000)"
fill="#696e6d" stroke="none">
<path d="M2010 6541 c-109 -37 -354 -143 -396 -172 -24 -16 -59 -50 -79 -76
-41 -54 -44 -88 -15 -181 25 -81 26 -107 3 -97 -77 31 -149 10 -225 -67 -77
-79 -76 -87 30 -306 98 -203 123 -272 148 -401 19 -104 22 -409 5 -496 -33
-163 -99 -345 -168 -459 -48 -80 -162 -233 -203 -271 -17 -16 -55 -61 -83
-100 l-52 -69 -3 -234 -3 -234 26 -40 c34 -52 30 -71 -20 -82 -109 -24 -121
-29 -157 -67 -67 -71 -67 -71 -68 -348 -1 -283 0 -287 74 -360 38 -37 51 -43
117 -54 86 -15 95 -28 55 -86 -22 -31 -26 -48 -26 -104 0 -56 5 -77 30 -124
l31 -57 -23 -12 c-13 -6 -48 -15 -78 -19 -50 -7 -60 -13 -118 -69 l-62 -63 0
-270 0 -270 63 -66 62 -66 73 -7 c77 -7 96 -21 74 -53 -51 -71 -52 -79 -52
-314 0 -257 1 -261 80 -349 36 -40 70 -66 118 -89 149 -70 368 -128 642 -169
41 -6 100 -15 130 -20 30 -5 115 -14 189 -20 74 -6 138 -13 142 -15 4 -3 90
-10 191 -15 101 -6 251 -15 333 -20 194 -12 946 -12 1140 0 83 5 232 14 333
20 101 5 187 12 191 15 4 2 68 9 142 15 74 6 159 15 189 20 30 5 91 14 135 21
83 12 92 13 265 48 225 46 420 128 490 208 79 90 80 93 80 348 0 238 -1 245
-52 316 -22 32 -3 46 72 53 68 7 75 10 120 52 80 74 80 76 80 370 l0 257 -62
62 c-60 59 -66 62 -135 74 -40 7 -76 17 -79 22 -3 6 7 29 23 51 24 35 29 53
32 120 3 72 1 82 -24 119 -39 60 -32 71 54 86 66 11 79 17 117 54 73 72 74 75
74 361 l0 255 -31 46 c-50 75 -77 93 -168 107 -45 7 -81 16 -81 21 0 5 14 33
30 62 l30 54 0 214 c0 257 2 249 -129 399 -140 158 -184 223 -255 365 -112
225 -140 346 -141 610 0 273 30 397 165 670 88 178 95 200 82 235 -20 51 -91
118 -148 139 -50 19 -57 20 -91 6 -19 -8 -39 -15 -44 -15 -15 0 -10 46 12 114
28 86 21 118 -40 187 -51 58 -88 79 -271 159 -158 69 -220 90 -266 90 -39 0
-49 -5 -102 -58 -33 -31 -69 -76 -81 -100 -28 -55 -53 -55 -106 -1 -108 110
-181 93 -326 -76 -155 -180 -343 -283 -555 -305 -299 -31 -550 70 -750 301
-92 106 -157 153 -211 151 -35 -1 -100 -41 -142 -86 -35 -38 -55 -33 -89 22
-31 50 -111 132 -140 144 -28 11 -64 8 -122 -11z m122 -88 c10 -9 18 -28 18
-43 0 -15 7 -33 15 -40 8 -7 15 -22 15 -34 0 -11 7 -30 15 -40 8 -11 15 -30
15 -42 0 -12 7 -27 15 -34 8 -7 15 -23 15 -35 0 -12 7 -28 15 -35 8 -7 15 -21
15 -30 0 -18 6 -31 44 -108 9 -19 16 -42 16 -52 0 -9 7 -23 15 -30 8 -7 15
-23 15 -35 0 -12 7 -28 15 -35 8 -7 15 -22 15 -34 0 -12 7 -31 15 -42 8 -10
15 -29 15 -40 0 -12 7 -27 15 -34 8 -7 15 -23 15 -35 0 -12 7 -28 15 -35 8 -7
15 -25 15 -40 0 -15 7 -33 15 -40 8 -7 15 -20 15 -29 0 -10 7 -26 15 -37 8
-10 15 -29 15 -40 0 -12 7 -27 15 -34 8 -7 15 -20 15 -30 0 -10 7 -23 15 -30
8 -7 15 -23 15 -36 0 -20 -5 -24 -28 -24 -16 0 -37 -7 -48 -15 -10 -8 -27 -15
-36 -15 -9 0 -30 -7 -47 -15 -17 -8 -45 -22 -62 -30 -17 -8 -39 -15 -49 -15
-9 0 -23 -7 -30 -15 -7 -8 -23 -15 -35 -15 -12 0 -28 -7 -35 -15 -7 -8 -23
-15 -35 -15 -12 0 -28 -7 -35 -15 -7 -8 -23 -15 -37 -15 -13 0 -26 -7 -29 -15
-4 -8 -11 -15 -18 -15 -15 0 -46 56 -46 85 0 12 -7 28 -15 35 -8 7 -15 23 -15
35 0 12 -7 28 -15 35 -8 7 -15 22 -15 34 0 12 -7 31 -15 42 -8 10 -15 29 -15
40 0 12 -7 27 -15 34 -8 7 -15 23 -15 35 0 12 -7 28 -15 35 -8 7 -15 25 -15
40 0 15 -7 33 -15 40 -8 7 -15 20 -15 29 0 10 -7 26 -15 37 -8 10 -15 29 -15
40 0 12 -7 27 -15 34 -8 7 -15 21 -15 30 0 10 -7 33 -16 52 -38 77 -44 90 -44
108 0 9 -7 23 -15 30 -8 7 -15 22 -15 34 0 11 -7 30 -15 40 -8 11 -15 30 -15
42 0 12 -7 27 -15 34 -8 7 -15 19 -15 26 0 7 -9 30 -19 51 -11 21 -23 50 -27
66 -6 25 -4 27 23 27 16 0 38 7 49 15 10 8 28 15 39 15 11 0 29 7 39 15 11 8
30 15 42 15 12 0 27 7 34 15 7 8 23 15 35 15 12 0 28 7 35 15 7 8 22 15 34 15
11 0 30 7 40 15 11 8 30 15 43 15 13 0 26 7 29 15 4 8 14 15 24 15 10 0 23 7
30 15 16 19 19 19 42 -2z m2512 2 c3 -8 14 -15 24 -15 11 0 25 -7 32 -15 7 -8
22 -15 34 -15 11 0 30 -7 40 -15 11 -8 27 -15 37 -15 9 0 22 -7 29 -15 7 -8
23 -15 35 -15 12 0 28 -7 35 -15 7 -8 22 -15 34 -15 11 0 30 -7 40 -15 11 -8
27 -15 37 -15 9 0 22 -7 29 -15 7 -8 28 -15 46 -15 30 0 34 -3 34 -28 0 -15
-9 -44 -20 -65 -11 -20 -20 -43 -20 -51 0 -7 -7 -19 -15 -26 -8 -7 -15 -23
-15 -35 0 -12 -7 -28 -15 -35 -8 -7 -15 -23 -15 -35 0 -12 -7 -28 -15 -35 -8
-7 -15 -23 -15 -35 0 -12 -7 -28 -15 -35 -8 -7 -15 -23 -15 -35 0 -12 -7 -28
-15 -35 -8 -7 -15 -20 -15 -29 0 -10 -7 -26 -15 -37 -8 -10 -15 -29 -15 -40 0
-12 -7 -27 -15 -34 -8 -7 -15 -20 -15 -30 0 -10 -7 -23 -15 -30 -8 -7 -15 -21
-15 -32 0 -11 -6 -32 -13 -46 -8 -15 -21 -44 -30 -65 -9 -20 -23 -53 -32 -72
-8 -19 -22 -52 -31 -72 -9 -21 -23 -51 -30 -66 -8 -16 -14 -37 -14 -47 0 -9
-7 -23 -15 -30 -8 -7 -15 -26 -15 -42 0 -16 -6 -31 -15 -34 -17 -7 -71 12 -96
33 -8 7 -23 13 -31 13 -9 0 -21 7 -28 15 -7 8 -23 15 -35 15 -12 0 -28 7 -35
15 -7 8 -22 15 -34 15 -11 0 -30 7 -40 15 -11 8 -27 15 -37 15 -9 0 -22 7 -29
15 -7 8 -21 15 -30 15 -10 0 -31 7 -47 15 -15 8 -40 17 -55 20 -39 8 -48 47
-19 85 11 16 21 38 21 48 0 11 7 25 15 32 8 7 15 20 15 30 0 10 7 23 15 30 8
7 15 21 15 30 0 10 8 33 17 52 9 18 22 45 30 60 7 14 13 33 13 41 0 8 7 20 15
27 8 7 15 21 15 30 0 10 8 33 17 52 9 18 22 45 30 60 7 14 13 33 13 41 0 8 7
20 15 27 8 7 15 23 15 35 0 12 7 28 15 35 8 7 15 22 15 34 0 11 7 30 15 40 8
11 15 27 15 37 0 9 7 22 15 29 8 7 15 23 15 35 0 12 7 28 15 35 8 7 15 22 15
34 0 11 7 30 15 40 8 11 15 27 15 37 0 9 7 22 15 29 8 7 15 23 15 36 0 50 49
87 64 49z m-2072 -137 c5 -16 14 -28 19 -28 5 0 9 -4 9 -9 0 -5 15 -26 33 -47
84 -99 186 -184 254 -213 11 -6 24 -15 28 -20 3 -6 14 -11 24 -11 10 0 24 -7
31 -15 7 -8 23 -15 35 -15 12 0 28 -7 35 -15 7 -8 26 -15 42 -15 16 0 43 -8
61 -17 47 -24 397 -24 444 0 18 9 45 17 61 17 16 0 35 7 42 15 7 8 23 15 35
15 12 0 28 7 35 15 7 8 21 15 31 15 10 0 21 5 24 11 4 5 17 14 28 20 68 29
170 114 255 213 17 21 32 42 32 47 0 5 4 9 9 9 5 0 13 10 17 22 4 13 16 35 27
50 l20 28 32 -20 c18 -11 42 -20 54 -20 25 0 30 -40 6 -60 -8 -7 -15 -20 -15
-30 0 -10 -7 -23 -15 -30 -8 -7 -15 -19 -15 -27 0 -8 -6 -27 -13 -41 -8 -15
-21 -42 -30 -60 -9 -19 -17 -39 -17 -47 0 -7 -7 -18 -15 -25 -8 -7 -15 -21
-15 -30 0 -10 -7 -33 -16 -52 -37 -75 -44 -90 -44 -103 0 -7 -7 -18 -15 -25
-8 -7 -15 -23 -15 -35 0 -12 -7 -28 -15 -35 -8 -7 -15 -22 -15 -34 0 -12 -7
-31 -15 -42 -8 -10 -15 -26 -15 -35 0 -9 -7 -22 -15 -29 -8 -7 -15 -23 -15
-35 0 -12 -7 -28 -15 -35 -8 -7 -15 -22 -15 -34 0 -11 -7 -30 -15 -40 -8 -11
-15 -27 -15 -37 0 -9 -7 -22 -15 -29 -8 -7 -15 -23 -15 -35 0 -12 -7 -28 -15
-35 -8 -7 -15 -19 -15 -27 0 -7 -10 -28 -22 -44 l-23 -31 30 -24 c17 -13 39
-24 50 -24 11 0 29 -7 39 -15 11 -8 27 -15 37 -15 9 0 22 -7 29 -15 7 -8 21
-15 30 -15 10 0 33 -8 52 -17 18 -9 45 -22 60 -30 14 -7 33 -13 41 -13 8 0 20
-7 27 -15 7 -8 21 -15 30 -15 10 0 33 -8 52 -17 18 -9 45 -22 60 -30 14 -7 33
-13 41 -13 8 0 20 -7 27 -15 7 -8 21 -15 30 -15 10 0 33 -8 52 -17 18 -9 45
-22 60 -30 14 -7 33 -13 41 -13 8 0 20 -7 27 -15 7 -8 21 -15 32 -15 11 0 31
-9 45 -20 14 -11 32 -20 39 -20 20 0 44 29 44 54 0 13 7 29 15 36 8 7 15 23
15 35 0 12 7 28 15 35 8 7 15 22 15 34 0 12 7 31 15 42 8 10 15 26 15 35 0 9
7 22 15 29 8 7 15 21 15 30 0 10 8 33 17 52 9 18 22 45 30 60 7 14 13 33 13
41 0 8 7 20 15 27 8 7 15 21 15 30 0 10 8 33 17 52 9 18 22 45 30 60 7 14 13
33 13 41 0 8 7 20 15 27 8 7 15 23 15 35 0 12 7 28 15 35 8 7 15 22 15 34 0
11 7 30 15 40 8 11 15 27 15 37 0 9 7 22 15 29 8 7 15 21 15 30 0 10 8 33 17
52 30 60 33 68 33 82 0 7 7 20 16 27 14 11 22 10 55 -9 21 -12 46 -22 56 -22
22 0 43 -18 43 -38 0 -7 -15 -32 -33 -55 -19 -23 -37 -49 -41 -57 -3 -8 -15
-28 -26 -45 -18 -28 -22 -35 -35 -67 -3 -7 -9 -20 -13 -28 -26 -46 -42 -84
-42 -98 0 -9 -7 -26 -15 -36 -8 -11 -15 -31 -15 -45 -1 -14 -7 -37 -15 -51 -8
-14 -14 -40 -15 -58 0 -18 -7 -49 -16 -70 -24 -55 -24 -490 0 -544 9 -21 16
-54 16 -75 0 -21 7 -47 15 -57 8 -11 15 -34 15 -52 0 -17 7 -37 15 -44 8 -7
15 -25 15 -40 0 -15 7 -33 15 -40 8 -7 15 -23 15 -35 0 -12 7 -28 15 -35 8 -7
15 -21 15 -32 0 -10 7 -21 15 -24 8 -4 15 -12 15 -20 0 -7 14 -33 30 -57 17
-25 30 -50 30 -56 0 -6 4 -11 8 -11 5 0 29 -28 55 -63 25 -35 78 -95 118 -133
40 -38 81 -78 91 -89 18 -19 19 -38 19 -255 l1 -235 -624 -3 -623 -2 0 -510 0
-510 625 -2 624 -3 1 -93 c0 -64 -4 -97 -13 -104 -8 -7 -39 -8 -85 -4 -39 3
-314 6 -610 7 l-539 0 -1 -516 -2 -516 624 3 624 3 -2 -250 c-3 -268 -4 -273
-56 -296 -11 -5 -40 -21 -64 -34 -24 -14 -52 -25 -61 -25 -10 0 -23 -7 -30
-15 -7 -8 -27 -15 -45 -15 -18 0 -38 -7 -45 -15 -7 -8 -29 -15 -49 -15 -20 -1
-47 -7 -61 -15 -14 -8 -45 -15 -70 -15 -25 0 -56 -7 -70 -15 -14 -8 -48 -14
-76 -15 -28 0 -71 -7 -94 -15 -23 -8 -70 -15 -104 -15 -33 0 -86 -7 -116 -15
-30 -8 -93 -15 -140 -15 -47 0 -101 -5 -120 -11 -19 -5 -132 -14 -250 -19
-118 -5 -282 -14 -365 -19 -193 -14 -747 -14 -940 0 -82 5 -247 14 -365 19
-118 5 -231 14 -250 19 -19 6 -73 11 -120 11 -47 0 -110 7 -140 15 -30 8 -83
15 -116 15 -34 0 -81 7 -104 15 -23 8 -66 15 -94 15 -28 1 -62 7 -76 15 -14 8
-45 15 -70 15 -25 0 -56 7 -70 15 -14 8 -41 14 -61 15 -20 0 -42 7 -49 15 -7
8 -27 15 -45 15 -18 0 -38 7 -45 15 -7 8 -20 15 -30 15 -9 0 -37 11 -61 25
-24 13 -53 29 -64 34 -52 23 -53 28 -56 296 l-2 250 624 -3 624 -4 -2 517 -1
517 -579 -1 c-318 -1 -594 -4 -615 -8 -47 -7 -54 8 -53 117 l0 85 625 3 625 2
0 510 0 510 -623 2 -624 3 1 234 c0 264 -10 230 93 327 64 61 138 143 138 152
0 4 13 22 29 39 15 17 31 37 35 45 3 7 15 27 26 43 11 17 24 40 29 52 5 11 15
24 20 28 6 3 11 14 11 24 0 10 7 24 15 31 8 7 15 23 15 35 0 12 7 28 15 35 8
7 15 25 15 40 0 15 7 33 15 40 8 7 15 27 15 44 0 18 7 41 15 52 8 10 15 36 15
57 0 21 7 54 16 75 24 54 23 476 0 541 -9 24 -16 58 -16 75 0 18 -7 41 -15 52
-8 10 -15 33 -15 50 0 16 -7 39 -15 50 -8 10 -15 29 -15 40 0 12 -7 27 -15 34
-8 7 -15 18 -15 25 0 8 -16 44 -36 82 -46 88 -53 100 -91 150 -18 23 -33 48
-33 55 0 19 21 38 42 38 9 0 35 9 57 21 43 22 61 19 61 -10 0 -9 7 -26 15 -37
8 -10 15 -28 15 -39 0 -11 7 -29 15 -39 8 -11 15 -30 15 -42 0 -12 7 -27 15
-34 8 -7 15 -23 15 -35 0 -12 7 -28 15 -35 8 -7 15 -22 15 -34 0 -12 7 -31 15
-42 8 -10 15 -29 15 -40 0 -12 7 -27 15 -34 8 -7 15 -20 15 -29 0 -10 7 -26
15 -37 8 -10 15 -27 15 -36 0 -9 7 -30 15 -47 8 -17 22 -45 30 -62 8 -17 15
-39 15 -49 0 -9 7 -23 15 -30 8 -7 15 -22 15 -34 0 -11 7 -30 15 -40 8 -11 15
-30 15 -42 0 -12 7 -27 15 -34 8 -7 15 -23 15 -35 0 -12 7 -28 15 -35 8 -7 15
-22 15 -34 0 -12 7 -31 15 -42 8 -10 15 -27 15 -37 0 -11 9 -32 20 -48 19 -26
23 -27 48 -16 15 6 33 17 40 24 7 7 21 13 31 13 9 0 26 7 37 15 10 8 29 15 40
15 12 0 27 7 34 15 7 8 20 15 29 15 10 0 26 7 37 15 10 8 27 15 36 15 16 0 30
6 106 44 19 9 42 16 52 16 9 0 23 7 30 15 7 8 23 15 35 15 12 0 28 7 35 15 7
8 22 15 34 15 12 0 31 7 42 15 10 8 29 15 40 15 12 0 27 7 34 15 7 8 22 15 34
15 11 0 30 7 40 15 11 8 29 15 40 15 12 0 30 7 40 15 11 8 30 15 43 15 29 0
29 10 -2 72 -14 27 -25 55 -25 63 0 7 -7 18 -15 25 -8 7 -15 22 -15 34 0 12
-7 31 -15 42 -8 10 -15 29 -15 40 0 12 -7 27 -15 34 -8 7 -15 22 -15 34 0 11
-7 30 -15 40 -8 11 -15 30 -15 42 0 12 -7 27 -15 34 -8 7 -15 20 -15 29 0 10
-7 26 -15 37 -8 10 -15 29 -15 40 0 12 -7 27 -15 34 -8 7 -15 22 -15 34 0 11
-7 30 -15 40 -8 11 -15 30 -15 42 0 12 -7 27 -15 34 -8 7 -15 23 -15 35 0 12
-7 28 -15 35 -8 7 -15 22 -15 34 0 12 -7 31 -15 42 -8 10 -15 29 -15 40 0 12
-7 27 -15 34 -8 7 -15 20 -15 29 0 9 -6 25 -14 36 -7 11 -16 32 -20 48 -3 15
-11 27 -16 27 -6 0 -10 14 -10 30 0 24 4 30 23 30 12 0 36 9 52 20 l30 20 18
-23 c10 -12 23 -34 29 -49z m-482 -3480 l0 -298 -615 0 -615 0 0 298 0 297
615 0 615 0 0 -297z m3780 0 l0 -298 -615 0 -615 0 0 298 0 297 615 0 615 0 0
-297z m-3783 -932 c3 -3 6 -489 3 -563 0 -10 -1230 -10 -1230 0 -3 80 0 559 4
565 4 7 1215 6 1223 -2z m3780 0 c3 -3 6 -489 3 -563 0 -5 -277 -8 -615 -8
-338 0 -615 3 -615 8 -3 80 0 559 4 565 4 7 1215 6 1223 -2z"/>
</g>
</svg>
