<?xml version="1.0" standalone="no"?>
<!DOCTYPE svg PUBLIC "-//W3C//DTD SVG 20010904//EN"
 "http://www.w3.org/TR/2001/REC-SVG-20010904/DTD/svg10.dtd">
<svg version="1.0" xmlns="http://www.w3.org/2000/svg"
 width="300.000000pt" height="300.000000pt" viewBox="0 0 300.000000 300.000000"
 preserveAspectRatio="xMidYMid meet">
<metadata>
Created by potrace 1.10, written by Peter Selinger 2001-2011
</metadata>
<g transform="translate(0.000000,300.000000) scale(0.050000,-0.050000)"
fill="#696e6d" stroke="none">
<path d="M5546 5030 c-18 -38 -39 -70 -46 -70 -8 0 -179 -95 -382 -212 -202
-116 -405 -233 -451 -258 -46 -26 -120 -70 -165 -98 -44 -29 -85 -52 -89 -52
-4 0 -90 -49 -191 -110 -101 -60 -188 -110 -194 -110 -5 0 -43 -22 -84 -50
-40 -27 -92 -50 -115 -50 -22 0 -50 -8 -60 -18 -10 -9 -62 -41 -114 -70 -214
-118 -291 -161 -415 -232 -71 -42 -184 -105 -250 -141 -234 -128 -281 -154
-380 -209 -55 -31 -131 -74 -170 -95 -201 -111 -280 -175 -217 -175 24 0 110
46 577 310 160 90 340 192 400 225 61 34 196 109 300 168 105 59 258 138 340
176 83 37 183 89 224 114 41 26 190 113 330 194 141 81 382 221 536 312 154
91 321 189 370 216 50 28 138 82 196 120 58 39 111 65 116 59 34 -33 -73 -112
-456 -334 -234 -136 -609 -353 -833 -483 -223 -131 -418 -237 -433 -237 -14 0
-88 -35 -163 -77 -75 -42 -191 -107 -257 -143 -66 -36 -264 -147 -440 -246
-176 -100 -423 -239 -550 -309 -126 -71 -238 -136 -247 -145 -10 -9 -39 -7
-66 5 -46 21 -458 -161 -543 -240 -15 -14 -42 -25 -61 -25 -19 0 -50 -19 -70
-41 -19 -23 -45 -38 -58 -34 -12 4 -40 -10 -60 -30 -21 -21 -51 -33 -66 -27
-16 6 -38 -7 -49 -29 -12 -21 -36 -39 -54 -39 -18 0 -49 -14 -68 -32 -19 -17
-48 -33 -63 -35 -16 -3 -45 -20 -64 -39 -18 -19 -47 -34 -62 -34 -16 0 -44
-14 -64 -30 -19 -17 -41 -28 -48 -25 -7 3 -31 -11 -53 -32 -22 -20 -54 -38
-71 -41 -17 -2 -49 -20 -71 -40 -22 -20 -48 -30 -60 -24 -11 7 -28 -2 -38 -21
-11 -18 -38 -35 -61 -36 -23 -2 -58 -17 -77 -33 -20 -17 -71 -48 -113 -69 -97
-50 -115 -83 -93 -179 54 -238 271 -342 416 -197 15 15 38 27 52 27 14 0 42
18 62 40 20 22 47 40 61 40 13 0 35 14 49 30 14 17 42 30 62 30 21 0 38 8 38
18 0 9 31 32 69 50 38 18 75 42 81 53 7 10 30 19 51 19 22 0 39 8 39 18 0 9
29 32 65 50 69 35 113 61 197 116 29 19 57 31 62 25 5 -5 26 9 46 31 20 22 45
40 55 40 10 0 41 18 69 40 28 22 57 35 66 30 8 -5 31 9 50 30 20 22 43 40 52
40 48 0 478 305 478 339 0 29 135 115 555 353 788 448 1093 628 1110 659 9 15
85 67 170 115 85 48 461 265 835 483 473 276 696 396 734 394 117 -7 109 137
-13 233 -27 21 -44 44 -37 51 17 17 -34 73 -67 73 -15 0 -43 -31 -61 -70z
m-1637 -1188 c-10 -10 -199 -120 -419 -243 -563 -316 -1087 -615 -1175 -671
-41 -27 -75 -40 -75 -31 0 16 672 404 1470 851 201 112 234 128 199 94z
m-1000 -640 c-27 -25 -262 -153 -244 -132 16 18 238 148 254 149 5 1 0 -7 -10
-17z m-309 -170 c0 -16 -322 -197 -332 -187 -5 6 65 51 156 102 181 99 176 97
176 85z m-401 -185 c49 -82 41 -117 -9 -40 -21 33 -44 46 -65 38 -46 -17 -104
-79 -89 -94 7 -7 -4 -7 -24 1 -20 8 -42 5 -49 -6 -19 -29 -218 -125 -231 -111
-30 30 79 109 158 114 11 0 32 13 47 27 15 14 37 23 49 19 12 -4 38 9 58 29
20 20 50 36 66 36 17 0 30 14 30 30 0 46 12 37 59 -43z m-230 -203 c-110 -94
-170 -125 -181 -95 -17 44 26 89 73 77 21 -6 39 -1 39 12 0 12 20 22 44 22 25
0 36 -7 25 -16z m-269 -54 c10 -27 28 -50 40 -50 11 0 20 -13 20 -30 0 -16
-13 -30 -28 -30 -16 0 -33 -11 -38 -25 -5 -15 -18 -5 -32 25 -12 28 -33 66
-47 86 -20 29 -20 39 5 54 46 29 59 24 80 -30z m-120 -60 c0 -16 -9 -30 -20
-30 -11 0 -20 -9 -20 -21 0 -11 11 -19 25 -18 80 11 102 -25 37 -60 -32 -17
-45 -9 -80 50 -54 92 -53 109 8 109 31 0 50 -11 50 -30z m-120 -81 c0 -16 -13
-29 -30 -29 -16 0 -30 -9 -30 -20 0 -12 21 -16 48 -9 62 16 87 -25 39 -62 -52
-39 -65 -36 -86 19 -10 26 -28 54 -40 61 -37 23 -23 68 24 76 57 9 75 0 75
-36z m-140 -59 c0 -16 -9 -30 -20 -30 -11 0 -20 -10 -20 -21 0 -13 17 -16 40
-9 51 16 75 -38 35 -78 -32 -32 -75 -8 -75 41 0 47 -43 51 -90 7 -48 -45 -90
-40 -90 10 0 31 69 59 100 40 11 -7 20 1 20 17 0 30 28 48 75 51 14 1 25 -11
25 -28z m-251 -157 c-16 -41 -89 -44 -89 -4 0 35 64 75 86 53 8 -8 10 -30 3
-49z m164 -43 c-34 -34 -73 -25 -73 17 0 49 46 76 77 45 25 -25 24 -33 -4 -62z
m-273 -12 c0 -22 14 -44 30 -51 38 -14 38 -42 0 -80 -36 -36 -70 -19 -70 35 0
22 -13 44 -30 51 -40 15 -38 61 5 84 43 25 65 12 65 -39z m174 -10 c11 -29
-22 -67 -60 -68 -30 0 -40 64 -12 82 41 25 58 22 72 -14z m-294 -50 c0 -21 -9
-38 -20 -38 -11 0 -20 -10 -20 -21 0 -13 17 -16 40 -9 49 16 81 -45 38 -72
-43 -27 -57 -22 -78 27 -11 25 -30 60 -43 77 -18 26 -17 39 5 63 35 38 78 23
78 -27z m-120 -63 c0 -11 -16 -34 -35 -49 -33 -27 -32 -28 9 -20 37 8 108 -36
84 -52 -4 -3 -24 -17 -43 -32 -30 -23 -37 -20 -55 21 -11 26 -31 62 -44 80
-18 26 -18 40 2 64 26 32 82 24 82 -12z m-129 -81 c3 -19 -5 -35 -18 -36 -13
-1 -1 -8 27 -16 27 -8 53 -29 56 -48 5 -24 -2 -30 -25 -22 -24 10 -28 4 -17
-25 23 -62 -38 -1 -83 83 -33 62 -35 75 -10 91 39 24 64 14 70 -27z m-111 -62
c0 -35 -60 -60 -86 -34 -10 10 -12 28 -5 40 19 32 91 27 91 -6z m49 -85 c11
-31 -17 -66 -55 -67 -30 0 -40 64 -12 82 40 25 52 22 67 -15z"/>
<path d="M1804 3002 c-125 -64 -237 -127 -249 -139 -13 -13 -36 -23 -52 -23
-17 0 -44 -13 -61 -29 -29 -26 -188 -113 -482 -264 -60 -31 -114 -62 -120 -68
-11 -13 -151 -88 -200 -107 -16 -7 -57 -30 -90 -52 -33 -21 -134 -74 -224
-118 -163 -80 -216 -132 -194 -191 17 -43 25 -40 96 38 39 43 205 145 442 272
209 112 439 236 510 275 72 40 193 106 270 148 247 136 518 270 596 295 78 25
91 68 22 75 -21 2 -140 -49 -264 -112z"/>
<path d="M2325 2496 c-30 -20 -127 -74 -215 -119 -88 -45 -170 -89 -182 -99
-26 -21 -211 -125 -308 -173 -38 -19 -73 -42 -77 -50 -3 -8 -18 -15 -32 -15
-15 0 -48 -18 -74 -40 l-47 -40 50 17 c28 10 82 37 120 59 316 186 803 411
907 420 96 8 168 57 98 66 -109 14 -194 5 -240 -26z"/>
<path d="M2245 2323 c-124 -64 -229 -113 -233 -108 -5 5 -28 -11 -52 -35 -24
-24 -54 -39 -68 -34 -14 6 -36 -7 -49 -28 -13 -21 -41 -38 -63 -38 -22 0 -40
-8 -40 -19 0 -16 -65 -47 -106 -50 -8 -1 -22 -11 -30 -23 -8 -11 -59 -43 -114
-69 -55 -26 -115 -60 -133 -75 -19 -15 -47 -29 -64 -32 -17 -2 -49 -20 -71
-40 -22 -20 -47 -31 -57 -25 -10 6 -33 -7 -51 -28 -19 -21 -46 -39 -61 -39
-16 0 -39 -13 -53 -30 -14 -16 -41 -30 -60 -30 -19 0 -46 -13 -60 -30 -14 -16
-40 -30 -59 -30 -18 0 -52 -17 -75 -39 -23 -21 -48 -32 -55 -25 -8 8 -23 -2
-33 -21 -11 -19 -33 -35 -49 -35 -51 0 -90 -85 -71 -153 67 -233 213 -335 352
-246 33 21 83 50 110 63 28 14 55 32 60 39 6 8 33 24 60 36 28 12 77 39 110
61 33 22 83 51 110 64 28 14 55 31 60 38 9 11 67 44 180 102 28 14 55 31 60
38 9 11 61 40 180 102 28 14 67 41 88 60 21 19 44 31 52 26 8 -5 31 9 50 30
20 22 48 40 63 40 15 0 42 14 62 30 19 17 44 31 55 31 11 1 38 17 60 37 22 19
123 87 225 150 121 76 185 128 185 151 0 20 14 47 30 61 45 37 36 110 -22 178
-51 62 -128 84 -128 38 0 -19 -5 -19 -24 0 -32 32 -17 37 -271 -93z m294 -56
c23 -39 39 -82 35 -95 -4 -12 -23 8 -42 44 -18 36 -41 61 -51 55 -9 -6 -13 7
-7 29 14 53 15 52 65 -33z m-149 -72 c9 8 10 4 2 -10 -8 -14 -26 -25 -40 -25
-33 0 -149 -57 -206 -101 -67 -51 -31 -63 56 -18 104 53 139 49 77 -8 -90 -83
-159 -112 -159 -65 0 15 -13 38 -30 52 -51 43 -33 73 65 110 52 20 112 48 134
62 25 18 46 20 61 8 13 -11 31 -13 40 -5z m-350 -185 c0 -16 -9 -30 -20 -30
-11 0 -20 -9 -20 -21 0 -11 11 -19 25 -18 54 7 75 -2 75 -34 0 -19 -6 -28 -13
-21 -7 8 -25 4 -39 -7 -19 -16 -31 -10 -50 25 -13 25 -33 52 -44 59 -11 7 -14
27 -8 45 16 41 94 42 94 2z m-120 -53 c0 -12 -16 -36 -35 -51 -33 -27 -32 -28
9 -20 37 8 108 -36 84 -52 -4 -3 -24 -17 -43 -32 -30 -23 -37 -20 -55 21 -11
26 -31 63 -45 83 -20 29 -20 39 5 54 41 26 80 25 80 -3z m-142 -118 c-42 -32
-52 -33 -77 -8 -42 41 30 95 87 65 37 -20 37 -22 -10 -57z m-108 -46 c0 -19
14 -43 30 -53 23 -15 25 -27 8 -54 -29 -46 -75 -46 -84 -1 -4 19 3 35 15 35
11 0 21 10 21 21 0 12 -17 16 -38 10 -53 -17 -74 26 -29 60 46 34 77 27 77
-18z m190 -5 c0 -32 -79 -81 -98 -62 -33 33 -27 70 13 79 35 8 85 -2 85 -17z
m-320 -55 c0 -38 -41 -71 -72 -59 -39 14 -35 60 7 83 39 22 65 12 65 -24z
m-120 -71 c0 -39 -50 -70 -82 -51 -30 19 -20 66 17 75 61 16 65 15 65 -24z
m180 -26 c0 -39 -53 -75 -77 -51 -30 30 -29 50 2 84 26 28 75 6 75 -33z m-300
-35 c0 -35 -66 -69 -89 -45 -22 22 -10 64 19 64 17 0 30 10 30 21 0 12 9 16
20 9 11 -7 20 -29 20 -49z m180 -22 c0 -34 -57 -83 -80 -69 -28 17 -25 65 5
77 43 17 75 14 75 -8z m-306 -31 c7 -20 -1 -40 -21 -52 -19 -10 -28 -27 -22
-38 8 -13 22 -12 39 2 19 16 35 12 61 -14 33 -33 33 -37 3 -42 -19 -4 -34 -15
-34 -25 0 -29 -55 1 -67 37 -7 19 -23 49 -36 67 -20 27 -19 40 2 65 33 41 59
41 75 0z m180 -40 c12 -32 -28 -72 -62 -62 -50 16 -51 94 -1 94 28 0 56 -14
63 -32z m-303 -30 c18 -28 -41 -87 -69 -69 -12 7 -22 27 -22 43 0 17 9 25 20
18 11 -7 20 -3 20 9 0 28 34 27 51 -1z m-104 -109 c-6 -16 3 -34 21 -41 41
-16 42 -68 1 -68 -17 0 -26 -9 -19 -20 7 -11 -2 -14 -21 -7 -19 8 -28 27 -22
50 5 20 1 32 -9 26 -10 -6 -18 -3 -18 8 0 11 11 25 25 31 14 6 5 7 -20 0 -35
-8 -45 -2 -45 29 0 44 56 66 94 38 13 -10 19 -31 13 -46z m141 19 c45 -17 40
-61 -8 -74 -45 -12 -69 14 -52 57 12 33 16 34 60 17z m-274 -63 c6 -19 25 -50
41 -69 26 -30 26 -38 -1 -65 -27 -27 -33 -26 -57 3 -21 25 -22 34 -2 41 14 5
25 17 25 28 0 10 -11 17 -25 16 -52 -7 -75 2 -75 29 0 26 26 46 66 50 8 1 21
-14 28 -33z"/>
<path d="M504 1496 c-27 -27 -32 -89 -9 -103 9 -5 36 21 61 59 47 71 8 104
-52 44z"/>
</g>
</svg>
