<?xml version="1.0" standalone="no"?>
<!DOCTYPE svg PUBLIC "-//W3C//DTD SVG 20010904//EN"
 "http://www.w3.org/TR/2001/REC-SVG-20010904/DTD/svg10.dtd">
<svg version="1.0" xmlns="http://www.w3.org/2000/svg"
 width="900.000000pt" height="900.000000pt" viewBox="0 0 900.000000 900.000000"
 preserveAspectRatio="xMidYMid meet">
<metadata>
Created by potrace 1.10, written by Peter Selinger 2001-2011
</metadata>
<g transform="translate(0.000000,900.000000) scale(0.100000,-0.100000)"
fill="#696e6d" stroke="none">
<path d="M8351 7604 c-22 -28 -30 -108 -12 -119 6 -3 39 8 75 25 75 36 83 55
40 95 -36 33 -77 32 -103 -1z"/>
<path d="M8457 7470 c-16 -13 -30 -39 -38 -71 -13 -48 -18 -55 -87 -100 -40
-27 -76 -49 -79 -49 -3 0 -50 -27 -105 -60 -54 -33 -103 -60 -107 -60 -4 0
-27 -13 -49 -30 -23 -16 -45 -30 -48 -30 -3 0 -51 -27 -106 -60 -54 -33 -101
-60 -103 -60 -2 0 -84 -47 -181 -105 -97 -58 -178 -105 -179 -105 -4 0 -251
-144 -275 -160 -8 -6 -22 -13 -30 -17 -8 -3 -82 -46 -163 -95 -82 -48 -151
-88 -153 -88 -2 0 -49 -27 -105 -60 -55 -33 -103 -60 -106 -60 -6 0 -171 -97
-323 -190 -69 -42 -132 -80 -140 -83 -8 -4 -31 -17 -50 -28 -19 -12 -53 -31
-75 -42 -22 -12 -54 -32 -71 -44 -27 -20 -34 -21 -62 -11 -26 10 -34 9 -49 -4
-10 -8 -52 -33 -93 -54 -41 -21 -103 -55 -138 -76 -34 -21 -64 -38 -67 -38 -2
0 -39 -20 -81 -45 -41 -25 -79 -45 -83 -45 -3 0 -24 -12 -45 -26 -21 -15 -66
-41 -100 -59 -115 -60 -191 -102 -233 -128 -24 -15 -45 -27 -49 -27 -4 0 -40
-20 -81 -45 -40 -25 -76 -45 -80 -45 -3 0 -39 -20 -80 -45 -40 -25 -76 -45
-79 -45 -4 0 -108 -60 -174 -100 -38 -23 -297 -166 -314 -173 -10 -4 -31 -17
-48 -28 -16 -12 -49 -32 -74 -45 -24 -13 -65 -36 -91 -50 -27 -15 -72 -40
-102 -55 -30 -16 -62 -36 -71 -44 -9 -8 -20 -15 -23 -15 -4 0 -54 -27 -111
-60 -57 -33 -108 -60 -112 -60 -4 0 -38 -20 -75 -45 -37 -25 -73 -45 -79 -45
-7 0 -28 14 -47 30 -35 31 -52 36 -81 21 -9 -4 -98 -48 -197 -96 -223 -108
-197 -95 -280 -140 -38 -21 -83 -45 -100 -53 -16 -9 -35 -22 -41 -30 -9 -12
-17 -13 -44 -4 -18 7 -34 12 -36 12 -2 0 -7 -14 -12 -32 -4 -17 -16 -36 -27
-42 -11 -6 -37 -21 -58 -34 -36 -21 -40 -22 -56 -8 -25 22 -29 21 -48 -21 -10
-21 -31 -44 -47 -52 -16 -7 -31 -22 -33 -32 -6 -23 -12 -23 -37 -4 -28 21 -45
18 -56 -10 -9 -24 -67 -67 -115 -85 -17 -7 -25 -5 -29 6 -10 26 -35 15 -56
-25 -13 -27 -32 -45 -59 -58 -33 -14 -41 -23 -41 -45 0 -39 -18 -35 -22 5 -4
43 -26 41 -58 -7 -15 -21 -41 -44 -58 -52 -18 -7 -35 -20 -38 -29 -6 -14 -9
-13 -29 5 l-23 21 -28 -39 c-15 -21 -45 -49 -66 -61 -28 -16 -38 -28 -38 -47
0 -14 -4 -22 -10 -19 -5 3 -10 14 -10 24 0 10 -6 24 -14 30 -12 10 -19 8 -35
-8 -11 -11 -23 -32 -27 -46 -4 -14 -13 -25 -23 -25 -23 0 -61 -37 -61 -59 0
-10 7 -24 15 -31 8 -7 15 -18 15 -24 0 -6 11 -16 24 -22 26 -12 23 -18 42 75
7 35 30 32 45 -5 13 -36 34 -29 45 14 9 35 11 37 49 37 36 0 40 3 45 30 4 21
12 31 27 33 19 3 23 -3 29 -38 4 -22 11 -43 15 -46 5 -3 9 -17 9 -31 0 -14 8
-32 17 -39 17 -12 17 -15 0 -45 -17 -30 -17 -32 0 -45 10 -7 21 -14 25 -14 11
0 88 -84 93 -102 8 -24 -22 -77 -49 -88 -13 -5 -26 -14 -28 -21 -5 -15 -78 30
-107 67 -12 15 -24 45 -28 66 -5 32 -12 43 -39 55 -22 11 -35 26 -39 45 -9 39
-25 45 -25 9 0 -18 7 -34 18 -40 16 -9 16 -11 0 -39 -17 -28 -15 -42 4 -42 4
0 8 9 8 20 0 23 15 27 24 5 3 -8 12 -15 21 -15 18 0 20 -17 3 -22 -13 -5 44
-89 81 -120 31 -26 27 -48 -8 -48 -17 0 -33 -4 -36 -10 -3 -5 -15 -10 -26 -10
-12 0 -19 -7 -19 -20 0 -28 -15 -25 -70 15 -45 33 -92 101 -89 128 3 29 -3 39
-30 48 -19 7 -34 22 -41 42 -7 18 -14 26 -17 19 -6 -16 16 -72 28 -72 5 0 14
-10 20 -22 10 -18 8 -24 -7 -35 -16 -12 -17 -15 -4 -23 8 -5 20 -10 26 -10 6
0 15 -10 21 -23 6 -12 29 -43 52 -69 49 -55 52 -72 12 -63 -19 4 -34 1 -44 -9
-9 -9 -20 -16 -26 -16 -10 0 -15 -14 -12 -32 4 -26 -57 15 -115 76 -30 33 -44
56 -44 75 0 28 -20 53 -52 64 -11 4 -18 17 -18 31 0 14 -4 28 -10 31 -19 12
-10 -36 15 -75 14 -22 25 -47 25 -56 0 -9 9 -18 20 -21 13 -4 20 -14 20 -30 0
-15 15 -39 40 -64 27 -27 40 -49 40 -66 0 -21 -3 -24 -12 -15 -19 19 -30 14
-23 -9 6 -17 4 -20 -12 -15 -12 4 -30 -1 -46 -14 -27 -22 -47 -26 -47 -10 0 6
-5 10 -10 10 -6 0 -16 5 -23 10 -7 6 -24 19 -39 31 -16 11 -28 29 -28 39 0 29
-22 72 -48 98 -29 28 -40 22 -18 -10 9 -12 16 -32 16 -44 0 -12 7 -27 15 -34
8 -7 15 -17 15 -23 0 -5 21 -34 46 -64 34 -39 44 -57 36 -65 -8 -8 -15 -8 -27
2 -12 10 -15 10 -15 -3 0 -9 -9 -21 -20 -27 -11 -6 -20 -21 -20 -35 0 -23 -1
-23 -57 15 -32 21 -69 50 -82 64 -29 31 -41 33 -41 7 0 -10 19 -36 43 -57 45
-41 95 -130 53 -95 -12 10 -86 6 -86 -4 0 -2 4 -15 10 -29 11 -30 -2 -42 -21
-19 -8 9 -36 31 -64 48 -63 41 -79 59 -101 115 -9 25 -32 59 -50 77 -19 18
-34 40 -34 49 0 14 -3 15 -11 7 -12 -12 -10 -21 20 -68 11 -16 20 -39 20 -50
1 -11 10 -26 21 -33 11 -7 20 -18 20 -26 0 -7 25 -39 55 -70 67 -68 77 -112
17 -70 -13 9 -26 13 -30 9 -3 -3 0 -10 8 -15 9 -6 10 -10 3 -10 -21 0 -58 18
-82 41 -21 20 -24 20 -33 5 -7 -13 -13 -14 -30 -5 -16 9 -23 8 -30 -2 -5 -9
-6 -3 -2 16 9 43 20 51 34 25 9 -16 15 -19 23 -11 7 7 6 16 -6 29 -9 10 -17
23 -17 28 0 12 -73 84 -85 84 -4 0 -16 -7 -26 -16 -16 -14 -18 -14 -24 6 -4
12 -4 24 -1 27 3 4 1 12 -5 19 -12 15 -5 44 11 44 5 0 10 -7 10 -15 0 -8 7
-15 15 -15 9 0 12 6 9 15 -4 8 -10 15 -15 15 -5 0 -7 10 -4 23 4 12 1 36 -5
51 -9 25 -7 33 15 62 14 18 25 38 25 45 0 10 4 9 16 -2 17 -17 63 -14 65 5 1
6 2 18 3 26 0 8 13 16 28 18 22 3 30 10 36 34 10 40 25 45 50 18 l20 -21 26
33 c23 29 28 32 46 20 11 -6 27 -12 36 -12 14 0 14 2 3 16 -11 14 -10 18 6 30
16 12 18 18 7 34 -7 11 -8 20 -4 20 14 0 42 -35 42 -52 0 -9 6 -18 14 -21 8
-3 17 -20 21 -38 10 -47 25 -17 25 52 0 49 3 57 24 69 14 7 32 10 41 6 14 -5
16 -1 10 24 -6 27 -4 30 19 30 30 0 60 -31 61 -62 0 -12 6 -23 13 -26 8 -2 12
6 12 25 0 77 5 98 22 95 28 -5 68 27 68 54 0 36 27 30 51 -11 26 -43 34 -44
48 -4 8 24 8 36 -2 47 -6 8 -17 38 -22 66 -13 64 -34 71 -61 20 -10 -20 -39
-49 -64 -65 -45 -28 -45 -28 -63 -8 -18 20 -20 20 -39 2 -11 -10 -24 -28 -29
-41 -5 -12 -17 -25 -26 -29 -10 -4 -31 -16 -46 -27 -27 -20 -29 -20 -38 -3
-16 28 -35 20 -60 -28 -13 -25 -30 -45 -37 -45 -7 0 -24 -7 -38 -16 -23 -16
-26 -15 -45 2 -21 19 -21 18 -57 -22 -21 -23 -45 -44 -55 -47 -10 -4 -17 -16
-17 -32 0 -14 -4 -25 -9 -25 -5 0 -11 -10 -13 -22 -2 -12 -9 -23 -15 -26 -19
-6 -16 35 3 46 22 12 9 32 -19 32 -13 0 -33 -14 -50 -35 -17 -21 -37 -35 -50
-35 -12 0 -45 -20 -72 -45 l-50 -44 1 -78 c1 -86 19 -152 66 -241 58 -109 138
-195 216 -233 58 -29 136 -20 203 21 26 15 60 30 75 32 18 2 33 11 38 24 10
23 101 74 131 74 10 0 40 22 67 50 29 30 57 50 71 50 40 0 62 11 81 38 22 32
81 62 123 62 24 0 33 6 42 28 15 33 92 82 131 82 17 0 34 8 43 20 26 37 94 79
133 82 28 2 42 9 50 26 16 31 98 82 135 82 21 0 32 6 40 23 14 30 92 77 128
77 19 0 34 8 44 24 22 32 106 80 139 78 19 -2 32 6 48 27 32 46 103 90 134 84
21 -4 29 1 43 26 10 17 23 31 30 31 6 0 25 11 41 25 21 18 40 25 63 23 26 -2
35 2 45 21 17 33 103 85 136 83 20 -2 31 4 41 23 7 14 27 33 45 43 17 9 70 42
117 72 47 30 97 62 110 70 13 8 56 35 95 60 39 25 79 50 88 55 28 17 156 103
175 118 12 10 17 29 17 70 l0 55 77 44 c43 23 93 52 113 63 19 11 66 38 105
60 38 22 79 45 90 52 11 7 27 15 35 19 8 4 48 27 88 51 41 24 75 43 77 43 2 0
49 27 105 60 56 33 103 60 106 60 3 0 138 77 174 100 8 5 35 20 60 33 25 14
61 34 80 46 19 11 42 24 50 28 17 7 207 117 230 133 8 6 24 14 36 19 19 8 136
76 174 101 8 6 22 13 30 17 8 4 59 33 113 65 55 32 100 58 102 58 2 0 59 33
126 73 68 40 131 76 139 80 8 4 29 16 45 27 17 11 37 23 45 27 8 4 69 39 135
78 66 39 128 74 138 78 9 3 17 17 17 29 0 32 9 42 60 69 25 14 64 37 87 52 24
15 45 27 47 27 4 0 147 81 176 100 8 6 22 13 30 17 8 4 47 26 85 48 39 23 77
44 85 48 8 4 29 16 45 27 17 11 37 23 45 27 8 4 31 18 50 31 19 13 44 28 55
33 11 5 27 13 35 19 8 5 74 44 145 85 72 41 137 80 145 85 8 6 22 13 30 17 14
6 198 113 230 133 8 6 24 14 35 19 11 5 37 21 58 35 21 14 40 26 42 26 2 0 36
19 77 43 40 24 80 46 88 50 8 4 29 16 45 27 17 11 37 23 45 27 8 4 59 33 113
65 55 32 101 58 104 58 3 0 25 14 50 30 24 17 47 30 50 30 3 0 38 19 77 43 39
24 78 46 86 50 8 4 29 16 45 27 17 11 37 23 45 27 14 6 144 81 180 103 63 39
73 42 110 31 82 -25 113 -9 139 70 8 26 8 44 0 70 -34 103 -94 186 -160 219
-47 25 -50 25 -82 0z m103 -125 c18 -21 5 -47 -22 -43 -31 4 -40 58 -10 58 11
0 25 -7 32 -15z m-60 -75 c15 -35 32 -38 52 -8 l14 22 23 -23 c28 -28 23 -45
-15 -49 -16 -2 -33 -10 -37 -18 -4 -8 -19 -14 -31 -14 -24 0 -45 -9 -106 -48
-19 -12 -41 -22 -49 -22 -7 0 -30 -13 -50 -29 -49 -39 -99 -63 -119 -58 -13 3
-11 6 10 15 14 6 29 16 33 21 3 6 12 11 20 11 23 0 82 43 100 73 13 23 22 27
41 23 17 -5 26 -1 33 13 7 13 18 17 31 14 16 -4 20 0 20 17 0 13 -6 28 -14 34
-7 6 -16 28 -19 48 l-6 38 28 -15 c16 -8 34 -28 41 -45z m-74 -32 c12 -18 -46
-59 -80 -56 -36 4 -45 24 -15 33 13 4 29 14 37 21 16 17 48 18 58 2z m-191
-115 c-30 -21 -51 -16 -24 6 13 11 28 17 33 14 5 -4 1 -12 -9 -20z m-65 -34
c0 -6 -9 -13 -20 -16 -11 -3 -20 -9 -20 -13 0 -5 -24 -20 -52 -33 -29 -14 -68
-36 -87 -51 -19 -14 -42 -26 -51 -26 -9 0 -25 -9 -36 -21 -10 -11 -32 -27 -49
-35 -54 -27 -116 -62 -132 -75 -20 -17 -49 -34 -100 -59 -23 -11 -45 -25 -48
-30 -4 -6 -26 -19 -50 -30 -23 -11 -71 -38 -105 -61 -34 -23 -83 -52 -109 -66
-25 -14 -59 -33 -76 -44 -16 -10 -39 -23 -50 -29 -11 -6 -33 -19 -50 -30 -16
-11 -39 -24 -50 -29 -11 -5 -37 -21 -58 -35 -21 -14 -42 -26 -47 -26 -5 0 -15
-6 -22 -12 -7 -7 -33 -23 -58 -36 -25 -12 -54 -28 -65 -35 -116 -72 -172 -104
-212 -122 -18 -9 -33 -20 -33 -25 0 -6 -6 -10 -13 -10 -7 0 -30 -12 -52 -27
-38 -26 -83 -52 -185 -105 -25 -12 -47 -26 -50 -30 -3 -4 -28 -19 -55 -34 -75
-41 -97 -53 -130 -74 -16 -11 -39 -24 -50 -30 -11 -6 -47 -26 -80 -45 -33 -19
-67 -34 -76 -35 -9 0 -23 -8 -32 -18 -9 -10 -36 -28 -59 -41 -24 -12 -50 -26
-58 -31 -24 -15 -121 -71 -175 -100 -27 -15 -80 -43 -117 -63 -37 -20 -86 -48
-108 -62 -22 -14 -42 -25 -45 -25 -3 0 -52 -27 -107 -60 -56 -33 -106 -60
-110 -60 -5 0 -27 -12 -51 -27 -46 -30 -52 -34 -149 -86 -37 -20 -90 -50 -118
-67 -28 -16 -53 -30 -55 -30 -3 0 -50 -27 -106 -60 -55 -33 -103 -60 -105 -60
-2 0 -33 -18 -69 -40 -35 -22 -79 -46 -97 -55 -18 -8 -54 -27 -80 -42 -70 -42
-236 -137 -293 -168 -27 -16 -67 -39 -88 -52 -21 -13 -48 -28 -60 -34 -12 -5
-31 -15 -42 -22 -11 -7 -51 -30 -90 -52 -38 -22 -79 -45 -90 -52 -11 -7 -27
-15 -35 -19 -53 -26 -180 -106 -180 -114 0 -15 -22 -12 -42 7 -10 9 -18 29
-18 46 0 26 3 28 23 23 17 -4 41 5 83 30 32 20 68 40 79 45 11 5 27 13 35 19
44 28 169 100 174 100 4 0 23 10 44 23 20 13 69 41 107 62 39 20 77 44 86 51
8 8 19 14 22 14 4 0 44 22 89 48 46 27 128 75 183 106 55 31 107 61 115 66 14
9 44 25 175 96 33 18 80 43 105 56 25 13 47 26 50 29 3 4 28 19 55 33 28 15
64 36 80 46 17 11 64 38 105 60 100 53 188 102 285 159 44 25 98 55 120 66 22
11 42 23 43 28 2 4 8 7 14 7 6 0 43 20 84 44 40 25 97 56 126 70 29 14 60 30
68 36 71 45 155 90 170 90 10 0 25 6 32 14 8 7 25 17 38 21 23 7 59 27 115 62
11 7 34 19 50 28 37 18 97 52 150 86 22 14 47 29 55 32 8 4 29 16 45 27 17 11
37 23 45 26 18 8 170 96 287 165 45 27 84 49 87 49 3 0 25 14 49 30 25 17 47
30 50 30 3 0 50 26 104 58 54 32 105 61 113 65 8 4 22 11 30 17 31 19 216 127
230 133 8 4 29 16 45 26 47 31 155 91 162 91 4 0 14 6 22 14 9 7 57 35 106 61
50 27 94 54 98 62 4 7 20 13 34 13 14 0 41 13 60 30 18 17 40 30 47 30 8 0 19
7 27 16 7 8 40 28 74 44 34 16 67 36 74 44 8 9 21 16 31 16 10 0 23 7 30 15
14 17 40 20 40 4z m-40 -109 c-19 -16 -39 -29 -43 -30 -5 0 -23 -10 -40 -22
-18 -13 -48 -31 -67 -41 -41 -21 -79 -43 -135 -77 -63 -39 -115 -64 -120 -58
-8 7 99 78 117 78 8 0 27 14 43 30 16 17 37 30 46 30 10 0 38 14 62 30 25 17
50 30 56 30 6 0 11 4 11 9 0 11 67 48 90 50 8 0 -1 -12 -20 -29z m-476 -280
c-33 -22 -63 -40 -68 -40 -5 0 -17 -6 -25 -14 -9 -7 -74 -47 -146 -89 -71 -41
-146 -84 -165 -97 -58 -36 -419 -249 -484 -284 -34 -19 -101 -58 -151 -88 -49
-30 -202 -119 -340 -198 -266 -152 -356 -209 -377 -238 -14 -18 -155 -107
-293 -184 -44 -25 -144 -81 -222 -126 -78 -45 -177 -100 -220 -123 -43 -23
-85 -48 -94 -55 -8 -8 -18 -14 -22 -14 -3 0 -28 -13 -55 -29 -26 -15 -68 -39
-93 -53 -178 -100 -383 -216 -431 -244 -31 -19 -59 -34 -62 -34 -4 0 -39 -20
-79 -44 -39 -24 -103 -60 -142 -80 -100 -52 -311 -174 -441 -253 -39 -24 -74
-43 -78 -43 -12 0 -186 -101 -214 -125 -27 -22 -30 -23 -51 -9 -30 21 -26 68
7 72 12 2 75 33 140 69 64 36 137 77 162 91 25 14 72 42 106 64 34 21 64 38
67 38 4 0 82 43 174 96 91 53 192 110 222 126 31 17 121 67 201 113 80 45 224
126 320 180 96 54 203 116 238 137 34 21 74 43 89 49 26 10 408 223 473 264
19 12 44 25 55 28 11 4 44 23 73 42 30 19 56 35 59 35 4 0 20 11 37 24 17 13
46 27 64 30 18 4 37 16 42 27 6 10 34 30 63 44 28 15 66 35 82 45 32 20 54 33
125 71 25 14 63 36 85 50 69 43 80 49 100 59 11 6 34 19 50 30 17 11 53 31 80
45 28 14 64 35 80 45 17 11 39 24 50 30 11 6 43 24 70 41 28 16 61 35 75 42
14 6 43 24 64 39 21 16 44 28 49 28 6 0 18 6 26 14 9 7 43 28 76 46 33 18 67
39 76 46 8 8 21 14 27 14 6 0 38 18 71 40 33 22 71 45 83 50 13 6 32 16 43 22
57 37 106 66 161 94 33 18 81 45 105 60 75 48 103 63 123 63 11 1 -5 -15 -40
-39z m-4464 -2277 c0 -5 16 -25 35 -46 19 -21 39 -46 45 -57 6 -11 17 -17 24
-14 19 7 31 -33 16 -51 -9 -11 -7 -19 9 -36 11 -12 26 -19 34 -16 10 4 12 -3
9 -24 -3 -19 5 -44 22 -73 17 -30 22 -47 15 -51 -6 -4 -17 1 -24 11 -7 11 -30
38 -51 61 -53 56 -74 85 -74 100 0 7 -9 22 -20 33 -15 15 -20 16 -20 6 0 -8 4
-17 9 -20 5 -3 7 -15 4 -27 -4 -15 0 -22 15 -26 11 -2 23 -12 26 -21 3 -10 14
-30 25 -47 24 -36 26 -55 7 -55 -8 0 -37 -18 -65 -40 -28 -22 -58 -40 -66 -40
-9 0 -13 -5 -10 -10 3 -6 -4 -14 -17 -19 -13 -5 -40 -23 -62 -40 -21 -17 -44
-31 -51 -31 -6 0 -20 -9 -30 -20 -10 -12 -31 -20 -49 -20 -23 -1 -42 -12 -76
-45 -25 -25 -53 -45 -63 -45 -9 0 -23 -11 -29 -25 -6 -14 -16 -25 -23 -25 -15
0 -105 95 -105 111 0 34 -22 89 -35 89 -27 0 -55 38 -55 75 0 25 -4 35 -15 35
-20 0 -31 -28 -16 -43 6 -6 11 -18 11 -27 0 -8 10 -26 23 -40 13 -14 26 -33
30 -42 3 -10 14 -18 22 -18 12 0 15 -6 10 -20 -7 -21 14 -66 53 -117 15 -21
20 -33 11 -33 -7 0 -30 -8 -50 -17 -28 -13 -39 -24 -39 -40 0 -13 -3 -23 -6
-23 -3 0 -20 10 -37 23 -17 12 -41 27 -52 32 -12 6 -28 34 -40 74 -15 43 -29
68 -46 78 -30 18 -47 60 -56 131 -6 53 7 73 33 51 20 -16 64 16 77 57 13 40
14 40 42 14 l24 -23 10 26 c9 23 14 26 35 17 29 -10 48 6 25 21 -11 7 -9 13
11 28 14 11 27 17 30 14 3 -3 -1 -8 -7 -10 -16 -6 -17 -23 -3 -23 20 0 53 39
46 55 -3 10 -2 14 5 10 5 -4 22 -2 37 3 15 6 40 13 55 16 19 5 27 12 25 24 -2
14 7 18 45 22 38 4 50 10 60 29 8 16 30 30 67 43 30 10 59 23 64 28 6 6 26 10
46 10 19 0 45 3 58 6 19 6 22 11 16 40 -5 27 -3 34 10 34 9 0 16 -3 16 -7z
m-882 -452 c14 -13 22 -30 22 -50 0 -18 6 -34 14 -37 7 -3 14 -16 14 -29 0
-13 14 -42 31 -63 17 -22 31 -43 31 -46 0 -11 -28 -6 -32 6 -2 6 -9 8 -16 4
-17 -10 -4 -33 28 -46 16 -7 48 -36 70 -66 22 -30 45 -54 50 -54 6 0 10 -9 10
-20 0 -24 -9 -25 -36 -5 -27 20 -44 18 -44 -5 0 -11 -6 -20 -14 -20 -7 0 -16
-9 -19 -20 l-5 -20 -34 20 c-52 30 -84 70 -99 124 -9 31 -22 52 -35 58 -12 6
-28 21 -35 34 -15 30 -29 31 -29 3 0 -12 14 -37 30 -56 33 -37 39 -63 15 -63
-8 0 -15 7 -15 15 0 8 -7 15 -15 15 -25 0 -17 -24 12 -37 15 -7 32 -13 38 -13
6 0 19 -15 29 -34 10 -19 25 -37 32 -40 21 -8 17 -36 -5 -36 -11 0 -22 -9 -26
-19 -6 -20 -66 -71 -83 -71 -5 0 -30 16 -55 35 -36 27 -48 44 -53 73 -9 49
-16 62 -59 105 -25 25 -35 44 -35 65 0 38 -16 50 -38 28 -15 -14 -15 -17 2
-29 11 -8 16 -18 13 -24 -3 -5 9 -33 28 -62 40 -60 40 -61 20 -61 -8 0 -15 7
-15 15 0 16 -15 20 -24 7 -8 -14 35 -44 55 -39 13 4 19 0 19 -13 0 -10 7 -24
16 -31 9 -7 20 -24 25 -37 5 -13 18 -26 29 -29 20 -5 37 -39 25 -51 -3 -3 -14
-1 -25 5 -15 10 -21 8 -34 -12 -9 -14 -23 -25 -31 -25 -8 0 -18 -7 -23 -15
-20 -38 -132 60 -132 116 0 32 -38 79 -64 79 -8 0 -17 13 -21 30 -5 21 -13 30
-26 30 -25 0 -24 -12 5 -43 26 -28 43 -77 26 -77 -18 0 -11 -15 14 -30 21 -13
116 -139 116 -154 0 -3 -6 -3 -13 0 -8 3 -19 -7 -26 -22 -9 -20 -15 -24 -23
-16 -18 18 -28 14 -28 -9 0 -18 -4 -20 -27 -14 -62 15 -110 72 -127 147 -3 15
-19 35 -35 44 -25 15 -30 26 -36 73 -4 31 -11 61 -17 68 -5 6 -6 27 -3 47 l7
35 50 -3 49 -4 -6 40 -7 40 22 -19 c12 -10 26 -28 31 -40 5 -14 17 -23 30 -23
19 0 20 4 15 35 -4 19 -2 43 3 54 13 24 57 33 72 15 20 -24 30 -15 23 21 -7
39 0 43 34 19 29 -20 56 -3 47 30 -6 20 -5 20 9 2 19 -23 32 -15 40 25 5 25 9
29 26 24 17 -5 20 -2 20 20 0 27 31 48 38 26 2 -7 12 -20 22 -29 11 -10 26
-31 34 -47 16 -30 16 -30 16 -4 0 14 -4 29 -9 35 -13 13 -1 64 16 71 8 3 20
-3 27 -12 8 -11 20 -16 30 -12 20 8 21 27 1 27 -9 0 -12 6 -8 16 5 15 7 15 15
0 10 -18 38 -22 38 -6 0 6 -9 19 -20 30 -40 40 -16 67 28 31z m-1232 -657 c-5
-13 -10 -14 -18 -6 -6 6 -8 18 -4 28 5 13 10 14 18 6 6 -6 8 -18 4 -28z m-374
-176 c-9 -9 -12 -7 -12 12 0 19 3 21 12 12 9 -9 9 -15 0 -24z m320 -520 c-9
-9 -15 -9 -24 0 -9 9 -7 12 12 12 19 0 21 -3 12 -12z"/>
<path d="M3170 4331 c0 -12 5 -21 10 -21 6 0 10 6 10 14 0 8 -4 18 -10 21 -5
3 -10 -3 -10 -14z"/>
<path d="M2550 3862 c0 -21 29 -52 48 -52 19 0 14 18 -8 30 -11 6 -20 17 -20
25 0 8 -4 15 -10 15 -5 0 -10 -8 -10 -18z"/>
<path d="M8235 7410 c-3 -5 -22 -10 -40 -10 -24 0 -38 -6 -45 -20 -6 -12 -21
-20 -36 -20 -13 0 -27 -7 -30 -15 -4 -8 -12 -15 -20 -15 -17 0 -84 -41 -102
-63 -8 -9 -35 -23 -62 -32 -26 -9 -51 -22 -53 -29 -3 -7 -19 -16 -35 -19 -17
-3 -46 -20 -65 -37 -19 -16 -39 -30 -43 -30 -5 0 -20 -9 -34 -20 -14 -11 -35
-20 -47 -20 -12 0 -27 -9 -33 -20 -6 -11 -19 -20 -28 -20 -10 0 -41 -16 -71
-35 -29 -19 -55 -35 -57 -35 -2 0 -30 -18 -62 -39 -74 -50 -132 -81 -154 -81
-9 0 -21 -6 -25 -13 -4 -7 -35 -28 -68 -46 -33 -19 -74 -46 -92 -61 -17 -16
-46 -31 -65 -35 -18 -4 -39 -16 -46 -26 -7 -11 -22 -19 -32 -19 -10 0 -39 -16
-64 -35 -26 -19 -50 -35 -54 -35 -4 0 -39 -21 -77 -46 -39 -26 -85 -50 -102
-56 -18 -5 -45 -20 -59 -33 -15 -14 -32 -25 -39 -25 -7 0 -24 -11 -39 -25 -15
-14 -31 -25 -36 -25 -5 0 -26 -11 -46 -25 -20 -14 -44 -25 -54 -25 -9 0 -36
-13 -58 -30 -23 -16 -45 -30 -49 -30 -4 0 -40 -23 -80 -51 -40 -27 -110 -69
-155 -91 -81 -41 -176 -105 -177 -120 -1 -13 25 -9 55 7 16 8 38 15 50 15 18
0 66 27 160 88 10 7 37 21 59 31 22 10 55 33 74 50 19 17 40 31 46 31 7 0 24
9 38 20 14 11 31 20 38 20 7 0 20 6 28 14 9 7 48 30 86 51 80 42 125 69 181
106 21 14 49 29 62 33 13 4 56 30 97 57 41 27 80 49 86 49 7 0 21 7 31 17 20
18 50 36 86 53 13 5 30 17 38 25 9 8 24 15 33 15 10 0 29 8 42 18 13 10 32 21
41 25 11 4 15 12 12 22 -5 11 1 15 23 15 18 0 42 11 59 25 16 14 40 28 54 32
14 3 45 21 69 40 24 18 49 33 54 33 11 0 141 75 167 96 8 7 44 28 80 47 36 19
92 49 125 66 33 18 66 41 74 52 7 10 21 19 30 19 10 0 26 7 37 15 10 8 25 15
32 15 8 0 26 9 40 21 46 35 117 79 128 79 6 0 17 7 24 16 8 8 27 21 44 29 17
8 47 27 66 44 32 27 33 30 13 31 -12 0 -25 -4 -28 -10z"/>
<path d="M5672 5995 c-13 -7 -39 -27 -59 -44 -22 -19 -46 -31 -64 -31 -18 0
-32 -7 -39 -19 -5 -11 -20 -23 -32 -26 -13 -4 -40 -20 -60 -36 -20 -16 -43
-29 -50 -29 -21 0 -91 -38 -101 -55 -4 -8 -16 -15 -26 -15 -10 0 -35 -11 -55
-25 -20 -14 -43 -25 -51 -25 -8 0 -23 -8 -34 -19 -10 -10 -47 -33 -82 -50 -82
-41 -105 -54 -126 -74 -10 -8 -43 -26 -74 -40 -31 -13 -59 -32 -62 -41 -4 -10
-18 -16 -35 -16 -16 0 -35 -7 -42 -15 -7 -8 -18 -15 -25 -15 -8 0 -15 -4 -17
-8 -5 -12 -74 -52 -89 -52 -8 0 -20 -9 -26 -19 -8 -12 -19 -17 -32 -14 -13 3
-23 -2 -30 -16 -7 -12 -20 -21 -31 -21 -24 0 -87 -37 -94 -55 -3 -9 -18 -15
-36 -15 -23 0 -33 -6 -42 -25 -6 -14 -18 -25 -26 -25 -21 0 -118 -49 -133 -66
-6 -8 -16 -14 -21 -14 -18 0 -98 -41 -98 -50 0 -10 -72 -50 -90 -50 -6 0 -26
-11 -43 -24 -18 -13 -45 -26 -61 -30 -16 -4 -41 -20 -57 -37 -16 -18 -37 -29
-53 -29 -15 0 -29 -7 -32 -15 -4 -8 -14 -15 -23 -15 -9 -1 -32 -14 -51 -30
-19 -17 -43 -30 -53 -30 -10 0 -53 -24 -95 -53 -42 -30 -85 -56 -94 -60 -21
-8 -24 -35 -5 -43 8 -3 36 7 64 21 28 14 54 25 58 25 4 0 24 14 45 30 21 17
44 30 51 30 8 0 36 16 63 35 27 19 54 35 60 35 6 0 24 11 40 25 17 14 41 28
55 32 14 3 60 28 101 55 41 26 81 48 89 48 7 0 24 11 37 25 13 14 34 25 47 25
14 0 30 7 37 15 7 8 20 15 29 15 9 0 30 13 46 28 29 27 89 62 107 62 5 0 43
22 86 49 148 94 160 101 172 101 10 0 85 43 193 112 23 14 48 27 55 27 17 1
135 64 166 89 14 10 40 25 58 33 18 7 37 19 41 26 4 7 14 13 20 13 17 0 70 27
137 71 30 20 89 53 130 73 41 21 82 44 90 51 8 7 31 20 50 28 19 9 49 24 65
33 17 9 37 21 46 25 9 4 52 26 95 48 44 22 91 45 107 50 15 6 27 18 27 26 0
13 -7 15 -34 10 -20 -4 -36 -2 -40 4 -9 13 -14 13 -44 -4z"/>
<path d="M3070 4663 c-59 -21 -141 -69 -148 -85 -2 -5 -11 -8 -19 -8 -9 0 -47
-18 -85 -40 -39 -22 -76 -40 -84 -40 -8 0 -23 -9 -34 -20 -11 -11 -29 -20 -40
-20 -11 0 -23 -6 -26 -14 -3 -8 -20 -18 -37 -21 -18 -4 -50 -17 -72 -30 -22
-13 -64 -31 -93 -40 -29 -10 -52 -23 -52 -31 0 -7 -13 -20 -30 -29 -16 -9 -30
-20 -30 -25 0 -6 -12 -10 -27 -10 -41 0 -91 -22 -96 -42 -3 -10 -14 -18 -26
-18 -11 0 -32 -12 -48 -26 -15 -14 -40 -28 -55 -31 -38 -8 -115 -80 -101 -94
16 -16 97 17 141 58 19 18 40 33 46 33 23 0 112 49 135 74 14 14 32 26 40 26
9 0 39 12 66 25 28 14 55 25 61 25 6 0 17 7 24 15 12 15 153 85 171 85 5 0 26
11 47 23 80 51 302 155 351 166 63 13 91 27 91 45 0 12 -41 57 -51 55 -2 0
-11 -3 -19 -6z"/>
<path d="M1872 4033 c-21 -3 -47 -18 -72 -42 -21 -20 -58 -43 -82 -51 -76 -23
-93 -32 -113 -64 -16 -25 -29 -32 -68 -38 -33 -4 -59 -17 -87 -41 -25 -21 -69
-43 -115 -58 -41 -13 -77 -31 -80 -39 -7 -18 -70 -60 -90 -60 -8 0 -35 -15
-60 -32 -91 -64 -100 -68 -126 -63 -17 4 -30 0 -39 -10 -7 -8 -18 -15 -24 -15
-6 0 -18 -12 -27 -28 -12 -21 -28 -30 -70 -39 -41 -10 -62 -22 -89 -50 -40
-44 -79 -64 -109 -56 -12 3 -27 -2 -36 -11 -9 -9 -22 -16 -28 -16 -7 0 -32
-16 -56 -35 -29 -23 -51 -33 -63 -29 -10 3 -18 1 -18 -3 0 -5 -15 -17 -32 -26
-18 -9 -40 -21 -48 -26 -8 -5 -34 -18 -57 -28 -63 -28 -98 -115 -68 -173 14
-28 35 -33 35 -9 0 16 67 107 97 133 15 13 60 44 100 70 40 25 75 51 78 56 3
6 15 10 26 10 25 0 80 27 99 49 8 10 33 23 56 29 23 7 58 23 78 37 20 14 42
25 48 25 5 0 19 11 30 25 10 13 22 24 26 23 11 -2 66 20 102 40 42 24 60 34
120 65 36 18 116 59 178 90 61 32 112 61 112 66 0 4 26 20 58 34 31 15 77 39
102 53 70 41 137 74 149 74 6 0 18 11 27 25 9 14 22 25 28 25 7 0 35 11 62 25
27 14 54 25 60 25 5 0 20 13 32 29 20 28 20 43 -2 39 -6 0 -26 -3 -44 -5z"/>
<path d="M3550 3760 c-14 -11 -30 -20 -36 -20 -6 0 -23 -9 -37 -20 -14 -11
-32 -20 -39 -20 -8 0 -25 -11 -38 -25 -13 -14 -31 -25 -41 -25 -9 0 -22 -7
-29 -15 -7 -8 -30 -18 -51 -21 -21 -4 -48 -17 -60 -30 -12 -13 -30 -24 -40
-24 -9 0 -22 -6 -28 -14 -7 -8 -29 -17 -50 -21 -22 -3 -49 -17 -62 -31 -12
-13 -30 -24 -38 -24 -18 0 -94 -28 -128 -48 -12 -6 -25 -21 -28 -32 -3 -11
-15 -20 -25 -20 -10 0 -22 -4 -25 -10 -3 -5 -14 -10 -24 -10 -10 0 -24 -6 -30
-14 -7 -8 -24 -17 -38 -21 -15 -3 -40 -17 -56 -31 -16 -13 -37 -24 -47 -24 -9
0 -23 -7 -30 -15 -7 -8 -18 -15 -25 -15 -7 0 -32 -17 -55 -39 -33 -30 -54 -40
-93 -45 -42 -6 -57 -14 -94 -52 -24 -25 -48 -42 -54 -39 -16 11 -99 -33 -134
-71 -20 -21 -42 -34 -58 -34 -35 0 -76 -23 -114 -65 -26 -29 -39 -35 -72 -35
-22 0 -44 -6 -48 -13 -16 -26 -131 -96 -158 -97 -11 0 -35 -13 -53 -30 -18
-16 -39 -30 -47 -30 -7 0 -15 -6 -18 -14 -3 -8 -27 -18 -52 -22 -34 -5 -56
-16 -80 -40 -20 -19 -54 -39 -86 -48 -29 -9 -63 -26 -76 -38 -21 -20 -22 -23
-7 -40 16 -17 18 -16 54 12 21 17 42 30 48 30 5 0 15 7 22 15 7 8 37 22 66 31
29 8 66 27 82 42 34 31 74 52 102 52 11 0 29 14 42 30 13 18 28 28 36 25 8 -3
21 3 28 14 8 11 29 23 47 26 42 9 86 32 117 59 14 13 46 30 71 40 25 9 61 28
79 41 19 14 39 25 46 25 6 0 17 6 23 14 6 7 24 16 39 20 15 3 47 19 72 36 69
46 71 47 135 76 33 14 71 38 85 53 18 19 45 32 88 41 48 11 70 22 93 48 17 18
43 35 59 39 16 3 35 12 41 19 6 8 17 14 23 14 6 0 37 18 70 40 32 22 65 40 73
40 7 0 30 11 51 23 43 28 248 127 261 127 5 0 14 6 20 14 6 7 33 21 59 31 26
10 64 29 84 41 20 13 48 26 62 30 14 3 30 12 36 19 6 7 49 23 95 36 50 14 85
29 85 36 0 7 5 13 10 13 6 0 10 7 10 15 0 8 -16 19 -37 24 -48 14 -43 14 -73
-9z"/>
<path d="M3740 3766 c-6 -8 -10 -25 -8 -38 3 -21 8 -23 53 -23 44 0 50 3 53
22 6 40 -71 71 -98 39z"/>
<path d="M3818 3633 c-8 -10 -18 -26 -21 -35 -9 -26 -38 -22 -63 9 -20 25 -24
26 -49 15 -14 -7 -31 -10 -36 -6 -6 3 -17 0 -26 -7 -17 -15 -50 -35 -73 -45
-60 -26 -342 -169 -346 -175 -3 -5 -14 -9 -24 -9 -10 0 -25 -6 -32 -14 -8 -7
-23 -16 -35 -20 -11 -4 -33 -18 -49 -33 -23 -21 -31 -23 -46 -14 -30 19 -46
12 -58 -23 -14 -44 -105 -95 -138 -77 -29 16 -32 15 -44 -19 -6 -18 -29 -43
-54 -61 -24 -16 -44 -35 -44 -40 0 -6 -12 -1 -26 10 -35 28 -43 27 -56 -9 -7
-21 -28 -41 -70 -66 -60 -34 -61 -35 -75 -14 -21 29 -29 25 -50 -25 -11 -27
-24 -45 -34 -45 -9 0 -26 -9 -39 -20 -25 -22 -45 -26 -55 -10 -12 20 -30 9
-53 -30 -12 -22 -29 -40 -37 -40 -20 0 -65 -44 -65 -64 0 -27 -18 -18 -22 11
-5 41 -31 40 -53 -2 -11 -19 -34 -42 -51 -50 -18 -8 -34 -22 -38 -30 -7 -20
-33 -19 -45 3 -13 23 -41 7 -60 -36 -8 -18 -22 -32 -32 -32 -21 0 -59 -46 -59
-71 0 -11 -4 -19 -10 -19 -5 0 -10 13 -10 29 0 16 -6 34 -14 40 -11 9 -18 6
-35 -18 -12 -16 -21 -34 -21 -39 0 -13 -66 -52 -89 -52 -9 0 -22 5 -29 12 -9
9 -17 6 -37 -12 -13 -13 -27 -31 -30 -40 -3 -9 -23 -27 -45 -41 -27 -16 -40
-31 -40 -46 0 -35 -18 -27 -22 9 -4 47 -29 46 -58 -2 -17 -27 -40 -47 -68 -60
-41 -18 -43 -22 -37 -50 4 -20 3 -30 -6 -30 -8 0 -10 12 -6 41 7 56 -16 64
-57 18 -16 -19 -39 -39 -51 -44 -12 -6 -21 -23 -23 -40 -2 -17 -10 -34 -18
-38 -8 -4 -14 -15 -14 -24 0 -12 -3 -14 -11 -6 -8 8 -8 17 0 31 33 62 -12 70
-60 12 -23 -28 -41 -40 -59 -40 -17 0 -40 -15 -70 -45 l-45 -46 1 -77 c4 -166
111 -355 259 -457 51 -36 58 -38 113 -33 39 4 73 15 99 31 22 14 59 31 83 37
26 7 44 18 47 29 5 19 99 71 129 71 9 0 39 22 66 50 42 43 55 50 87 50 33 0
42 5 62 35 25 36 74 62 124 67 19 2 34 11 41 27 17 34 97 81 138 81 26 0 36 5
41 20 9 29 83 74 130 80 27 3 43 11 49 25 17 38 92 85 135 85 35 0 42 4 47 25
8 30 88 80 126 77 19 -2 32 5 44 23 19 29 109 87 132 84 34 -3 43 1 54 26 14
32 104 88 130 82 12 -3 26 2 36 13 33 37 37 41 77 67 26 17 52 26 72 24 25 -1
35 4 45 23 19 37 103 88 133 80 18 -4 27 0 41 21 9 14 48 46 86 71 73 47 193
123 221 139 78 46 288 184 310 204 22 20 27 33 27 71 0 40 4 49 25 60 35 19
65 70 65 112 0 45 -44 143 -86 189 -35 40 -97 79 -124 79 -15 0 -34 -8 -42
-17z m-10 -114 c16 -52 10 -59 -22 -24 -30 32 -34 65 -8 65 11 0 21 -13 30
-41z m-76 -21 c22 -23 44 -52 49 -65 5 -14 17 -23 29 -23 18 0 20 -4 15 -34
-6 -29 -3 -37 19 -51 14 -10 26 -26 26 -36 0 -22 19 -68 38 -91 10 -12 10 -18
2 -23 -8 -5 -29 11 -55 39 -49 52 -59 56 -53 21 6 -30 -27 -79 -72 -106 -16
-10 -30 -23 -30 -29 0 -6 -10 -8 -24 -4 -20 5 -25 2 -28 -18 -2 -15 -11 -24
-24 -26 -12 -2 -30 -12 -40 -23 -9 -10 -21 -19 -27 -19 -5 0 -21 -8 -35 -19
-15 -10 -45 -24 -68 -31 -23 -7 -57 -29 -79 -51 -23 -24 -47 -39 -61 -39 -17
0 -25 -7 -30 -24 -8 -32 -26 -25 -81 30 -29 28 -43 50 -43 68 0 14 -6 36 -12
49 -7 12 -13 23 -13 24 0 1 -12 4 -28 8 -19 5 -27 3 -27 -6 0 -7 -7 -21 -17
-31 -15 -17 -15 -19 2 -38 20 -22 55 -27 55 -7 1 6 7 -6 15 -27 7 -21 18 -42
22 -45 5 -3 22 -23 38 -44 l28 -38 -26 6 c-20 5 -28 3 -33 -10 -4 -9 -17 -21
-30 -26 -13 -4 -24 -15 -24 -24 0 -24 -19 -18 -72 22 -28 22 -51 48 -54 63 -3
14 -9 33 -15 42 -5 10 -9 25 -9 33 0 14 -37 35 -61 35 -15 0 -10 -27 6 -34 8
-3 15 -13 15 -22 0 -14 -3 -14 -15 -4 -13 10 -18 11 -28 1 -9 -9 -7 -16 13
-31 14 -11 32 -20 40 -20 9 0 24 -16 34 -35 10 -18 32 -44 47 -56 18 -13 29
-31 29 -45 0 -29 -16 -31 -25 -4 -8 24 -21 26 -29 5 -3 -9 -18 -15 -35 -15
-24 0 -30 -5 -33 -26 l-3 -26 -50 33 c-44 30 -52 41 -70 96 -13 39 -26 64 -37
67 -10 2 -26 18 -35 35 -18 30 -33 36 -40 14 -2 -6 12 -29 32 -53 19 -23 35
-46 35 -51 0 -12 -27 -11 -35 1 -7 12 -25 4 -25 -11 0 -5 11 -14 25 -21 19 -8
28 -8 40 2 13 11 15 9 15 -14 0 -14 8 -34 18 -44 60 -63 59 -59 22 -92 -19
-17 -44 -30 -56 -30 -13 0 -24 -8 -27 -20 -8 -32 -35 -23 -87 30 -38 38 -50
56 -50 80 0 30 -37 80 -58 80 -17 0 -35 59 -29 95 3 19 1 37 -4 40 -5 4 -9 17
-9 30 0 18 4 23 15 19 27 -11 65 5 65 26 0 11 4 20 10 20 5 0 12 11 16 25 3
14 9 25 13 25 10 0 67 -63 74 -82 4 -10 11 -18 17 -18 14 0 13 37 -1 42 -8 3
-10 16 -5 41 7 36 19 47 31 27 8 -14 52 40 57 69 l3 24 33 -31 c24 -23 32 -37
27 -51 -3 -11 0 -23 7 -28 8 -4 19 -19 26 -33 11 -23 12 -22 6 15 -3 22 -6 63
-7 90 -2 48 -1 50 23 47 31 -3 80 16 80 32 0 7 6 20 13 31 13 17 15 16 30 -15
10 -18 17 -40 17 -49 1 -9 7 -29 15 -46 14 -28 14 -24 11 63 -4 82 -2 91 11
80 13 -10 20 -6 44 22 28 33 30 34 43 17 14 -18 16 -18 45 4 22 16 29 28 25
41 -6 21 -1 22 41 7 28 -10 34 -9 58 13 15 14 27 30 27 37 0 6 15 17 34 25 18
8 37 19 41 26 4 7 18 9 35 5 23 -5 30 -2 35 14 7 23 21 27 28 9 3 -9 11 -5 22
10 14 19 23 22 46 17 19 -4 36 -2 45 6 13 10 17 10 25 -2 5 -8 9 -20 9 -26 0
-7 5 -13 10 -13 6 0 10 11 10 25 0 14 -4 25 -9 25 -10 0 -22 51 -14 62 7 13
13 10 55 -34z m182 26 c23 -9 21 -55 -3 -61 -24 -6 -36 -43 -14 -43 9 0 21 7
27 15 10 14 14 13 34 -5 29 -27 25 -52 -11 -64 -34 -12 -61 1 -65 32 -2 12
-15 31 -30 42 l-26 21 23 6 c15 4 22 12 20 27 -3 38 7 45 45 30z m-807 -560
c-9 -9 -28 6 -21 18 4 6 10 6 17 -1 6 -6 8 -13 4 -17z m-652 -109 c0 -28 -29
-25 -33 3 -3 19 0 23 15 20 10 -2 18 -12 18 -23z m-154 2 c-1 -12 -15 -9 -19
4 -3 6 1 10 8 8 6 -3 11 -8 11 -12z m89 -32 c0 -10 10 -14 33 -13 46 2 57 -7
57 -48 0 -22 6 -37 15 -40 18 -7 20 -45 3 -62 -9 -9 -7 -17 10 -32 25 -23 51
-18 31 6 -9 11 -8 14 5 14 11 0 16 -9 16 -30 0 -19 11 -42 31 -64 29 -34 30
-37 17 -72 -15 -43 -63 -77 -93 -68 -43 14 -93 63 -99 100 -11 56 -25 79 -58
93 -17 8 -33 22 -35 32 -6 23 -23 25 -23 4 0 -8 4 -15 9 -15 5 0 13 -10 17
-22 3 -13 14 -31 22 -41 15 -17 15 -19 -1 -28 -22 -13 -11 -32 14 -24 12 4 19
2 19 -7 0 -7 15 -37 34 -65 l35 -52 -30 -25 c-16 -14 -29 -31 -29 -40 0 -8 -3
-21 -6 -30 -5 -14 -9 -13 -31 4 -14 11 -31 20 -38 20 -29 0 -64 43 -86 106
-19 54 -29 69 -51 76 -21 8 -29 18 -33 46 -4 21 -10 58 -15 84 -6 26 -7 54 -4
63 7 17 35 20 50 5 17 -17 54 0 54 26 0 44 33 36 42 -11 5 -29 42 -26 46 3 2
13 -2 30 -8 38 -10 11 -9 19 4 39 9 14 23 25 31 25 8 0 15 5 15 10 0 6 7 10
15 10 8 0 15 -7 15 -15z m-302 -157 c7 -7 12 -22 12 -35 0 -13 5 -23 10 -23 6
0 10 -20 10 -45 0 -31 5 -47 15 -51 8 -4 15 -12 15 -19 0 -7 8 -16 17 -19 13
-5 14 -9 3 -19 -10 -9 -13 -9 -17 1 -7 19 -23 14 -23 -7 0 -11 14 -28 33 -40
18 -11 46 -37 62 -57 17 -21 38 -45 48 -53 23 -20 22 -31 -3 -31 -11 0 -20 -4
-20 -9 0 -4 -17 -20 -39 -35 -30 -21 -43 -25 -62 -17 -40 16 -89 68 -96 103
-9 46 -30 75 -59 82 -17 5 -24 13 -24 29 0 28 -24 64 -33 50 -8 -13 12 -73 24
-73 5 0 9 -5 9 -10 0 -6 14 -29 30 -52 17 -22 30 -47 30 -54 0 -7 20 -36 46
-65 25 -28 43 -56 41 -62 -2 -6 -22 -12 -45 -13 -50 -2 -62 -9 -62 -35 0 -10
-5 -19 -11 -19 -33 0 -129 82 -129 111 0 36 -30 89 -54 95 -15 3 -29 17 -35
35 -12 34 -21 38 -21 9 0 -10 13 -34 29 -52 21 -25 28 -40 24 -60 -4 -20 0
-29 16 -37 12 -7 21 -17 21 -24 0 -7 23 -36 51 -65 38 -40 48 -57 40 -65 -9
-9 -16 -8 -30 0 -15 10 -20 9 -25 -2 -3 -8 -15 -15 -26 -15 -11 0 -23 -7 -26
-15 -9 -24 -33 -18 -91 22 -37 25 -53 43 -53 58 0 38 -27 90 -55 105 -15 8
-32 26 -38 40 -9 22 -11 23 -15 6 -2 -11 9 -38 27 -63 34 -48 37 -59 19 -67
-7 -3 -3 -3 9 0 16 3 23 -1 28 -16 3 -11 17 -32 29 -48 13 -15 26 -37 30 -49
4 -13 12 -23 17 -23 5 0 9 -6 9 -14 0 -16 -25 -29 -55 -30 -12 -1 -23 -12 -29
-31 -6 -16 -11 -32 -13 -34 -1 -2 -21 8 -43 23 -22 14 -43 26 -47 26 -14 0
-53 47 -53 63 0 9 -4 19 -10 22 -5 3 -10 19 -10 34 0 20 -8 34 -26 46 -14 9
-27 15 -30 13 -8 -9 33 -99 54 -118 12 -12 22 -26 22 -33 0 -7 14 -25 30 -41
36 -35 39 -57 8 -53 -17 1 -24 -4 -26 -20 -2 -13 -10 -23 -19 -23 -8 0 -17 -9
-20 -19 -6 -23 -22 -19 -73 18 -58 43 -100 94 -100 122 0 16 -13 40 -35 62
-19 20 -35 43 -35 51 0 17 -16 30 -29 22 -10 -7 15 -60 47 -101 12 -15 22 -34
22 -42 0 -18 50 -91 85 -123 24 -23 55 -70 55 -85 0 -4 -9 -3 -21 0 -31 10
-89 -3 -89 -20 0 -23 -23 -18 -71 17 -56 40 -74 63 -95 118 -19 51 -41 80 -61
80 -14 0 -19 -46 -5 -52 11 -5 52 -66 52 -78 0 -6 27 -40 61 -76 43 -47 58
-69 51 -76 -8 -8 -16 -7 -27 2 -14 12 -18 11 -25 -1 -8 -12 -14 -11 -43 4 -33
18 -107 104 -107 124 0 5 -16 24 -35 43 -33 32 -38 33 -66 23 -24 -9 -31 -9
-35 2 -10 25 1 50 21 50 13 0 19 5 16 15 -15 56 -18 106 -7 119 6 8 11 24 12
35 2 62 5 76 15 76 6 0 13 -9 16 -20 8 -32 43 -24 80 19 18 22 42 43 53 46 13
4 20 15 20 31 0 32 18 31 30 -2 l10 -26 40 41 c41 42 63 50 77 29 5 -9 9 -3
13 16 6 36 29 46 37 17 3 -12 9 -21 14 -21 5 0 14 -12 19 -26 6 -14 14 -22 20
-19 13 8 13 62 0 70 -20 12 -10 35 14 35 18 0 25 6 28 23 2 15 10 22 25 22 12
0 28 8 35 17 12 16 14 16 35 -1 14 -12 23 -32 25 -57 2 -28 8 -40 21 -42 19
-4 19 7 1 124 l-4 31 55 0 c60 0 75 7 57 25 -16 16 -15 48 2 48 8 0 23 -16 35
-35 11 -19 25 -35 31 -35 5 0 10 -7 10 -15 0 -8 5 -15 10 -15 13 0 13 27 0 32
-5 2 -7 19 -4 40 6 33 9 37 29 32 18 -4 26 1 39 27 9 18 16 40 16 50 0 31 17
30 44 -2 14 -17 26 -35 26 -40 0 -5 4 -9 9 -9 5 0 11 18 15 40 4 28 11 40 24
41 29 3 56 6 70 7 6 1 12 15 12 30 0 41 15 53 38 30z m562 -183 c0 -8 -4 -15
-9 -15 -5 0 -11 7 -15 15 -3 9 0 15 9 15 8 0 15 -7 15 -15z m-1065 -35 c-5 -8
-11 -8 -17 -2 -6 6 -7 16 -3 22 5 8 11 8 17 2 6 -6 7 -16 3 -22z m-545 -764
c0 -8 7 -17 16 -20 8 -3 12 -11 8 -17 -5 -9 -11 -7 -20 6 -7 10 -20 15 -29 12
-10 -5 -15 0 -15 13 0 13 7 20 20 20 11 0 20 -6 20 -14z"/>
<path d="M3734 3345 c-7 -18 3 -35 22 -35 8 0 14 -9 14 -20 0 -11 5 -20 10
-20 14 0 13 8 -7 51 -19 41 -30 48 -39 24z"/>
<path d="M2786 3023 c-11 -11 -6 -23 9 -23 8 0 15 4 15 9 0 13 -16 22 -24 14z"/>
<path d="M1947 2353 c-12 -11 -8 -23 8 -23 8 0 15 7 15 15 0 16 -12 20 -23 8z"/>
<path d="M1194 2116 c-8 -22 3 -33 18 -18 9 9 9 15 0 24 -9 9 -13 7 -18 -6z"/>
<path d="M1007 2024 c-9 -10 2 -24 19 -24 8 0 14 7 14 15 0 15 -21 21 -33 9z"/>
<path d="M1030 1956 c0 -7 7 -19 15 -26 13 -11 15 -8 15 14 0 16 -5 26 -15 26
-8 0 -15 -6 -15 -14z"/>
<path d="M673 3004 c-7 -18 7 -46 25 -52 7 -2 12 5 12 16 0 46 -24 69 -37 36z"/>
<path d="M710 2917 c0 -14 7 -30 15 -37 8 -7 15 -18 15 -25 0 -22 34 -75 48
-75 24 0 12 50 -23 89 -19 21 -35 43 -35 49 0 6 -4 14 -10 17 -6 3 -10 -4 -10
-18z"/>
<path d="M501 2902 c-16 -30 -14 -41 9 -35 21 6 25 20 11 42 -7 11 -11 10 -20
-7z"/>
<path d="M1070 2424 c-19 -14 -42 -32 -51 -40 -8 -8 -20 -14 -26 -14 -6 0 -43
-18 -83 -40 -40 -22 -78 -40 -85 -40 -7 0 -36 -18 -64 -40 -45 -35 -51 -45
-51 -77 0 -42 25 -67 52 -52 10 5 18 16 18 24 0 21 107 125 160 155 23 14 53
35 65 48 14 13 34 22 53 22 17 0 34 5 38 11 3 6 22 17 40 25 19 8 34 21 34 29
0 24 -60 17 -100 -11z"/>
</g>
</svg>
