<?xml version="1.0" standalone="no"?>
<!DOCTYPE svg PUBLIC "-//W3C//DTD SVG 20010904//EN"
 "http://www.w3.org/TR/2001/REC-SVG-20010904/DTD/svg10.dtd">
<svg version="1.0" xmlns="http://www.w3.org/2000/svg"
 width="300.000000pt" height="188.000000pt" viewBox="0 0 300.000000 188.000000"
 preserveAspectRatio="xMidYMid meet">
<metadata>
Created by potrace 1.10, written by Peter Selinger 2001-2011
</metadata>
<g transform="translate(0.000000,188.000000) scale(0.050000,-0.050000)"
fill="#696e6d" stroke="none">
<path d="M1571 3606 c-12 -54 -16 -56 -143 -57 -147 -1 -158 -9 -178 -146 -13
-90 -49 -85 -50 7 -1 73 -33 103 -79 75 -22 -14 -80 -25 -128 -25 -144 0 -203
-121 -73 -150 77 -17 80 -24 142 -256 l51 -196 -47 -38 c-58 -45 -210 -80
-352 -80 -280 -1 -160 -123 146 -149 132 -11 277 -80 227 -108 -30 -16 -32
-26 -12 -46 20 -20 25 -18 25 9 0 20 16 34 39 34 58 0 108 -178 80 -283 -32
-121 -138 -344 -178 -377 -20 -16 -65 -84 -101 -150 -35 -66 -77 -130 -92
-142 -15 -12 -23 -27 -17 -32 6 -6 -21 -74 -60 -152 -39 -77 -71 -158 -71
-178 0 -21 -8 -47 -17 -57 -49 -53 -109 -403 -111 -644 l-2 -248 150 -49 c125
-41 176 -48 306 -39 97 6 170 2 192 -12 25 -16 75 -17 169 -3 73 10 192 18
263 17 71 0 130 6 130 15 0 9 46 14 103 10 69 -4 106 2 112 19 6 18 -25 25
-113 25 -67 0 -122 8 -122 18 0 10 38 16 85 13 111 -7 114 -4 92 84 -20 81
390 1242 485 1372 23 31 37 61 31 66 -18 19 -107 -53 -132 -108 -59 -129 -446
-1182 -460 -1255 -16 -79 -17 -79 -19 -14 -2 56 187 588 421 1187 93 238 186
267 533 167 218 -63 894 -39 953 34 3 3 48 164 99 356 134 499 111 480 582
461 338 -14 342 -14 357 43 10 38 21 41 117 29 58 -7 160 -14 226 -17 105 -3
97 -5 -60 -16 l-180 -12 196 -4 c127 -3 192 3 184 16 -7 12 17 20 59 20 41 0
75 11 79 25 3 14 17 58 30 99 18 57 18 82 0 112 -20 31 -18 63 9 158 58 207
27 421 -74 515 -65 60 -228 79 -237 28 -14 -80 -3409 -49 -3420 31 -10 72
-129 71 -145 -2z m124 -81 c5 -16 -13 -25 -53 -25 -47 0 -58 7 -49 31 14 36
90 31 102 -6z m1517 -108 c-319 -18 -323 -19 -305 -66 13 -35 193 -45 193 -11
0 12 83 20 210 20 229 0 250 -14 179 -116 -37 -52 -387 -70 -391 -19 -1 20 -3
20 -11 0 -41 -100 -176 -10 -199 132 l-13 83 317 -3 318 -3 -298 -17z m2188
-23 c0 -14 -11 -37 -25 -51 -17 -17 -18 -29 -3 -39 12 -8 27 -52 33 -99 18
-134 -5 -145 -286 -145 l-239 0 0 180 0 180 260 0 c200 0 260 -6 260 -26z
m-4197 -168 c0 -103 -43 -304 -69 -320 -12 -7 -16 14 -10 51 5 35 3 63 -5 63
-7 0 -25 54 -39 120 -14 66 -38 130 -52 142 -41 34 -11 62 51 48 46 -10 58 -4
69 34 l14 46 20 -50 c12 -27 21 -88 21 -134z m637 154 c0 -11 19 -20 41 -20
24 0 36 9 29 21 -17 26 130 20 165 -7 16 -12 25 -12 25 1 0 19 242 18 580 -3
187 -12 194 -15 70 -32 l-100 -14 115 -3 c113 -3 170 -59 90 -89 -76 -28 115
-61 341 -58 275 4 316 17 340 109 l17 65 623 5 624 6 0 -148 c0 -207 73 -191
-932 -202 -483 -6 -959 -12 -1058 -14 -235 -6 -490 7 -490 25 0 7 14 45 30 85
36 85 38 119 5 63 -13 -22 -25 -44 -26 -50 -15 -67 -37 -120 -50 -120 -9 0 1
52 24 115 70 200 60 242 -15 60 -84 -205 -130 -238 -55 -40 29 74 55 153 60
175 11 57 -88 -144 -116 -235 -18 -58 -57 -105 -57 -69 0 17 66 209 85 249 12
25 16 50 10 57 -12 12 -88 -146 -108 -225 -6 -25 -23 -56 -39 -68 -28 -24 -13
41 52 217 51 137 4 77 -59 -76 -86 -210 -118 -207 -41 4 33 90 60 168 60 174
0 31 -59 -84 -99 -193 -25 -69 -54 -131 -64 -137 -23 -14 -21 18 5 86 45 112
78 234 58 214 -11 -11 -37 -67 -57 -125 -21 -58 -47 -115 -60 -128 -35 -35
-29 8 17 129 28 73 33 111 18 125 -13 13 -19 14 -15 1 3 -11 -21 -87 -53 -170
-32 -82 -61 -136 -65 -118 -4 18 12 79 34 136 43 108 53 164 25 131 -9 -10
-42 -80 -73 -155 -78 -189 -85 -155 -11 58 75 217 49 199 -40 -28 l-66 -165
-202 5 c-230 7 -211 -19 -171 230 l22 145 264 6 c145 3 270 8 278 11 8 2 15
-5 15 -16z m3510 -380 c-57 -24 -485 -24 -500 0 -8 13 84 20 264 19 173 -1
261 -8 236 -19z m-3517 -46 c25 -26 -92 -62 -184 -57 -55 3 -123 -4 -150 -15
-38 -15 -13 -20 117 -21 150 -1 170 4 215 48 48 48 55 49 414 52 375 4 404 -3
316 -71 -28 -22 -68 -55 -90 -75 -34 -31 -82 -35 -386 -35 -412 0 -410 1 -468
-180 l-45 -139 49 -53 c52 -57 339 -299 414 -351 40 -27 42 -35 16 -56 -35
-29 -34 -29 -251 140 -93 74 -191 144 -216 158 -37 19 -44 35 -35 77 13 61
-51 184 -95 184 -64 0 -72 44 -22 123 42 67 45 84 24 122 -13 25 -22 52 -20
61 3 9 -25 14 -61 10 l-65 -6 -21 -155 c-26 -187 -28 -189 -97 -117 -57 59
-51 225 13 349 18 35 593 41 628 7z m1051 -133 c-49 -129 -59 -141 -137 -171
-144 -55 -183 -115 -349 -540 -23 -57 -27 -76 -35 -155 -1 -20 -38 -74 -80
-120 -78 -86 -103 -142 -234 -515 -41 -115 -132 -357 -203 -537 -110 -279
-128 -340 -118 -410 11 -79 -12 -156 -38 -130 -104 105 391 1550 568 1661 31
19 34 30 15 61 -20 32 -13 45 42 91 36 30 65 61 65 70 0 9 69 200 153 425
l152 409 125 0 126 0 -52 -139z m1872 108 c17 -5 24 -33 20 -74 l-6 -65 -350
-10 c-365 -10 -382 -14 -518 -116 l-68 -50 -412 4 c-403 4 -538 -8 -451 -39
27 -9 6 -18 -70 -29 -92 -13 -112 -9 -135 22 -32 44 21 89 60 50 41 -41 66
-22 102 78 20 57 48 100 65 100 39 0 59 60 26 80 -19 13 -21 24 -4 43 21 26
1669 32 1741 6z m644 -69 c0 -36 -438 -71 -535 -43 -50 14 -27 80 30 87 184
21 505 -7 505 -44z m-150 -140 c26 -11 -41 -18 -186 -19 -146 -1 -222 6 -214
19 15 24 344 24 400 0z m-501 -41 c12 -12 -108 -19 -325 -19 -189 0 -344 5
-344 11 0 49 620 57 669 8z m-2249 -26 c-1 -59 -195 -528 -237 -570 -25 -25
-41 -59 -35 -75 16 -43 -82 -36 -106 8 -22 41 -380 341 -454 380 -45 24 -46
29 -20 80 15 30 41 87 58 128 l31 74 382 -1 c273 -1 381 -8 381 -24z m1140
-91 c-49 -14 -602 -5 -618 10 -5 5 144 7 330 6 186 -1 316 -8 288 -16z m227
-26 c12 -19 15 -40 7 -48 -19 -19 -154 55 -141 77 17 28 111 8 134 -29z m-754
-61 c-7 -25 -13 -90 -13 -144 0 -119 -37 -101 -54 27 -11 79 -14 82 -84 82
-97 1 -140 28 -89 57 77 45 253 29 240 -22z m667 -35 c53 -53 51 -80 -20 -335
-73 -260 -83 -271 -323 -307 -286 -43 -516 -34 -637 26 -89 44 -101 46 -129
18 -34 -33 -42 -10 -12 36 11 19 4 53 -21 100 -86 161 -16 442 116 468 35 7
62 1 71 -16 8 -15 49 -32 91 -39 71 -12 80 -21 113 -117 61 -174 137 -257 295
-323 105 -44 110 -8 8 63 -112 80 -177 209 -168 340 l6 96 256 3 c141 2 262 9
269 15 21 21 44 13 85 -28z m-2084 -268 c19 -22 23 -32 9 -24 -16 9 -25 3 -25
-17 0 -33 52 -44 63 -13 7 17 322 -224 332 -255 3 -8 -31 -104 -75 -212 -44
-109 -80 -214 -80 -233 0 -20 -8 -41 -18 -47 -11 -6 -39 -72 -63 -146 -25 -74
-53 -141 -64 -147 -10 -7 -16 -16 -13 -20 14 -19 -91 -295 -108 -284 -11 6
-15 -1 -9 -16 5 -15 -6 -68 -26 -118 -38 -99 -39 -103 -39 -157 0 -67 -139
-93 -465 -87 -154 4 -175 8 -175 40 0 20 -9 45 -19 55 -12 12 59 17 192 13
116 -4 226 0 244 8 18 8 38 13 45 12 7 -1 8 19 3 44 -5 26 5 74 23 107 l31 61
-175 148 c-95 81 -212 177 -259 213 -120 93 -126 70 151 583 123 227 210 404
216 438 3 15 13 33 22 40 9 7 26 29 37 51 12 21 35 42 50 46 23 7 23 4 -1 -13
-26 -18 -25 -21 5 -22 19 0 35 14 35 31 0 37 98 -12 156 -79z m-628 -1221 c56
-49 146 -128 200 -177 l98 -88 -33 -66 c-38 -77 -40 -87 -13 -70 11 7 20 5 20
-4 0 -15 -462 -11 -477 5 -4 4 7 82 24 173 17 91 38 200 45 241 16 93 12 93
136 -14z m422 -645 c206 -51 181 -58 -203 -57 -282 1 -376 -5 -382 -24 -10
-31 -65 -33 -65 -3 0 16 -9 15 -30 -2 -18 -15 -30 -17 -30 -4 0 117 395 167
710 90z m-75 -101 c-74 -4 -196 -4 -270 0 -74 4 -13 7 135 7 149 0 209 -3 135
-7z m120 -40 c-129 -3 -341 -3 -470 0 -129 4 -23 6 235 6 259 0 364 -2 235 -6z"/>
<path d="M2447 3310 c-18 -47 8 -90 52 -90 23 0 41 9 41 20 0 11 18 20 40 20
22 0 40 9 40 20 0 11 -19 20 -41 20 -23 0 -36 9 -29 20 7 11 -10 20 -39 20
-29 0 -57 -13 -64 -30z"/>
<path d="M4040 3089 c0 -34 11 -46 40 -44 23 2 40 18 40 37 0 18 -18 38 -40
44 -32 8 -40 0 -40 -37z"/>
<path d="M4140 3082 c0 -43 77 -52 105 -13 10 14 20 14 30 1 29 -39 125 -29
125 12 0 21 -13 38 -30 38 -16 0 -30 -11 -30 -25 -1 -17 -6 -18 -15 -4 -30 43
-185 35 -185 -9z"/>
<path d="M4429 3083 c0 -26 15 -36 55 -36 41 0 56 10 56 36 0 27 -15 37 -56
37 -40 0 -55 -10 -55 -37z"/>
<path d="M3208 2891 c-22 -55 1 -101 50 -101 55 0 94 50 76 97 -16 41 -111 44
-126 4z"/>
<path d="M4029 2874 c-22 -56 114 -98 146 -46 6 10 1 12 -12 4 -13 -8 -23 -6
-23 5 0 11 11 24 25 29 14 6 5 9 -20 8 -25 -2 -45 -11 -45 -22 0 -11 -13 -2
-29 19 -27 37 -29 37 -42 3z"/>
<path d="M1805 2474 c-49 -22 -59 -47 -20 -49 215 -11 450 -29 470 -36 30 -9
32 10 5 51 -14 23 -62 30 -197 32 -98 2 -186 7 -196 13 -9 6 -37 1 -62 -11z"/>
<path d="M1509 1898 c-8 -13 -2 -34 14 -46 16 -12 36 -39 44 -60 11 -31 19
-34 39 -14 19 19 18 30 -6 48 -16 13 -30 37 -30 52 0 37 -42 51 -61 20z"/>
<path d="M1412 1703 c-8 -13 -1 -29 17 -35 17 -7 31 -30 31 -52 0 -26 11 -37
33 -32 48 9 57 54 14 70 -21 7 -47 27 -59 43 -16 21 -26 23 -36 6z"/>
<path d="M1202 1642 c-16 -10 -21 -28 -11 -43 10 -16 7 -20 -8 -11 -14 8 -23
2 -23 -16 0 -44 46 -20 73 38 24 52 16 61 -31 32z"/>
<path d="M1698 1638 c-22 -13 -19 -18 12 -19 22 -1 29 -7 16 -12 -30 -12 -10
-67 25 -67 15 0 32 9 39 20 7 11 -1 14 -19 8 -17 -7 -31 -3 -31 8 0 11 8 24
18 27 10 4 7 17 -7 30 -15 14 -36 16 -53 5z"/>
<path d="M1380 1559 c0 -11 14 -25 30 -32 17 -6 28 -26 25 -44 -3 -17 11 -35
30 -39 43 -9 48 52 5 69 -16 6 -30 24 -30 39 0 15 -13 28 -30 28 -16 0 -30 -9
-30 -21z"/>
<path d="M1569 1478 c-21 -33 26 -71 53 -44 23 23 9 66 -22 66 -10 0 -24 -10
-31 -22z"/>
<path d="M1413 1351 c-14 -37 23 -63 51 -35 21 21 6 64 -23 64 -9 0 -22 -13
-28 -29z"/>
<path d="M1549 1338 c-17 -28 21 -67 48 -50 23 15 9 72 -18 72 -9 0 -23 -10
-30 -22z"/>
<path d="M1062 1298 c-21 -23 -49 -36 -60 -29 -12 7 -22 4 -22 -8 0 -11 14
-21 30 -21 17 0 30 -14 30 -31 0 -17 8 -26 18 -20 10 6 22 0 27 -13 5 -16 29
-5 66 30 62 57 89 67 89 34 0 -12 -21 -29 -47 -39 -80 -30 -80 -75 -1 -90 38
-7 64 -22 57 -32 -19 -31 18 -20 66 20 49 41 63 167 22 193 -16 10 -20 4 -11
-19 19 -49 -12 -40 -62 17 -55 63 -147 66 -202 8z m138 -18 c0 -40 -55 -60
-81 -29 -22 27 -22 35 0 49 30 18 81 5 81 -20z m87 -65 c-9 -14 -2 -17 20 -9
18 7 33 6 32 -2 -1 -32 -51 -77 -85 -77 -24 0 -29 6 -15 20 12 12 21 42 21 68
0 27 9 42 20 35 12 -7 15 -23 7 -35z"/>
<path d="M1529 1198 c-21 -33 26 -71 53 -44 23 23 9 66 -22 66 -10 0 -24 -10
-31 -22z"/>
<path d="M1123 622 c-36 -23 49 -39 117 -22 l50 12 -50 14 c-65 18 -84 17
-117 -4z"/>
<path d="M4184 2549 c8 -7 129 -17 270 -21 152 -5 240 -1 216 9 -47 20 -505
31 -486 12z"/>
</g>
</svg>
