<?xml version="1.0" standalone="no"?>
<!DOCTYPE svg PUBLIC "-//W3C//DTD SVG 20010904//EN"
 "http://www.w3.org/TR/2001/REC-SVG-20010904/DTD/svg10.dtd">
<svg version="1.0" xmlns="http://www.w3.org/2000/svg"
 width="300.000000pt" height="191.000000pt" viewBox="0 0 300.000000 191.000000"
 preserveAspectRatio="xMidYMid meet">
<metadata>
Created by potrace 1.10, written by Peter Selinger 2001-2011
</metadata>
<g transform="translate(0.000000,191.000000) scale(0.050000,-0.050000)"
fill="#696e6d" stroke="none">
<path d="M2145 3647 c-16 -7 -25 -51 -25 -119 l0 -108 93 0 c60 0 100 11 115
31 16 22 71 32 202 38 99 4 151 4 115 -2 -122 -18 -66 -41 128 -53 106 -6 199
-21 206 -33 9 -13 148 -21 397 -22 211 -1 384 -8 384 -17 0 -9 -81 -14 -181
-13 l-181 4 6 -142 c6 -129 10 -142 51 -147 25 -4 45 -14 45 -23 0 -25 -118
-37 -126 -14 -7 22 -675 35 -820 17 l-76 -9 6 -103 6 -102 222 3 c122 1 240
12 264 25 23 12 123 22 223 22 177 0 181 1 181 47 0 38 11 47 60 49 33 1 60
-7 60 -17 0 -10 88 -21 195 -25 190 -6 189 -6 -45 -8 l-240 -2 2 -82 c1 -62
-4 -77 -23 -61 -34 28 -412 19 -403 -10 4 -12 89 -23 211 -27 158 -4 203 -12
203 -33 0 -16 20 -31 45 -35 39 -5 46 -20 51 -106 l6 -100 190 6 c190 7 191 7
185 -40 l-7 -46 -435 0 c-420 0 -486 9 -390 51 44 19 43 20 -5 10 -27 -6 -62
-11 -76 -11 -15 0 -21 -9 -14 -20 8 -13 -71 -19 -224 -16 l-236 4 210 12 210
12 -225 4 -225 4 -3 225 c-2 241 4 562 12 570 2 3 206 7 453 10 408 5 448 8
454 40 6 33 -26 35 -457 35 -409 0 -467 4 -489 33 -27 37 -64 -115 -38 -156 7
-12 5 -27 -5 -34 -10 -7 -53 -56 -95 -108 -75 -93 -79 -95 -184 -92 -123 3
-201 -37 -220 -114 -23 -91 108 -167 237 -137 75 18 150 12 200 -15 28 -15 35
-10 35 23 0 23 -13 46 -30 53 -16 6 -30 28 -30 48 0 82 -17 94 -100 72 -81
-21 -114 -12 -91 26 7 11 52 21 99 21 87 0 132 30 158 105 7 19 22 35 33 35
34 0 24 -55 -12 -68 -33 -13 -31 -212 5 -330 11 -36 8 -44 -11 -33 -33 21 -6
-70 30 -99 45 -37 51 -190 8 -206 -20 -8 158 -11 395 -7 237 4 489 1 559 -7
l128 -13 -5 -72 -6 -72 100 5 c55 3 128 7 163 9 42 3 60 -3 53 -19 -12 -32
-75 -47 -191 -48 -82 0 -95 -6 -95 -40 0 -36 14 -40 145 -43 l145 -3 -170 -14
c-198 -16 -231 -30 -330 -145 -68 -80 -74 -83 -94 -45 -54 98 -176 190 -252
189 l-74 -1 76 -27 c292 -104 293 -510 1 -658 -356 -180 -817 10 -817 338 0
186 160 379 245 294 21 -21 59 -53 85 -71 41 -28 51 -57 61 -175 18 -189 133
-330 304 -370 83 -20 70 33 -20 81 -157 84 -181 277 -54 443 78 102 67 147
-36 146 -66 -1 -76 -6 -45 -19 38 -16 38 -17 -5 -19 -25 0 -45 6 -45 15 0 77
-282 52 -412 -37 -100 -69 -93 -68 -202 -26 -52 20 -86 45 -86 65 0 90 -224
454 -264 429 -13 -7 -17 -4 -9 8 7 11 -3 33 -21 48 -23 18 -29 19 -19 2 9 -14
6 -25 -5 -25 -11 0 -26 10 -33 22 -37 60 -513 172 -504 119 1 -6 -9 -37 -22
-69 -13 -31 -33 -99 -45 -150 -11 -50 -42 -131 -69 -179 -27 -48 -43 -96 -37
-106 12 -19 29 -101 32 -157 1 -16 -6 -47 -15 -68 -11 -27 -9 -34 8 -24 34 21
29 6 -29 -91 -31 -53 -46 -67 -38 -37 19 66 19 160 1 210 -10 28 -9 32 4 13
16 -21 22 -20 32 7 19 49 15 64 -7 30 -17 -27 -20 -27 -20 0 -1 18 -13 10 -30
-20 -16 -27 -29 -38 -29 -22 -1 16 -17 6 -41 -23 -48 -62 -49 -68 -9 -68 17 0
26 11 21 26 -6 14 -2 31 9 38 32 19 21 -48 -24 -154 -28 -65 -48 -91 -58 -75
-11 17 -23 2 -36 -43 -11 -38 -20 -54 -21 -36 -1 19 -7 50 -14 70 -8 25 -6 29
6 12 13 -18 28 -6 52 46 37 76 47 139 14 89 -17 -27 -19 -27 -20 0 -1 17 -18
-8 -39 -54 -21 -46 -34 -104 -28 -130 9 -45 9 -45 -20 4 -17 28 -22 53 -11 57
10 3 14 14 8 23 -6 10 16 59 48 110 37 58 62 82 70 66 7 -14 9 -6 4 18 -6 32
0 40 24 31 23 -9 28 -3 18 23 -9 23 -6 29 10 20 15 -10 19 -3 10 20 -8 20 -6
29 6 22 11 -7 20 2 20 19 0 52 3 58 67 151 73 106 134 264 120 315 -22 83 76
131 300 147 124 8 233 27 270 46 33 18 72 32 85 32 86 0 374 330 449 514 43
107 52 117 123 129 50 8 36 10 -41 5 -76 -5 -134 -21 -166 -47 -58 -45 -84
-38 -202 52 -166 127 -405 108 -405 -32 0 -12 43 -21 102 -21 97 0 108 -5 220
-115 170 -166 175 -220 28 -283 -61 -26 -150 -86 -196 -132 l-84 -85 -196 -10
c-194 -9 -314 -63 -314 -140 0 -46 -110 -246 -246 -450 -383 -572 -620 -1278
-639 -1905 l-5 -170 240 5 c358 7 1136 65 1161 86 16 13 10 57 -22 154 -96
295 -154 819 -110 1001 65 271 345 426 565 312 71 -37 99 -14 85 71 -4 28 -12
84 -16 124 -4 40 -14 83 -22 95 -19 31 0 28 87 -17 67 -34 74 -45 66 -100 -11
-77 -27 -77 -61 -1 -14 33 -36 60 -48 60 -12 0 -6 -16 12 -37 19 -21 38 -89
46 -165 32 -319 203 -449 587 -446 399 3 564 140 640 531 37 189 140 257 391
257 145 0 144 -2 208 358 43 242 51 330 26 316 -8 -5 -103 -15 -210 -23 l-195
-13 0 71 c0 58 -8 71 -40 71 -63 0 -47 34 23 48 34 6 142 12 240 12 l177 0 0
-58 c0 -45 8 -57 35 -51 28 5 1509 28 1860 29 68 0 85 7 85 35 0 33 -35 34
-585 20 -887 -23 -1355 -27 -1355 -10 0 8 175 15 388 15 412 0 452 5 452 57 0
30 49 32 550 23 l550 -10 0 45 c0 25 9 45 20 45 28 0 25 67 -4 96 -20 20 -20
33 0 64 34 55 30 113 -8 128 -60 23 -1933 16 -1947 -7 -10 -15 -41 -13 -104 6
-118 35 -312 21 -324 -24 -4 -18 -9 -6 -11 27 l-2 60 131 -7 132 -7 -7 57 -6
57 -360 5 c-198 3 -378 14 -400 25 -22 12 -80 29 -130 39 -89 19 -88 19 38 15
80 -2 131 4 136 18 5 16 -59 23 -208 24 -396 1 -548 21 -599 76 -46 49 -57 53
-102 35z m1365 -487 c0 -17 -20 -33 -45 -36 -44 -7 -62 32 -31 63 23 24 76 5
76 -27z m434 18 c10 -29 556 -37 556 -8 0 11 9 7 20 -10 11 -16 20 -21 20 -10
0 12 93 20 238 20 131 0 235 -4 232 -10 -3 -5 24 -10 60 -10 36 0 63 5 60 10
-3 6 37 10 90 10 53 0 93 -5 89 -12 -4 -6 17 -8 47 -4 92 12 167 14 349 10
l175 -4 0 -90 0 -90 -525 -2 c-289 -1 -625 -7 -748 -15 -123 -7 -219 -7 -215
1 5 8 -43 17 -106 22 -81 5 -62 8 60 8 96 0 181 6 188 13 12 12 -444 25 -514
15 -246 -35 -467 -44 -482 -19 -14 21 -7 131 10 151 2 2 84 12 183 22 98 10
185 20 192 21 8 2 17 -7 21 -19z m-1864 -256 c0 -10 -28 -28 -63 -40 -34 -12
-74 -38 -89 -57 -24 -31 -27 -31 -27 -2 -1 45 41 73 174 115 3 1 5 -6 5 -16z
m2340 -28 c0 -19 33 -24 130 -18 89 6 130 1 130 -14 0 -17 -95 -20 -355 -11
-379 13 -414 17 -395 49 20 32 490 26 490 -6z m-2150 -114 c-7 -11 -39 -20
-71 -20 -33 0 -59 9 -59 20 0 11 32 20 71 20 43 0 66 -8 59 -20z m-814 -312
c183 -94 320 -225 335 -318 1 -11 8 -33 14 -50 45 -119 35 -148 -22 -60 -93
145 -300 340 -362 340 -11 0 -21 8 -21 17 0 9 -38 29 -85 43 -120 38 -158 59
-144 81 24 40 150 17 285 -53z m2391 -138 c-9 -23 -47 -30 -169 -30 -127 0
-158 6 -158 30 0 24 32 30 169 30 143 0 168 -5 158 -30z m-2424 -70 c60 -32
126 -79 148 -104 67 -78 112 -157 104 -182 -5 -13 -30 10 -57 51 -26 41 -64
80 -83 86 -19 7 -35 19 -35 28 0 25 -136 101 -179 101 -20 0 -68 13 -107 30
-40 16 -88 25 -108 18 -20 -6 -13 3 14 20 67 41 168 25 303 -48z m-113 -160
c-7 -11 -3 -20 9 -20 37 0 88 -131 73 -188 -49 -195 -332 -170 -332 29 0 103
54 162 162 180 48 8 91 15 94 16 4 2 1 -6 -6 -17z m-449 -339 c-13 -23 -18
-62 -11 -87 9 -31 7 -36 -7 -16 -15 22 -22 18 -33 -18 -11 -35 -18 -39 -32
-18 -15 24 -17 24 -18 0 0 -16 -5 -24 -11 -18 -6 6 12 63 41 127 36 82 57 110
72 95 16 -16 15 -34 -1 -65z m925 26 c109 -35 154 -61 154 -89 0 -9 -37 -3
-83 13 -171 60 -503 -14 -468 -105 6 -15 -16 -54 -47 -87 -32 -33 -69 -87 -82
-119 -14 -33 -34 -54 -45 -47 -12 7 -15 4 -8 -8 19 -31 -7 -85 -41 -85 -19 0
-26 11 -18 31 7 20 4 26 -12 17 -15 -10 -19 -3 -10 20 8 20 6 29 -6 22 -23
-14 -25 -6 -7 41 11 29 16 28 38 -12 l24 -46 15 46 c10 33 19 39 30 21 10 -17
15 -8 13 25 -2 28 -11 46 -21 40 -9 -6 -13 2 -7 17 5 15 21 26 34 23 13 -4 18
3 12 14 -7 11 1 45 19 76 31 53 31 54 20 5 l-12 -50 30 50 c19 31 31 39 32 20
0 -27 3 -27 19 0 12 19 12 37 0 49 -90 90 234 180 427 118z m-813 0 c-7 -7 5
-26 27 -41 30 -21 37 -42 28 -82 -9 -42 -6 -47 10 -24 19 27 22 27 23 0 1 -20
7 -17 19 10 17 40 17 40 19 0 1 -33 5 -35 21 -10 11 17 19 21 19 10 0 -37 -38
-86 -39 -50 -1 27 -3 27 -20 0 -17 -27 -19 -27 -20 0 -1 27 -3 27 -20 0 -17
-27 -19 -27 -20 0 -1 27 -3 27 -20 0 -17 -27 -19 -27 -20 0 -1 27 -3 27 -22 0
-18 -25 -20 -24 -10 7 7 20 13 47 13 60 1 12 9 5 17 -16 15 -37 16 -37 27 5 7
29 4 39 -10 31 -14 -9 -17 -1 -9 21 8 19 5 29 -5 23 -9 -6 -21 -4 -26 4 -5 8
-6 4 -3 -10 11 -42 -46 -158 -58 -118 -9 30 -9 30 -6 -2 3 -19 15 -33 28 -30
31 7 31 -20 -1 -55 -21 -24 -20 -24 7 -4 17 13 38 17 46 9 8 -7 9 0 2 17 -7
20 0 31 20 31 17 0 28 -10 23 -23 -5 -13 -1 -36 9 -52 18 -30 27 -3 19 58 -2
20 6 22 33 8 20 -10 51 -16 70 -13 23 3 30 -5 23 -28 -8 -26 -3 -24 21 6 18
21 32 28 32 16 0 -12 -9 -28 -21 -36 -11 -7 -16 -27 -10 -46 5 -18 2 -45 -7
-61 -14 -21 -21 -17 -32 19 l-15 46 -28 -53 c-21 -39 -23 -65 -8 -93 12 -21
21 -46 20 -55 -1 -22 -77 119 -78 144 0 11 8 7 19 -10 22 -35 26 -19 7 31 -11
29 -17 27 -39 -14 -15 -26 -27 -35 -27 -21 -1 15 -10 21 -21 14 -25 -16 -25 2
0 50 15 29 13 35 -13 32 -17 -3 -43 -26 -57 -52 l-25 -47 -15 47 c-15 47 -16
46 -52 -21 -44 -84 -49 -64 -8 34 33 80 39 112 12 69 -14 -21 -21 -17 -32 19
-15 45 -16 45 -52 -22 -44 -83 -49 -130 -6 -59 l30 50 -12 -50 c-10 -39 -8
-43 8 -20 25 36 26 6 2 -50 -17 -40 -17 -40 -20 0 -2 38 -3 38 -20 -3 -30 -75
0 -146 31 -74 14 31 27 44 28 27 2 -19 13 -12 31 20 17 30 29 38 30 20 0 -24
4 -25 18 -3 13 21 19 20 29 -5 8 -22 0 -32 -26 -32 -43 0 -83 -93 -69 -164 7
-36 2 -33 -21 14 -24 49 -30 52 -32 20 -1 -27 -6 -31 -13 -12 -8 21 -18 15
-38 -20 -16 -29 -27 -36 -28 -18 0 27 -3 27 -20 0 -17 -27 -19 -27 -19 0 0 43
38 102 39 60 1 -36 39 13 39 50 0 11 -8 7 -19 -10 -16 -25 -20 -23 -21 10 -1
24 -16 5 -39 -50 -24 -56 -39 -75 -40 -50 -1 32 -8 28 -31 -20 l-29 -60 10 60
c12 69 -16 32 -39 -50 -10 -38 -9 -43 7 -20 19 27 21 27 22 0 1 -27 3 -27 20
0 17 27 19 27 20 0 1 -27 3 -27 20 0 16 25 20 23 21 -10 1 -31 7 -27 28 20 15
33 29 47 30 30 1 -27 4 -27 21 0 22 34 27 1 7 -50 -10 -27 -16 -28 -30 -7 -12
17 -14 5 -6 -33 9 -44 7 -52 -8 -31 -16 23 -23 18 -34 -28 l-15 -57 -25 58
c-14 32 -27 45 -29 28 -2 -21 -7 -18 -18 9 -14 35 -17 33 -30 -19 -12 -46 -19
-52 -35 -29 -15 22 -18 17 -9 -21 5 -28 1 -64 -10 -80 -16 -23 -18 -18 -8 20
l12 50 -30 -50 c-19 -31 -31 -39 -32 -20 -1 35 -39 -13 -39 -50 0 -11 7 -9 16
5 10 16 28 -14 51 -87 19 -61 30 -117 24 -123 -7 -6 -12 1 -13 17 0 15 -13 6
-29 -22 -31 -54 -42 -20 -12 37 22 40 5 147 -21 131 -10 -6 -11 -21 -3 -34 10
-17 5 -17 -17 1 -21 17 -36 18 -51 3 -30 -30 -22 79 11 137 14 25 20 54 13 65
-19 30 26 97 61 92 18 -3 40 -18 50 -33 23 -36 26 4 6 76 -11 43 -14 44 -41
10 -25 -32 -26 -30 -5 12 16 33 16 54 1 69 -15 15 -26 7 -40 -28 -27 -66 -27
-19 0 64 56 174 125 319 141 294 24 -38 21 -61 -6 -44 -17 10 -19 3 -8 -24 18
-45 28 -84 16 -63 -16 29 -49 15 -37 -16 6 -17 4 -26 -5 -21 -9 6 -31 -21 -49
-59 -40 -82 -28 -92 17 -14 17 30 25 37 18 15 -30 -88 -34 -122 -11 -90 19 27
22 27 22 0 1 -18 12 -11 28 18 20 36 30 41 39 20 7 -15 9 -1 4 32 -5 33 -5 49
2 35 6 -14 18 -21 27 -15 9 5 12 -10 6 -35 -8 -36 -5 -39 12 -15 19 27 21 27
22 0 1 -42 39 17 39 60 0 27 -2 27 -19 0 -11 -17 -20 -20 -20 -7 0 41 24 87
40 77 9 -6 11 9 5 32 -11 42 -11 42 -37 -5 -17 -29 -27 -36 -28 -17 0 27 -3
27 -22 0 -16 -24 -18 -22 -9 12 6 23 -2 75 -20 117 -17 41 -23 69 -12 63 10
-6 30 16 44 50 22 52 28 57 44 28 10 -18 13 -38 7 -45 -7 -6 -12 1 -13 17 -1
37 -58 -63 -58 -102 0 -17 12 -9 29 20 17 30 29 38 30 20 0 -27 3 -27 20 0 17
27 19 27 20 0 1 -25 4 -25 18 -3 14 23 19 23 28 0 6 -15 17 3 25 40 10 43 20
58 30 41 24 -38 76 -39 100 -1 17 27 19 23 10 -17 -7 -27 17 6 53 75 35 69 73
125 84 125 10 0 13 -6 5 -13z m2287 -103 c0 -41 -9 -87 -20 -104 -14 -21 -19
4 -20 86 0 73 8 112 20 104 11 -7 20 -46 20 -86z m-2307 -234 c-14 -37 5 -93
27 -80 9 6 14 -22 11 -60 -6 -78 -31 -122 -31 -55 0 24 -10 49 -21 56 -12 7
-17 26 -11 42 7 16 3 24 -8 17 -26 -16 -25 -3 3 59 25 54 49 71 30 21z m1431
-170 c107 -48 383 -54 527 -11 53 16 101 26 105 22 23 -23 -225 -71 -369 -71
-193 0 -353 50 -429 134 l-48 53 64 -44 c34 -24 102 -61 150 -83z m-1325 -35
c-20 -31 -21 -31 -10 5 11 39 10 39 -18 2 -27 -34 -26 -41 1 -61 19 -14 25
-35 16 -60 -14 -34 -16 -33 -33 11 -17 47 -18 47 -46 9 -21 -28 -29 -31 -30
-10 0 16 -13 7 -29 -21 -17 -30 -29 -38 -30 -20 0 27 -3 27 -20 0 -17 -27 -19
-27 -20 0 -1 26 -3 26 -19 1 -13 -21 -18 -9 -15 43 4 70 34 88 34 20 0 -21 6
-26 15 -13 16 24 86 57 109 52 21 -4 60 75 47 96 -6 9 -5 33 2 52 11 29 17 26
41 -19 21 -40 22 -61 5 -87z m-133 -18 c-6 -15 -22 -27 -36 -27 -14 0 -35 12
-47 27 -18 21 -10 26 35 26 40 0 55 -8 48 -26z m234 -67 c1 27 3 27 22 0 18
-25 20 -24 10 7 -7 20 -12 42 -12 50 0 7 -8 1 -18 -14 -14 -22 -18 -22 -27 1
-7 18 8 27 46 29 50 2 56 -5 56 -60 -1 -35 4 -101 11 -148 6 -48 3 -85 -8 -85
-10 0 -14 14 -7 30 30 80 -19 17 -61 -77 -39 -88 -135 -166 -105 -85 4 12 18
20 30 17 12 -3 16 9 9 29 -8 20 -5 28 9 19 14 -8 18 3 11 32 -8 36 -5 39 12
15 28 -39 28 -9 1 42 -12 21 -30 34 -40 27 -27 -16 -24 4 11 70 39 75 -20 75
-62 -1 -16 -29 -27 -36 -28 -18 0 25 -4 25 -18 2 -25 -40 -50 47 -26 90 15 28
21 24 33 -24 21 -83 57 -20 69 122 1 11 20 -7 42 -40 22 -34 40 -47 40 -30z
m-419 0 c0 17 15 -3 32 -44 22 -54 25 -83 9 -110 -12 -21 -21 -25 -21 -10 -1
15 -11 20 -23 13 -15 -10 -18 1 -9 33 11 37 9 41 -7 18 -31 -43 -27 -80 8 -80
17 0 30 -11 30 -25 1 -17 7 -15 20 5 17 27 19 27 20 0 1 -27 3 -27 22 0 16 23
18 16 9 -30 -9 -44 -7 -52 8 -30 18 26 20 25 21 -5 0 -40 -51 -48 -68 -10 -6
14 -6 -2 0 -35 8 -42 5 -52 -8 -33 -16 23 -21 23 -31 0 -7 -15 -8 5 -3 43 7
50 5 59 -7 30 -15 -35 -19 -31 -33 30 -13 60 -18 64 -31 30 -9 -22 -17 -28
-18 -14 0 14 13 58 29 98 17 40 25 91 19 114 -9 34 -7 36 9 12 19 -27 22 -27
23 0z m258 -160 c1 27 4 27 21 0 23 -36 26 -66 5 -53 -8 5 -15 -11 -15 -36 0
-24 11 -44 23 -44 15 0 21 26 17 72 -3 39 6 94 21 121 15 28 28 43 28 34 1 -9
-8 -34 -20 -56 -14 -26 -14 -50 0 -73 14 -25 20 -27 20 -7 1 16 6 24 12 17 6
-6 -4 -45 -23 -88 -38 -85 -53 -193 -26 -176 10 6 19 27 19 45 2 29 4 29 16
-3 13 -31 21 -23 53 46 37 83 38 83 63 37 30 -54 35 -39 9 29 -14 35 -12 48 7
48 17 0 25 -31 24 -96 0 -56 -7 -86 -17 -72 -8 14 -16 19 -16 12 0 -8 -6 -29
-13 -49 -9 -23 -6 -30 9 -20 16 9 20 2 12 -22 -10 -33 -8 -33 20 2 29 36 30
34 23 -30 -5 -37 4 -90 19 -118 l29 -50 1 60 c2 43 12 23 38 -73 61 -226 65
-257 30 -257 -17 0 -25 8 -19 18 6 9 1 67 -12 129 -25 126 -74 170 -71 64 2
-80 -54 -151 -75 -95 -13 31 -16 31 -42 -5 -21 -27 -29 -30 -29 -10 -1 24 -4
24 -20 -1 -17 -27 -19 -27 -20 0 -1 27 -3 27 -20 0 -17 -27 -19 -27 -20 0 -1
27 -3 27 -20 0 -17 -27 -20 -27 -20 0 -1 18 -12 11 -28 -18 l-27 -49 -15 46
c-11 36 -18 40 -32 19 -14 -23 -18 -23 -18 2 -1 22 -8 19 -26 -10 -37 -62 -77
-61 -53 1 24 65 24 88 -1 49 -22 -34 -27 -1 -7 50 10 27 16 28 32 7 13 -19 14
-15 3 13 -20 52 -20 128 -1 190 12 38 10 43 -5 20 -19 -27 -21 -27 -21 0 0 43
38 102 39 60 1 -27 3 -27 22 0 17 24 19 19 10 -20 -5 -28 -2 -64 9 -80 16 -27
19 -27 19 0 1 18 13 10 30 -20 16 -28 29 -37 29 -21 1 21 9 18 30 -10 17 -22
30 -30 31 -19 0 11 9 7 20 -10 17 -27 20 -27 21 0 0 17 17 0 37 -38 29 -54 38
-61 49 -34 7 20 4 29 -7 22 -25 -15 -25 10 -2 48 14 21 21 17 32 -18 11 -36
18 -40 34 -18 19 28 17 2 -8 -82 -5 -16 -5 -22 0 -13 5 10 16 6 24 -8 20 -32
11 118 -10 168 -12 29 -19 31 -32 10 -10 -15 -17 -18 -17 -7 0 11 8 34 19 50
16 25 19 25 20 2 0 -16 5 -24 10 -18 6 6 5 26 -3 46 -11 29 -19 24 -49 -32
-20 -38 -37 -54 -37 -38 -1 27 -4 27 -23 0 -16 -23 -18 -18 -8 20 10 38 8 43
-8 20 -19 -27 -21 -27 -22 0 -1 27 -3 27 -20 0 -17 -27 -19 -27 -20 0 -1 27
-3 27 -20 0 -11 -16 -19 -21 -19 -10 0 37 38 86 39 50 1 -27 3 -27 20 0 17 27
19 27 20 0 1 -27 3 -27 20 0 16 25 19 25 20 2 0 -16 5 -24 11 -18 6 6 -1 35
-14 65 l-24 53 -26 -46 c-16 -29 -26 -35 -27 -16 0 27 -3 27 -20 0 -21 -33
-15 119 6 154 7 11 0 19 -15 19 -15 0 -23 -11 -17 -25 6 -18 -5 -23 -38 -17
-38 7 -53 -3 -68 -46 -19 -54 -20 -53 -20 19 0 40 7 69 16 64 22 -14 21 -9
-17 100 -23 68 -37 88 -49 69 -22 -34 -21 0 2 53 17 40 17 40 20 0 3 -40 3
-40 20 0 17 40 17 40 20 0 3 -32 8 -28 24 17 l21 57 36 -77 c20 -42 37 -63 38
-47z m-459 -50 c2 36 5 35 22 -8 10 -26 14 -67 7 -90 -9 -34 -8 -36 10 -12 17
23 20 17 11 -30 -8 -48 -7 -52 8 -20 22 45 29 12 9 -40 -10 -27 -16 -28 -29
-7 -14 22 -17 21 -17 -3 0 -67 36 -90 50 -33 8 30 18 51 23 45 5 -5 -1 -40
-15 -77 -19 -54 -19 -77 -1 -107 22 -34 23 -33 13 15 -13 61 7 132 28 99 7
-12 13 10 13 48 0 41 -6 59 -16 45 -27 -44 -17 30 11 82 26 46 27 45 62 -46
19 -52 30 -99 23 -106 -7 -6 -12 1 -13 17 0 19 -7 17 -21 -9 -12 -20 -16 -41
-10 -48 7 -6 12 1 12 17 1 22 4 23 17 2 12 -18 28 3 53 68 29 77 39 88 55 59
23 -42 -22 -168 -47 -128 -10 17 -20 7 -29 -31 -11 -41 -19 -49 -31 -29 -14
22 -18 21 -18 -3 -1 -27 -3 -27 -20 0 -17 27 -19 27 -20 0 -1 -27 -3 -27 -22
0 -18 25 -20 24 -10 -7 7 -20 13 -47 13 -60 1 -12 10 -5 19 17 11 25 17 29 17
10 0 -55 -34 -119 -37 -70 -3 40 -3 40 -20 0 -17 -40 -17 -40 -19 0 -2 32 -8
29 -32 -20 -28 -58 -28 -23 0 60 10 29 6 27 -15 -8 l-28 -47 -14 55 c-18 71
-40 47 -43 -46 -1 -41 -8 -96 -15 -124 -11 -40 -8 -38 15 10 24 48 30 52 32
20 2 -40 2 -40 19 0 11 26 18 30 18 10 1 -16 -7 -43 -18 -60 -17 -27 -19 -27
-20 0 -1 42 -39 -17 -39 -60 0 -27 2 -27 19 0 17 27 20 27 21 0 1 -16 15 -3
30 30 15 33 28 47 28 30 1 -27 4 -27 21 0 17 27 19 27 20 0 1 -27 3 -27 22 0
16 23 19 16 10 -30 l-10 -60 28 60 c23 48 29 52 31 20 2 -40 2 -40 18 0 16 40
16 40 26 0 5 -22 8 1 5 50 -2 50 -11 117 -19 150 -10 41 -8 51 5 32 16 -22 23
-18 34 18 43 134 49 -55 12 -345 -2 -14 -17 -2 -34 25 l-30 50 10 -60 10 -60
-26 58 -26 57 -23 -64 c-22 -64 -64 -68 -62 -5 2 28 5 27 19 -6 20 -47 26 -10
7 41 -11 28 -20 22 -48 -32 -33 -65 -34 -66 -49 -19 l-15 47 -27 -49 c-16 -29
-27 -36 -28 -18 0 27 -3 27 -20 0 -17 -27 -19 -27 -20 0 -1 27 -3 27 -20 0
-17 -27 -20 -27 -20 0 -1 19 -13 11 -32 -20 -30 -50 -30 -50 -17 -2 9 32 6 43
-9 33 -12 -7 -22 -4 -22 7 0 11 -14 15 -31 9 -17 -7 -27 -23 -22 -35 5 -13 -9
-25 -31 -27 -33 -2 -35 2 -14 28 16 19 18 35 6 44 -19 12 -19 23 -10 113 4 37
6 37 23 -5 10 -25 13 -61 6 -80 -9 -30 -7 -30 11 -5 19 27 21 27 22 0 1 -27 3
-27 20 0 27 41 25 65 -3 48 -16 -10 -20 -4 -12 17 7 18 2 37 -11 42 -14 6 -10
11 9 11 19 1 38 -20 46 -52 14 -56 50 -32 50 34 0 27 -2 27 -19 0 -31 -48 -23
-10 22 112 27 72 48 104 58 88 25 -40 44 46 23 102 -29 80 -46 171 -26 141 13
-19 28 -2 55 65 29 69 41 83 52 56 11 -30 14 -29 16 6z m108 -96 c-20 -63 -53
10 -35 79 l13 55 18 -47 c9 -26 11 -65 4 -87z m312 -96 c0 62 26 -2 30 -76 6
-97 -19 -147 -40 -82 -9 30 -19 37 -29 22 -8 -13 -13 10 -10 52 7 115 8 118
29 86 16 -25 19 -25 20 -2z m-596 -86 c5 10 5 5 0 -12 -5 -16 -12 -63 -15
-103 -2 -40 -15 -89 -28 -110 -20 -32 -22 -28 -12 23 10 47 7 53 -10 30 -22
-30 -21 -25 15 100 5 17 -4 8 -20 -18 -22 -36 -32 -41 -42 -20 -13 29 -1 -33
20 -102 10 -32 3 -40 -32 -40 -40 0 -43 7 -32 75 7 41 15 100 19 130 9 74 26
88 43 34 11 -35 18 -38 32 -17 23 38 23 63 -2 48 -11 -7 -14 2 -7 21 11 29 16
27 37 -12 14 -25 29 -37 34 -27z m364 -258 c-10 -31 -16 -34 -30 -12 -15 24
-17 24 -18 0 0 -16 -4 -24 -9 -19 -5 5 1 43 14 85 21 70 24 72 39 31 9 -25 11
-63 4 -85z m-88 44 c0 16 5 24 10 18 6 -5 2 -32 -8 -58 -11 -26 -20 -34 -21
-18 -1 27 -4 27 -21 0 -22 -34 -27 -1 -7 50 10 27 16 28 29 7 14 -22 17 -22
18 1z m14 -326 c7 -6 -25 -12 -72 -12 -46 0 -79 8 -73 18 11 19 125 15 145 -6z"/>
<path d="M680 1495 c-32 -71 -37 -75 -28 -25 9 50 7 54 -12 25 -17 -27 -16
-53 3 -106 20 -55 29 -63 43 -38 9 17 12 45 6 61 -6 17 1 61 17 99 41 99 17
85 -29 -16z"/>
<path d="M1073 1511 c-8 -21 -5 -28 9 -20 15 10 18 -2 9 -33 l-13 -48 29 48
28 49 14 -45 c8 -25 19 -41 24 -35 6 5 -4 35 -21 66 -17 31 -31 44 -32 27 0
-24 -4 -25 -18 -3 -13 21 -19 20 -29 -6z"/>
<path d="M553 1492 c-6 -18 -4 -52 4 -76 16 -40 18 -39 40 24 13 36 19 71 13
77 -5 5 -10 -3 -10 -19 -1 -23 -4 -23 -18 -1 -13 21 -19 20 -29 -5z"/>
<path d="M333 990 c-7 -19 -8 -42 -2 -51 6 -10 -3 -45 -21 -78 -17 -34 -23
-61 -13 -61 10 0 33 34 50 75 21 52 32 63 33 35 2 -36 4 -35 21 7 12 29 12 59
0 80 -16 27 -20 28 -21 3 0 -24 -4 -25 -18 -3 -13 21 -19 20 -29 -7z"/>
<path d="M1181 1068 c14 -38 11 -44 -21 -38 -33 6 -35 2 -16 -42 l23 -49 36
56 c42 63 48 94 14 73 -16 -10 -20 -4 -12 15 6 18 0 30 -15 30 -19 0 -22 -12
-9 -45z"/>
<path d="M910 1021 c-11 -37 -18 -41 -33 -19 -14 19 -15 13 -6 -22 22 -80 51
-119 38 -50 -8 40 -6 51 7 33 26 -37 51 29 26 72 -14 27 -20 24 -32 -14z"/>
<path d="M1154 769 c-25 -52 -29 -81 -14 -109 11 -20 15 -54 9 -74 -7 -20 3
-11 21 19 17 31 26 65 20 75 -7 11 -2 37 10 60 13 24 15 53 5 71 -13 23 -25
15 -51 -42z"/>
<path d="M852 480 c17 -69 17 -123 0 -170 -9 -25 -3 -22 16 10 19 31 31 39 32
20 0 -25 4 -25 18 -2 14 21 21 17 32 -19 l15 -46 27 49 c16 29 27 36 28 18 0
-27 3 -27 20 0 17 27 19 27 20 0 1 -27 3 -27 20 0 17 27 19 27 20 0 1 -27 3
-27 20 0 14 22 19 23 20 4 0 -15 9 -21 20 -14 36 22 21 48 -22 40 -31 -6 -39
0 -30 22 7 19 3 25 -12 16 -15 -10 -19 -4 -11 17 15 39 -41 34 -66 -6 -16 -25
-18 -25 -19 0 0 21 -9 18 -32 -10 -28 -35 -30 -35 -20 -3 7 23 4 31 -10 23
-15 -10 -18 2 -9 33 l13 48 -32 -50 -32 -50 13 48 c9 30 6 42 -7 34 -11 -7
-26 -1 -33 13 -6 14 -6 3 1 -25z"/>
<path d="M472 833 c-26 -68 -28 -100 -12 -143 25 -66 -32 -254 -63 -206 -18
28 -19 25 -28 -94 -2 -33 -11 -82 -18 -110 -11 -39 -10 -43 7 -20 19 27 22 27
23 0 1 -16 15 -3 31 30 l30 60 -12 -60 c-8 -44 -6 -52 9 -30 17 25 20 25 21 2
0 -16 5 -24 11 -17 6 6 -3 44 -20 85 -35 84 -41 135 -10 90 15 -22 17 -14 8
30 -10 48 -8 54 11 30 19 -25 21 -23 11 12 -6 23 2 74 19 114 33 79 39 120 12
77 -12 -20 -20 -13 -30 26 -7 29 -3 68 8 87 18 28 20 26 9 -14 -9 -32 -6 -43
9 -33 12 7 22 2 22 -11 0 -70 28 16 32 97 l4 95 -29 -60 -29 -60 12 55 c16 81
0 67 -38 -32z"/>
<path d="M534 661 c-6 -27 -4 -62 6 -79 27 -49 51 28 26 83 -19 43 -19 43 -32
-4z"/>
<path d="M5580 3633 c-60 -13 -108 -33 -106 -45 2 -11 -12 -20 -30 -20 -187 7
-1107 -37 -1117 -54 -9 -13 4 -16 35 -7 26 7 375 13 774 13 479 0 722 7 714
20 -7 11 -75 20 -151 20 -91 0 -139 8 -139 23 0 16 41 19 140 11 77 -6 140 -5
140 2 -2 60 -93 74 -260 37z"/>
<path d="M4010 3496 c-197 -20 -247 -46 -212 -111 25 -48 116 -75 151 -46 45
37 1916 29 1943 -8 28 -39 48 -40 48 -1 0 17 -8 30 -19 30 -10 0 -21 25 -25
55 -8 74 -152 96 -170 26 -10 -37 -89 -62 -84 -26 10 60 -7 65 -207 65 -184 0
-208 -4 -230 -40 -30 -48 -65 -52 -65 -9 0 19 -9 26 -24 16 -38 -23 -261 -31
-247 -9 7 11 27 15 45 8 21 -8 28 -5 19 9 -9 15 12 19 67 12 44 -5 96 0 115
11 27 16 5 21 -87 21 -137 1 -239 -27 -256 -70 -17 -45 -92 -36 -92 11 0 37
-13 40 -212 40 -195 0 -213 -3 -222 -40 -15 -56 -71 -52 -62 4 4 27 25 50 56
58 l50 14 -50 -1 c-27 0 -131 -9 -230 -19z"/>
<path d="M2730 3200 c-374 -16 -196 -40 260 -36 220 3 315 7 211 11 -104 4
-198 13 -210 21 -12 8 -129 10 -261 4z"/>
<path d="M2252 2653 c6 -16 -4 -43 -22 -60 -28 -28 -29 -33 -3 -33 17 0 37 20
44 44 14 42 15 42 42 6 15 -21 27 -28 27 -17 0 22 -64 87 -86 87 -7 0 -8 -12
-2 -27z"/>
<path d="M1813 2631 c-8 -22 -29 -29 -67 -22 -31 6 -61 -1 -70 -15 -25 -39
-19 -51 21 -41 24 7 65 -15 115 -61 43 -40 89 -68 102 -63 14 5 19 -3 13 -20
-8 -21 -2 -26 21 -17 17 7 27 20 22 29 -6 9 -3 21 7 27 9 6 28 -12 40 -40 13
-28 31 -45 41 -39 10 6 23 0 29 -14 5 -14 12 -2 14 25 2 28 6 59 8 70 3 11 7
29 9 40 4 21 62 -47 62 -73 0 -9 -13 -11 -30 -4 -18 7 -30 0 -30 -19 0 -16 19
-34 42 -40 26 -7 36 -20 28 -35 -10 -15 -2 -20 23 -15 20 5 35 18 33 30 -3 12
10 20 28 19 33 -3 77 129 59 176 -5 11 -15 -17 -23 -64 -12 -66 -21 -81 -41
-64 -18 15 -29 13 -37 -5 -7 -14 -9 -5 -4 21 6 31 1 43 -16 37 -14 -6 -36 7
-49 28 -13 21 -41 38 -62 38 -21 0 -45 10 -52 22 -10 16 -19 15 -29 -3 -10
-15 -30 -19 -53 -10 -34 14 -34 16 8 32 58 23 57 36 -6 59 -108 41 -143 44
-156 11z"/>
<path d="M2545 2564 c-49 -5 -65 -16 -65 -45 0 -37 18 -39 460 -39 l460 0 0
47 0 47 -395 -2 c-217 -1 -424 -5 -460 -8z"/>
<path d="M3187 2446 c19 -19 193 -21 193 -2 0 9 -46 16 -103 16 -57 0 -97 -6
-90 -14z"/>
<path d="M2480 2299 c0 -45 66 -59 272 -59 207 0 224 -3 215 -36 -13 -51 41
-91 103 -76 44 11 62 44 52 99 -2 10 69 14 157 10 155 -7 199 4 127 32 -74 28
-926 56 -926 30z"/>
<path d="M2433 2275 c-35 -97 -35 -102 -3 -75 26 21 30 16 30 -38 0 -49 9 -62
40 -62 31 0 40 13 40 60 0 60 -29 82 -46 35 -5 -14 -18 7 -29 45 -15 53 -23
62 -32 35z"/>
<path d="M2110 2239 c1 -22 13 -50 26 -63 13 -13 24 -35 24 -49 0 -26 94 -107
124 -107 17 0 10 68 -17 164 -7 28 -59 59 -107 65 -5 1 -20 8 -32 15 -13 9
-20 -1 -18 -25z"/>
<path d="M3415 2175 c-7 -20 -24 -33 -37 -30 -13 3 -27 -6 -32 -20 -5 -14 0
-25 11 -25 11 0 35 -15 53 -32 41 -42 44 -36 31 62 -8 58 -15 70 -26 45z"/>
<path d="M3154 2056 c-19 -21 -44 -32 -55 -26 -10 7 -19 3 -19 -9 0 -37 98
-23 119 18 28 52 -1 63 -45 17z"/>
</g>
</svg>
