<svg id="Layer_1" data-name="Layer 1" xmlns="http://www.w3.org/2000/svg" xmlns:xlink="http://www.w3.org/1999/xlink" viewBox="0 0 215.43 311.81"><defs><style>.cls-1{fill:none;clip-rule:evenodd;}.cls-2{fill:#00aeef;}.cls-3{fill:#a7a9ac;}.cls-11,.cls-12,.cls-3,.cls-5,.cls-9{fill-rule:evenodd;}.cls-4{fill:#d1d3d4;}.cls-14,.cls-5{fill:#231f20;}.cls-6{clip-path:url(#clip-path);}.cls-7{fill:#fff200;}.cls-8{clip-path:url(#clip-path-2);}.cls-9{fill:#38b660;}.cls-10,.cls-12{fill:#fff;}.cls-11{fill:#c52126;}.cls-13{fill:#cd2027;}</style><clipPath id="clip-path" transform="translate(-136.29 -221.67)"><path class="cls-1" d="M311.76,263.71c-4-6-6.85-16.35-7.29-23.61-3.6,0-117.33,0-120.93,0-.44,7.26-3.29,17.64-7.29,23.61-5.24,7.81-17.8,15.72-23,16,2.43,50.45,5.81,111.12,20.84,150.87,6.39,16.91,11.5,26.6,20.4,39.77A142.1,142.1,0,0,0,205.29,484c6.78,7.8,30.45,28.65,38.69,31.09h0c8.24-2.44,31.91-23.29,38.69-31.09a141.81,141.81,0,0,0,10.75-13.58c8.91-13.17,14-22.86,20.4-39.77,15-39.75,18.41-100.42,20.84-150.87C329.55,279.43,317,271.52,311.76,263.71Z"/></clipPath><clipPath id="clip-path-2" transform="translate(-136.29 -221.67)"><circle class="cls-2" cx="245.39" cy="386.01" r="58.63"/></clipPath></defs><title>logo</title><path class="cls-3" d="M324.46,248.45c-4.75-6.76-8.13-18.54-8.65-26.78-4.28,0-139.33,0-143.6,0-.52,8.23-3.9,20-8.65,26.78-6.22,8.86-21.13,17.83-27.26,18.17,2.89,57.21,6.9,126,24.75,171.1,7.59,19.17,13.65,30.16,24.23,45.1A162.32,162.32,0,0,0,198,498.22c8.05,8.85,36.16,32.48,45.95,35.25h0c9.78-2.77,37.89-26.4,45.95-35.25a162.91,162.91,0,0,0,12.77-15.4c10.58-14.94,16.64-25.92,24.23-45.1,17.84-45.08,21.86-113.88,24.75-171.1C345.6,266.27,330.68,257.3,324.46,248.45Z" transform="translate(-136.29 -221.67)"/><circle class="cls-4" cx="30.13" cy="38.1" r="3.79"/><circle class="cls-4" cx="184.13" cy="38.1" r="3.79"/><circle class="cls-4" cx="173.7" cy="10.64" r="3.79"/><circle class="cls-4" cx="140.89" cy="10.64" r="3.79"/><circle class="cls-4" cx="108.09" cy="10.64" r="3.79"/><circle class="cls-4" cx="75.28" cy="10.64" r="3.79"/><circle class="cls-4" cx="42.48" cy="10.64" r="3.79"/><circle class="cls-4" cx="8.37" cy="58.81" r="3.79"/><circle class="cls-4" cx="9.87" cy="89.19" r="3.79"/><circle class="cls-4" cx="12.87" cy="119.58" r="3.79"/><circle class="cls-4" cx="16.72" cy="149.47" r="3.79"/><circle class="cls-4" cx="21.8" cy="180.54" r="3.79"/><circle class="cls-4" cx="30.37" cy="211.14" r="3.79"/><circle class="cls-4" cx="43.37" cy="239.03" r="3.79"/><circle class="cls-4" cx="61.3" cy="265.42" r="3.79"/><circle class="cls-4" cx="83.59" cy="287.31" r="3.79"/><circle class="cls-4" cx="204.59" cy="89.19" r="3.79"/><circle class="cls-4" cx="201.59" cy="119.58" r="3.79"/><circle class="cls-4" cx="197.73" cy="149.47" r="3.79"/><circle class="cls-4" cx="192.65" cy="180.54" r="3.79"/><circle class="cls-4" cx="184.09" cy="211.14" r="3.79"/><circle class="cls-4" cx="171.09" cy="239.03" r="3.79"/><circle class="cls-4" cx="153.15" cy="265.42" r="3.79"/><circle class="cls-4" cx="130.87" cy="287.31" r="3.79"/><circle class="cls-4" cx="107.09" cy="302.81" r="3.79"/><circle class="cls-4" cx="206.37" cy="58.81" r="3.79"/><path class="cls-5" d="M311.76,263.71c-4-6-6.85-16.35-7.29-23.61-3.6,0-117.33,0-120.93,0-.44,7.26-3.29,17.64-7.29,23.61-5.24,7.81-17.8,15.72-23,16,2.43,50.45,5.81,111.12,20.84,150.87,6.39,16.91,11.5,26.6,20.4,39.77A142.1,142.1,0,0,0,205.29,484c6.78,7.8,30.45,28.65,38.69,31.09h0c8.24-2.44,31.91-23.29,38.69-31.09a141.81,141.81,0,0,0,10.75-13.58c8.91-13.17,14-22.86,20.4-39.77,15-39.75,18.41-100.42,20.84-150.87C329.55,279.43,317,271.52,311.76,263.71Z" transform="translate(-136.29 -221.67)"/><g class="cls-6"><rect class="cls-2" x="11.81" y="18.42" width="194.11" height="20.12"/><rect class="cls-7" x="11.81" y="38.03" width="194.11" height="19.6"/></g><path class="cls-3" d="M225.46,401.38c-.73,1.46-2.34,2.48-3.5,3.67-1.33,1.37-4.4,4.83-5.86,5.55l6.9-7.17a7.83,7.83,0,0,1,2.41-2.08c.83-1.46,9.87-10.21,11.7-12-.63-1.57-2.25-2.47-3.23-3.76-1.72.82-8,7.8-9.59,9.46L210.36,409.4c-1.53,1.6-3.11,3-4.66,4.64-1,1.08-9.06,8.37-5,12.08s10.9-4.09,12.17-5.29l28.33-27.53a11.24,11.24,0,0,0-3.44-3.53Z" transform="translate(-136.29 -221.67)"/><path class="cls-3" d="M246.43,379.55c1.47-.66,11.36-11.13,13.33-13.12,4.35-4.41,8.45-8.72,12.87-13,4.86-4.76,8.81-8.62,13.17-13.08C288,338,290,336,292.23,333.77c1.51-1.56,5.41-5.11,6.37-6.62l-3-5c-1.78.81-11.4,11.31-13.29,13.34l-19.72,20.15c-2.16,2.24-4.24,4.7-6.55,6.74s-4.41,4.51-6.55,6.74c-1.78,1.85-4.41,5-6.52,6.42C243.37,376.93,245.24,378.78,246.43,379.55Z" transform="translate(-136.29 -221.67)"/><path class="cls-3" d="M271.16,364.54c7.63-7.15,16.2-16,23.6-22.91,2.05-1.9,9.16-8.27,9.86-9.9-1.6-.76-3.06-2.35-4.75-2.87a42.06,42.06,0,0,1-3.31,3.27l-9.89,9.71c-4.6,4.43-30.06,28.94-32.75,32-2,2.29-4.62,4.17-6.54,6.47a14.25,14.25,0,0,0,3.37,3.65Z" transform="translate(-136.29 -221.67)"/><path class="cls-3" d="M286.82,312.9c.64.78,4.44,2.91,7.38,6.38,6.71,7.9,2.47,5.29,9.75,10.85,5.3,4,6.56,7.94,9.31,11l4.92-2.59c-.74-2.43-4.26-7.7-5.5-9.5a67.49,67.49,0,0,0-14.12-15.11c-1.44-1.17-7-5.15-9.06-5.84Z" transform="translate(-136.29 -221.67)"/><path class="cls-3" d="M328.48,300.47c.76-.74.87-.18,1.93-.59.35-1.94-.7-3.1-2.58-2.92-.68,1.06-.16.43-.34,1l-.31,1c-4.22-4.33-8.8.81-3.94,5.61C328.74,309.94,332,302.67,328.48,300.47Z" transform="translate(-136.29 -221.67)"/><path class="cls-3" d="M307,313a7.72,7.72,0,0,0-1.3,2.16,72.11,72.11,0,0,0,7.22,2c2.94.81,4.94,1.79,5.94-1.08Z" transform="translate(-136.29 -221.67)"/><path class="cls-3" d="M307.7,312.23c.87.63,10.77,3.26,12.15,3.29l1.37-1.94c-3.24-.67-9.51-3.05-12.34-3Z" transform="translate(-136.29 -221.67)"/><path class="cls-3" d="M312.72,310.69l9.16,2.37,1.27-1.82c-1.53-1.16-5-1.59-7.11-2.17-4.1-1.11-3.37-1.87-6.1.51A6.2,6.2,0,0,0,312.72,310.69Z" transform="translate(-136.29 -221.67)"/><path class="cls-3" d="M310.52,319.91c3.4.94,3.5,1.28,5.65-1-1.09-.74-9.54-3-11.2-3l-.74,2C305.53,318.86,308.78,319.43,310.52,319.91Z" transform="translate(-136.29 -221.67)"/><path class="cls-3" d="M318.1,309c1.69.46,4,1.36,5.81,1.31l1-1.76c-1.61-1.14-4.55-1.48-6.66-2.05-3.27-.89-3.73-1.71-5.72.73C313.42,307.94,316.73,308.65,318.1,309Z" transform="translate(-136.29 -221.67)"/><path class="cls-3" d="M320.25,306.49a25.48,25.48,0,0,0,5.26,1.2c-.74-1.51-3.83-4.53-5.33-5.82a12.39,12.39,0,0,0-4.74,3.06Z" transform="translate(-136.29 -221.67)"/><path class="cls-3" d="M305.89,319.4a11.62,11.62,0,0,0,3.67,4,7.43,7.43,0,0,0,1.92-.92l1.45-1.3Z" transform="translate(-136.29 -221.67)"/><path class="cls-3" d="M264.51,407.92l1.39,1.14a4.59,4.59,0,0,0,1.21,1.14l6.26,7c-2-1.46-8.06-7.31-9-9.23-1.91-1.37-7.1-7.48-9.64-9.74l-67.35-69.14a17.08,17.08,0,0,0-5.16,3.38l75,75.55c5,5.06,13.83,14.33,18.7,18.84,1.31,1.22,6.47,4.44,8.6,1.54,3.6-4.88-6.68-13.47-8.38-15.38-6.93-7.76-14.39-15.15-21.15-22.71L234,367.89a43.35,43.35,0,0,1-3-3.3L194.6,325.85c-.94-1-1.78-2.46-3.08-3l-2.82,4.65c4.84,5.84,13.55,14.22,19,20.17,10.55,11.62,23.08,23.92,33.46,35.31l12,12.62,2.2,2.46Z" transform="translate(-136.29 -221.67)"/><path class="cls-3" d="M173.34,341.27c1.08-1.33,1.84-2.77,2.93-4.18,4.07-5.29,9-7.83,10.75-9.52a47.14,47.14,0,0,0,2.89-4.09,29.66,29.66,0,0,1,6.67-6.62l3.9-3L198,308.93c-4.11,1.16-13.9,9.23-17.14,12.44-2.31,2.28-11.19,12.84-12.22,17.11A20,20,0,0,0,173.34,341.27Z" transform="translate(-136.29 -221.67)"/><path class="cls-3" d="M162.11,305.79c4.86-3.36,1.74-1.76,3.89-3.66,1.83-5.5-3.12-5.86-5-3.72-1-.91-.56-.78-1-1.78-2-.11-2.88.76-2.86,2.64l1.66,1C157.31,303,157.28,307.72,162.11,305.79Z" transform="translate(-136.29 -221.67)"/><path class="cls-3" d="M167.67,315.53a74.44,74.44,0,0,0,11.66-3.63l-1.68-2c-2,.32-10,2.78-11.34,3.65A18.12,18.12,0,0,0,167.67,315.53Z" transform="translate(-136.29 -221.67)"/><path class="cls-3" d="M170.68,318.37c1.63-.24,9.92-2.8,10.94-3.52l-1.67-2.22-11.36,3.72Z" transform="translate(-136.29 -221.67)"/><path class="cls-3" d="M176.94,309.24c-1-2.94-3.17-1.7-6.06-.81a59.43,59.43,0,0,0-6.78,2.25l1.62,2.16Z" transform="translate(-136.29 -221.67)"/><path class="cls-3" d="M171.57,319.21c2,2.32,2.72,1.91,5.94.85,1.77-.58,4.67-1.2,5.85-2.22l-1-2c-1.71.05-6.25,1.7-8.42,2.36-.37.11-1,.29-1.26.38Z" transform="translate(-136.29 -221.67)"/><path class="cls-3" d="M174.23,306.58c-1.68-2.57-2.56-1.88-5.54-1-2,.62-4.22,1.35-6.42,2l1.46,2.35Z" transform="translate(-136.29 -221.67)"/><path class="cls-3" d="M166.67,302.75l-3,2.87c-1,1.23-.47.65-.24.9a35.56,35.56,0,0,0,4-1.16c1.21-.38,2.86-.64,3.74-1.53l-3.54-2.17Z" transform="translate(-136.29 -221.67)"/><path class="cls-3" d="M181.65,319.5a23.43,23.43,0,0,0-3.63,1.07c-.53.17-1.16.34-1.77.56l-1.24.74a10.65,10.65,0,0,0,2.77,1.73Z" transform="translate(-136.29 -221.67)"/><path class="cls-3" d="M162.11,305.79l.59,1.29c1.38-.22.33.06.74-.56-.23-.25-.75.34.24-.9l3-2.87c-.89.12-.64.3-.66-.62C163.86,304,167,302.43,162.11,305.79Z" transform="translate(-136.29 -221.67)"/><path class="cls-3" d="M214.13,413.22c-.73,1.46-2.34,2.48-3.5,3.67-1.33,1.37-4.4,4.83-5.86,5.55l6.9-7.17a7.84,7.84,0,0,1,2.41-2.08c.83-1.46,9.87-10.21,11.7-12-.63-1.57-2.25-2.47-3.23-3.76-1.72.82-8,7.8-9.59,9.46L199,421.23c-1.53,1.6-3.11,3-4.66,4.64-1,1.08-9.06,8.37-5,12.08s10.9-4.09,12.17-5.29l28.33-27.53a11.24,11.24,0,0,0-3.44-3.53Z" transform="translate(-136.29 -221.67)"/><path class="cls-3" d="M286,422.38c-6.93-7.76-14.39-15.15-21.15-22.71L243.8,377.22a43.25,43.25,0,0,1-3-3.3L230,362.43h-7.5c9.36,10,19.67,20.26,28.44,29.9l12,12.62,2.2,2.46,9.23,9.85,1.39,1.14a4.58,4.58,0,0,0,1.21,1.14l6.26,7c-2-1.46-8.06-7.31-9-9.23-1.91-1.37-7.1-7.48-9.64-9.74l-44-45.16h-8.06l54.55,55c5,5.06,13.83,14.33,18.7,18.84,1.31,1.22,6.47,4.44,8.6,1.54C298,432.89,287.72,424.29,286,422.38Z" transform="translate(-136.29 -221.67)"/><circle class="cls-2" cx="109.1" cy="164.34" r="58.63"/><g class="cls-8"><path class="cls-9" d="M240.05,445.72l.1-1.91c-7.74-5.37-5.4.22-8.45-3.77-.77-1-3.58-2.38-1.29-5.06.68-.79,4.55-2.25,5.71-2.79,1.69-.79,2.26-4.36,9.29-2.14,4.43,1.4,1.46-.23,6.41-.77,4.61-.5,5.71,1.88,9.24,3.16,1.93.71,1.58.49,2.25.42l.15,0c1.56-.14,1.41,5.43.55,6.27s-4.62.93-6.33,1.32c-.49,2.5-1.79,2.79-2.44,4.52-7.17.6-13.38.63-15.2.76Zm43.9-18s-.08.69-.08.72a2,2,0,0,0,.11.49c1.87.88,3.79-1.68,4.46-2.47L284,427.72Zm14.26-35.65c.42-.46.33-.31.13-.7l-.13.7Zm-1.44-1.58.24-.6-.5.41c-.39.3-.14.14-.62.29-1.06.33-.27-.24-1,.4,1,1,1.52.63,1.83-.49Zm-57.64-49.83c.38.41.24.44.68.1l-.68-.1Zm5.61,29.53c-1.79-.93-1-1.62-3.94-1.49-1.2.05-3.22.22-3.53-1.09-.42.21-.52-.21-.25.21V369c.62,1.05.8.36,1.83,1.48a5.14,5.14,0,0,1-1.9,2.6c-1.91,1.34-6.61,3.84-9,3.8-.46-3.68-1.11-3.24-1.88-5.76l-2-5.42c-.71-.22,0,.51-.6-.08l-.49-.86a.44.44,0,0,0-.11-.23,36.68,36.68,0,0,0,.93,4c.56,2.17.8,5.62,2.5,7.08s1,2,1.5,2.47c1.12,1,3.61-.21,4.89-.33a4.58,4.58,0,0,1-1,3.32c-1.81,2.82-4.1,4-4.48,4.53s-.2.64-.82,1.31c-3.26,3.53-.87,4-.51,7.71.31,3.29-1.42,3.42-3.13,5.62,2.26,3.91-.22,2.37-.18,5a6.72,6.72,0,0,1-.7,2.84c-1,2.33-1.63,2.41-4.33,3.14a1.5,1.5,0,0,1-2.09-.94c-1.05-2.53-3.12-3.79-4.25-6.58-.66-1.62-2.46-3.47-2.73-4.72-.16-.73.44-3.93.06-6.22l-2.26-4.59c-1-1.52-.83-1.08-.48-2.48,1-4-.66-3-1.66-3.59-.75-.45-.37-.76-1.14-1.5-1.89.09-2.47,1.11-3.38,1.09s-.42-.44-1.66-.17c-.6.13-.86.34-1.48.49a7.94,7.94,0,0,1-2.51-3.28c-.31-.95-.13-1.56-.37-2.5-.83-3.28-.74-2.81.6-6.42.84-2.25.73-3.5,1-4,.08-.12.44-.53.7-.9a21.21,21.21,0,0,1,5.24-4.83c1.27-.94.54-.55,1.37-1.54a4.72,4.72,0,0,1,1.74-1.18c1-.44,2-1.24,1.44-2.33s0,.6-.53-.76a8,8,0,0,1,1.72-2.24c1.23-1.2,1-2.62,2.92-1.35,2.45,1.58,2.66-1.58,2.91-3.14h.54c2.54,0,2.39-.26,4.92-1.08l.15,0,2.18-.17c.31-1.18.71-2.21,2-1.53-.25.3-.11.13-.49.4l-1.08.76a5.28,5.28,0,0,0,3.65,1.16c1.24-.1.48-.42,1.42-1.15.71-.55.69,0,1.4.08.76-.88.14-.29.58-1.17.43,0,1.84.34,2,0,0-.08.13,0,.19-.07a1.76,1.76,0,0,0-1.08-.38c-.27-.05-.81-.07-1.09-.12,0-2.73,2.29-1.4,3.19-2.95-1.05-.47-1.29.33-2.39.79-1.88.79-1,.2-2.1,1.61a6,6,0,0,1-4.86,2.23l.36-.29a4.22,4.22,0,0,0,1.51-2.23,2.49,2.49,0,0,1-1.64,0c.48-1.14.3-.54,1.19-1.31,1.57-1.34,2.45-1.23,4.47-1.88,1.75-.56,4.79-2.23,6.86-1.36.55.33.9,1.2,1.38,1.64a2.1,2.1,0,0,1,.75,1.47s0,.12,0,.17c1.23-.47.34-.11,1.06-1.13,1.38,1.2,2.57-.2,4.59.43.64-1-.15-.08.19-.84a10,10,0,0,0,2.19.7c-.24-1.37,0-2,1.09-2.43.5.69.29.94.47,2.14s.13,1-.74,1.76c1.16.09.89.08,1.24-.6l-.13-1.09-.22-1.48.28-.59.35.7c.5.24-.2.25.76-.47l.16-.12,1.48-1.25c1-1.18,1.16-.69,1.9-1.51l2.83-.16c.41.93,0,.82-.1,1.73.67-1.43.2-.65,1.89-.92l1.67-1c.85.19,1,.57,2.12.88l1-1a1.82,1.82,0,0,1-.5-1.19l1.42-.47c1.64-.12-.58.67,1.77-.5,1.89-.94.45,0,1.93-1.25-.68-1.41-1.07.3-.69-1.26.1-.42.74-.85,1.09-1,1.9-1.09,3.22,1.23,3.94,1.52,1.28.5.94-1,3.06,2.64,1.47,2.55.13,1.18.94,2.71s.82-.11,3.35,2.81c1,1.16,1.88,1.53,2.74,3.5-3.53-1.49-4.46-3.78-6.19-5.36l-.42-.38a8.59,8.59,0,0,0-2.14-2c.51.77.79.8,1.24,1.58-.66.31-1.13-.28-.34.79s.81.19,1,1.52l-.42.15c-.4.18.3-.23-.26.12-.25.16-.09,0-.45.43-1.42,1.7-1,.86-.51,3l.35,1.5s0,.14.09.2c1,.72,1.59-1.13,3.2.73l.23.3c.87,2.48,1.69.78,0,0a12.1,12.1,0,0,1-.78-1.06c-.12-.2-.43-.82-.56-1.09a12.4,12.4,0,0,1,3,2.66c.2.21,2.38,1.7,1.74,2.82-.95-.69-1.07-1.28-2.1-1.79,1.27,4.88,1.11,4.72.3,5.37-.43.35-.38,0-.6.94-.13.53-.15,1.61-.23,2.23,1,1,2.11,1.2,2.33,2.82-.5.51-.36.42-1.19.71a3.47,3.47,0,0,1-.4-.46c-1-1.4.22-.27-1.51-2l-.62-.76c0-.09-.07-.12-.13-.16a5.14,5.14,0,0,0-1.33.75l-.53-1.15a9.42,9.42,0,0,0-1.12,1.94c1.73,1,.67.34,2.74.16,0,1.61-.94.85-.39,2.2.24.59.83.83,1.24,1.44l.71,2c.21.64.13-.37.2.81a5.32,5.32,0,0,1-.08.9c-.72,5.19-3.57,3.76-4.74,5.33L271,371c-.65-.52-.31-.45-1.06-.71a6,6,0,0,0-1.46,1.82c1,2.51,2.13,1,2.84,3.95.47,2-.41,1.93-2.44,3.71-.32-.71,0-.45-.09-.62-.18-.53-.51-.53-1.67-1.58l-1.72-1.08c0,1.33-.53,1.46-.18,2.67.56,2,2,1.8,2.58,3,.33.72.18,1.37.47,2.22.32.33.21-.38.4,1-.29.46.48.26-.51.41,0,1.27.15.56.53,1.67,1.87-.84,1.46.09.94,1.5l-.47,1.18c-1.81-.26-3.15-3.38-3.54-3.89-.81-1-2.95-3.43-2.93-4.18,1.76.26,1.3.12,2.35,1.31.58.65,1.49.87,2,1.55l0-.33c-.22-.76-.5-.63-.85-1.29a15,15,0,0,1-.51-1.63c-.73-1.73-1.38-.66-1.19-2.92a5.12,5.12,0,0,0-.64-3.19c-.92-2.21-.49-.94-2.29-.88-.52-2.32-.17-1.71-1.78-3.3-.19-.19-1-1.53-2.93-.2-.93.65.07.26-1.46,1.46s-1.57,2.33-3.16,2.57c0,2.29.17,4.17-1.63,5.14a5.41,5.41,0,0,1-1.37-2.11c-1.92-3.82-1.72-4.06-2-7.31-.55.17-.13.38-1.16,1-.9-.36-.5-.16-1-.79s-.37.7-.27-.91Zm30.74,22c.29.25-.17.62.6,0l-.27-.13-.34.08-1.11-.59a3.23,3.23,0,0,1-1.44-1.21c-2.13,1-2.27-1.28-3.91.25l.54.36c.38.27.15.22.64.43.23.1,4.3,1,5.28.76Zm6.71-3.67c0,.77.81-.1.3-.1s-.26-.46-.3.1Zm19.59,13c0,.82.38.27.32.07-.15-.55-.33-.32-.32-.07Zm-50.6-65.82c.6-.61.26-.29.15-.47l-.7-.59c-.61.1-.1-.18-.68.19s-.25.07-.54.6l.85.27.58.25c.85.2-.05.13.34-.25Zm32,49.94c1.08-.3.24.24.76-.65-1.44.54-.13.1-.76.65Zm-45.88-50.24c.93-.28.24.09.65-.69-.9.28-.29.08-.65.69Zm11.48-.76.65.31c0-.18,0-.37,0-.31l-.17-.23c-1-.1-.15,0-.45.23Zm24.48,49.6c-.46.35-.16.15-.76.3-1.73-.34-.74,2.91.55,3.52l.8.22c1.18.18,1.06.3,1.93.45,1-1.45.35-2.64,2.06-3.43-.79-.75-.26-.07-.68-1.13-.94-2.36,1.88-1.23-.76-3.5-1.32,1.74-3,3.16-3.14,3.57Zm-14.44-50.58c.7-.11.38.13.77-.29-.27-.2.38-.53-.38-.15-.49.25-.12.06-.38.44-1-.09-.69-.09-1.33.45.52.58.41.42,1.13.58l.2-1Zm-21.25-3h.62c1-.11.42-.26,1.27,0-.14-.66-.29-.77-.39-1.21-.06-.28.35-2.32-2.38-2.63-2.06-.24-14.89,3.46-16.61,5.11,3.32-.88,1,1.08,4.33.3.35,1.28.42.81,1.75,1.44.72-.33-.07.39.82-1.08.43.59-.08.28.24.9,1.51-.54.37-1,2.23-1,2.14.09,5.42-1,6.89-1.1.8-.08.3.2,1.4,0-.48-.52-.15-.39-1.06-.57l.89-.11ZM278.25,376l.07.63c.44-.34.37.39.36-.63-.19-.88.13-.14,1.23-.37l.14-.06-1-.59-.13-.13-.12-.14-.12-.15c-.27-2.16.54-2.17-.72-2.77l-.56,2.46.83.87,0,.64.05.25Zm3.34,1.33c-.49-1.58.11-.62-.95-1.06.51,1.15.07.57.95,1.06Zm-17.93-47c-.29-.89.12-.65-.85-.93.38,1.57-.16.57.85.93Zm16.13,47.39.11-.86c-.82.3-.66-.66-.58,1l.47-.16-.26.87s.27.63,1.54-.09l-1.28-.78Zm19.35,30.25c.14-.2.27.07.28-.57,0-1.11-.16-.57-.28-.74-.4.63-.41.55,0,1.31Zm-22.79-15.21,1.41-.37c-.27-.2-.25-.39-.79-.27-1,.25-.5.1-.62.63Zm1.91,0,1.51,0c-.34-.37.51-.46-.57-.45-1.85,0-.18-.19-.94.49Zm2.05-33.33,0,.69c.61-.06.42,0,.8-.27.55-.31.29.43.46-.4l.6-.2c-.15-.87-.3-.75.15-1.24l.82-.45a4,4,0,0,0-.64-1.72c-.82-1.47.34-2.34-2-2.53l-.25-1.07,1.07-.05c-.06-.61.18-1.33,0-1.53-.92-.43-.38.1-1.21-.12-.6-.16-.23-.38-1.34-.57.68,1.48.75-.07.76,2.57.46.39.32.53,1,.78l1.13,2.89-.73.27-.12,0,.47,1.26A5.91,5.91,0,0,0,279,360.4c.67.68.64.89,1.33,1.21a2.41,2.41,0,0,0-.65-2.07l.61-.19Zm-42.1-25.49c.51.77.41.58,1.23.55-1.1-1.55-1.2-.56-1.23-.55Zm32.46,38.72c.62-.19.74.33.72-.89l-.8-.1.08,1Zm12.55,15.64,1.83.58c-.41-1-1.2-1.21-1.83-.58Zm-2.77,5.38a11.37,11.37,0,0,0,2-.82s-.26-.43-1.11-.06c-.49.22-.58.39-.88.88Zm-.37-8,1,.41.7-1.41-1.29.71-.15.09-.3.2ZM235.83,335a1.58,1.58,0,0,0,2.11-1.27L235.83,335ZM277,369.31c.36-.87.66-1.76-.11-2.39-.18.25-.46,0-.42,1.18,0,.9.13.71.53,1.21Zm-35.13-42.53.59.44-.19.1c-1.54.87-.74,1-2.64,1.1-.38-.56-.13-.13-.37-.46a2.26,2.26,0,0,1-.33-.52c-.27-.51-.13-.5-.5-1h1.29a1.34,1.34,0,0,1,.18-.1c1.31-.41.77,0,1.47-.05,1-.11-.15-.11.84-.26a1.1,1.1,0,0,1,.73.11c-.23.8-.83.55-1.05.62ZM281.51,421a2.64,2.64,0,0,0,2-.88c-.18-.24.19-.48-1.43-.91l-.55,1.79Zm-29.08-39.32.87-.22c.2-.54.28.5.17-.68-.06-.64-.55-1-1-1.62A2,2,0,0,0,252,381c.24.89.24.49.44.76Zm27-1.69c.47.22.4,0,1.07-.16.86,1-.27.9,1.12,1.51.45-.54,1.21-.93-.06-2.58L279.44,380ZM240.78,339.7c.43.48.38.7,1,.54.38-1-.51-1.26,2.38-2.44,1.17-.48.69.12.86-1-.94.42-3.59.82-4.27,2.86Zm-19.86-3.47A2.13,2.13,0,0,0,224,336c-.28-.85.13-.24-.5-.84l-.83-.48a5.1,5.1,0,0,0-.9.64,2.73,2.73,0,0,0-.89.89Zm57.52,49.38c-.11,1.29-.7,3.67,0,4.38.72-.85,0-1,.53-1.94l.69,1.46c.84-.81.19-1.19-.11-2,.51-.68.52-.43.92-1.25-1.13.32-.91.71-1.64.06.33-1.05.51-.24,1.06-1.42-1.11.12-.6,0-1.45.75ZM214.79,345l-.08.93a2.39,2.39,0,0,0-.51.13,2.06,2.06,0,0,0-.64.37c1.22.26,3.15,1,3.74-.69a6.75,6.75,0,0,1,1.17-2.58c.44-.49,1.12-.87,1.24-1.77a4,4,0,0,0-2.61,1.73,1.89,1.89,0,0,0-2.43.24l-.13.13-.13.13-.92.87a4.27,4.27,0,0,0,1.3.5Zm16.1,58.37c.16-2.18-.25-.91.86-4.5a7,7,0,0,0,.36-3.6c-.29-1-.12-.49-.75-.9-.53.91-.5,1.5-1.44,2.15-1.38,1-1.45.36-1.32,2.6.07,1.25-1.27,5.09,2.29,4.23Zm54.62-16.74s.18-.8,2,.29c1.4.84.53.36,1.61.44,1.78.12,5.12,2.65,5.17,4.5.07,2.63.55,1.74,1.22,3.64-.59-.15-.53-.19-.66-.26-1.68-.86-.82-1.75-2.39-2.8l-1.27,1.34-2.37-1.28c.32-2,1-1.6-2-3.6-.82-.56-.4.9-.66-.07,0,0-.08,0-.12,0-.63-1.25-.07-.07,0-.71,0-.92.34.38,0-.48s-.66-.1-.52-1Zm-2.3,11c-1.66-.3-.24-.58-1.89-.82-1,.87-.66,1.31-2.06,1.88-.63.26-.16-.32-.8.74-2.09,3.46-6.28-.34-6.43,6.1,0,1.66-.47,4.53-.39,5.73a8.2,8.2,0,0,0,4.29-.26,9.3,9.3,0,0,1,4.41-.73c.81,1.84.26-.31.79,2.14.21.95-.35.19.33.85,1.11.79,2.39-.25,3.28-.73-1.3,2.21-2.2.79-2.55,2.66-.18,1-.16.92.3,1.37,1.3,1.84-.87-.68,1.36,1.08,1.22,1,2.13-.28,2.84-1.19,2.27-2.9,7.52-3.88,5.14-13.67l-.66-7.61c-1,1.39-1.15,4.07-2.41,5.28-.4-.33-1.22-1.19-1.56-1.55l.4-2.65a9.25,9.25,0,0,1-1.74-1.28l-1.64.94C283.54,396.31,283.46,397,283.22,397.61Z" transform="translate(-136.29 -221.67)"/></g><path class="cls-10" d="M188.11,422.79l1.22,2.13-4.49,2.58a1.66,1.66,0,0,0,.92.75,8.59,8.59,0,0,0,2.09-.17,5.12,5.12,0,0,1,2.9.11,4.79,4.79,0,0,1,1.64,1.9l.18.3-1.58.91-.17-.31a2.46,2.46,0,0,0-.71-.87,1.42,1.42,0,0,0-.77-.21,12,12,0,0,0-1.68.23,5.55,5.55,0,0,1-1.16.1,2.49,2.49,0,0,1-1.15-.41,2.54,2.54,0,0,1-.14,1.64,12.86,12.86,0,0,1-1.14,2L182,436.6l-1.44-2.5,2-2.83.15-.25.34-.55a3.63,3.63,0,0,0,.59-1.23,1.59,1.59,0,0,0-.26-.92L178.78,431l-1.22-2.13Z" transform="translate(-136.29 -221.67)"/><path class="cls-10" d="M187.85,434.63a7.73,7.73,0,0,1,2.75-1.58,5.73,5.73,0,0,1,2-.2,4.73,4.73,0,0,1,1.85.5,6.67,6.67,0,0,1,2.05,1.7,5.71,5.71,0,0,1,1.48,4.37,7.45,7.45,0,0,1-7.09,5.95,5.66,5.66,0,0,1-4-2.22,5.72,5.72,0,0,1-1.5-4.37A6.28,6.28,0,0,1,187.85,434.63Zm1.69,1.89a4.56,4.56,0,0,0-1.79,2.74,3.28,3.28,0,0,0,3.1,3.71,4.64,4.64,0,0,0,3-1.31,4.57,4.57,0,0,0,1.81-2.7,3.4,3.4,0,0,0-3.14-3.74A4.6,4.6,0,0,0,189.54,436.52Z" transform="translate(-136.29 -221.67)"/><path class="cls-10" d="M193.31,449.87l7.7-9.43,1.9,1.55-3,3.71,3.73,3,3-3.71,1.9,1.55-7.7,9.43-1.9-1.55,3.37-4.12-3.73-3-3.37,4.12Z" transform="translate(-136.29 -221.67)"/><path class="cls-10" d="M210.19,447.59l7.15,4.11-1,1.77-5-2.88-5,8.78-2.13-1.22Z" transform="translate(-136.29 -221.67)"/><path class="cls-10" d="M213.55,463.31l4.33-11.37,3.68,1.4a14.24,14.24,0,0,1,2.67,1.21,3.19,3.19,0,0,1,1.21,1.74,3.78,3.78,0,0,1-.18,2.46,4,4,0,0,1-1.05,1.62,3.34,3.34,0,0,1-1.39.75,3.55,3.55,0,0,1-1.4.09,14.25,14.25,0,0,1-2.44-.74l-1.5-.57-1.63,4.29Zm5.9-8.57L218.22,458l1.26.48a6.41,6.41,0,0,0,1.88.51,1.62,1.62,0,0,0,.93-.29,1.64,1.64,0,0,0,.6-.79,1.57,1.57,0,0,0,0-1.16,1.7,1.7,0,0,0-.73-.86,11.7,11.7,0,0,0-1.62-.71Z" transform="translate(-136.29 -221.67)"/><path class="cls-10" d="M225.46,467.5l2.34-11.94,8.85,1.74-.4,2-6.44-1.26-.52,2.65,6,1.18-.39,2-6-1.18-.64,3.25,6.67,1.31-.39,2Z" transform="translate(-136.29 -221.67)"/><path class="cls-10" d="M245.86,465.32l2.37.8a5.34,5.34,0,0,1-1.87,2.93,5.74,5.74,0,0,1-7.2-.82,6.33,6.33,0,0,1-1.48-4.55,6.65,6.65,0,0,1,1.65-4.69,5.38,5.38,0,0,1,4.15-1.61,5.06,5.06,0,0,1,3.6,1.38,4.79,4.79,0,0,1,1.21,2.26l-2.44.54a2.51,2.51,0,0,0-2.53-2.09,2.77,2.77,0,0,0-2.21.93,4.76,4.76,0,0,0-.9,3.13,5.1,5.1,0,0,0,.77,3.3,2.7,2.7,0,0,0,2.14,1,2.46,2.46,0,0,0,1.7-.59A3.62,3.62,0,0,0,245.86,465.32Z" transform="translate(-136.29 -221.67)"/><path class="cls-10" d="M263.37,462.7l2.49.18a5.34,5.34,0,0,1-1.09,3.3,5.73,5.73,0,0,1-7.18,1,6.34,6.34,0,0,1-2.57-4,6.66,6.66,0,0,1,.43-5,5.39,5.39,0,0,1,3.62-2.59,5.07,5.07,0,0,1,3.83.44,4.8,4.8,0,0,1,1.73,1.89l-2.23,1.13a2.51,2.51,0,0,0-3-1.39,2.77,2.77,0,0,0-1.91,1.45,4.76,4.76,0,0,0-.09,3.26,5.11,5.11,0,0,0,1.57,3,2.7,2.7,0,0,0,2.33.45,2.46,2.46,0,0,0,1.49-1A3.61,3.61,0,0,0,263.37,462.7Z" transform="translate(-136.29 -221.67)"/><path class="cls-10" d="M270,465.32l-4.87-11.15,8.27-3.61.82,1.89-6,2.63,1.08,2.47,5.6-2.45.82,1.88-5.6,2.45,1.33,3,6.23-2.72.82,1.88Z" transform="translate(-136.29 -221.67)"/><path class="cls-10" d="M281.46,460l-6.68-10.17,3.29-2.17a14.37,14.37,0,0,1,2.54-1.45,3.2,3.2,0,0,1,2.12,0,3.78,3.78,0,0,1,1.89,1.59,4,4,0,0,1,.69,1.8,3.34,3.34,0,0,1-.2,1.57,3.54,3.54,0,0,1-.75,1.18,14,14,0,0,1-2,1.55l-1.34.88,2.52,3.84Zm-3.5-9.8,1.9,2.89,1.12-.74a6.4,6.4,0,0,0,1.52-1.23,1.6,1.6,0,0,0,0-1.87,1.57,1.57,0,0,0-.93-.7,1.69,1.69,0,0,0-1.12.09,11.78,11.78,0,0,0-1.52.9Z" transform="translate(-136.29 -221.67)"/><path class="cls-10" d="M283.56,443.9l3.54-3.34a14.06,14.06,0,0,1,1.65-1.39,3.16,3.16,0,0,1,1.27-.51,3.11,3.11,0,0,1,1.38.1,2.76,2.76,0,0,1,1.25.78,2.88,2.88,0,0,1,.57,3.09,3.2,3.2,0,0,1,2-.37,2.93,2.93,0,0,1,1.69.92,3.63,3.63,0,0,1,.83,1.44,3.25,3.25,0,0,1,.09,1.63,3.49,3.49,0,0,1-.8,1.55q-.4.47-2.1,2.1l-3,2.84Zm3.18-.21,1.93,2,1.17-1.11q1-1,1.27-1.26a1.62,1.62,0,0,0,.42-1,1.28,1.28,0,0,0-.39-.94,1.34,1.34,0,0,0-.86-.45,1.41,1.41,0,0,0-1,.32q-.29.22-1.55,1.41Zm3.32,3.52,2.23,2.37,1.65-1.56a11.29,11.29,0,0,0,1.17-1.21,1.52,1.52,0,0,0,.31-1,1.5,1.5,0,0,0-.46-1,1.6,1.6,0,0,0-.83-.49,1.5,1.5,0,0,0-.94.13,8.3,8.3,0,0,0-1.7,1.37Z" transform="translate(-136.29 -221.67)"/><path class="cls-10" d="M301.16,443.4l-9.4-7.72,1.56-1.9,9.4,7.72Z" transform="translate(-136.29 -221.67)"/><path class="cls-10" d="M305.2,430l1.91-1.62a5.34,5.34,0,0,1,1.54,3.12,5.73,5.73,0,0,1-4.42,5.74,6.34,6.34,0,0,1-4.66-1.09,6.65,6.65,0,0,1-3.16-3.84,5.38,5.38,0,0,1,.77-4.39,5.06,5.06,0,0,1,3-2.37,4.8,4.8,0,0,1,2.56.14L302,428a2.51,2.51,0,0,0-3.09,1.09,2.77,2.77,0,0,0-.35,2.38,4.77,4.77,0,0,0,2.22,2.39,5.11,5.11,0,0,0,3.23,1,2.7,2.7,0,0,0,2-1.31,2.47,2.47,0,0,0,.37-1.76A3.62,3.62,0,0,0,305.2,430Z" transform="translate(-136.29 -221.67)"/><path class="cls-11" d="M222.19,398.82C223,406,234,414.55,240.65,416.44c15.16,5.69,30.27-14,17-23.92,0,0-3.53-2.62-16.08-4-22.85-2.55-24-39.69,1.26-42a26,26,0,0,1,11.51,2.07s4.1,2.23,5,3.36a6,6,0,0,0,2,1.87c.87.54,2.48.87,3.38,1.77a37,37,0,0,1,3,4.7s1.63,1.92,1.23,3a4.31,4.31,0,0,1-.55,1.05,5.26,5.26,0,0,0,.4.85c.31.1,1.06,0,1.4.18a1,1,0,0,1,.46.82c-.49-.25-.32-.55-.77-.63-.28-.05-.69,0-.87,0l.15.17a1,1,0,0,0,.31.18h0a1.33,1.33,0,0,1,.38.21.75.75,0,0,1,.13.81,1.4,1.4,0,0,0-.37-.54,1.09,1.09,0,0,0-.28-.15h0a1.26,1.26,0,0,1-.43-.26,4.06,4.06,0,0,1-.78-1.28,1.42,1.42,0,0,1-1.69.48,38.27,38.27,0,0,0-5.11-2.1,6.8,6.8,0,0,1-3.83-3.44c-1-1.61-.32-2.85-2.53-3.65s-6.6-3.73-9.93-3.38c-7.39.78-14,4.79-14.42,12.85-.38,7.7,4.34,15.52,12.27,16.38,4.7.51,13.49,1.21,17.9,4.38,10.84,7.78,10.13,26.9-1.09,34.06-8,5.12-19.38,3.6-26.71-2.08-5-3.86-9.43-10.3-10.64-16.61A8.7,8.7,0,0,1,222.19,398.82Z" transform="translate(-136.29 -221.67)"/><path class="cls-12" d="M260.63,360.5a12.24,12.24,0,0,0-1-1c.5-.64,2.85,1.5,3.52,1.84,1.22.62,1.19,1.17,1.18,1.17v.18l-.18,0a1.14,1.14,0,0,1-.68-.32.25.25,0,0,0-.2-.09.83.83,0,0,0-.33.1h0c-.35.17-.48.08-.76-.11h0l-.09-.06h0a1.78,1.78,0,0,1-.52-.53l-.53-.66-.22-.26-.21-.24Zm.48,0h0l.22.27.54.67a1.54,1.54,0,0,0,.43.45h0l.09.06h0c.16.11.24.16.4.08h0a1.18,1.18,0,0,1,.49-.14.66.66,0,0,1,.21,0,4.88,4.88,0,0,0-.48-.28A22,22,0,0,1,261.11,360.5Z" transform="translate(-136.29 -221.67)"/><path class="cls-12" d="M266.76,363.26c.1-.08.27,0,.38.18s.12.38,0,.45-.27,0-.38-.18S266.66,363.33,266.76,363.26Z" transform="translate(-136.29 -221.67)"/><path class="cls-13" d="M220.66,391.3l5.07,1.28a17.07,17.07,0,0,1-5.74,9.53,15.81,15.81,0,0,1-10.13,3.28,18.19,18.19,0,0,1-10.07-2.52,15.75,15.75,0,0,1-5.91-7.3,26.05,26.05,0,0,1-2-10.27,22.57,22.57,0,0,1,2.29-10.44,15.67,15.67,0,0,1,6.51-6.77,19,19,0,0,1,9.29-2.31,15.71,15.71,0,0,1,9.67,2.93,15.2,15.2,0,0,1,5.46,8.23l-5,1.18a11.85,11.85,0,0,0-3.87-6.09,10.31,10.31,0,0,0-6.38-1.91,12.38,12.38,0,0,0-7.38,2.12,11.17,11.17,0,0,0-4.17,5.68,22.87,22.87,0,0,0-1.2,7.36,23.36,23.36,0,0,0,1.42,8.53,10.61,10.61,0,0,0,4.43,5.45,12.43,12.43,0,0,0,6.51,1.8,10.9,10.9,0,0,0,7.21-2.46A12.57,12.57,0,0,0,220.66,391.3Z" transform="translate(-136.29 -221.67)"/><path class="cls-13" d="M269,392.42l4.78-.42a10.55,10.55,0,0,0,1.58,4.72,8.62,8.62,0,0,0,3.85,3,14.6,14.6,0,0,0,5.88,1.14,14.08,14.08,0,0,0,5.12-.86,7.11,7.11,0,0,0,3.31-2.37,5.48,5.48,0,0,0,1.08-3.28,5,5,0,0,0-1-3.15,7.75,7.75,0,0,0-3.45-2.26,67.58,67.58,0,0,0-6.82-1.87,34.81,34.81,0,0,1-7.4-2.39,10.36,10.36,0,0,1-4.09-3.57,8.74,8.74,0,0,1-1.35-4.77,9.74,9.74,0,0,1,1.65-5.42,10.2,10.2,0,0,1,4.81-3.83,18.24,18.24,0,0,1,7-1.31,19.21,19.21,0,0,1,7.51,1.37,10.83,10.83,0,0,1,5,4,11.6,11.6,0,0,1,1.88,6l-4.86.37a7.84,7.84,0,0,0-2.65-5.49q-2.26-1.86-6.68-1.86-4.6,0-6.7,1.69a5.05,5.05,0,0,0-2.1,4.06,4.36,4.36,0,0,0,1.49,3.4q1.46,1.33,7.64,2.73a50.64,50.64,0,0,1,8.48,2.44,11.63,11.63,0,0,1,4.94,3.91,9.52,9.52,0,0,1,1.59,5.45,10.42,10.42,0,0,1-1.75,5.76,11.53,11.53,0,0,1-5,4.21,17.54,17.54,0,0,1-7.38,1.5,22.05,22.05,0,0,1-8.71-1.52,12.2,12.2,0,0,1-5.51-4.56A12.92,12.92,0,0,1,269,392.42Z" transform="translate(-136.29 -221.67)"/><path class="cls-10" d="M190.84,289.24h4l4.17,9.29,3.56-9.29h3.77l-6,13.6a13.3,13.3,0,0,1-2,3.36,3.38,3.38,0,0,1-2.65,1.15,11.75,11.75,0,0,1-2.5-.21v-2.69q.77,0,1.39,0a2.8,2.8,0,0,0,1.8-.46,4.57,4.57,0,0,0,1-2Z" transform="translate(-136.29 -221.67)"/><path class="cls-10" d="M208.27,289.24h3.61v7.62a2.44,2.44,0,0,0,1.64-.62,12.66,12.66,0,0,0,1.32-2.78q1.12-2.9,2.26-3.61a7,7,0,0,1,3.63-.71h.52v2.67h-.51a3.61,3.61,0,0,0-1.62.27,2.08,2.08,0,0,0-.83.84,17.78,17.78,0,0,0-.94,2.31,8.14,8.14,0,0,1-.71,1.55,3.66,3.66,0,0,1-1.36,1.17,3.73,3.73,0,0,1,2,1.38,18.88,18.88,0,0,1,1.73,2.93l2.44,4.91h-4.25L215,302.51l-.21-.38q-.06-.1-.45-.84a5.36,5.36,0,0,0-1.14-1.65,2.35,2.35,0,0,0-1.36-.34v7.84h-3.61Z" transform="translate(-136.29 -221.67)"/><path class="cls-10" d="M223.47,307.13v-17.9h5.8a21.05,21.05,0,0,1,4.3.27,4.69,4.69,0,0,1,2.58,1.75,5.56,5.56,0,0,1,1,3.48,5.84,5.84,0,0,1-.6,2.77,4.9,4.9,0,0,1-1.52,1.76,5.23,5.23,0,0,1-1.87.85,20.63,20.63,0,0,1-3.75.26h-2.36v6.75Zm3.61-14.87v5.08h2a9.34,9.34,0,0,0,2.86-.28,2.37,2.37,0,0,0,1.13-.88,2.41,2.41,0,0,0,.41-1.39,2.31,2.31,0,0,0-.57-1.61,2.5,2.5,0,0,0-1.45-.79,17.43,17.43,0,0,0-2.6-.12Z" transform="translate(-136.29 -221.67)"/><path class="cls-10" d="M254.08,307.13h-3.93l-1.56-4.06h-7.15L240,307.13h-3.83l7-17.9h3.82Zm-6.65-7.08L245,293.41l-2.42,6.64Z" transform="translate(-136.29 -221.67)"/><path class="cls-10" d="M253.52,288.21v-2.94h2.94v2.94Zm2.37,18.92v-17.9h3.61v17.9Zm2.88-18.92v-2.94h3v2.94Z" transform="translate(-136.29 -221.67)"/><path class="cls-10" d="M262.91,307.13v-17.9h3.61v7h7.08v-7h3.61v17.9H273.6v-7.82h-7.08v7.82Z" transform="translate(-136.29 -221.67)"/><path class="cls-10" d="M297.09,307.13h-3.93l-1.56-4.06h-7.15L283,307.13h-3.83l7-17.9h3.82Zm-6.65-7.08L288,293.41l-2.42,6.64Z" transform="translate(-136.29 -221.67)"/><path class="cls-14" d="M189.06,253h12.84v2.88h-9.37v4h4.64a9.28,9.28,0,0,1,3.19.47,4.61,4.61,0,0,1,2.16,1.73,5,5,0,0,1,.9,3,5,5,0,0,1-.9,3,4.73,4.73,0,0,1-2.06,1.7,9.28,9.28,0,0,1-3.29.46h-8.11Zm3.47,14.3h3.37a11.09,11.09,0,0,0,2.27-.16,2.16,2.16,0,0,0,1.14-.72,2,2,0,0,0,.49-1.38,1.91,1.91,0,0,0-.85-1.74,5.66,5.66,0,0,0-2.9-.55h-3.53Z" transform="translate(-136.29 -221.67)"/><path class="cls-14" d="M206.24,270.13V253H219v2.91h-9.27v3.81h8.62v2.89h-8.62v4.68h9.6v2.89Z" transform="translate(-136.29 -221.67)"/><path class="cls-14" d="M224.7,257.64l-3.37-.79q1.09-4.2,6.2-4.2a6.82,6.82,0,0,1,4.56,1.33,4,4,0,0,1,1.54,3.12,3.74,3.74,0,0,1-.7,2.22,6,6,0,0,1-2.11,1.74,5.43,5.43,0,0,1,2.57,1.66,4.1,4.1,0,0,1,.86,2.64,4.55,4.55,0,0,1-1.66,3.66,7.56,7.56,0,0,1-5,1.39,8.55,8.55,0,0,1-4.25-.9,5.62,5.62,0,0,1-2.34-3.36l3.18-1a3.34,3.34,0,0,0,1.31,2,4.06,4.06,0,0,0,2,.46,3.4,3.4,0,0,0,2.39-.71,2.18,2.18,0,0,0,.75-1.62,2,2,0,0,0-.85-1.7,4.21,4.21,0,0,0-2.56-.64h-.79v-2.59h.4a3.67,3.67,0,0,0,2.44-.71,2.36,2.36,0,0,0,.84-1.9,2.09,2.09,0,0,0-.69-1.58,2.76,2.76,0,0,0-2-.64A2.66,2.66,0,0,0,224.7,257.64Z" transform="translate(-136.29 -221.67)"/><path class="cls-14" d="M237.33,253H251v17.18h-3.47v-14.3H240.8v14.3h-3.47Z" transform="translate(-136.29 -221.67)"/><path class="cls-14" d="M254.54,270.13V253h12.74v2.91H258v3.81h8.62v2.89H258v4.68h9.6v2.89Z" transform="translate(-136.29 -221.67)"/><path class="cls-14" d="M270.6,253h3.47v7.31a2.34,2.34,0,0,0,1.57-.6,12.15,12.15,0,0,0,1.27-2.67q1.08-2.79,2.17-3.47a6.76,6.76,0,0,1,3.48-.68h.5v2.57h-.49a3.46,3.46,0,0,0-1.56.26,2,2,0,0,0-.8.8,17.1,17.1,0,0,0-.9,2.21,7.85,7.85,0,0,1-.69,1.49,3.52,3.52,0,0,1-1.31,1.13,3.58,3.58,0,0,1,1.92,1.32,18.12,18.12,0,0,1,1.66,2.81l2.34,4.71h-4.08l-2.05-4.44-.2-.36q-.06-.09-.43-.81a5.14,5.14,0,0,0-1.1-1.58,2.25,2.25,0,0,0-1.31-.33v7.52H270.6Z" transform="translate(-136.29 -221.67)"/><path class="cls-14" d="M300.68,270.13h-3.77l-1.5-3.9h-6.87l-1.42,3.9h-3.68L290.14,253h3.67Zm-6.39-6.8L291.93,257l-2.32,6.38Z" transform="translate(-136.29 -221.67)"/></svg>