<?xml version="1.0" encoding="UTF-8" standalone="no"?>
<!-- Created with Inkscape (http://www.inkscape.org/) -->

<svg
   xmlns:dc="http://purl.org/dc/elements/1.1/"
   xmlns:cc="http://creativecommons.org/ns#"
   xmlns:rdf="http://www.w3.org/1999/02/22-rdf-syntax-ns#"
   xmlns:svg="http://www.w3.org/2000/svg"
   xmlns="http://www.w3.org/2000/svg"
   version="1.1"
   width="70.227203mm"
   height="90.172997mm"
   viewBox="0 0 70.2272 90.173"
   id="svg2"
   xml:space="preserve"
   style="fill-rule:evenodd"><metadata
   id="metadata91"><rdf:RDF><cc:Work
       rdf:about=""><dc:format>image/svg+xml</dc:format><dc:type
         rdf:resource="http://purl.org/dc/dcmitype/StillImage" /><dc:title></dc:title></cc:Work></rdf:RDF></metadata>
 <defs
   id="defs4">
  <style
   type="text/css"
   id="style6" />
 </defs>
 <g
   id="Layer_x0020_1">
  <metadata
   id="CorelCorpID_0Corel-Layer" />
  <path
   d="m 35.0393,14.2176 c -5.9034,-0.0364 -9.1147,0.9008 -11.2166,1.6042 l -0.422,-1.958 0.801,-0.2372 -0.8938,-4.4984 -3.1183,-0.7735 -0.9537,-5.5519 7.3028,-1.7039 2.834,2.8475 0.451,3.8901 L 32.0259,7.6081 31.2802,6.1289 30.8028,0.2 l 4.2563,0 4.2565,0 -0.4774,5.9289 -0.6747,1.4792 2.2022,0.2284 0.451,-3.8901 2.834,-2.8475 7.3028,1.7039 -0.9537,5.5519 -3.1183,0.7735 -0.9094,4.5296 0.8293,0.2809 -0.4113,1.9195 C 44.6123,15.2891 40.9427,14.254 35.0393,14.2176 z"
   id="path10"
   style="fill:#e6e6e6;stroke:#808080;stroke-width:0.40000001;stroke-linecap:round;stroke-linejoin:round" />
  <path
   d="m 23.37,9.1102 c 3.4426,-0.9963 7.4148,-1.5647 11.6444,-1.5647 4.3127,0 8.358,0.5909 11.8468,1.6239 m -23.0343,2.1822 c 3.3352,-0.9425 7.1438,-1.4768 11.1875,-1.4768 4.1433,0 7.9877,0.5297 11.3811,1.5159 M 24.0728,13.67 c 3.2761,-0.9108 6.997,-1.4255 10.9416,-1.4255 4.0046,0 7.7786,0.5306 11.0907,1.4674 M 19.8524,5.573 26.9236,3.9719 29.5925,6.142 M 20.2751,8.3334 27.3939,6.825 29.0327,7.8977 M 25.1733,8.6114 22.7476,7.7184 22.2843,5.1768 M 24.2655,4.4838 23.8733,1.835 m 3.506,4.9936 -0.8561,-5.6828 m 2.8001,9.0462 -0.2968,-2.2336 m 3.3573,4.2598 -0.1447,-2.225 m -5.3102,2.8787 -0.3109,-2.2005 m 8.4765,-0.7965 0,-2.3293 M 50.2856,5.6244 43.3172,4.0261 40.5969,6.142 M 49.9143,8.3334 43.0455,6.775 41.1567,7.8977 m 3.8594,0.7137 2.4257,-0.893 0.4376,-2.5416 m -1.9555,-0.693 0.3872,-2.7256 m -3.251,5.0204 0.6061,-5.6842 m -2.8001,9.0976 0.2968,-2.2336 m -3.3573,4.2598 0.1447,-2.225 m 5.2457,2.9639 0.3109,-2.2005 m -8.412,-0.8817 0,-2.3293 M 36.0092,7.4564 36.4665,5.9915 36.4776,3.2008 M 33.9511,3.0866 33.955,0.3613 m -2.8195,2.7965 7.862,0 m -7.6092,2.8196 7.423,0"
   id="path12"
   style="fill:none;stroke:#808080;stroke-width:0.40000001;stroke-linecap:round;stroke-linejoin:round" />
  <path
   d="m 35.1136,14.2092 c 3.2623,0 5.2779,0.1031 8.6103,0.8629 3.3324,0.7598 7.2179,2.7051 9.3238,2.7051 0.9806,0 1.6857,-0.3538 2.1757,-0.7738 0.49,-0.42 0.9048,-1.0346 0.8527,-1.8913 -0.0521,-0.8567 -1.2386,-0.9638 -0.0091,-0.9638 1.099,0 1.5752,0.8604 1.7502,1.5506 0.175,-0.7 1.0061,-1.7087 2.4901,-1.7087 1.6696,0 2.195,1.6193 2.296,2.646 0.0788,0.8014 2.0786,2.7618 2.2536,2.9368 0.175,0.175 1.0142,0.9368 1.3915,0.6933 0.3773,-0.2435 0.7758,-0.3729 1.1803,-0.3767 1.6052,-0.0148 2.5985,0.9023 2.5985,2.3191 0,1.4168 -0.9922,2.1918 -2.1288,2.1918 -1.1366,0 -1.6946,-0.9745 -1.6946,-1.7938 0,-0.6593 0.6732,-1.2846 1.3701,-1.2805 1.3567,0.008 1.235,1.714 0.6857,1.7911 0.5747,-0.1064 0.634,-1.7957 -0.6807,-1.7852 -0.4611,0.0037 -0.8514,0.1927 -1.3751,0.8582 -0.4553,0.5784 -0.7308,1.2287 -0.9716,2.2208 -0.4452,1.8346 -0.8266,9.4688 -0.8266,9.4688 1.0598,-0.5831 2.1828,-1.1324 1.2714,-2.8089 0.4792,0.1715 1.1969,0.4208 1.4237,1.1696 0.2261,0.7465 -0.033,1.1329 -0.3942,1.8638 0.4024,-0.1413 1.1809,0.3245 1.2415,1.0121 0.0606,0.6876 -0.4287,1.0833 -0.8999,1.0833 -0.4712,0 -0.7826,-0.261 -0.7826,-0.5534 0,-0.2991 0.0819,-0.4623 0.2371,-0.4869 0.3149,-0.0501 0.0823,-0.1514 -0.1429,-0.1795 -0.9351,-0.1171 -1.5675,0.5783 -1.5436,1.2822 0.8056,0.2049 1.2945,0.7189 1.373,1.0121 0.2089,0.7796 -0.6667,0.0987 -1.1911,0.7826 -0.4211,0.5491 -0.4624,0.9212 -0.4624,1.2361 0,0.3149 0.0298,0.8324 0.5022,1.0534 0.6674,0.3121 1.3072,-0.2118 1.2399,-0.8127 -0.025,-0.9087 0.8441,-1.6659 1.7128,-1.6995 0.8687,-0.0336 2.0057,0.5877 2.0096,2.009 0.0038,1.3838 -1.0737,2.4145 -2.3579,2.6055 -1.9574,0.4203 -2.0307,4.228 -2.8091,5.2681 0.5094,-0.1111 0.7407,-0.5675 0.8405,-1.0722 0.1324,0.1884 0.3376,0.4956 0.2707,1.0552 -0.0669,0.5596 -0.6725,1.2973 -1.2627,1.4687 0.0077,0.1967 -0.0473,0.613 -0.0211,0.9564 0.1017,1.3306 2.6748,4.4667 2.6748,9.1973 0,4.7306 -2.7174,12.2332 -12.1134,17.658 -8.4687,4.8893 -12.0632,5.6795 -13.51,10.4523 -1.05,-0.5215 -2.06,-0.9973 -2.6607,-1.1215 -0.3504,0.347 -0.6872,0.8942 -1.1997,2.3148 -0.5155,-0.3269 -0.741,-1.0022 -0.9918,-1.0147 -0.1855,-0.0092 -1.0694,1.5927 -1.7652,2.3619 -0.6958,-0.7692 -1.5415,-2.3712 -1.727,-2.3619 -0.2509,0.0125 -0.4763,0.6878 -0.9918,1.0147 -0.5125,-1.4206 -0.8493,-1.9678 -1.1997,-2.3148 -0.6007,0.1242 -1.6107,0.6 -2.6607,1.1215 C 27.0685,82.6597 23.474,81.8695 15.0053,76.9802 5.6093,71.5554 2.8919,64.0528 2.8919,59.3222 2.8919,54.5916 5.465,51.4555 5.5667,50.1249 5.5929,49.7815 5.5379,49.3652 5.5456,49.1685 4.9554,48.9971 4.3498,48.2594 4.2829,47.6998 4.216,47.1402 4.4212,46.833 4.5536,46.6446 4.6534,47.1493 4.8847,47.6057 5.3941,47.7168 4.6157,46.6767 4.5424,42.869 2.585,42.4487 1.3008,42.2577 0.2233,41.227 0.2271,39.8432 0.231,38.4219 1.368,37.8006 2.2367,37.8342 c 0.8687,0.0336 1.7378,0.7908 1.7128,1.6995 -0.0673,0.6009 0.5725,1.1248 1.2399,0.8127 0.4724,-0.221 0.5022,-0.7385 0.5022,-1.0534 0,-0.3149 -0.0413,-0.687 -0.4624,-1.2361 -0.5244,-0.6839 -1.4,-0.003 -1.1911,-0.7826 0.0785,-0.2932 0.5674,-0.8072 1.373,-1.0121 C 5.435,35.5583 4.8026,34.8629 3.8675,34.98 c -0.2252,0.0281 -0.4578,0.1294 -0.1429,0.1795 0.1552,0.0246 0.2371,0.1878 0.2371,0.4869 0,0.2924 -0.3114,0.5534 -0.7826,0.5534 -0.4712,0 -0.9605,-0.3957 -0.8999,-1.0833 C 2.3398,34.4289 3.1183,33.9631 3.5207,34.1044 3.1595,33.3735 2.9004,32.9871 3.1265,32.2406 3.3533,31.4918 4.071,31.2425 4.5502,31.071 c -0.9114,1.6765 0.2116,2.2258 1.2714,2.8089 0,0 -0.3814,-7.6342 -0.8266,-9.4688 C 4.7542,23.419 4.4787,22.7687 4.0234,22.1903 3.4997,21.5248 3.1094,21.3358 2.6483,21.3321 1.3336,21.3216 1.3929,23.0109 1.9676,23.1173 1.4183,23.0402 1.2966,21.3342 2.6533,21.3262 c 0.6969,-0.0041 1.3701,0.6212 1.3701,1.2805 0,0.8193 -0.558,1.7938 -1.6946,1.7938 -1.1366,0 -2.1288,-0.775 -2.1288,-2.1918 0,-1.4168 0.9933,-2.3339 2.5985,-2.3191 0.4045,0.0038 0.803,0.1332 1.1803,0.3767 0.3773,0.2435 1.2165,-0.5183 1.3915,-0.6933 0.175,-0.175 2.1748,-2.1354 2.2536,-2.9368 0.101,-1.0267 0.6264,-2.646 2.296,-2.646 1.484,0 2.3151,1.0087 2.4901,1.7087 0.175,-0.6902 0.6512,-1.5506 1.7502,-1.5506 1.2295,0 0.043,0.1071 -0.0091,0.9638 -0.0521,0.8567 0.3627,1.4713 0.8527,1.8913 0.49,0.42 1.1951,0.7738 2.1757,0.7738 2.1059,0 5.9914,-1.9453 9.3238,-2.7051 3.3324,-0.7598 5.348,-0.8629 8.6103,-0.8629 z"
   id="path14"
   style="fill:#ffd700;stroke:#9a6e01;stroke-width:0.40000001;stroke-linecap:round;stroke-linejoin:round" />
  <path
   d="m 30.2241,14.4183 c 2.188,-0.182 3.3691,1.1159 3.5378,2.2516 0.1327,0.8934 -0.0922,1.7374 -0.6385,2.2264 0.8796,-0.0991 1.7296,0.2143 1.9848,0.6966 0.2552,-0.4823 1.1052,-0.7957 1.9848,-0.6966 -0.5463,-0.489 -0.771,-1.3332 -0.6385,-2.2264 0.1685,-1.1355 1.4054,-2.4286 3.5934,-2.2466"
   id="path16"
   style="fill:none;stroke:#9a6e01;stroke-width:0.40000001;stroke-linecap:round;stroke-linejoin:round" />
  <path
   d="m 26.3881,16.7273 0.5574,-0.2143 0.1287,0.5972 m -4.6866,0.3662 0.5922,-0.1437 -0.1469,0.506 m 4.3511,-1.9347 0.3457,-0.0812 0.0517,0.336 m -4.2992,0.714 0.3357,-0.0405 0.0134,0.3234 m 20.197,-0.4284 -0.5574,-0.2143 -0.1287,0.5972 m 4.6866,0.3662 -0.5922,-0.1437 0.1469,0.506 m -4.3511,-1.9347 -0.3457,-0.0812 -0.0517,0.336 m 4.2992,0.714 -0.3357,-0.0405 -0.0134,0.3234"
   id="path18"
   style="fill:none;stroke:#9a6e01;stroke-width:0.40000001;stroke-linecap:round;stroke-linejoin:round" />
  <path
   d="m 33.0789,18.9398 c -0.2148,0.1886 -0.7267,0.5547 -1.3243,0.5557 -0.5975,0.001 -1.5683,-0.4006 -1.5683,-1.4817 0,-1.0811 0.7519,-1.4482 1.3967,-1.4345 0.6449,0.0136 1.0278,0.4394 1.0278,0.972 0,0.5326 -0.3361,0.9102 -0.7395,0.9425 -0.4035,0.0323 -0.6711,-0.149 -0.6804,-0.4974 -0.0094,-0.3484 0.2754,-0.4128 0.3561,-0.4128"
   id="path20"
   style="fill:none;stroke:#9a6e01;stroke-width:0.40000001;stroke-linecap:round;stroke-linejoin:round" />
  <path
   d="m 12.401,15.744 c 0,1.999 1.2028,3.7045 3.1922,3.812 1.9894,0.1075 0.5327,-0.7372 2.0054,-0.7372 1.4727,0 0.8069,0.6208 0.3215,0.9227 2.0032,0.1055 2.9417,-1.6734 4.2975,-1.7296 -0.0524,0.4326 -0.3331,0.9727 -0.963,1.3166 2.4488,0.9242 4.0079,-1.9661 5.1112,-1.8609 -0.9328,1.4967 0.552,2.686 2.5864,1.855 -0.5846,-0.4005 -0.8638,-1.2025 -0.6549,-1.8577 0.2089,-0.6552 0.9198,-1.4271 2.0389,-1.4621 1.1191,-0.035 1.7689,0.4681 2.0902,0.9592"
   id="path22"
   style="fill:none;stroke:#9a6e01;stroke-width:0.40000001;stroke-linecap:round;stroke-linejoin:round" />
  <path
   d="M 6.1463,21.4001 C 6.0158,21.0521 5.4689,20.2614 5.1882,20.0468 m 2.226,-0.7461 C 7.3707,19.2139 6.8321,18.702 6.5775,18.5222 m 0.1083,1.7118 c 0,0 -0.486,-0.7553 -0.8015,-0.9612 M 8.0789,18.3897 C 7.9658,18.346 7.445,18.1212 7.1208,17.8979 M 8.7077,17.4147 C 8.4032,17.4408 7.8393,17.3117 7.5155,17.1588 M 9.5491,15.6413 C 8.7625,15.6491 8.1988,16.0858 7.7007,16.6527 M 9.0959,16.476 C 8.6696,16.4673 7.9998,16.6582 7.6614,16.9225"
   id="path24"
   style="fill:none;stroke:#9a6e01;stroke-width:0.40000001;stroke-linecap:round;stroke-linejoin:round" />
  <polygon
   points="34.7209,17.3882 35.1093,17.9644 35.4977,17.3882 35.1093,16.812 "
   id="polygon26"
   style="fill:none;stroke:#9a6e01;stroke-width:0.40000001;stroke-linecap:round;stroke-linejoin:round" />
  <path
   d="m 60.2633,20.2441 -50.2904,0 0,36.1158 c -10e-5,0.0371 -0.0014,0.0749 -0.0014,0.1118 0,13.886 11.2606,25.1467 25.1466,25.1467 13.886,0 25.1466,-11.2607 25.1466,-25.1467 0,-0.0369 -0.0013,-0.0741 -0.0014,-0.1125 l 0,-36.1151 z"
   id="path28"
   style="fill:#064ea2" />
  <path
   d="M 6.4165,34.6091 C 6.3253,34.4274 6.0918,34.1145 5.8418,33.8991"
   id="path30"
   style="fill:none;stroke:#9a6e01;stroke-width:0.40000001;stroke-linecap:round;stroke-linejoin:round" />
  <path
   d="M 2.6054,40.0578 C 3.2075,39.5809 2.6594,38.8864 2.1715,38.8762 1.6836,38.866 1.2504,39.257 1.2328,39.8934 1.2152,40.5298 1.727,41.1677 2.4974,41.1425 3.2678,41.1173 3.8985,40.4879 3.9495,39.6507"
   id="path32"
   style="fill:none;stroke:#9a6e01;stroke-width:0.40000001;stroke-linecap:round;stroke-linejoin:round" />
  <path
   d="m 1.8861,41.0155 c 1.469,1.0821 3.0033,-0.0103 3.5907,-0.9003"
   id="path34"
   style="fill:none;stroke:#9a6e01;stroke-width:0.40000001;stroke-linecap:round;stroke-linejoin:round" />
  <path
   d="m 2.585,42.4487 c 0.1638,0.0243 0.3311,0.035 0.4999,0.0311 1.4915,-0.035 3.1176,-0.7898 3.9596,-2.3054 0.842,-1.5156 0.97,-2.0406 0.9178,-3.9912 -0.0391,-1.463 0.3563,-2.152 0.6072,-2.5614 C 8.7707,33.2938 8.8223,33.2599 8.4087,33.2843 7.8232,33.3191 7.4012,33.5598 7.1135,33.805 6.3441,34.4607 6.0723,35.5982 6.575,36.755 6.0398,36.2006 5.6817,36.2126 5.3567,36.2746"
   id="path36"
   style="fill:none;stroke:#9a6e01;stroke-width:0.40000001;stroke-linecap:round;stroke-linejoin:round" />
  <path
   d="m 3.9788,20.2663 c 1.2324,0.7956 2.239,2.8105 2.4906,5.6488 0.3287,3.7072 0.3879,6.1131 0.7547,7.7899"
   id="path38"
   style="fill:none;stroke:#9a6e01;stroke-width:0.40000001;stroke-linecap:round;stroke-linejoin:round" />
  <path
   d="M 8.813,66.4534 C 8.3135,67.3858 8.071,69.9249 8.3374,71.6898 M 7.5143,59.4937 C 7.51,62.2801 5.2656,63.063 5.55,68.0864 m 8.4245,5.8262 0.0999,0.6993 -0.4995,-0.0333 m -0.4134,-1.7736 0.1803,1.0743 -0.7254,-0.042 m 1.9305,0.8499 0.21,0.441 -0.378,-0.105 M 6.8483,64.8883 c 0.0333,0.6993 0.1665,1.3986 0.9324,1.2321 M 4.0502,59.167 c -0.1026,0.5868 -0.0666,1.3833 0.4041,2.2104 0.4707,0.8271 0.0288,-0.4743 0.9333,-0.8289 M 5.2544,53.6743 c -0.0513,0.4446 0.1368,0.8892 0.6156,0.8892 -0.0684,0.2736 0.1539,0.6156 -0.4446,1.2825"
   id="path40"
   style="fill:none;stroke:#9a6e01;stroke-width:0.40000001;stroke-linecap:round;stroke-linejoin:round" />
  <path
   d="m 5.578,49.1829 c 0.9365,0.2587 1.5595,0.0344 1.95,-0.2237 -1.0476,0.6765 -0.2606,1.4222 -1.1039,2.1868 0.6301,0.0647 0.8121,-0.2797 0.939,-0.3634 0.201,1.5005 -1.3259,1.4069 -1.1142,2.9628 0.3827,0.034 0.6876,0.0405 1.0224,-0.4527 0.5709,2.5329 -2.2728,3.422 -2.4678,5.3865 -0.1477,1.4885 0.7118,1.0953 0.9271,0.6257 0.2153,-0.4696 0.1204,-1.057 0.1196,-1.4351 1.054,0.4824 1.0972,0.1866 1.0878,-0.7294 -0.0094,-0.916 0.5755,-1.553 1.3857,-1.6666 -0.4325,2.2378 0.7627,3.3218 0.7919,5.2877 0.0385,2.5846 -1.5642,2.8776 -1.5157,3.8636 0.0407,0.8272 0.8016,1.0396 0.8016,-1.0965 0.379,0.1024 0.7763,0.4413 0.9477,0.7062 0.1907,-0.2562 0.7081,-0.4109 1.052,-0.4847 0.1949,0.5642 0.3818,1.2426 0.3485,2.144 -0.0333,0.9014 -0.6485,1.5779 -1.0851,2.1148 -0.4366,0.5369 -0.834,1.9141 -0.2646,1.9349 1.0093,0.0368 0.0798,-1.5172 1.0728,-3.0313 0.6583,1.1703 1.2674,2.0051 1.1671,3.4695 -0.0547,0.7979 -0.2916,2.267 0.5724,2.6216"
   id="path42"
   style="fill:none;stroke:#9a6e01;stroke-width:0.40000001;stroke-linecap:round;stroke-linejoin:round" />
  <path
   d="m 5.4412,42.7388 c -0.2199,0.132 -1.155,0.3892 -1.6692,0.4498 m 1.7036,0.4461 C 5.0761,43.8188 4.2296,43.96 4.2296,43.96 m 1.435,0.5162 c -0.3633,0.1693 -1.1244,0.2547 -1.2065,0.2877 m 1.4843,0.5292 c -0.3386,0.1383 -0.8581,0.166 -1.2,0.2449 m 1.5797,0.5276 c -0.4274,0.1726 -1.0176,0.1941 -1.4006,0.1956 m 1.9536,0.5706 C 6.4477,46.9915 5.4887,47.066 5.1238,46.9721 m 2.7883,0.4442 C 7.5292,47.7632 6.3654,47.9686 5.3656,47.713"
   id="path44"
   style="fill:none;stroke:#9a6e01;stroke-width:0.40000001;stroke-linecap:round;stroke-linejoin:round" />
  <path
   d="m 35.0758,87.874 c -0.6566,-0.6422 -1.8007,-2.4943 -2.2102,-3.2993 -0.3736,-0.0042 -0.5921,0.3658 -1.6224,0.3658 -1.0303,0 -1.326,0.2468 -1.7319,0.4118 -3.9153,-5.0269 -7.6581,-5.2529 -12.2198,-8.9607 -2.1455,-1.744 -1.8363,-3.3143 -2.6815,-4.7782 -0.8452,-1.4639 -2.2529,-1.0755 -2.9244,-1.6179 0.6715,0.5424 2.0792,0.154 2.9244,1.6179"
   id="path46"
   style="fill:none;stroke:#9a6e01;stroke-width:0.40000001;stroke-linecap:round;stroke-linejoin:round" />
  <path
   d="m 37.1375,18.9398 c 0.2148,0.1886 0.7267,0.5547 1.3243,0.5557 0.5975,0.001 1.5683,-0.4006 1.5683,-1.4817 0,-1.0811 -0.7519,-1.4482 -1.3967,-1.4345 -0.6449,0.0136 -1.0278,0.4394 -1.0278,0.972 0,0.5326 0.3361,0.9102 0.7395,0.9425 0.4035,0.0323 0.6711,-0.149 0.6804,-0.4974 0.0094,-0.3484 -0.2754,-0.4128 -0.3561,-0.4128"
   id="path48"
   style="fill:none;stroke:#9a6e01;stroke-width:0.40000001;stroke-linecap:round;stroke-linejoin:round" />
  <path
   d="m 57.8142,15.7252 c 0.086,1.7708 -1.2016,3.7233 -3.191,3.8308 -1.9894,0.1075 -0.5327,-0.7372 -2.0054,-0.7372 -1.4727,0 -0.8069,0.6208 -0.3215,0.9227 -2.0032,0.1055 -2.9417,-1.6734 -4.2975,-1.7296 0.0524,0.4326 0.3331,0.9727 0.963,1.3166 -2.4488,0.9242 -4.0079,-1.9661 -5.1112,-1.8609 0.9328,1.4967 -0.552,2.686 -2.5864,1.855 0.5846,-0.4005 0.8638,-1.2025 0.6549,-1.8577 -0.2089,-0.6552 -0.9198,-1.4271 -2.0389,-1.4621 -1.1191,-0.035 -1.7689,0.4681 -2.0902,0.9592"
   id="path50"
   style="fill:none;stroke:#9a6e01;stroke-width:0.40000001;stroke-linecap:round;stroke-linejoin:round" />
  <path
   d="m 35.0945,83.6118 c 0.2242,0 0.6857,0.0195 0.6857,0.7189 0,0.6994 -0.3071,1.8154 -0.6857,1.8154 -0.3786,0 -0.6857,-1.1458 -0.6857,-1.8154 0,-0.6696 0.4615,-0.7189 0.6857,-0.7189 z m -2.846,2.141 0.7413,1.1715 m 4.9133,-1.1715 -0.7413,1.1715"
   id="path52"
   style="fill:none;stroke:#9a6e01;stroke-width:0.40000001;stroke-linecap:round;stroke-linejoin:round" />
  <path
   d="m 64.0053,21.4001 c 0.1305,-0.348 0.6774,-1.1387 0.9581,-1.3533 m -2.226,-0.7461 c 0.0435,-0.0868 0.5821,-0.5987 0.8367,-0.7785 m -0.1083,1.7118 c 0,0 0.486,-0.7553 0.8015,-0.9612 m -2.1946,-0.8831 c 0.1131,-0.0437 0.6339,-0.2685 0.9581,-0.4918 m -1.5869,-0.4832 c 0.3045,0.0261 0.8684,-0.103 1.1922,-0.2559 m -2.0336,-1.5175 c 0.7866,0.0078 1.3503,0.4445 1.8484,1.0114 M 61.0557,16.476 c 0.4263,-0.0087 1.0961,0.1822 1.4345,0.4465"
   id="path54"
   style="fill:none;stroke:#9a6e01;stroke-width:0.40000001;stroke-linecap:round;stroke-linejoin:round" />
  <path
   d="m 63.7351,34.6091 c 0.0912,-0.1817 0.3247,-0.4946 0.5747,-0.71"
   id="path56"
   style="fill:none;stroke:#9a6e01;stroke-width:0.40000001;stroke-linecap:round;stroke-linejoin:round" />
  <path
   d="m 67.5462,40.0578 c -0.6021,-0.4769 -0.054,-1.1714 0.4339,-1.1816 0.4879,-0.0102 0.9211,0.3808 0.9387,1.0172 0.0176,0.6364 -0.4942,1.2743 -1.2646,1.2491 -0.7704,-0.0252 -1.4011,-0.6546 -1.4521,-1.4918"
   id="path58"
   style="fill:none;stroke:#9a6e01;stroke-width:0.40000001;stroke-linecap:round;stroke-linejoin:round" />
  <path
   d="m 68.2655,41.0155 c -1.469,1.0821 -3.0033,-0.0103 -3.5907,-0.9003"
   id="path60"
   style="fill:none;stroke:#9a6e01;stroke-width:0.40000001;stroke-linecap:round;stroke-linejoin:round" />
  <path
   d="m 67.5666,42.4487 c -0.1638,0.0243 -0.3311,0.035 -0.4999,0.0311 -1.4915,-0.035 -3.1176,-0.7898 -3.9596,-2.3054 -0.842,-1.5156 -0.97,-2.0406 -0.9178,-3.9912 0.0391,-1.463 -0.3563,-2.152 -0.6072,-2.5614 -0.2012,-0.328 -0.2528,-0.3619 0.1608,-0.3375 0.5855,0.0348 1.0075,0.2755 1.2952,0.5207 0.7694,0.6557 1.0412,1.7932 0.5385,2.95 0.5352,-0.5544 0.8933,-0.5424 1.2183,-0.4804"
   id="path62"
   style="fill:none;stroke:#9a6e01;stroke-width:0.40000001;stroke-linecap:round;stroke-linejoin:round" />
  <path
   d="m 66.1728,20.3199 c -1.2324,0.7956 -2.239,2.757 -2.4906,5.5952 -0.3286,3.7072 -0.3879,6.1131 -0.7547,7.7899"
   id="path64"
   style="fill:none;stroke:#9a6e01;stroke-width:0.40000001;stroke-linecap:round;stroke-linejoin:round" />
  <path
   d="m 56.1771,73.9126 -0.0999,0.6993 0.4995,-0.0333 m 0.4134,-1.7736 -0.1803,1.0743 0.7254,-0.042 m -1.9305,0.8499 -0.21,0.441 0.378,-0.105 m 7.5306,-10.1349 c -0.0333,0.6993 -0.1665,1.3986 -0.9324,1.2321 m 3.7305,-6.9534 c 0.1026,0.5868 0.0666,1.3833 -0.4041,2.2104 -0.4707,0.8271 -0.0288,-0.4743 -0.9333,-0.8289 m 0.1332,-6.8742 c 0.0513,0.4446 -0.1368,0.8892 -0.6156,0.8892 0.0684,0.2736 -0.1539,0.6156 0.4446,1.2825 m -3.3876,10.6074 c 0.4995,0.9324 0.742,3.4715 0.4756,5.2364 m 0.8231,-12.1961 c 0.0043,2.7864 2.2487,3.5693 1.9643,8.5927"
   id="path66"
   style="fill:none;stroke:#9a6e01;stroke-width:0.40000001;stroke-linecap:round;stroke-linejoin:round" />
  <path
   d="m 64.5736,49.1829 c -0.9365,0.2587 -1.5595,0.0344 -1.95,-0.2237 1.0476,0.6765 0.2606,1.4222 1.1039,2.1868 -0.6301,0.0647 -0.8121,-0.2797 -0.939,-0.3634 -0.201,1.5005 1.3259,1.4069 1.1142,2.9628 -0.3827,0.034 -0.6876,0.0405 -1.0224,-0.4527 -0.5709,2.5329 2.2728,3.422 2.4678,5.3865 0.1477,1.4885 -0.7118,1.0953 -0.9271,0.6257 -0.2153,-0.4696 -0.1204,-1.057 -0.1196,-1.4351 -1.054,0.4824 -1.0972,0.1866 -1.0878,-0.7294 0.0094,-0.916 -0.5755,-1.553 -1.3857,-1.6666 0.4325,2.2378 -0.7627,3.3218 -0.7919,5.2877 -0.0385,2.5846 1.5642,2.8776 1.5157,3.8636 -0.0407,0.8272 -0.8016,1.0396 -0.8016,-1.0965 -0.379,0.1024 -0.7763,0.4413 -0.9477,0.7062 -0.1907,-0.2562 -0.7081,-0.4109 -1.052,-0.4847 -0.1949,0.5642 -0.3818,1.2426 -0.3485,2.144 0.0333,0.9014 0.6485,1.5779 1.0851,2.1148 0.4366,0.5369 0.834,1.9141 0.2646,1.9349 -1.0093,0.0368 -0.0798,-1.5172 -1.0728,-3.0313 -0.6583,1.1703 -1.2674,2.0051 -1.1671,3.4695 0.0547,0.7979 0.2916,2.267 -0.5724,2.6216"
   id="path68"
   style="fill:none;stroke:#9a6e01;stroke-width:0.40000001;stroke-linecap:round;stroke-linejoin:round" />
  <path
   d="m 64.7104,42.7388 c 0.2199,0.132 1.155,0.3892 1.6692,0.4498 m -1.7036,0.4461 c 0.3995,0.1841 1.246,0.3253 1.246,0.3253 m -1.435,0.5162 c 0.3633,0.1693 1.1244,0.2547 1.2065,0.2877 m -1.4843,0.5292 c 0.3386,0.1383 0.8581,0.166 1.2,0.2449 m -1.5797,0.5276 c 0.4274,0.1726 1.0176,0.1941 1.4006,0.1956 m -1.9536,0.5706 c 0.4274,0.1597 1.3864,0.2342 1.7513,0.1403 m -2.7883,0.4442 c 0.3829,0.3469 1.5467,0.5523 2.5465,0.2967"
   id="path70"
   style="fill:none;stroke:#9a6e01;stroke-width:0.40000001;stroke-linecap:round;stroke-linejoin:round" />
  <path
   d="m 35.0758,87.874 c 0.6566,-0.6422 1.8007,-2.4943 2.2102,-3.2993 0.3736,-0.0042 0.5921,0.3658 1.6224,0.3658 1.0303,0 1.326,0.2468 1.7319,0.4118 3.9153,-5.0269 7.6581,-5.2529 12.2198,-8.9607 2.1455,-1.744 1.8363,-3.3143 2.6815,-4.7782 0.8452,-1.4639 2.2529,-1.0755 2.9244,-1.6179 -0.6715,0.5424 -2.0792,0.154 -2.9244,1.6179"
   id="path72"
   style="fill:none;stroke:#9a6e01;stroke-width:0.40000001;stroke-linecap:round;stroke-linejoin:round" />
  <path
   d="m 60.2633,20.2441 -50.2904,0 0,36.1158 c -10e-5,0.0371 -0.0014,0.0749 -0.0014,0.1118 0,13.886 11.2606,25.1467 25.1466,25.1467 13.886,0 25.1466,-11.2607 25.1466,-25.1467 0,-0.0369 -0.0013,-0.0741 -0.0014,-0.1125 l 0,-36.1151 z"
   id="path74"
   style="fill:none;stroke:#916908;stroke-width:0.40000001" />
  <g
   id="_348142864">
   <g
   id="g77">
    <path
   d="m 36.7136,58.9469 0.2159,0.9632 c 0.0563,0.2519 0.254,0.6052 0.4392,0.7851 l 1.3127,1.2715 c 0.1855,0.1796 0.3659,0.5357 0.4011,0.7917 l 0.2299,1.6635 c 0.0351,0.2557 0.2206,0.607 0.4117,0.7805 l 1.5955,1.4464 c 0.1911,0.1736 0.4269,0.5112 0.5232,0.7506 l 0.7544,1.8703 0.0545,-2.5356 C 42.6572,66.476 42.5432,66.0899 42.3981,65.8762 L 41.334,64.3068 c -0.1451,-0.2139 -0.2563,-0.6002 -0.2477,-0.8581 l 0.0688,-1.9874 c 0.0085,-0.2583 -0.1155,-0.6348 -0.2763,-0.8367 l -0.9453,-1.1887 c -0.1607,-0.2019 -0.2897,-0.579 -0.2867,-0.8372 l 0.0104,-0.8713 10.5639,8.3075 -8.3073,-10.5641 0.8336,0.5284 c 0.218,0.1383 0.608,0.2484 0.866,0.2443 l 1.8272,-0.0289 c 0.2583,-0.0039 0.6379,0.1202 0.8441,0.2761 l 1.3382,1.014 c 0.2058,0.156 0.5851,0.2731 0.8431,0.2605 l 2.1509,-0.1051 c 0.2583,-0.0123 0.6635,0.0599 0.9011,0.1607 l 1.856,0.789 -1.7547,-1.831 C 51.4405,56.592 51.087,56.3998 50.8336,56.3514 L 48.9712,55.9938 C 48.7173,55.9452 48.3659,55.751 48.1896,55.5621 L 46.8328,54.1084 C 46.6563,53.9196 46.3021,53.741 46.0455,53.7117 L 44.5369,53.5394 C 44.2801,53.5102 43.9231,53.335 43.7423,53.1505 l -0.6088,-0.6237 13.344,-1.5953 -13.344,-1.5962 0.9635,-0.2159 c 0.2518,-0.0561 0.6052,-0.2539 0.7848,-0.4395 l 1.2715,-1.3123 c 0.1797,-0.1852 0.536,-0.366 0.792,-0.4014 l 1.6635,-0.2297 c 0.2557,-0.0351 0.607,-0.2203 0.7805,-0.4118 l 1.4464,-1.5953 c 0.1734,-0.1911 0.5112,-0.427 0.7503,-0.5234 l 1.8705,-0.7547 -2.5356,-0.0542 c -0.2583,-0.0053 -0.6445,0.1086 -0.8581,0.2536 l -1.5694,1.0641 c -0.2136,0.1451 -0.5999,0.2563 -0.8581,0.2474 l -1.9874,-0.0684 c -0.258,-0.009 -0.6346,0.1153 -0.8367,0.276 l -1.1887,0.9452 c -0.202,0.1609 -0.5787,0.2897 -0.837,0.2868 l -0.8716,-0.0105 8.3078,-10.5638 -10.5644,8.3072 0.5287,-0.8336 c 0.1383,-0.2183 0.2481,-0.6079 0.2443,-0.8662 l -0.029,-1.827 c -0.0038,-0.2584 0.1203,-0.6381 0.2761,-0.8438 l 1.0138,-1.3384 c 0.156,-0.206 0.2734,-0.5855 0.2608,-0.8432 l -0.1051,-2.1506 c -0.0129,-0.2581 0.0597,-0.6636 0.1605,-0.9012 l 0.7889,-1.8562 -1.831,1.7548 c -0.1867,0.1784 -0.379,0.5319 -0.4275,0.7858 l -0.3575,1.8624 c -0.0483,0.2536 -0.2428,0.6053 -0.4318,0.7817 l -1.4536,1.3569 c -0.1885,0.1762 -0.3674,0.5304 -0.3967,0.787 l -0.172,1.5088 c -0.0293,0.2563 -0.2043,0.6141 -0.3891,0.7945 L 36.7134,42.9153 35.1181,29.5712 33.5216,42.9153 33.3063,41.9521 C 33.2495,41.7 33.052,41.3466 32.8664,41.167 l -1.3123,-1.2715 c -0.1855,-0.18 -0.3662,-0.536 -0.4013,-0.7918 l -0.23,-1.6635 C 30.8877,37.1844 30.7025,36.8331 30.5113,36.6596 L 28.916,35.2132 c -0.1914,-0.1734 -0.4272,-0.5111 -0.5237,-0.7507 l -0.7544,-1.8701 -0.0542,2.5356 c -0.0056,0.258 0.1088,0.6442 0.2533,0.8581 l 1.0643,1.5694 c 0.1451,0.2135 0.256,0.5999 0.2475,0.8578 l -0.0684,1.9877 c -0.0091,0.258 0.115,0.6346 0.2757,0.837 l 0.9452,1.1883 c 0.1607,0.2022 0.2901,0.5787 0.2869,0.8371 l -0.0107,0.8715 -10.5637,-8.3078 8.3071,10.5645 -0.8336,-0.5287 c -0.2182,-0.1383 -0.6081,-0.2482 -0.8661,-0.2443 l -1.827,0.0289 c -0.2583,0.0039 -0.638,-0.1203 -0.844,-0.2759 L 22.6117,44.3577 C 22.406,44.2014 22.0266,44.0842 21.7685,44.0969 l -2.1506,0.1051 c -0.2577,0.0126 -0.6633,-0.0597 -0.9011,-0.1609 l -1.856,-0.7887 1.7548,1.8312 c 0.1784,0.1866 0.5321,0.3788 0.7855,0.4274 l 1.8627,0.3573 c 0.2536,0.0486 0.6051,0.2431 0.7814,0.4317 l 1.3569,1.454 c 0.1762,0.1889 0.5304,0.3671 0.787,0.3964 l 1.5087,0.1723 c 0.2569,0.0292 0.6142,0.2042 0.7946,0.3889 l 0.6091,0.6237 -13.3443,1.5953 13.3443,1.5965 -0.9636,0.2156 c -0.2518,0.0562 -0.605,0.254 -0.785,0.4393 l -1.2716,1.3124 c -0.1795,0.1855 -0.5357,0.3663 -0.7917,0.4017 l -1.6632,0.2297 c -0.2561,0.0351 -0.6073,0.2203 -0.7808,0.4114 l -1.4464,1.5953 c -0.1736,0.1915 -0.5112,0.4271 -0.7507,0.5237 l -1.8703,0.7544 2.5356,0.0542 c 0.2581,0.0056 0.6442,-0.1085 0.8578,-0.2536 l 1.5696,-1.0641 c 0.2141,-0.145 0.6,-0.256 0.8581,-0.2474 l 1.9876,0.0687 c 0.2584,0.0087 0.6345,-0.1153 0.8365,-0.2761 l 1.1886,-0.9456 c 0.2021,-0.1604 0.579,-0.2897 0.8374,-0.2867 l 0.8713,0.0107 -8.3077,10.5636 10.5646,-8.307 -0.5287,0.8337 c -0.1386,0.218 -0.2484,0.6079 -0.2443,0.8659 l 0.0287,1.8269 c 0.0042,0.2584 -0.12,0.638 -0.2761,0.8441 l -1.0138,1.3385 c -0.1559,0.2057 -0.2735,0.5851 -0.2604,0.8432 l 0.1051,2.1508 c 0.0123,0.258 -0.06,0.6633 -0.1609,0.9007 l -0.789,1.8562 1.8314,-1.7548 c 0.1864,-0.1784 0.3786,-0.5319 0.4272,-0.7854 l 0.3572,-1.8624 c 0.0489,-0.2539 0.2431,-0.6055 0.4321,-0.7817 l 1.4537,-1.3573 c 0.1886,-0.1761 0.3674,-0.53 0.3969,-0.7866 l 0.172,-1.5088 c 0.0293,-0.2568 0.2043,-0.6141 0.3889,-0.7946 l 0.6237,-0.6086 1.5953,13.344 1.597,-13.3442 z"
   id="_347980336"
   style="fill:#fffa96" />
    <path
   d="m 29.2152,54.9146 -0.8941,0.5558 -8.3077,10.5638 10.0693,-10.0687 c -0.3213,-0.3212 -0.612,-0.673 -0.8675,-1.0509 z m 10.4423,-10.7801 0.5323,-0.8317 c 0.1366,-0.2192 0.2445,-0.61 0.241,-0.8683 l -0.029,-1.827 c -0.0041,-0.2583 0.12,-0.6381 0.2761,-0.8437 l 1.0138,-1.3385 c 0.1556,-0.206 0.273,-0.5854 0.2607,-0.8432 l -0.1053,-2.1506 c -0.0127,-0.2581 0.0599,-0.6636 0.1608,-0.9011 l 0.7889,-1.8563 -1.2867,1.8025 c -0.1498,0.21 -0.2879,0.5928 -0.3057,0.8502 l -0.1396,1.999 c -0.018,0.2575 -0.1751,0.6244 -0.3492,0.8154 l -1.2279,1.3485 c -0.1737,0.1909 -0.3252,0.5582 -0.337,0.8162 l -0.0746,1.666 c -0.0118,0.258 -0.151,0.6357 -0.3094,0.8394 l -1.1349,1.4569 c 0.4617,0.1742 0.8998,0.3957 1.3101,0.6574 l 0.7156,-0.7911 z m -11.2694,-8.5411 1.3145,1.5122 c 0.1696,0.1949 0.3179,0.5655 0.33,0.8235 l 0.0855,1.8217 c 0.0119,0.2577 0.1644,0.6248 0.3387,0.8154 l 1.1251,1.2308 c 0.1743,0.1905 0.3429,0.5562 0.3747,0.8125 l 0.228,1.8335 c 0.4415,-0.2002 0.9069,-0.3561 1.3913,-0.4632 L 33.5221,42.9151 33.3104,41.9507 C 33.2519,41.6992 33.0521,41.3464 32.8666,41.1668 L 31.5543,39.8953 C 31.3688,39.7154 31.1884,39.359 31.153,39.1036 L 30.9233,37.44 c -0.0351,-0.2557 -0.2206,-0.6071 -0.4118,-0.7806 l -1.5953,-1.4463 c -0.1911,-0.1735 -0.427,-0.5112 -0.5237,-0.7507 l -0.7544,-1.8702 0.3645,2.1839 c 0.0426,0.2547 0.2162,0.6225 0.3855,0.8173 z m 2.7457,9.4349 -0.5556,-0.8938 -10.564,-8.3078 10.0687,10.0692 c 0.3213,-0.3215 0.6732,-0.6122 1.0509,-0.8676 z m 9.8863,1.9186 0.894,-0.5557 8.3078,-10.5638 -10.069,10.0688 c 0.3214,0.321 0.612,0.6732 0.8672,1.0507 z m 7.0999,-1.1012 -1.822,0.0854 c -0.2581,0.012 -0.6247,0.1644 -0.8154,0.3386 l -1.2311,1.1251 c -0.1903,0.1743 -0.556,0.3429 -0.8123,0.3747 l -1.8338,0.2282 c 0.2002,0.4415 0.3564,0.907 0.4635,1.3911 l 1.0648,-0.0538 0.9643,-0.2114 c 0.2516,-0.0588 0.6044,-0.2586 0.784,-0.4441 l 1.2718,-1.3121 c 0.1793,-0.1855 0.5357,-0.3663 0.7917,-0.4017 l 1.6636,-0.2297 c 0.2554,-0.0351 0.6068,-0.2203 0.7802,-0.4118 l 1.4464,-1.595 c 0.1734,-0.1914 0.5112,-0.4269 0.7507,-0.5237 l 1.8704,-0.7547 -2.184,0.3649 c -0.2549,0.0424 -0.6226,0.2157 -0.8177,0.385 l -1.512,1.3145 c -0.1951,0.1699 -0.5655,0.3183 -0.8231,0.3305 z m -9.0183,10.9873 0.5558,0.8943 10.5638,8.3075 -10.0687,-10.0693 c -0.3212,0.3216 -0.673,0.6123 -1.0509,0.8675 z m 3.0061,-4.5456 1.0259,0.2395 13.344,-1.5956 -14.2395,-3e-4 c 0,0.464 -0.046,0.917 -0.1304,1.3564 z m -22.5941,-7.4432 1.9989,0.1401 c 0.2575,0.0179 0.6246,0.1751 0.8154,0.3484 l 1.3487,1.228 c 0.1909,0.174 0.5582,0.3256 0.8162,0.3373 l 1.6658,0.0745 c 0.2581,0.012 0.6359,0.151 0.8393,0.3095 l 1.4572,1.1347 c 0.1743,-0.4616 0.3958,-0.8996 0.6574,-1.31 l -0.7913,-0.7156 -0.8317,-0.532 C 27.27,45.7228 26.8794,45.6145 26.6216,45.6184 l -1.8273,0.029 c -0.2583,0.0038 -0.638,-0.1203 -0.844,-0.276 l -1.3385,-1.0139 c -0.2057,-0.1562 -0.5851,-0.2738 -0.8429,-0.2607 l -2.151,0.105 c -0.2577,0.0126 -0.6632,-0.0596 -0.9011,-0.1609 l -1.8559,-0.7886 1.8024,1.2861 c 0.2103,0.1504 0.5932,0.2878 0.8504,0.3058 z m 14.0081,14.1027 1.5956,13.344 3e-4,-14.2395 c -0.4641,0 -0.9172,-0.0459 -1.3561,-0.1307 l -0.2398,1.0262 z m 1.5964,-29.3762 -3e-4,14.2394 c 0.4642,0 0.9172,0.0459 1.3566,0.1307 l 0.2391,-1.0259 -1.5954,-13.3442 z m -6.9904,20.0036 -1.026,-0.2391 -13.344,1.5953 14.2394,3e-4 c -2e-4,-0.4641 0.0457,-0.9173 0.1306,-1.3565 z m 13.7195,16.6938 -1.3142,-1.512 c -0.1696,-0.1949 -0.3179,-0.5653 -0.33,-0.8235 L 40.1175,62.1108 C 40.1057,61.8527 39.9532,61.486 39.7789,61.2954 l -1.1251,-1.2308 c -0.1743,-0.1907 -0.343,-0.5563 -0.3747,-0.8126 l -0.2279,-1.8338 c -0.4418,0.2001 -0.907,0.3564 -1.391,0.4635 l 0.0533,1.0651 0.2118,0.964 c 0.0585,0.2515 0.2583,0.6043 0.4435,0.7842 l 1.3126,1.2716 c 0.1855,0.1796 0.366,0.5356 0.4011,0.7917 l 0.2299,1.6636 c 0.0352,0.2557 0.2207,0.6068 0.4118,0.7802 l 1.5954,1.4464 c 0.1911,0.1736 0.4269,0.5111 0.5232,0.7508 l 0.7548,1.8703 -0.3646,-2.1841 C 42.1902,66.8309 42.0168,66.4632 41.8473,66.2681 z M 30.5779,57.7273 30.0458,58.559 c -0.1363,0.2192 -0.2448,0.61 -0.2405,0.868 l 0.0286,1.8269 c 0.0042,0.2584 -0.12,0.6381 -0.2761,0.8441 l -1.0137,1.3385 c -0.156,0.2057 -0.2735,0.5851 -0.2605,0.8432 l 0.1048,2.1508 c 0.0127,0.2581 -0.0596,0.6633 -0.1605,0.9009 l -0.789,1.856 1.2867,-1.8022 c 0.1501,-0.2102 0.2876,-0.593 0.3055,-0.8506 l 0.1397,-1.9989 c 0.0182,-0.2574 0.1752,-0.6241 0.3491,-0.8154 l 1.2277,-1.3483 c 0.174,-0.1911 0.3256,-0.5582 0.3373,-0.8161 L 31.1594,59.89 c 0.0116,-0.258 0.1507,-0.6361 0.3095,-0.8396 l 1.1349,-1.457 c -0.4619,-0.1746 -0.9,-0.3958 -1.3104,-0.6574 l -0.7155,0.7913 z m -8.4622,-1.7116 1.8218,-0.085 c 0.2584,-0.012 0.6249,-0.1643 0.8154,-0.3389 l 1.2308,-1.1251 c 0.1905,-0.1743 0.5562,-0.343 0.8124,-0.3747 l 1.8338,-0.228 c -0.2002,-0.4415 -0.3564,-0.9068 -0.4635,-1.3907 l -1.0643,0.0533 -0.9645,0.2117 c -0.2515,0.0586 -0.6042,0.2583 -0.7841,0.4437 l -1.2717,1.3119 c -0.1795,0.186 -0.5356,0.3664 -0.7917,0.4018 l -1.6636,0.2297 c -0.2556,0.0354 -0.6068,0.2206 -0.7802,0.4117 l -1.4464,1.5953 c -0.1736,0.1913 -0.5112,0.4268 -0.7507,0.5236 l -1.8705,0.7545 2.1842,-0.3645 c 0.2549,-0.0424 0.6226,-0.2159 0.8177,-0.3853 l 1.5122,-1.3145 c 0.1945,-0.1698 0.565,-0.3181 0.8229,-0.3305 z m 28.6061,1.0019 -1.999,-0.1401 c -0.2577,-0.0182 -0.6244,-0.175 -0.8155,-0.349 l -1.3484,-1.2277 c -0.1908,-0.174 -0.5579,-0.3255 -0.8161,-0.337 L 44.077,54.889 c -0.2581,-0.0115 -0.6359,-0.1507 -0.8395,-0.3094 l -1.4569,-1.1349 c -0.1746,0.4618 -0.3957,0.8999 -0.6576,1.3104 l 0.7914,0.7156 0.8317,0.532 c 0.2192,0.1363 0.61,0.2448 0.868,0.2407 l 1.8273,-0.029 c 0.2583,-0.0038 0.6379,0.1206 0.844,0.2761 l 1.3382,1.0141 c 0.2058,0.156 0.5851,0.2734 0.8432,0.2608 l 2.1508,-0.1051 c 0.2583,-0.0126 0.6636,0.0597 0.9014,0.1605 l 1.8558,0.789 -1.8022,-1.2867 C 51.362,57.1728 50.9793,57.0354 50.7218,57.0176 z"
   id="_347980264"
   style="fill:#c89600" />
    <path
   d="m 34.976,72.3075 -1.5616,-13.0571 -0.4166,0.407 c -0.155,0.1452 -0.3271,0.4975 -0.3474,0.7088 l 0,0 -0.172,1.509 c -0.039,0.3032 -0.2206,0.6627 -0.4409,0.8745 l 0,0 -1.4535,1.3573 c -0.1599,0.1444 -0.3522,0.4921 -0.3894,0.7045 l 0,0 -0.357,1.8622 c -0.0601,0.2943 -0.2543,0.6515 -0.4689,0.8615 l 0,0 -1.8312,1.7549 c -0.0488,0.0466 -0.1242,0.0526 -0.1796,0.0142 l 0,0 c -0.0554,-0.0382 -0.0768,-0.1105 -0.0504,-0.1727 l 0,0 0.789,-1.8561 c 0.0832,-0.1925 0.1521,-0.5523 0.151,-0.785 l 0,0 c 0,-0.0193 -6e-4,-0.0373 -0.0012,-0.0532 l 0,0 -0.105,-2.148 c -0.0014,-0.0182 -0.0018,-0.0348 -0.0018,-0.0495 l 0,0 c 0.0033,-0.2961 0.1186,-0.6564 0.2909,-0.8894 l 0,0 1.0134,-1.3382 c 0.1296,-0.1658 0.2511,-0.5307 0.2475,-0.7457 l 0,0 c 0,-0.0043 0,-0.0086 0,-0.0107 l 0,0 -0.0287,-1.8208 c -6e-4,-0.0112 -3e-4,-0.0191 -3e-4,-0.022 l 0,0 c 0.0029,-0.2958 0.1121,-0.6793 0.2668,-0.9282 l 0,0 0.0836,-0.1317 -9.9112,7.7932 c -0.0566,0.0443 -0.1376,0.0397 -0.1884,-0.0115 l 0,0 c -0.0512,-0.0508 -0.056,-0.1319 -0.0114,-0.1885 l 0,0 8.1294,-10.3369 -0.5829,-0.0069 -0.0046,-3e-4 0,0 -0.003,0 c -0.2135,-0.0039 -0.578,0.1225 -0.7393,0.2557 l 0,0 -1.189,0.9458 c -0.2333,0.1805 -0.5993,0.3035 -0.8989,0.3072 l 0,0 c -0.0087,0 -0.0188,0 -0.031,-3e-4 l 0,0 -1.993,-0.0689 c -0.0029,-3e-4 -0.0087,-3e-4 -0.0188,-3e-4 l 0,0 c -0.2189,-0.0029 -0.579,0.1045 -0.7489,0.2235 l 0,0 -1.5696,1.0643 c -0.2445,0.1619 -0.6225,0.2751 -0.9192,0.278 l 0,0 c -0.0064,0 -0.0124,0 -0.0213,0 l 0,0 -2.5357,-0.0542 c -0.0676,-0.0016 -0.1252,-0.0508 -0.1371,-0.117 l 0,0 c -0.012,-0.0661 0.024,-0.1325 0.0868,-0.1575 l 0,0 1.87,-0.7546 c 0.2108,-0.0829 0.5476,-0.318 0.6987,-0.4872 l 0,0 1.4465,-1.5953 c 0.208,-0.2232 0.5647,-0.4113 0.8665,-0.4568 l 0,0 1.6632,-0.2298 c 0.2122,-0.0254 0.5632,-0.2037 0.7091,-0.3598 l 0,0 1.2716,-1.3121 c 0.21,-0.212 0.566,-0.4112 0.8562,-0.4793 l 0,0 0.1523,-0.0342 -12.5188,-1.4973 c -0.0716,-0.009 -0.1255,-0.0692 -0.1255,-0.1414 l 0,0 c 0,-0.0722 0.0539,-0.1329 0.1255,-0.1414 l 0,0 13.0573,-1.5611 -0.407,-0.417 C 26.2456,48.6564 25.8935,48.4838 25.6823,48.464 l 0,0 -1.509,-0.172 c -0.303,-0.0388 -0.663,-0.2202 -0.8747,-0.4409 l 0,0 -1.3571,-1.4541 c -0.1444,-0.1596 -0.492,-0.3517 -0.7041,-0.3887 l 0,0 -1.8626,-0.3573 c -0.2944,-0.0601 -0.6516,-0.2541 -0.8621,-0.4689 l 0,0 -1.7547,-1.8311 c -0.0466,-0.0486 -0.0524,-0.1237 -0.0141,-0.1795 l 0,0 c 0.0383,-0.0555 0.1106,-0.0766 0.1729,-0.0499 l 0,0 1.856,0.7886 c 0.1919,0.0831 0.5518,0.1522 0.7841,0.1509 l 0,0 c 0.0194,0 0.0375,-6e-4 0.0542,-0.0013 l 0,0 2.1482,-0.1051 c 0.0175,-0.0011 0.0337,-0.0014 0.0489,-0.0014 l 0,0 c 0.2959,0.0033 0.6565,0.1181 0.8899,0.2906 l 0,0 1.3384,1.0141 c 0.165,0.1291 0.5301,0.2506 0.7454,0.2471 l 0,0 c 0.0039,0 0.0082,0 0.0105,0 l 0,0 1.82,-0.0287 c 0.012,-6e-4 0.0196,-2e-4 0.0226,-6e-4 l 0,0 c 0.2957,0.0031 0.6797,0.1124 0.9288,0.2665 l 0,0 0.1317,0.0836 -7.7933,-9.911 c -0.0446,-0.0566 -0.0397,-0.1376 0.0112,-0.1886 l 0,0 c 0.0512,-0.0509 0.1318,-0.0557 0.1888,-0.0111 l 0,0 10.3366,8.1293 0.0074,-0.5751 c -3e-4,-0.0091 -3e-4,-0.0149 -3e-4,-0.0153 l 0,0 C 30.4497,43.0405 30.3236,42.6764 30.19,42.5148 l 0,0 -0.9453,-1.1883 C 29.064,41.0927 28.9408,40.7272 28.9375,40.4281 l 0,0 c 0,-0.0123 3e-4,-0.0233 6e-4,-0.0324 l 0,0 0.0684,-1.9848 c 3e-4,-0.0103 3e-4,-0.0192 3e-4,-0.0271 l 0,0 c 0.003,-0.2189 -0.1044,-0.579 -0.2232,-0.7486 l 0,0 -1.0644,-1.5698 c -0.1616,-0.2446 -0.2748,-0.6229 -0.2779,-0.9199 l 0,0 c 0,-0.0093 2e-4,-0.0163 2e-4,-0.0208 l 0,0 0.0542,-2.5356 c 0.0012,-0.0677 0.0504,-0.1249 0.117,-0.1369 l 0,0 c 0.0662,-0.0123 0.132,0.0242 0.1574,0.0869 l 0,0 0.7546,1.87 c 0.0827,0.2105 0.3179,0.5477 0.4871,0.6984 l 0,0 1.5953,1.4465 c 0.2232,0.2082 0.4113,0.5648 0.4569,0.8667 l 0,0 0.2301,1.6634 c 0.0251,0.2116 0.2032,0.5634 0.3595,0.7089 l 0,0 1.3124,1.2715 c 0.2117,0.21 0.411,0.5657 0.4795,0.8563 l 0,0 0.0337,0.1515 1.4978,-12.5178 c 0.0085,-0.072 0.0688,-0.1256 0.1411,-0.1256 l 0,0 c 0.0723,0 0.1327,0.0539 0.1415,0.1256 l 0,0 1.561,13.0571 0.4172,-0.407 c 0.1545,-0.1452 0.3271,-0.4976 0.347,-0.7089 l 0,0 0.1721,-1.5089 c 0.0388,-0.3034 0.2206,-0.663 0.4406,-0.8749 l 0,0 1.454,-1.3569 c 0.16,-0.1441 0.3522,-0.4923 0.3888,-0.7044 l 0,0 0.3575,-1.8623 c 0.0602,-0.2943 0.2543,-0.6515 0.4689,-0.8618 l 0,0 1.8315,-1.7546 c 0.0483,-0.0472 0.1236,-0.0528 0.1793,-0.0145 l 0,0 c 0.0556,0.0383 0.0761,0.1108 0.05,0.1729 l 0,0 -0.789,1.8564 c -0.0832,0.1911 -0.1521,0.5498 -0.1507,0.7822 l 0,0 c 0,0.0194 3e-4,0.0378 0.0018,0.0558 l 0,0 0.105,2.1531 c 3e-4,0.0126 9e-4,0.0273 9e-4,0.0437 l 0,0 c -0.0033,0.296 -0.118,0.6567 -0.2906,0.8901 l 0,0 -1.0137,1.3387 c -0.1299,0.1647 -0.2513,0.5302 -0.2477,0.7457 l 0,0 c 0,0 0,0 6e-4,0.0096 l 0,0 0.0289,1.8271 -3e-4,0.0118 c 0,0 0,0 0,0.0042 l 0,0 c -0.0029,0.2958 -0.1118,0.6796 -0.2662,0.9287 l 0,0 -0.0831,0.1315 9.9107,-7.7933 c 0.0568,-0.0447 0.1378,-0.0399 0.1889,0.0114 l 0,0 c 0.0508,0.0508 0.0557,0.1318 0.0109,0.1885 l 0,0 -8.1293,10.3373 0.5742,0.0069 c 0.0101,-7e-4 0.0149,-3e-4 0.0162,-3e-4 l 0,0 c 0.2131,0.0038 0.5773,-0.1221 0.7393,-0.2557 l 0,0 1.1884,-0.9451 c 0.2335,-0.1813 0.5992,-0.3039 0.8987,-0.3075 l 0,0 c 0.012,0 0.0229,3e-4 0.0319,6e-4 l 0,0 1.9859,0.0686 c 0.009,0 0.018,2e-4 0.0265,2e-4 l 0,0 c 0.2191,0.0031 0.5786,-0.1045 0.7485,-0.2233 l 0,0 1.5691,-1.0638 c 0.2449,-0.1627 0.6232,-0.2754 0.9207,-0.2788 l 0,0 c 0.0091,0 0.0164,3e-4 0.0208,3e-4 l 0,0 2.5355,0.0544 c 0.0676,0.0014 0.1252,0.0503 0.1372,0.1167 l 0,0 c 0.0121,0.0664 -0.0245,0.1326 -0.0867,0.158 l 0,0 -1.8706,0.7544 c -0.2108,0.0829 -0.5474,0.3179 -0.6984,0.4868 l 0,0 -1.4463,1.5955 c -0.208,0.2235 -0.5647,0.4115 -0.8663,0.4573 l 0,0 -1.6636,0.2295 c -0.212,0.0252 -0.564,0.2035 -0.7092,0.3592 l 0,0 -1.2715,1.3124 c -0.2097,0.212 -0.5655,0.4115 -0.8559,0.4795 l 0,0 -0.1525,0.0339 12.5187,1.4976 c 0.072,0.0085 0.1257,0.0694 0.1257,0.1416 l 0,0 c 0,0.072 -0.0543,0.1329 -0.1257,0.1412 l 0,0 -13.057,1.5611 0.407,0.417 c 0.1454,0.1544 0.4976,0.3272 0.7089,0.3469 l 0,0 1.5084,0.1723 c 0.3032,0.0389 0.6633,0.2202 0.8755,0.441 l 0,0 1.3564,1.4536 c 0.1447,0.16 0.4922,0.3522 0.7047,0.3889 l 0,0 1.8622,0.3576 c 0.2945,0.0599 0.6512,0.2542 0.8618,0.4689 l 0,0 1.7548,1.831 c 0.0469,0.0488 0.0528,0.124 0.0144,0.1796 l 0,0 c -0.0383,0.0553 -0.111,0.0764 -0.1729,0.05 l 0,0 -1.8561,-0.789 c -0.1925,-0.0834 -0.552,-0.1522 -0.7851,-0.1509 l 0,0 c -0.0182,0 -0.036,6e-4 -0.0533,0.0014 l 0,0 -2.1547,0.105 c -0.0121,5e-4 -0.0262,0.0011 -0.0422,0.0011 l 0,0 C 48.1315,57.9051 47.7712,57.7907 47.5378,57.618 l 0,0 L 46.2,56.6043 c -0.1658,-0.1301 -0.5315,-0.2512 -0.7465,-0.2477 l 0,0 c 0,0 0,0 -0.0092,3e-4 l 0,0 -1.8338,0.0289 c 0,0 -0.003,0 -0.0106,0 l 0,0 c -0.2957,-0.003 -0.679,-0.1122 -0.9276,-0.2663 l 0,0 -0.1321,-0.0837 7.7937,9.9113 c 0.0448,0.0568 0.0399,0.1378 -0.0111,0.1885 l 0,0 c -0.0509,0.0509 -0.1319,0.0559 -0.1884,0.0113 l 0,0 -10.3374,-8.1289 -0.0067,0.5826 -3e-4,0.004 c 0,7e-4 0,0.0018 0,0.0031 l 0,0 c -0.0038,0.2133 0.1226,0.5778 0.256,0.7397 l 0,0 0.9453,1.1886 c 0.1811,0.2335 0.3039,0.6 0.3076,0.9 l 0,0 c 0,0.01 0,0.0195 -2e-4,0.0302 l 0,0 -0.0694,1.9933 c 0,0.0014 -3e-4,0.0083 -3e-4,0.018 l 0,0 c -0.0029,0.2191 0.1048,0.5793 0.224,0.7493 l 0,0 1.0639,1.5695 c 0.1621,0.2446 0.2751,0.6229 0.2781,0.9199 l 0,0 c 0,0.0062 0,0.0119 0,0.0209 l 0,0 -0.0544,2.5356 c -0.0014,0.0677 -0.0502,0.1251 -0.1165,0.1372 l 0,0 c -0.0664,0.012 -0.1328,-0.0242 -0.1581,-0.0869 l 0,0 -0.7545,-1.8702 C 41.6292,67.2422 41.394,66.9054 41.2247,66.7543 l 0,0 -1.5953,-1.4465 C 39.4065,65.0996 39.2178,64.743 39.1721,64.4415 l 0,0 -0.2299,-1.6634 c -0.0251,-0.212 -0.203,-0.5635 -0.359,-0.7089 l 0,0 -1.3126,-1.2718 c -0.2119,-0.2097 -0.4111,-0.5658 -0.4792,-0.8559 l 0,0 -0.0343,-0.1527 -1.4974,12.5192 c -0.0084,0.0717 -0.0691,0.1257 -0.1414,0.1257 l 0,0 c -0.0735,-5e-4 -0.1338,-0.0545 -0.1423,-0.1262 l 0,0 z M 33.5692,58.8123 c 0.0512,0.0181 0.0874,0.0638 0.0941,0.1175 l 0,0 1.4537,12.1614 1.4549,-12.1614 c 0.0082,-0.069 0.065,-0.1221 0.1345,-0.1253 l 0,0 c 0.0688,-0.0036 0.131,0.0434 0.1459,0.1111 l 0,0 0.2161,0.9633 c 0.0445,0.2133 0.2407,0.5641 0.3994,0.7138 l 0,0 1.3125,1.2716 c 0.215,0.2138 0.3979,0.5744 0.4428,0.8745 l 0,0 0.2301,1.6634 c 0.0245,0.2097 0.2071,0.5559 0.3665,0.6945 l 0,0 1.5953,1.4467 c 0.2131,0.196 0.4496,0.5345 0.5597,0.8028 l 0,0 0.4945,1.2268 0.0399,-1.8388 c 0,-0.006 0,-0.0117 0,-0.0179 l 0,0 c 0.003,-0.2186 -0.1083,-0.5875 -0.2291,-0.76 l 0,0 -1.0641,-1.5694 c -0.1608,-0.2423 -0.2702,-0.614 -0.2729,-0.9093 l 0,0 c 0,-0.0101 -3e-4,-0.023 8e-4,-0.0337 l 0,0 0.0688,-1.985 c 0,-0.0085 0,-0.0162 0,-0.0229 l 0,0 c 0.0039,-0.2146 -0.1161,-0.5658 -0.2457,-0.7229 l 0,0 -0.9452,-1.1884 c -0.1841,-0.238 -0.3137,-0.6146 -0.3179,-0.917 l 0,0 c 2e-4,0 -3e-4,-0.004 6e-4,-0.0156 l 0,0 0.0101,-0.8663 c 6e-4,-0.0543 0.0327,-0.1038 0.0809,-0.127 l 0,0 c 0.0488,-0.023 0.107,-0.0168 0.1498,0.0167 l 0,0 9.6273,7.5711 -7.5707,-9.6278 c -0.0427,-0.0546 -0.0399,-0.1323 0.0065,-0.1838 l 0,0 c 0.0463,-0.0512 0.1232,-0.0617 0.1819,-0.0246 l 0,0 0.8336,0.5285 c 0.1793,0.117 0.5552,0.2249 0.7749,0.2224 l 0,0 c 0.002,0 0.0085,-5e-4 0.0124,0 l 0,0 1.8244,-0.029 c 6e-4,0 0.0066,-7e-4 0.0169,-7e-4 l 0,0 c 0.3008,0.0036 0.6778,0.1279 0.9185,0.3057 l 0,0 1.3379,1.0139 c 0.1578,0.1237 0.502,0.2356 0.7182,0.2322 l 0,0 c 0.0097,0 0.0219,-3e-4 0.0324,-6e-4 l 0,0 2.1503,-0.1048 c 0.0215,-0.0013 0.0441,-0.0018 0.0676,-0.0018 l 0,0 c 0.2823,0.0011 0.649,0.0698 0.8967,0.1735 l 0,0 1.2173,0.5174 -1.2747,-1.33 c -0.1469,-0.1585 -0.497,-0.3487 -0.71,-0.386 l 0,0 -1.8621,-0.3575 C 48.6491,56.0732 48.2939,55.877 48.0854,55.6591 l 0,0 -1.3566,-1.4539 c -0.141,-0.1574 -0.4892,-0.3327 -0.6992,-0.3525 l 0,0 -1.5087,-0.1723 c -0.3021,-0.0387 -0.6644,-0.216 -0.8806,-0.4308 l 0,0 -0.6088,-0.6235 C 42.9938,52.5872 42.981,52.5299 42.9991,52.4792 l 0,0 c 0.0183,-0.0509 0.0637,-0.0876 0.1174,-0.0942 l 0,0 12.1616,-1.454 -12.1616,-1.4547 c -0.0687,-0.0082 -0.122,-0.065 -0.125,-0.1342 l 0,0 c -0.0036,-0.0691 0.0433,-0.131 0.111,-0.1463 l 0,0 0.9634,-0.2155 c 0.2133,-0.0448 0.564,-0.241 0.7138,-0.4 l 0,0 1.2715,-1.3124 c 0.2136,-0.2147 0.5749,-0.3979 0.8749,-0.4435 l 0,0 1.6634,-0.2292 c 0.2099,-0.0248 0.5556,-0.2073 0.6945,-0.3667 l 0,0 1.4464,-1.5953 c 0.1958,-0.2133 0.5349,-0.4494 0.8025,-0.5596 l 0,0 1.2272,-0.4955 -1.8422,-0.0391 c -0.0071,-2e-4 -0.0115,-2e-4 -0.0144,-2e-4 l 0,0 c -0.2189,-0.0032 -0.5879,0.1079 -0.7603,0.2293 l 0,0 -1.5696,1.0642 c -0.2418,0.16 -0.6126,0.269 -0.9084,0.272 l 0,0 c -0.0123,0 -0.0233,0 -0.0345,-3e-4 l 0,0 -1.9883,-0.0684 c -0.0082,-2e-4 -0.0149,-6e-4 -0.0213,-6e-4 l 0,0 C 45.407,45.0315 45.0566,45.151 44.9,45.2809 l 0,0 -1.1887,0.9454 c -0.2378,0.1839 -0.6141,0.3135 -0.9164,0.3172 l 0,0 c 0,0 -0.0023,-3e-4 -0.0109,0 l 0,0 -0.8716,-0.0104 c -0.0543,-6e-4 -0.1035,-0.0324 -0.1269,-0.0808 l 0,0 c -0.0232,-0.0488 -0.0168,-0.1072 0.0166,-0.1496 l 0,0 7.5722,-9.6281 -9.6288,7.5715 c -0.0544,0.0427 -0.1325,0.04 -0.1838,-0.0065 l 0,0 c -0.0512,-0.0464 -0.0619,-0.1234 -0.0248,-0.1819 l 0,0 0.5287,-0.8336 c 0.1171,-0.1798 0.2248,-0.5556 0.222,-0.7764 l 0,0 c 0,-0.0011 0,-0.0053 0,-0.0125 l 0,0 -0.0286,-1.8228 c 0,-8e-4 -6e-4,-0.0067 -6e-4,-0.0172 l 0,0 c 0.0035,-0.301 0.128,-0.6779 0.3056,-0.9176 l 0,0 1.0137,-1.3384 c 0.1236,-0.1581 0.2358,-0.5032 0.2324,-0.7185 l 0,0 c 0,-0.0102 0,-0.0217 -6e-4,-0.0321 l 0,0 -0.1048,-2.1497 C 41.7033,35.416 41.7025,35.3923 41.7025,35.3681 l 0,0 c 0.0017,-0.282 0.0699,-0.6477 0.1737,-0.8941 l 0,0 0.5171,-1.2173 -1.33,1.2747 c -0.1584,0.1467 -0.3485,0.4967 -0.3858,0.7097 l 0,0 -0.3575,1.8625 c -0.0599,0.2951 -0.2566,0.6506 -0.4745,0.8589 l 0,0 -1.4537,1.3569 c -0.1569,0.1405 -0.3328,0.4892 -0.3525,0.699 l 0,0 -0.172,1.5087 c -0.0386,0.3019 -0.2159,0.6644 -0.4309,0.8803 l 0,0 -0.6237,0.6089 c -0.0388,0.0377 -0.0959,0.0506 -0.1469,0.0325 l 0,0 c -0.0508,-0.018 -0.0877,-0.0639 -0.0939,-0.1174 l 0,0 -1.454,-12.1619 -1.4547,12.1619 c -0.0082,0.0687 -0.0653,0.122 -0.1342,0.1253 l 0,0 c -0.0694,0.0035 -0.131,-0.0436 -0.1463,-0.1112 l 0,0 -0.2155,-0.9631 c -0.0448,-0.2139 -0.2411,-0.5641 -0.4,-0.7139 l 0,0 -1.3121,-1.2716 C 31.24,39.783 31.0567,39.4222 31.0116,39.1224 l 0,0 -0.2299,-1.6635 C 30.757,37.249 30.5748,36.9033 30.4154,36.7643 l 0,0 -1.5953,-1.4463 c -0.2133,-0.1962 -0.4497,-0.535 -0.5599,-0.8031 l 0,0 -0.495,-1.2268 -0.0393,1.8422 c -2e-4,0.0069 -2e-4,0.0118 -2e-4,0.0145 l 0,0 c -0.0031,0.2186 0.1082,0.5871 0.229,0.7604 l 0,0 1.0641,1.5695 c 0.1609,0.2419 0.2695,0.6132 0.2726,0.9085 l 0,0 c 0,0.012 -2e-4,0.0224 -6e-4,0.0341 l 0,0 -0.0683,1.9884 c -6e-4,0.0082 -9e-4,0.0154 -9e-4,0.0218 l 0,0 c -0.0036,0.2136 0.1161,0.5638 0.2459,0.7212 l 0,0 0.9449,1.1881 c 0.1844,0.2379 0.3139,0.6141 0.3178,0.9165 l 0,0 c 0,0 0,0.0029 0,0.0109 l 0,0 -0.0106,0.8715 c -9e-4,0.0537 -0.0321,0.1033 -0.081,0.1268 l 0,0 c -0.0489,0.0231 -0.1068,0.0169 -0.1495,-0.0166 l 0,0 -9.6278,-7.5719 7.5711,9.6285 c 0.043,0.0544 0.0402,0.1321 -0.0062,0.1833 l 0,0 c -0.0464,0.0517 -0.1236,0.0622 -0.1822,0.0251 l 0,0 -0.8332,-0.5287 c -0.18,-0.1174 -0.5562,-0.2252 -0.7764,-0.2223 l 0,0 c -0.0043,-3e-4 -0.0043,-3e-4 -0.0113,0 l 0,0 -1.8295,0.0293 c -0.0041,0 -0.0081,0 -0.0123,0 l 0,0 c -0.3008,-0.0035 -0.6774,-0.1281 -0.9174,-0.3051 l 0,0 -1.3385,-1.0137 c -0.158,-0.124 -0.5021,-0.2361 -0.7178,-0.2328 l 0,0 c -0.012,0 -0.022,0 -0.0324,8e-4 l 0,0 -2.1512,0.1051 c -0.0219,0.0011 -0.0449,0.0016 -0.0678,0.0016 l 0,0 c -0.2818,-0.0013 -0.6485,-0.0702 -0.8955,-0.1736 l 0,0 -1.2175,-0.5171 1.2745,1.3302 c 0.1467,0.1581 0.4972,0.3485 0.7099,0.386 l 0,0 1.8627,0.3572 c 0.2953,0.0605 0.6504,0.2568 0.8585,0.4745 l 0,0 1.3571,1.4538 c 0.1406,0.1572 0.489,0.3326 0.6988,0.3521 l 0,0 1.5089,0.1724 c 0.3022,0.0387 0.6646,0.2164 0.8801,0.4311 l 0,0 0.6093,0.6237 c 0.0377,0.0388 0.0503,0.0962 0.0322,0.1469 l 0,0 c -0.0179,0.0509 -0.0637,0.0875 -0.1175,0.0939 l 0,0 -12.1615,1.454 12.1615,1.4549 c 0.0689,0.0082 0.122,0.0651 0.1254,0.134 l 0,0 c 0.0037,0.0694 -0.0436,0.1312 -0.1108,0.1464 l 0,0 -0.9633,0.2155 c -0.2139,0.0445 -0.5642,0.2408 -0.7139,0.3996 l 0,0 -1.2715,1.3123 c -0.2139,0.215 -0.5746,0.3982 -0.8746,0.4438 l 0,0 -1.6634,0.2297 c -0.21,0.0248 -0.5558,0.2068 -0.6944,0.3659 l 0,0 -1.4465,1.5955 c -0.1965,0.2135 -0.5347,0.4499 -0.8029,0.5601 l 0,0 -1.2268,0.4944 1.8388,0.0394 c 0.0061,0 0.012,0 0.0184,0 l 0,0 c 0.2184,0.003 0.5865,-0.1081 0.7595,-0.2289 l 0,0 1.5696,-1.0639 c 0.2418,-0.1607 0.6132,-0.2698 0.9087,-0.2727 l 0,0 c 0.01,0 0.023,0 0.0341,9e-4 l 0,0 1.9872,0.0685 c 0.0053,3e-4 0.0127,3e-4 0.0214,3e-4 l 0,0 c 0.2141,0.0036 0.5646,-0.1159 0.7218,-0.2453 l 0,0 1.1888,-0.9455 c 0.2376,-0.184 0.6142,-0.3142 0.9167,-0.3182 l 0,0 c 0,0 8e-4,0 0.0033,0 l 0,0 c 0.0026,0 0.0067,0 0.012,2e-4 l 0,0 0.8668,0.0109 c 0.0539,7e-4 0.1035,0.0323 0.1267,0.0807 l 0,0 c 0.0234,0.0488 0.0167,0.107 -0.0166,0.1497 l 0,0 -7.572,9.6278 9.6293,-7.5712 c 0.0539,-0.0427 0.1317,-0.0399 0.1831,0.0063 l 0,0 c 0.0512,0.0463 0.062,0.1234 0.0248,0.1821 l 0,0 -0.5286,0.8337 c -0.1174,0.1793 -0.2248,0.5551 -0.2224,0.7755 l 0,0 c 0,0.006 0,0.006 3e-4,0.0118 l 0,0 0.0286,1.8289 c 0,0.0043 0,0.0087 0,0.0129 l 0,0 c -0.0034,0.3006 -0.128,0.6768 -0.3049,0.9172 l 0,0 -1.0135,1.3387 c -0.1242,0.1577 -0.2361,0.5019 -0.2329,0.7173 l 0,0 c 0,0.012 0,0.0217 0.0012,0.0329 l 0,0 0.105,2.1508 c 0.0012,0.0224 0.0014,0.0448 0.0014,0.0672 l 0,0 c -0.0011,0.2821 -0.0702,0.649 -0.1731,0.8964 l 0,0 -0.5178,1.2173 1.3302,-1.2748 c 0.1583,-0.1467 0.3485,-0.4966 0.386,-0.7093 l 0,0 0.3572,-1.8627 c 0.0608,-0.2952 0.2568,-0.6504 0.4747,-0.8584 l 0,0 1.4537,-1.3575 c 0.1569,-0.1407 0.3325,-0.489 0.3524,-0.6985 l 0,0 0.172,-1.5089 c 0.0385,-0.3021 0.2164,-0.6646 0.4312,-0.8806 l 0,0 0.6234,-0.6086 c 0.0273,-0.0265 0.0633,-0.0404 0.1001,-0.0404 l 0,0 c 0.0165,1e-4 0.0326,0.0027 0.0476,0.008 l 0,0 z"
   id="_348133624"
   style="fill:#fac814" />
   </g>
   <g
   id="g82">
    <g
   id="g84">
     <path
   d="m 42.2382,50.931 c 0,3.9324 -3.188,7.1204 -7.1205,7.1204 -3.9325,0 -7.1206,-3.188 -7.1206,-7.1204 l 0,0 c 0,-3.9327 3.1881,-7.1209 7.1206,-7.1209 3.9325,0 7.1205,3.1882 7.1205,7.1209 l 0,0 z"
   id="path3299_3_"
   style="fill:#fffa96" />
     <path
   d="m 27.7835,50.931 c 0,-4.0511 3.2837,-7.3345 7.3342,-7.3345 l 0,0 c 4.0501,0 7.3337,3.2834 7.334,7.3345 l 0,0 c -3e-4,4.0503 -3.2837,7.3336 -7.334,7.3339 l 0,0 c -4.0505,-3e-4 -7.3342,-3.2836 -7.3342,-7.3339 l 0,0 z m 2.4501,-4.8841 c -1.2502,1.2504 -2.0231,2.9759 -2.0231,4.884 l 0,0 c 0,1.9077 0.7729,3.6329 2.0231,4.8835 l 0,0 c 1.2507,1.2505 2.9762,2.0231 4.884,2.0231 l 0,0 c 1.9077,0 3.6331,-0.7728 4.884,-2.0231 l 0,0 c 1.2503,-1.2507 2.0225,-2.9759 2.0231,-4.8835 l 0,0 c -6e-4,-1.9082 -0.773,-3.6336 -2.0231,-4.884 l 0,0 c -1.2509,-1.2505 -2.9763,-2.0231 -4.884,-2.0231 l 0,0 c -1.9079,-1e-4 -3.6333,0.7727 -4.884,2.0231 l 0,0 z"
   id="_348142728"
   style="fill:#fac814" />
    </g>
    <path
   d="m 35.1173,44.4061 c -3.6032,0 -6.5243,2.921 -6.5243,6.5248 0,1.7577 0.6959,3.3538 1.8261,4.5264 0.0544,0.0568 0.1445,0.0584 0.2012,0.0038 0.0568,-0.0546 0.0586,-0.1448 0.0036,-0.2013 -1.0811,-1.1223 -1.746,-2.6473 -1.7463,-4.3289 3e-4,-1.7237 0.6981,-3.2828 1.8277,-4.4124 1.1296,-1.1295 2.6887,-1.8277 4.4119,-1.8277 1.7236,0 3.2827,0.6985 4.4123,1.8277 1.1293,1.1296 1.8278,2.6887 1.8278,4.4124 0,1.6816 -0.6648,3.2066 -1.7464,4.3289 -0.0548,0.0566 -0.0533,0.1467 0.0033,0.2013 0.0278,0.0268 0.0635,0.0399 0.0992,0.0399 0.0375,0 0.0746,-0.0145 0.1026,-0.0435 1.1305,-1.173 1.8257,-2.7691 1.8257,-4.5267 1e-4,-3.6037 -2.9207,-6.5247 -6.5244,-6.5247 z m 1.1807,9.4088 c -0.3326,0.1281 -0.717,0.2015 -1.1804,0.2015 -0.4601,3e-4 -0.8744,-0.0876 -1.1819,-0.2022 -0.0737,-0.0275 -0.1557,0.01 -0.1831,0.0839 -0.0275,0.0738 0.0102,0.1553 0.0837,0.1829 0.1982,0.0737 0.4321,0.1353 0.6899,0.1749 -0.0011,0.003 -0.0033,0.0054 -0.0041,0.0087 -0.0208,0.0757 0.0239,0.154 0.1,0.1747 0.1625,0.0439 0.3435,0.0552 0.4953,0.0555 0.1518,-3e-4 0.3331,-0.0116 0.4951,-0.0555 0.0759,-0.0208 0.1206,-0.0989 0.0999,-0.1747 -8e-4,-0.003 -0.0028,-0.0049 -0.0038,-0.0078 0.2499,-0.037 0.481,-0.0949 0.6917,-0.1763 0.073,-0.0284 0.1098,-0.1107 0.0815,-0.1839 -0.0281,-0.0734 -0.1104,-0.11 -0.1838,-0.0817 z m -1.1768,1.1965 c 0,2e-4 -6e-4,2e-4 -0.0011,2e-4 -0.0017,0 -0.003,-2e-4 -0.0044,-2e-4 l -0.002,0 c -0.1274,3e-4 -0.2832,0.0268 -0.4222,0.1241 -0.0644,0.0453 -0.0795,0.1345 -0.0337,0.1987 0.0451,0.0639 0.134,0.0793 0.1984,0.0338 l -3e-4,10e-5 c 0.0711,-0.0514 0.1706,-0.0722 0.2577,-0.0719 l 0.0021,1e-4 0,-0.0014 0.0055,2e-4 0,0.0012 c 0.0877,-3e-4 0.1861,0.0202 0.2572,0.0718 0.0254,0.0176 0.054,0.0262 0.0826,0.0262 0.0446,0 0.0883,-0.0208 0.1163,-0.0601 0.0457,-0.0639 0.0306,-0.1529 -0.0334,-0.1984 -0.1396,-0.0983 -0.2957,-0.1241 -0.4227,-0.1244 z m 1.9648,-8.3509 c -0.4742,-6e-4 -0.9225,0.1667 -1.2461,0.5149 -0.3241,0.348 -0.5171,0.8671 -0.5167,1.5459 l 0,3.2666 c 0,0.0498 0.0258,0.0958 0.0684,0.1217 0.0421,0.0258 0.0946,0.0274 0.139,0.005 0.0278,-0.014 0.0502,-0.0186 0.0706,-0.0189 0.0404,0 0.083,0.0204 0.1198,0.0626 0.0363,0.0412 0.0598,0.1014 0.0592,0.1562 -0.005,0.0853 -0.0345,0.1685 -0.224,0.2311 -0.0737,0.0215 -0.1168,0.098 -0.0976,0.1718 0.0033,0.0141 0.0054,0.0291 0.0054,0.0446 -2e-4,0.1192 -0.1221,0.2811 -0.3464,0.2814 -0.2251,-2e-4 -0.3461,-0.1615 -0.3464,-0.2808 0,-0.0159 0.0018,-0.0301 0.0054,-0.0431 0.0202,-0.0746 -0.0231,-0.1521 -0.097,-0.1739 -0.1906,-0.0628 -0.2197,-0.1459 -0.2249,-0.231 -6e-4,-0.0548 0.0228,-0.1153 0.0591,-0.1566 0.0368,-0.0418 0.0795,-0.0625 0.12,-0.0622 0.0202,0 0.0427,0.0046 0.0708,0.0189 0.0442,0.0224 0.0972,0.0209 0.1395,-0.005 0.0421,-0.0259 0.0683,-0.0719 0.0683,-0.1217 l 0,-3.2666 c 3e-4,-0.6785 -0.1928,-1.1975 -0.5169,-1.5459 -0.3241,-0.3482 -0.772,-0.5155 -1.2463,-0.5149 -1.4247,0.0031 -3.1325,1.4607 -3.133,4.0201 6e-4,1.8274 0.851,3.437 1.9046,4.5906 1.0582,1.152 2.3059,1.8616 3.1968,1.8685 0.8821,-0.0069 2.1289,-0.7166 3.1895,-1.8685 1.0557,-1.1535 1.9107,-2.7629 1.9116,-4.5906 -7e-4,-2.5595 -1.7083,-4.0171 -3.1327,-4.0202 z m 1.011,8.4186 c -1.0149,1.1157 -2.2474,1.7827 -2.9793,1.7759 -0.742,0.0065 -1.9737,-0.6601 -2.9866,-1.7759 -1.018,-1.1139 -1.8305,-2.6623 -1.83,-4.3986 6e-4,-1.2159 0.4038,-2.1491 0.9616,-2.78 0.5576,-0.6313 1.2721,-0.9561 1.8867,-0.9551 0.8126,0.0109 1.4658,0.5256 1.4783,1.7758 l 0,3.0899 c -0.2747,0.0112 -0.4548,0.2526 -0.4576,0.5034 -0.0043,0.1784 0.1074,0.3649 0.3166,0.4628 0.0102,0.289 0.2695,0.5503 0.6311,0.5509 0.3615,-6e-4 0.6204,-0.2617 0.6307,-0.5507 0.2095,-0.0982 0.321,-0.2844 0.3165,-0.463 -0.0022,-0.2508 -0.1826,-0.4916 -0.4567,-0.503 l 0,-3.0902 c 0.0124,-1.2505 0.665,-1.765 1.4778,-1.7759 0.6147,-10e-4 1.329,0.3239 1.8866,0.9552 0.558,0.6308 0.9609,1.5643 0.9615,2.78 4e-4,1.7358 -0.8168,3.2844 -1.8372,4.3985 z m -4.0202,-4.3348 c 0.0477,-0.0625 0.0359,-0.152 -0.0264,-0.1995 -0.0624,-0.0477 -0.1518,-0.0363 -0.1996,0.0264 l -2e-4,-5e-4 c -0.2353,0.3054 -0.5422,0.3928 -0.8292,0.3949 -0.1683,0 -0.3263,-0.0334 -0.4379,-0.0723 -0.0746,-0.0255 -0.1554,0.0142 -0.1811,0.0887 -0.0257,0.0743 0.014,0.1552 0.0886,0.1809 0.1399,0.0479 0.3247,0.0872 0.5304,0.0872 0.0026,0 0.0051,0 0.0076,0 0.343,10e-5 0.7536,-0.1204 1.0478,-0.5058 z m 3.5753,0.1492 -3e-4,-2e-4 c -0.1121,0.0388 -0.2698,0.0721 -0.4382,0.0721 -0.2873,-0.0019 -0.5944,-0.0893 -0.8292,-0.3945 -0.048,-0.0622 -0.1374,-0.0741 -0.1999,-0.0264 -0.0624,0.0478 -0.0743,0.1374 -0.0262,0.1998 0.2937,0.3851 0.704,0.5056 1.0477,0.5056 0.0026,0 0.005,0 0.0075,0 0.2056,0 0.3905,-0.039 0.531,-0.087 0.0743,-0.0261 0.1138,-0.1069 0.0884,-0.1809 -0.0254,-0.0744 -0.1063,-0.1142 -0.1808,-0.0885 z M 32.932,50.7124 c 0.4,0.0014 0.8259,-0.239 1.0529,-0.7152 0.0357,0.0612 0.0706,0.1272 0.1035,0.202 0.0313,0.0719 0.1153,0.105 0.1872,0.0743 0.0723,-0.0313 0.1057,-0.1152 0.0743,-0.1872 -0.2484,-0.5872 -0.6641,-0.879 -1.1129,-0.8757 -0.568,0.0047 -1.1295,0.4248 -1.5408,1.0421 -0.0433,0.0657 -0.0257,0.1538 0.0399,0.1973 0.0241,0.016 0.0517,0.0237 0.0787,0.0237 0.0461,0 0.0913,-0.0224 0.119,-0.0635 l 0,-3e-4 c 0.0544,-0.0829 0.1121,-0.1605 0.1714,-0.2335 0.1403,0.3429 0.4716,0.5362 0.8162,0.5362 0.0037,-2e-4 0.0073,-2e-4 0.0106,-2e-4 z m 0.1144,-1.1306 c 0.1125,0 0.2077,0.0939 0.2077,0.2144 0,0.1203 -0.0953,0.2142 -0.2077,0.2144 -0.1127,-2e-4 -0.2077,-0.0941 -0.208,-0.2144 4e-4,-0.1204 0.0953,-0.2144 0.208,-0.2144 z m -0.7172,0.3522 c 0.075,-0.071 0.1521,-0.1342 0.2297,-0.1889 -0.002,0.017 -0.0051,0.0337 -0.0053,0.0512 8e-4,0.2736 0.2186,0.4987 0.493,0.4991 0.274,-4e-4 0.4922,-0.2256 0.4925,-0.4991 0,-0.0977 -0.0289,-0.1885 -0.0771,-0.2658 0.1136,0.0354 0.222,0.1008 0.3241,0.2027 -0.1658,0.4865 -0.5312,0.6928 -0.8539,0.6942 -0.2984,-0.0051 -0.5435,-0.1665 -0.603,-0.4934 z m 0.7414,-1.3935 c 0.4686,0.0036 0.8637,0.2594 1.0116,0.7733 0.0211,0.0757 0.0998,0.1197 0.1754,0.0985 0.0759,-0.0213 0.1197,-0.1 0.0989,-0.1757 -0.1752,-0.6332 -0.7074,-0.9851 -1.2858,-0.9809 -0.7691,0 -1.6193,0.5903 -1.9692,1.7871 -0.0223,0.0754 0.021,0.1547 0.0963,0.1768 0.0135,0.004 0.0269,0.0057 0.0401,0.0057 0.0617,0 0.1184,-0.0401 0.1366,-0.1021 0.3257,-1.1032 1.0759,-1.5827 1.6961,-1.5827 z m 3.9275,0.6701 c -0.4485,-0.0033 -0.8645,0.2884 -1.1131,0.8755 -0.0313,0.0721 0.002,0.1559 0.0746,0.1871 0.0719,0.0311 0.156,-0.002 0.1871,-0.0745 0.0329,-0.0748 0.0678,-0.1408 0.1039,-0.2021 0.2266,0.4765 0.6523,0.7169 1.052,0.7156 0.0037,0 0.0075,0 0.0107,0 0.3448,0 0.6765,-0.1933 0.8167,-0.536 0.0596,0.073 0.1172,0.1506 0.1717,0.2335 0.0273,0.0414 0.0726,0.0636 0.1188,0.0636 0.027,0 0.0544,-0.0077 0.0786,-0.0238 0.0657,-0.0435 0.0837,-0.1316 0.0402,-0.1972 -0.4122,-0.6173 -0.9734,-1.0371 -1.5412,-1.0417 z m 0.1908,0.3709 c 0.1124,4e-4 0.2077,0.0942 0.208,0.2147 -3e-4,0.1203 -0.0953,0.2142 -0.208,0.2144 -0.113,-2e-4 -0.2073,-0.0941 -0.2076,-0.2144 2e-4,-0.1204 0.0946,-0.2143 0.2076,-0.2147 z m 0.1135,0.846 c -0.3223,-0.002 -0.6874,-0.2078 -0.8532,-0.6947 0.1021,-0.1019 0.2112,-0.1671 0.3247,-0.2026 -0.0484,0.0773 -0.077,0.1682 -0.0772,0.2658 2e-4,0.2738 0.218,0.4987 0.4924,0.4992 0.2743,-7e-4 0.4922,-0.2256 0.4928,-0.4992 0,-0.0175 -0.0033,-0.034 -0.0051,-0.0509 0.0776,0.0549 0.1545,0.118 0.2297,0.1889 -0.0607,0.3272 -0.3052,0.4885 -0.6041,0.4935 z m 1.8315,-0.3845 c -0.3505,-1.1974 -1.2004,-1.7874 -1.9697,-1.7874 -0.5778,-0.004 -1.1105,0.3479 -1.2854,0.9811 -0.0213,0.0757 0.0228,0.1545 0.0985,0.1759 0.0759,0.021 0.1545,-0.023 0.1761,-0.0985 l -3e-4,-3e-4 c 0.1478,-0.5136 0.5427,-0.7696 1.0113,-0.7734 0.6203,0 1.3703,0.4794 1.6961,1.5829 0.0184,0.0622 0.0751,0.1026 0.1369,0.1026 0.0134,0 0.0265,-0.002 0.0399,-0.0057 0.0757,-0.0226 0.1185,-0.1017 0.0966,-0.1772 z"
   id="_348142960"
   style="fill:#c89600" />
   </g>
  </g>
 </g>
</svg>