<?xml version="1.0" encoding="UTF-8" standalone="no"?>
<!-- Created with Inkscape (http://www.inkscape.org/) -->

<svg
   xmlns:svg="http://www.w3.org/2000/svg"
   xmlns="http://www.w3.org/2000/svg"
   version="1.1"
   width="49.574299mm"
   height="62.198399mm"
   viewBox="0 0 49.576 62.2005"
   id="svg2"
   xml:space="preserve"
   style="fill-rule:evenodd">
 <defs
   id="defs4">
  <style
   type="text/css"
   id="style6" />
 </defs>
 <g
   id="Layer_x0020_1">
  
  <g
   id="_177690480">
   <path
   d="m 24.7598,58.9864 5.33678,-1.94057 c -0.0193,-0.0812 -0.0367,-0.161006 -0.0524,-0.239708 -0.0603,-0.30201 -0.0993,-0.603721 -0.118304,-0.903631 -0.0968,-1.52705 0.362612,-2.8369 1.14434,-3.85963 l -8e-4,-6e-4 4e-4,-6e-4 0.0146,-0.0175 c 0.0848,-0.110004 0.162106,-0.204507 0.231608,-0.28361 0.07,-0.0796 0.153105,-0.167506 0.248709,-0.263209 0.439515,-0.439715 0.943032,-0.802328 1.48345,-1.08014 l 0.0029,0 0.0048,-0.0024 c 0.126404,-0.0649 0.232308,-0.116104 0.317611,-0.153805 0.0878,-0.0388 0.196907,-0.0826 0.327311,-0.131505 0.565919,-0.211907 1.15954,-0.339512 1.75366,-0.375213 l 0.0053,-3e-4 c 0.218808,-0.013 0.439315,-0.0136 0.659923,-0.0015 0.230908,0.0125 0.452616,0.0372 0.662923,0.0738 0.890831,0.155505 1.74376,0.530118 2.47108,1.14824 l 6.08291,-5.922 c -0.407014,-0.455816 -0.798927,-0.919232 -1.17594,-1.39065 -0.522118,-0.652822 -0.996634,-1.29844 -1.42335,-1.93667 -2.24998,-3.36522 -3.37512,-6.75323 -3.37512,-10.1641 l 0,-7e-4 0.0029,0 c 10e-5,-2.38268 0.547019,-4.75156 1.64046,-7.10654 0.359612,-0.774427 0.782027,-1.55295 1.26714,-2.33508 0.854529,-1.37785 1.89416,-2.74829 3.11901,-4.11114 l -6.64093,-7.28475 c -2.19258,1.94847 -4.40095,3.42902 -6.62513,4.44185 -2.44128,1.11154 -4.90077,1.66166 -7.37825,1.65036 l -0.0687,-5e-4 -0.0029,0 c -0.698024,-0.0063 -1.39125,-0.0564 -2.07917,-0.150005 -0.695024,-0.0946 -1.38725,-0.232708 -2.07657,-0.414214 -3.31741,-0.87343 -6.62223,-2.75569 -9.91434,-5.64619 l -6.4997203,7.37985 c 1.95967,2.14737 3.44572,4.30795 4.46295,6.48152 1.10834,2.36808 1.6585603,4.74806 1.6569603,7.13934 -0.0016,2.38478 -0.5505193,4.75526 -1.6399603,7.11114 -0.993334,2.14827 -2.43538,4.28425 -4.32095,6.40822 l 6.1006103,5.7743 c 0.0532,-0.0394 0.106504,-0.0774 0.160005,-0.114204 0.247008,-0.170206 0.492117,-0.315111 0.734025,-0.435615 1.28564,-0.640322 2.67209,-0.747126 3.94504,-0.456416 l 0.0014,4e-4 c 0.105604,0.0241 0.221008,0.0545 0.346012,0.091 0.130204,0.038 0.243708,0.0742 0.340112,0.108504 0.57602,0.205107 1.11914,0.495917 1.60586,0.857329 l 5e-4,4e-4 c 0.105404,0.0783 0.199107,0.151805 0.28041,0.220008 0.0689,0.0578 0.157305,0.137705 0.265009,0.239708 0.448815,0.424815 0.828628,0.915031 1.11494,1.45505 l 0,0.0029 5e-4,0.0011 0.0012,-6e-4 c 0.104204,0.196707 0.196907,0.401314 0.277009,0.612921 0.0811,0.214207 0.148205,0.431615 0.200007,0.651122 0.215007,0.912031 0.188606,1.90467 -0.157605,2.9258 l 5.27978,1.94847 z m 6.49712,-0.778127 -6.24661,2.27148 -0.257209,0.0934 -0.253209,-0.0934 0.253309,0.0935 7.21975,-2.62539 c -0.667223,-1.49305 -0.696024,-2.8048 -0.329111,-3.86473 0.0761,-0.219808 0.164806,-0.421614 0.264309,-0.605321 0.0282,-0.0519 0.0573,-0.103404 0.0878,-0.154005 -0.415314,0.689024 -0.643322,1.52715 -0.58262,2.48539 0.014,0.221708 0.0453,0.456916 0.0948,0.705324 0.0511,0.255909 0.117504,0.508317 0.200207,0.756026 l 0,0.0029 6e-4,0.0015 0.228508,0.685824 -0.680523,0.247508 z m 1.00523,-5.27358 -8e-4,0.0011 10e-4,-10e-4 -2e-4,-10e-5 z m 0.0143,-0.0186 1.01e-4,0 0.0024,-0.0032 -0.0025,0.0032 z m 0.344012,-0.388813 c -0.0132,0.0133 -0.0271,0.0273 -0.0414,0.0421 0.211307,-0.216707 0.444815,-0.409914 0.694724,-0.57792 0.0451,-0.0303 0.0875,-0.0582 0.127304,-0.0834 -0.28181,0.175906 -0.544619,0.383113 -0.780627,0.619221 z m -0.0494,0.0504 c -0.041,0.043 -0.086,0.0927 -0.135105,0.148505 m 1.29404,-1.00613 6e-4,0.0011 -6e-4,4e-4 7e-4,-2e-4 -1e-4,-2e-4 c 0.0444,-0.0228 0.089,-0.0449 0.134005,-0.0662 -0.0528,0.0243 -0.0968,0.0457 -0.132105,0.0638 l -0.0025,0.0013 z m 0.490017,-0.216507 c -0.0373,0.014 -0.0819,0.0317 -0.133205,0.0534 0.29801,-0.122104 0.609321,-0.212707 0.926232,-0.270309 0.0624,-0.0113 0.117204,-0.0207 0.164506,-0.0281 -0.326111,0.0465 -0.647922,0.129104 -0.957533,0.245008 z m 1.32195,-0.28191 -0.0058,4e-4 5e-4,0 0.0053,-4e-4 z m 0.0053,-3e-4 -0.0053,3e-4 c 0.997734,-0.06 2.00497,0.224208 2.7963,0.913831 0.154805,0.134905 0.30121,0.28531 0.437115,0.451415 0.133805,0.163606 0.257909,0.343412 0.370513,0.539619 l 0,0.0029 0.003,0.0053 0.423015,-0.411814 -0.365713,0.356112 -0.517918,-0.59582 c -0.58632,-0.674323 -1.35035,-1.06524 -2.16227,-1.20694 -0.167906,-0.0293 -0.329011,-0.0481 -0.482217,-0.0564 -0.163706,-0.0089 -0.329611,-0.0083 -0.496517,0.0015 z m 11.3445,-5.62459 -4.08304,3.97494 4.61006,-4.48805 c -0.138505,-0.143005 -0.274909,-0.28611 -0.409114,-0.429015 l 0.402214,0.435715 -0.520118,0.506417 z m -1.57035,-2.8823 c 0.29041,0.363112 0.600221,0.731425 0.929332,1.10504 -1.27664,-1.45285 -2.32648,-2.9057 -3.14941,-4.35835 -0.216807,-0.382813 -0.410914,-0.749926 -0.58232,-1.10134 -1.10704,-2.27018 -1.66056,-4.54296 -1.66066,-6.81803 l -0.0029,0 c 1e-4,3.11431 1.03974,6.22611 3.11851,9.33522 0.415014,0.620821 0.86423,1.23334 1.34745,1.83746 z m -4.46895,-11.1741 0.003,0 0,7e-4 0.0029,0 c 0,-3.26231 1.14194,-6.52432 3.42582,-9.78594 0.255709,-0.365113 0.522218,-0.726525 0.799927,-1.08424 -0.57442,0.737425 -1.08954,1.47395 -1.54575,2.20938 -0.446815,0.720625 -0.840129,1.44665 -1.17964,2.17767 -1.00393,2.16227 -1.50615,4.32325 -1.50625,6.48242 z m 6.09991,-14.0535 0.462516,0.507517 -0.310511,0.332511 c 0.103204,-0.109004 0.207807,-0.218307 0.313811,-0.327711 l 5e-4,-8e-4 -8.57609,-9.4073199 c -3.21531,3.0996099 -6.44542,5.1270799 -9.68983,6.0821099 0.785927,-0.230908 1.57085,-0.524818 2.35458,-0.88173 2.27148,-1.03434 4.53506,-2.59569 6.79033,-4.6837599 l 0.550919,-0.510117 0.504917,0.553819 7.59886,8.3354899 z m -22.1992,-2.17927 0.0216,10e-5 -0.0187,-10e-5 -0.0029,0 z m -0.0657,-4e-4 0.0657,4e-4 c -0.101203,-4e-4 -0.202207,-0.0019 -0.30341,-0.0045 m -0.164806,-0.005 c 0.0483,0.0018 0.0966,0.0033 0.144905,0.0046 -0.0484,-0.0013 -0.0966,-0.0028 -0.144905,-0.0046 z m -14.2012,-6.3786202 0.400614,-0.454816 0.350012,0.319811 c -0.0909,-0.084303 -0.181806,-0.169406 -0.272509,-0.255109 l -0.0029,-0.003 -0.0703,-0.066602 -0.404914,0.459716 z M 2.458497,18.381379 2.091484,17.994066 2.201988,17.868562 2.087484,17.998566 c 0.125404,0.127604 0.249109,0.255209 0.371013,0.382813 z m 4.76306,6.69413 c -0.790427,-1.68896 -1.89206,-3.37892 -3.30761,-5.06987 1.32145,1.57965 2.36988,3.16031 3.14781,4.74206 0.998934,2.03097 1.54985,4.06114 1.65726,6.08991 -0.101403,-1.92207 -0.599221,-3.84293 -1.49745,-5.7621 z m -3.31661,-5.08067 c -0.054002,-0.0644 -0.108304,-0.128804 -0.163206,-0.193207 0.054802,0.0644 0.109304,0.128804 0.163206,0.193207 z m 4.83007,11.2671 c -0.0015,-0.0687 -0.0036,-0.137305 -0.0061,-0.206007 0.0025,0.0687 0.0046,0.137305 0.0061,0.206007 z m -0.0068,-0.222608 c -0.0026,-0.0672 -0.0056,-0.134505 -0.0092,-0.201707 0.0036,0.0672 0.0066,0.134505 0.0092,0.201707 z m -6.34792,14.3261 -0.200607,-0.189907 0.334511,-0.361912 c -0.111604,0.119104 -0.224608,0.238308 -0.339212,0.357512 l 0.205307,0.194307 z m 8.4544902,7.05064 -0.508317,0.470616 -0.202907,-0.192107 0.233808,0.221408 c 0.934232,-1.10064 2.08437,-1.61666 3.21661,-1.69456 0.195507,-0.0134 0.388313,-0.014 0.57682,-0.0023 -0.739825,-0.0481 -1.50475,0.086 -2.22628,0.445315 -0.194607,0.097 -0.379713,0.205207 -0.553119,0.324711 -0.187006,0.128904 -0.366413,0.271109 -0.536518,0.427015 l -10e-5,-10e-5 z m 4.03594,-1.09174 c -0.110104,-0.0251 -0.221308,-0.0463 -0.333411,-0.0633 0.109604,0.0168 0.219808,0.0381 0.330511,0.0633 l 0.0029,0 z m 0.267209,0.0684 c -0.0764,-0.0223 -0.164706,-0.0449 -0.264309,-0.0677 0.151905,0.0347 0.30191,0.0772 0.449315,0.127104 -0.0699,-0.0241 -0.131605,-0.0438 -0.185006,-0.0594 z m 1.13174,0.501717 c -0.244108,-0.149305 -0.503717,-0.277009 -0.774327,-0.380213 0.230208,0.0882 0.453116,0.194607 0.666323,0.317311 0.0398,0.0229 0.0759,0.0438 0.108004,0.0629 z m 0.364913,0.248009 -0.0146,-0.0111 -10e-5,10e-5 0.0147,0.011 z m 0.388613,0.326211 c -0.0254,-0.024 -0.0589,-0.0544 -0.100603,-0.0906 0.239108,0.213107 0.454016,0.450915 0.638222,0.709024 0.0465,0.0651 0.0953,0.138705 0.145905,0.220508 0.044,0.071 0.0831,0.137205 0.116504,0.198507 -0.209907,-0.387413 -0.482017,-0.736525 -0.800027,-1.03744 z m 0.818728,1.06944 -0.0012,7e-4 -6e-4,-10e-4 2e-4,4e-4 0,1e-4 4e-4,5e-4 0.0017,0.0033 0,-0.0029 -5e-4,-0.0011 z m 0.201607,0.447915 c -0.0571,-0.150805 -0.124404,-0.29891 -0.201007,-0.443715 0.388013,0.733325 0.541219,1.59875 0.351312,2.52829 -0.0417,0.203907 -0.0992,0.408314 -0.173306,0.611921 -0.0747,0.205207 -0.165306,0.409814 -0.272809,0.612321 -0.0985,0.185906 -0.213507,0.374613 -0.345612,0.565519 l 0.440515,0.162606 -0.380813,-0.140605 0.366213,-0.742525 c 0.468216,-0.949633 0.550519,-1.86966 0.357112,-2.68939 -0.038,-0.161206 -0.0855,-0.316311 -0.141605,-0.464416 z m 14.4369,5.36178 -7.21975,2.62529 -0.257209,0.0935 -0.257109,0.0934 -0.253309,-0.0934 -0.253209,-0.0935 -7.35105,-2.71289 -0.902531,-0.333111 -0.902531,-0.333111 0.546719,-0.789727 0.546819,-0.789727 c 0.095,-0.137205 0.179006,-0.275409 0.252309,-0.413714 0.0777,-0.146605 0.141205,-0.28871 0.191107,-0.425715 0.0504,-0.138705 0.0885,-0.272809 0.114904,-0.402014 0.116104,-0.567919 0.023,-1.09514 -0.213107,-1.54025 l 10e-5,0 -4e-4,-6e-4 c -0.0301,-0.0567 -0.0572,-0.104404 -0.0811,-0.143005 -0.025,-0.0403 -0.0563,-0.0868 -0.0934,-0.138905 -0.169606,-0.237508 -0.381213,-0.449915 -0.622821,-0.629322 l -0.0087,-0.0058 -0.0012,-9e-4 4e-4,-4e-4 c -0.0338,-0.0246 -0.0807,-0.0566 -0.140505,-0.0958 -0.0744,-0.0488 -0.125604,-0.0812 -0.153905,-0.0974 -0.268809,-0.154605 -0.566619,-0.271709 -0.88123,-0.343612 l -0.0014,-3e-4 10e-5,-7e-4 c -0.133505,-0.0303 -0.276009,-0.0518 -0.426215,-0.0639 -0.147805,-0.0119 -0.29471,-0.0132 -0.439115,-0.0033 -0.754826,0.0518 -1.53165,0.407714 -2.17827,1.16944 l -0.508117,0.598721 -0.508117,0.598621 -0.5709196,-0.540319 -0.57102,-0.540419 -8.18238,-7.74477 -0.54511903,-0.516118 -0.545219,-0.516018 0.518918,-0.539619 0.51891803,-0.539619 c 2.05217,-2.13427 3.59592,-4.25695 4.62446,-6.36762 1.01303,-2.07897 1.52345,-4.14124 1.52485,-6.18631 0.0014,-2.04827 -0.504917,-4.10964 -1.52505,-6.18381 -1.03414,-2.10277 -2.59889,-4.22224 -4.70006,-6.35832 l -0.48701703,-0.495017 -0.486917,-0.495017 0.457816,-0.519918 0.457816,-0.519918 8.40109003,-9.5388301 0.511218,-0.58032 0.5112176,-0.58032 0.562019,0.533618 0.562019,0.533718 0.0673,0.063802 10e-5,-1e-4 c 0.640222,0.605021 1.27444,1.16374 1.90227,1.67586 0.626321,0.510818 1.25544,0.9828339 1.88686,1.4157499 3.17341,2.17507 6.30262,3.26991 9.38722,3.28421 l 0.0658,1e-4 c 0.59472,-1e-4 1.19424,-0.0412 1.79806,-0.123104 0.59412,-0.0806 1.19544,-0.203407 1.80396,-0.368413 3.11231,-0.843729 6.24021,-2.7808 9.38342,-5.8109999 l 0.551119,-0.531318 0.551119,-0.531318 0.516318,0.566319 0.516218,0.566219 8.57619,9.4076199 0.471116,0.516718 0.471016,0.516818 -0.488617,0.504017 -0.488517,0.504017 -0.0058,0.0087 -7e-4,6e-4 -0.0013,-0.0013 c -0.57152,0.59002 -1.10774,1.18494 -1.60846,1.78456 -0.504917,0.604821 -0.960733,1.19734 -1.36675,1.77726 -2.10497,3.0061 -3.15751,5.98431 -3.15751,8.93431 l 0.0029,0 0,7e-4 -0.0029,0 c 1e-4,2.03887 0.505117,4.09384 1.51495,6.16471 0.173206,0.355112 0.351812,0.695224 0.535618,1.01973 0.999134,1.76376 2.36258,3.53692 4.08994,5.31908 l 0.518018,0.534418 0.517918,0.534418 -0.532518,0.518418 -0.532518,0.518418 -8.26988,8.05118 -0.688624,0.670323 -0.688624,0.670423 -0.478016,-0.836629 -0.477916,-0.836629 -0.0018,-0.0031 -0.0013,7e-4 c -0.0695,-0.121204 -0.146805,-0.233108 -0.230508,-0.335412 -0.0815,-0.0996 -0.169306,-0.189907 -0.262009,-0.270709 -0.479816,-0.418114 -1.10364,-0.58962 -1.72896,-0.552019 l -0.0053,3e-4 c -0.0461,0.0028 -0.104404,0.0086 -0.174706,0.0171 -0.0822,0.0099 -0.140105,0.018 -0.173906,0.0242 -0.29521,0.0536 -0.58732,0.153005 -0.86253,0.29451 l -7e-4,2e-4 1e-4,1e-4 c -0.0482,0.0248 -0.100703,0.054 -0.157005,0.0872 -0.0625,0.0368 -0.113704,0.0687 -0.153405,0.0954 -0.250609,0.168506 -0.475816,0.375413 -0.661623,0.616521 l -0.0011,0.0011 1e-4,10e-5 c -0.0795,0.103304 -0.152905,0.216107 -0.218908,0.337812 -0.0693,0.127904 -0.126804,0.256309 -0.170906,0.383713 -0.251209,0.725725 -0.215007,1.66086 0.28241,2.7739 l 0.326111,0.729825 0.326111,0.729825 -0.751926,0.273409 -0.751826,0.273509 z"
   id="_274069664"
   style="fill:#ffed00;fill-rule:nonzero;stroke:#2b2a29;stroke-width:0.0762026" />
   <path
   d="m 24.7565,59.7798 6.24661,-2.27148 c -0.689724,-2.06327 -0.28221,-3.79303 0.669923,-5.02867 0.464516,-0.602621 1.05794,-1.08194 1.71636,-1.42045 0.657223,-0.337912 1.38135,-0.537418 2.10887,-0.58122 1.37825,-0.083 2.76799,0.385313 3.75283,1.51815 l 7.12144,-6.93314 c -4.17554,-4.48275 -6.26371,-8.99011 -6.26371,-13.522 0,-4.54226 2.09767,-9.05981 6.29232,-13.5525 L 38.802283,9.6529 c -4.63046,4.28715 -9.31432,6.42012 -14.052,6.39832 -4.73466,-0.0219 -9.47052,-2.19688 -14.2078,-6.52412 l -7.44166,8.44939 c 4.27355,4.50905 6.38442,9.04541 6.38132,13.6083 -0.0031,4.54636 -2.10537,9.06541 -6.25711,13.5576 l 7.10684,6.72673 c 1.42435,-1.30654 3.16061,-1.62376 4.70656,-1.27064 0.733325,0.167506 1.42365,0.488817 2.01627,0.928832 0.598521,0.444515 1.09864,1.01113 1.44505,1.66446 0.646822,1.21974 0.762926,2.72269 -0.0039,4.27755 l 6.26061,2.31048 z m 7.47016,-1.13204 -7.21975,2.62539 -0.257109,0.0935 -0.253309,-0.0935 -7.35095,-2.71289 -0.902531,-0.333111 0.546719,-0.789727 c 0.909031,-1.31295 0.908131,-2.57819 0.391913,-3.55162 -0.240308,-0.453116 -0.59122,-0.849129 -1.01343,-1.16264 -0.428015,-0.317911 -0.928632,-0.550419 -1.46225,-0.672323 -1.24924,-0.28531 -2.68139,0.0522 -3.77983,1.34625 l -0.508117,0.598721 -0.57092,-0.540319 -8.18238,-7.74487 -0.545219,-0.516118 0.518918,-0.539619 c 4.21734,-4.38585 6.35342,-8.7429 6.35642,-13.07 0.0029,-4.32595 -2.12597,-8.6806 -6.43812,-13.0642 l -0.486917,-0.495017 0.457816,-0.519818 8.40119,-9.53883 0.511218,-0.58042 0.561919,0.533718 c 4.64166,4.40815 9.22642,6.62273 13.7542,6.64373 4.52366,0.0209 9.04721,-2.14897 13.5704,-6.50952 l 0.551119,-0.531318 0.516218,0.566319 8.57619,9.40752 0.471116,0.516718 -0.488617,0.504017 c -4.23365,4.36775 -6.35052,8.7089 -6.35052,13.0233 0,4.31445 2.11687,8.6556 6.35052,13.0234 l 0.518018,0.534318 -0.532518,0.518518 -8.26988,8.05108 -0.688624,0.670323 -0.478016,-0.836529 c -0.649522,-1.13694 -1.78626,-1.60486 -2.9157,-1.53685 -0.521418,0.0314 -1.04134,0.174906 -1.51395,0.417814 -0.471316,0.242308 -0.893531,0.58212 -1.22054,1.00643 -0.755526,0.980434 -1.00803,2.44408 -0.198807,4.25495 l 0.326111,0.729825 -0.751926,0.273409 z"
   id="_274069592"
   style="fill:#fefefe;fill-rule:nonzero;stroke:#2b2a29;stroke-width:0.0762026" />
   <path
   d="m 24.7532,60.5733 7.21975,-2.62539 c -2.66739,-5.969 4.81116,-8.95181 7.17595,-4.81317 l 8.26988,-8.05108 c -8.7512,-9.02851 -8.7512,-18.0566 0,-27.085 L 38.84259,8.59114 c -9.33462,8.99921 -18.7858,8.95541 -28.3539,-0.131305 l -8.40119,9.53883 c 8.90971,9.05751 8.7971,18.1149 0.087503,27.1725 l 8.18238,7.74487 c 3.60292,-4.24485 10.3268,0.203707 7.04474,4.94437 l 7.35105,2.71289 z"
   id="_274069520"
   style="fill:#e51a4b;stroke:#2b2a29;stroke-width:0.0762026" />
   <path
   d="m 24.7565,59.7798 6.24661,-2.27148 c -0.689724,-2.06327 -0.28221,-3.79303 0.669923,-5.02867 0.464516,-0.602621 1.05794,-1.08194 1.71636,-1.42045 0.657223,-0.337912 1.38135,-0.537418 2.10887,-0.58122 1.37825,-0.083 2.76799,0.385313 3.75283,1.51815 l 7.12144,-6.93314 c -4.17554,-4.48275 -6.26371,-8.99011 -6.26371,-13.522 0,-4.54226 2.09767,-9.05981 6.29232,-13.5525 L 38.802283,9.6529 c -4.63046,4.28715 -9.31432,6.42012 -14.052,6.39832 -4.73466,-0.0219 -9.47052,-2.19688 -14.2078,-6.52412 l -7.44166,8.44939 c 4.27355,4.50905 6.38442,9.04541 6.38132,13.6083 -0.0031,4.54636 -2.10537,9.06541 -6.25711,13.5576 l 7.10684,6.72673 c 1.42435,-1.30654 3.16061,-1.62376 4.70656,-1.27064 0.733325,0.167506 1.42365,0.488817 2.01627,0.928832 0.598521,0.444515 1.09864,1.01113 1.44505,1.66446 0.646822,1.21974 0.762926,2.72269 -0.0039,4.27755 l 6.26061,2.31048 z m 7.47016,-1.13204 -7.21975,2.62539 -0.257109,0.0935 -0.253309,-0.0935 -7.35095,-2.71289 -0.902531,-0.333111 0.546719,-0.789727 c 0.909031,-1.31295 0.908131,-2.57819 0.391913,-3.55162 -0.240308,-0.453116 -0.59122,-0.849129 -1.01343,-1.16264 -0.428015,-0.317911 -0.928632,-0.550419 -1.46225,-0.672323 -1.24924,-0.28531 -2.68139,0.0522 -3.77983,1.34625 l -0.508117,0.598721 -0.57092,-0.540319 -8.18238,-7.74487 -0.545219,-0.516118 0.518918,-0.539619 c 4.21734,-4.38585 6.35342,-8.7429 6.35642,-13.07 0.0029,-4.32595 -2.12597,-8.6806 -6.43812,-13.0642 l -0.486917,-0.495017 0.457816,-0.519818 8.40119,-9.53883 0.511218,-0.58042 0.561919,0.533718 c 4.64166,4.40815 9.22642,6.62273 13.7542,6.64373 4.52366,0.0209 9.04721,-2.14897 13.5704,-6.50952 l 0.551119,-0.531318 0.516218,0.566319 8.57619,9.40752 0.471116,0.516718 -0.488617,0.504017 c -4.23365,4.36775 -6.35052,8.7089 -6.35052,13.0233 0,4.31445 2.11687,8.6556 6.35052,13.0234 l 0.518018,0.534318 -0.532518,0.518518 -8.26988,8.05108 -0.688624,0.670323 -0.478016,-0.836529 c -0.649522,-1.13694 -1.78626,-1.60486 -2.9157,-1.53685 -0.521418,0.0314 -1.04134,0.174906 -1.51395,0.417814 -0.471316,0.242308 -0.893531,0.58212 -1.22054,1.00643 -0.755526,0.980434 -1.00803,2.44408 -0.198807,4.25495 l 0.326111,0.729825 -0.751926,0.273409 z"
   id="_274069448"
   style="fill:#fefefe;fill-rule:nonzero;stroke:#2b2a29;stroke-width:0.0762026" />
   <path
   d="m 24.7532,60.5733 7.21975,-2.62539 c -2.66739,-5.969 4.81116,-8.95181 7.17595,-4.81317 l 8.26988,-8.05108 c -8.7512,-9.02851 -8.7512,-18.0566 0,-27.085 L 38.84259,8.59114 c -9.33462,8.99921 -18.7858,8.95541 -28.3539,-0.131305 l -8.40119,9.53883 c 8.90971,9.05751 8.7971,18.1149 0.087503,27.1725 l 8.18238,7.74487 c 3.60292,-4.24485 10.3268,0.203707 7.04474,4.94437 l 7.35105,2.71289 z"
   id="_274069376"
   style="fill:#ac2d2e;stroke:#2b2a29;stroke-width:0.0762026" />
   <g
   id="g16">
    <g
   id="g18">
     <path
   d="m 38.0173,38.7077 1.58515,2.63629 3.17051,0 -1.58535,2.63579 1.58535,2.63649 -3.17051,0 -1.58515,2.63519 -1.58555,-2.63519 -3.17141,0 1.58705,-2.63649 -1.58705,-2.63579 3.17141,0 1.58555,-2.63629 z m 0.793327,1.31745 m 2.37698,1.31885 m 0.792527,1.31895 m 0,2.63479 m -0.792527,1.31855 m -2.37698,1.31775 m -1.58705,0 m -2.37618,-1.31775 M 34.05427,45.29774 m 0,-2.63479 M 34.847397,41.344 m 2.37618,-1.31885"
   id="_274069304"
   style="fill:#ffed00;fill-rule:nonzero;stroke:#2b2a29;stroke-width:0.0762026" />
     <polygon
   points="38.0173,43.9798 36.4317,41.344 38.0173,43.9798 34.7591,43.9337 38.0173,43.9798 36.3436,46.5691 38.0166,43.9798 39.6025,46.6163 38.0166,43.9798 41.2761,44.0281 38.0173,43.9798 39.6906,41.3916 "
   id="_274069232"
   style="fill:none;stroke:#2b2a29;stroke-width:0.0762026" />
     <line
   id="_274069160"
   class="fil4 str0"
   x1="38.0172"
   y1="38.729198"
   x2="38.0172"
   y2="49.230701"
   style="fill:none;stroke:#2b2a29;stroke-width:0.0762026" />
     <line
   id="_274069088"
   class="fil4 str0"
   x1="42.786598"
   y1="41.354599"
   x2="33.2477"
   y2="46.6054"
   style="fill:none;stroke:#2b2a29;stroke-width:0.0762026" />
     <line
   id="_274069040"
   class="fil4 str0"
   x1="42.786598"
   y1="46.6054"
   x2="33.2477"
   y2="41.354599"
   style="fill:none;stroke:#2b2a29;stroke-width:0.0762026" />
    </g>
    <g
   id="g25">
     <path
   d="m 11.1395,38.7077 1.58425,2.63629 3.17081,0 -1.58535,2.63579 1.58535,2.63649 -3.17081,0 -1.58425,2.63519 -1.58625,-2.63519 -3.16991,0 1.58515,-2.63649 -1.58515,-2.63579 3.16991,0 1.58625,-2.63629 z m 0.791827,1.31745 m 2.37788,1.31885 m 0.792827,1.31895 m 0,2.63479 m -0.792827,1.31855 m -2.37788,1.31775 m -1.58455,0 M 7.968497,46.61629 M 7.17667,45.29774 m 0,-2.63479 M 7.968497,41.344 m 2.37828,-1.31885"
   id="_274068920"
   style="fill:#ffed00;fill-rule:nonzero;stroke:#2b2a29;stroke-width:0.0762026" />
     <polygon
   points="11.1395,43.9798 9.55323,41.344 11.1395,43.9798 7.87997,43.9337 11.1395,43.9798 9.46582,46.5691 11.1395,43.9798 12.7237,46.6163 11.1395,43.9798 14.3981,44.0281 11.1395,43.9798 12.8141,41.3916 "
   id="_274068848"
   style="fill:none;stroke:#2b2a29;stroke-width:0.0762026" />
     <line
   id="_274068776"
   class="fil4 str0"
   x1="11.1392"
   y1="38.729198"
   x2="11.1392"
   y2="49.230701"
   style="fill:none;stroke:#2b2a29;stroke-width:0.0762026" />
     <line
   id="_274068704"
   class="fil4 str0"
   x1="15.9086"
   y1="41.354599"
   x2="6.3698201"
   y2="46.6054"
   style="fill:none;stroke:#2b2a29;stroke-width:0.0762026" />
     <line
   id="_274068656"
   class="fil4 str0"
   x1="15.9086"
   y1="46.6054"
   x2="6.3698201"
   y2="41.354599"
   style="fill:none;stroke:#2b2a29;stroke-width:0.0762026" />
    </g>
    <g
   id="g32">
     <path
   d="m 39.361,13.1734 1.58645,2.63679 3.16971,0 -1.58555,2.63619 1.58555,2.63609 -3.16971,0 -1.58645,2.63669 -1.58515,-2.63669 -3.17011,0 1.58535,-2.63609 -1.58535,-2.63619 3.17011,0 1.58515,-2.63679 z m 0.793127,1.31735 m 2.37748,1.31945 m 0.792827,1.31835 m 0,2.63559 m -0.792827,1.31835 m -2.37748,1.31835 m -1.58585,0 m -2.37718,-1.31835 M 35.39737,19.76414 m 0,-2.63559 m 0.793727,-1.31835 m 2.37718,-1.31945"
   id="_274068536"
   style="fill:#ffed00;fill-rule:nonzero;stroke:#2b2a29;stroke-width:0.0762026" />
     <polygon
   points="39.361,18.4463 37.7759,15.8101 39.361,18.4463 36.1026,18.3988 39.361,18.4463 37.6867,21.0346 39.361,18.4463 40.9475,21.0824 39.361,18.4463 42.6206,18.4933 39.361,18.4463 41.0352,15.8566 "
   id="_175273296"
   style="fill:none;stroke:#2b2a29;stroke-width:0.0762026" />
     <line
   id="_171537208"
   class="fil4 str0"
   x1="39.361"
   y1="13.1952"
   x2="39.361"
   y2="23.6966"
   style="fill:none;stroke:#2b2a29;stroke-width:0.0762026" />
     <line
   id="_174469712"
   class="fil4 str0"
   x1="44.130501"
   y1="15.8205"
   x2="34.591702"
   y2="21.071301"
   style="fill:none;stroke:#2b2a29;stroke-width:0.0762026" />
     <line
   id="_174472040"
   class="fil4 str0"
   x1="44.130501"
   y1="21.071301"
   x2="34.591702"
   y2="15.8205"
   style="fill:none;stroke:#2b2a29;stroke-width:0.0762026" />
    </g>
    <g
   id="g39">
     <path
   d="m 9.79444,13.1734 1.58555,2.63679 3.17141,0 -1.58475,2.63619 1.58475,2.63609 -3.17141,0 -1.58555,2.63669 -1.58415,-2.63669 -3.17051,0 1.58455,-2.63609 -1.58455,-2.63619 3.17051,0 1.58415,-2.63679 z m 0.793727,1.31735 m 2.37848,1.31945 m 0.790827,1.31835 m 0,2.63559 m -0.790827,1.31835 m -2.37848,1.31835 m -1.58475,0 M 6.624337,21.08249 M 5.83221,19.76414 m 0,-2.63559 M 6.624337,15.8102 m 2.37908,-1.31945"
   id="_177694752"
   style="fill:#ffed00;fill-rule:nonzero;stroke:#2b2a29;stroke-width:0.0762026" />
     <polygon
   points="9.79444,18.4463 8.21028,15.8101 9.79444,18.4463 6.53642,18.3988 9.79444,18.4463 8.12178,21.0346 9.79444,18.4463 11.38,21.0824 9.79444,18.4463 13.0551,18.4933 9.79444,18.4463 11.4681,15.8566 "
   id="_177694680"
   style="fill:none;stroke:#2b2a29;stroke-width:0.0762026" />
     <line
   id="_177694608"
   class="fil4 str0"
   x1="9.7953396"
   y1="13.1952"
   x2="9.7953396"
   y2="23.6966"
   style="fill:none;stroke:#2b2a29;stroke-width:0.0762026" />
     <line
   id="_177694536"
   class="fil4 str0"
   x1="14.5647"
   y1="15.8205"
   x2="5.0258698"
   y2="21.071301"
   style="fill:none;stroke:#2b2a29;stroke-width:0.0762026" />
     <line
   id="_177694488"
   class="fil4 str0"
   x1="14.5647"
   y1="21.071301"
   x2="5.0258698"
   y2="15.8205"
   style="fill:none;stroke:#2b2a29;stroke-width:0.0762026" />
    </g>
   </g>
   <g
   id="g46">
    <g
   id="g48">
     <g
   id="g50">
      <path
   d="m 26.597,40.5016 c 2.49829,2.35438 4.21104,-1.54495 5.12388,-1.88136 0.816528,-0.30081 0.648722,-1.04134 1.39575,-1.75036 1.25444,-2.42998 2.69099,-4.07684 4.52836,-4.00054 0.947032,-0.314611 0.669923,-0.825928 -0.765326,-0.681323 -2.16837,-0.360012 -3.56232,2.50669 -5.9508,5.55699 -0.906231,1.16254 -1.83606,1.89907 -2.8004,2.01277 l -1.53145,0.743826 z"
   id="_177694344"
   style="fill:#ffed00;stroke:#2b2a29;stroke-width:0.0762026" />
      <path
   d="m 26.597,40.5016 c 2.9791,1.30544 2.25978,-0.614621 5.12388,-1.88136 2.69089,-1.19004 1.04494,-5.25978 -0.792027,-0.87523 -0.0708,0.0908 -0.141705,0.179006 -0.212807,0.264509 -0.838929,1.00923 -1.69856,1.64336 -2.58759,1.74826 l -1.53145,0.743826 z"
   id="_177694272"
   style="fill:#ffed00;stroke:#2b2a29;stroke-width:0.0762026" />
      <polygon
   points="40.0302,32.6256 40.0302,31.9254 35.7421,31.9254 35.7421,32.6256 "
   id="_177694224"
   style="fill:#ffed00;stroke:#2b2a29;stroke-width:0.0762026" />
     </g>
     <g
   id="g55">
      <path
   d="m 22.5594,40.5016 c -2.49829,2.35438 -4.21094,-1.54495 -5.12388,-1.88136 -0.816528,-0.30081 -0.648722,-1.04134 -1.39575,-1.75036 -1.25444,-2.42998 -2.69099,-4.07684 -4.52836,-4.00054 -0.947032,-0.314611 -0.669923,-0.825928 0.765326,-0.681323 2.16847,-0.360012 3.56242,2.50669 5.9508,5.55699 0.906231,1.16254 1.83606,1.89907 2.8004,2.01277 l 1.53145,0.743826 z"
   id="_177694104"
   style="fill:#ffed00;stroke:#2b2a29;stroke-width:0.0762026" />
      <path
   d="m 22.5594,40.5016 c -2.979,1.30544 -2.25978,-0.614621 -5.12388,-1.88136 -2.69089,-1.19004 -1.04494,-5.25978 0.792027,-0.87523 0.0708,0.0908 0.141705,0.179006 0.212907,0.264509 0.838829,1.00923 1.69846,1.64336 2.58749,1.74826 l 1.53145,0.743826 z"
   id="_177694032"
   style="fill:#ffed00;stroke:#2b2a29;stroke-width:0.0762026" />
      <polygon
   points="9.12621,32.6256 9.12621,31.9254 13.4144,31.9254 13.4144,32.6256 "
   id="_177693984"
   style="fill:#ffed00;stroke:#2b2a29;stroke-width:0.0762026" />
     </g>
    </g>
    <g
   id="g60">
     <polygon
   points="27.0066,40.6966 27.0066,38.3888 22.1499,38.3888 22.1499,40.6966 "
   id="_177693840"
   style="fill:#ffed00;stroke:#2b2a29;stroke-width:0.0762026" />
     <path
   d="m 27.0072,37.6056 c 0.850929,0 1.54045,0.690524 1.54045,1.54165 0,0.849729 -0.689524,1.54035 -1.54045,1.54035 -0.851629,0 -1.54035,-0.690624 -1.54035,-1.54035 0,-0.851129 0.688724,-1.54165 1.54035,-1.54165 z"
   id="_177693768"
   style="fill:#ffed00;stroke:#2b2a29;stroke-width:0.0762026" />
     <path
   d="m 22.0927,37.6172 c 0.851829,0 1.54015,0.690224 1.54015,1.54075 0,0.850429 -0.688324,1.54045 -1.54015,1.54045 -0.849829,0 -1.54015,-0.690024 -1.54015,-1.54045 0,-0.850529 0.690324,-1.54075 1.54015,-1.54075 z"
   id="_177693696"
   style="fill:#ffed00;stroke:#2b2a29;stroke-width:0.0762026" />
     <path
   d="m 27.9625,39.4693 c 0,0.406514 -0.329711,0.736325 -0.736325,0.736325 m 0.777727,0.115304 c -1.25684,0.196107 -1.51415,-0.445115 -1.51415,-0.851629 m 0,0 c 0,-0.406614 0.329811,-0.736425 0.736425,-0.736425 0.406614,0 0.736325,0.329811 0.736325,0.736425"
   id="_177693624"
   style="fill:none;stroke:#2b2a29;stroke-width:0.0762026" />
     <path
   d="m 21.1554,39.4693 c 0,0.406514 0.329711,0.736325 0.736325,0.736325 m -0.777727,0.115304 c 1.25674,0.196107 1.51415,-0.445115 1.51415,-0.851629 m 0,0 c 0,-0.406614 -0.329811,-0.736425 -0.736425,-0.736425 -0.406614,0 -0.736325,0.329811 -0.736325,0.736425"
   id="_177693576"
   style="fill:none;stroke:#2b2a29;stroke-width:0.0762026" />
    </g>
   </g>
   <polyline
   id="_177693432"
   class="fil4 str0"
   points="10.4013,31.9131 24.5782,15.4607 38.9302,31.9131 "
   style="fill:none;stroke:#2b2a29;stroke-width:0.0762026" />
   <line
   id="_177693360"
   class="fil4 str0"
   x1="24.5779"
   y1="15.4668"
   x2="24.5779"
   y2="55.023399"
   style="fill:none;stroke:#2b2a29;stroke-width:0.0762026" />
   <polygon
   points="21.9367,47.0531 22.2233,48.042 24.5485,55.7406 27.2198,47.0023 24.4772,48.8932 "
   id="_177693288"
   style="fill:#ffed00;stroke:#2b2a29;stroke-width:0.0762026" />
   <g
   id="g70">
    <polygon
   points="24.5779,19.6976 24.5779,21.4388 22.4785,19.6364 22.4785,17.8936 "
   id="_177693216"
   style="fill:#ffed00;stroke:#2b2a29;stroke-width:0.0762026" />
    <polygon
   points="24.5779,21.4388 24.5779,23.1806 22.4785,21.377 22.4785,19.6364 "
   id="_177693144"
   style="fill:#ffed00;stroke:#2b2a29;stroke-width:0.0762026" />
    <polygon
   points="24.5779,23.1806 24.5779,24.9213 22.4785,23.1181 22.4785,21.377 "
   id="_177693072"
   style="fill:#ffed00;stroke:#2b2a29;stroke-width:0.0762026" />
    <polygon
   points="24.5779,24.9213 24.5779,26.6633 22.4785,24.8603 22.4785,23.1181 "
   id="_177693000"
   style="fill:#ffed00;stroke:#2b2a29;stroke-width:0.0762026" />
    <polygon
   points="24.5779,26.6633 24.5779,28.4047 22.4785,26.6017 22.4785,24.8603 "
   id="_177692928"
   style="fill:#ffed00;stroke:#2b2a29;stroke-width:0.0762026" />
    <polygon
   points="26.6782,17.8936 26.6782,19.6364 24.5779,21.3738 24.5779,19.6319 "
   id="_177692856"
   style="fill:#ffed00;stroke:#2b2a29;stroke-width:0.0762026" />
    <polygon
   points="26.6782,19.6364 26.6782,21.377 24.5779,23.1149 24.5779,21.3738 "
   id="_177692784"
   style="fill:#ffed00;stroke:#2b2a29;stroke-width:0.0762026" />
    <polygon
   points="26.6782,21.377 26.6782,23.1181 24.5779,24.8558 24.5779,23.1149 "
   id="_177692712"
   style="fill:#ffed00;stroke:#2b2a29;stroke-width:0.0762026" />
    <polygon
   points="26.6782,23.1181 26.6782,24.8603 24.5779,26.5983 24.5779,24.8558 "
   id="_177692640"
   style="fill:#ffed00;stroke:#2b2a29;stroke-width:0.0762026" />
    <polygon
   points="26.6782,24.8603 26.6782,26.6017 24.5779,28.3398 24.5779,26.5983 "
   id="_177692592"
   style="fill:#ffed00;stroke:#2b2a29;stroke-width:0.0762026" />
   </g>
   <g
   id="g82">
    <path
   d="m 30.2717,7.30945 -0.964433,0 0,-2.8883 -0.780727,0.29461 0,2.59369 -0.982834,0 0,-2.59369 c 0.621421,0.030401 1.22614,-0.036901 1.76356,-0.380813 l 0,-0.646622 c -0.565119,0.353612 -1.11424,0.433215 -1.76356,0.395214 l 0,-1.25734 c 0.645022,0 1.22574,-0.096803 1.76356,-0.481417 l 0,-0.941232 -0.780727,0 0,0.840629 -0.982834,0 0,-0.905231 2.72799,0 0,5.9705 z m -0.964433,-3.66423 0,-1.21424 C 29.09296,2.569885 28.832751,2.694489 28.52654,2.804593 l 0,1.15684 c 0.264009,-0.038801 0.538618,-0.204507 0.780727,-0.316211 z m 4.50085,3.66423 -2.70049,0 0,-5.9705 2.70049,0 0,1.65966 c -0.489317,0 -1.63506,0.134005 -1.63506,0.811928 0.454316,0.523218 0.927932,0.746026 1.63506,0.653722 l 0,2.8452 z m -0.992034,-4.25335 0,-1.65256 -0.725625,0 0,2.22008 c 0.202807,-0.252009 0.427415,-0.437915 0.725625,-0.567519 z m -0.0826,4.18864 0,-2.8236 C 32.499672,4.238334 32.262264,4.078628 32.090458,3.83202 l 0,3.41272 0.643022,0 z m 4.66606,0.064702 -0.964433,0 0,-2.8883 -0.780827,0.29461 0,2.59369 -0.982734,0 0,-2.59369 c 0.621421,0.030401 1.22614,-0.036901 1.76356,-0.380813 l 0,-0.646622 c -0.565219,0.353612 -1.11424,0.433215 -1.76356,0.395214 l 0,-1.25734 c 0.645022,0 1.22574,-0.096803 1.76356,-0.481417 l 0,-0.941232 -0.780827,0 0,0.840629 -0.982734,0 0,-0.905231 2.72799,0 0,5.9705 z m -0.964433,-3.66423 0,-1.21424 c -0.214307,0.138905 -0.474516,0.263509 -0.780827,0.373613 l 0,1.15684 c 0.264009,-0.038801 0.538718,-0.204507 0.780827,-0.316211 z"
   id="_177692472"
   style="fill:#ffed00;fill-rule:nonzero;stroke:#2b2a29;stroke-width:0.0762026" />
    <path
   d="m 14.3309,7.33105 -0.955233,0 0,-5.9275 -0.835829,0 0,5.9275 -0.964533,0 0,-5.99211 2.75559,0 0,5.99211 z m 3.69253,-2.11227 c 0,1.11134 -0.699324,1.73486 -1.69006,2.09067 0.138905,-0.326311 -0.0918,-0.766226 -0.211307,-1.05974 -0.332311,-0.815728 -0.771526,-1.57705 -0.771526,-2.48239 0,-0.958533 0.564819,-2.42838 1.70846,-2.42838 -0.0401,0.234808 -0.0061,0.402214 0.0551,0.632222 0.442015,1.06914 0.909331,2.07427 0.909331,3.24761 z m -0.431715,0.790227 c -0.0781,-1.06724 -0.616721,-2.23498 -0.964433,-3.24751 L 16.259869,1.777163 c -0.936332,0.984534 -0.359412,1.83256 0.026,2.9961 0.225908,0.706624 0.690524,1.37615 0.690524,2.14107 0.29771,-0.232908 0.615321,-0.491817 0.615321,-0.905331 z m 4.02324,1.30044 -0.964533,0 0,-3.39122 c -0.177206,0.27721 -0.458916,0.423415 -0.753126,0.546019 l 0,2.8452 -0.982834,0 0,-2.8308 c 0.632622,0 1.34895,-0.125504 1.70846,-0.711324 l 0,-2.36378 -0.725625,0 0,1.59505 -0.982834,0 0,-1.65966 2.70049,0 0,5.9705 z"
   id="_177692400"
   style="fill:#ffed00;fill-rule:nonzero;stroke:#2b2a29;stroke-width:0.0762026" />
    <polygon
   points="25.0605,0.0381013 25.0632,1.37345 26.3297,1.35985 26.3153,2.23298 25.0605,2.23668 25.0605,9.44882 24.096,9.44882 24.096,2.23128 22.8328,2.23698 22.8377,1.35985 24.096,1.37075 24.096,0.0381013 "
   id="_177691752"
   style="fill:#ffed00;stroke:#2b2a29;stroke-width:0.0762026" />
   </g>
   <g
   id="g87">
    <path
   d="m 30.2717,7.30945 -0.964433,0 0,-2.8883 -0.780727,0.29461 0,2.59369 -0.982834,0 0,-2.59369 c 0.621421,0.030401 1.22614,-0.036901 1.76356,-0.380813 l 0,-0.646622 c -0.565119,0.353612 -1.11424,0.433215 -1.76356,0.395214 l 0,-1.25734 c 0.645022,0 1.22574,-0.096803 1.76356,-0.481417 l 0,-0.941232 -0.780727,0 0,0.840629 -0.982834,0 0,-0.905231 2.72799,0 0,5.9705 z m -0.964433,-3.66423 0,-1.21424 C 29.09296,2.569885 28.832751,2.694489 28.52654,2.804593 l 0,1.15684 c 0.264009,-0.038801 0.538618,-0.204507 0.780727,-0.316211 z m 4.50085,3.66423 -2.70049,0 0,-5.9705 2.70049,0 0,1.65966 c -0.489317,0 -1.63506,0.134005 -1.63506,0.811928 0.454316,0.523218 0.927932,0.746026 1.63506,0.653722 l 0,2.8452 z m -0.992034,-4.25335 0,-1.65256 -0.725625,0 0,2.22008 c 0.202807,-0.252009 0.427415,-0.437915 0.725625,-0.567519 z m -0.0826,4.18864 0,-2.8236 C 32.499672,4.238334 32.262264,4.078628 32.090458,3.83202 l 0,3.41272 0.643022,0 z m 4.66606,0.064702 -0.964433,0 0,-2.8883 -0.780827,0.29461 0,2.59369 -0.982734,0 0,-2.59369 c 0.621421,0.030401 1.22614,-0.036901 1.76356,-0.380813 l 0,-0.646622 c -0.565219,0.353612 -1.11424,0.433215 -1.76356,0.395214 l 0,-1.25734 c 0.645022,0 1.22574,-0.096803 1.76356,-0.481417 l 0,-0.941232 -0.780827,0 0,0.840629 -0.982734,0 0,-0.905231 2.72799,0 0,5.9705 z m -0.964433,-3.66423 0,-1.21424 c -0.214307,0.138905 -0.474516,0.263509 -0.780827,0.373613 l 0,1.15684 c 0.264009,-0.038801 0.538718,-0.204507 0.780827,-0.316211 z"
   id="_177688296"
   style="fill:#ffed00;fill-rule:nonzero;stroke:#2b2a29;stroke-width:0.0762026" />
    <path
   d="m 14.3309,7.33105 -0.955233,0 0,-5.9275 -0.835829,0 0,5.9275 -0.964533,0 0,-5.99211 2.75559,0 0,5.99211 z m 3.69253,-2.11227 c 0,1.11134 -0.699324,1.73486 -1.69006,2.09067 0.138905,-0.326311 -0.0918,-0.766226 -0.211307,-1.05974 -0.332311,-0.815728 -0.771526,-1.57705 -0.771526,-2.48239 0,-0.958533 0.564819,-2.42838 1.70846,-2.42838 -0.0401,0.234808 -0.0061,0.402214 0.0551,0.632222 0.442015,1.06914 0.909331,2.07427 0.909331,3.24761 z m -0.431715,0.790227 c -0.0781,-1.06724 -0.616721,-2.23498 -0.964433,-3.24751 L 16.259869,1.777163 c -0.936332,0.984534 -0.359412,1.83256 0.026,2.9961 0.225908,0.706624 0.690524,1.37615 0.690524,2.14107 0.29771,-0.232908 0.615321,-0.491817 0.615321,-0.905331 z m 4.02324,1.30044 -0.964533,0 0,-3.39122 c -0.177206,0.27721 -0.458916,0.423415 -0.753126,0.546019 l 0,2.8452 -0.982834,0 0,-2.8308 c 0.632622,0 1.34895,-0.125504 1.70846,-0.711324 l 0,-2.36378 -0.725625,0 0,1.59505 -0.982834,0 0,-1.65966 2.70049,0 0,5.9705 z"
   id="_177692280"
   style="fill:#ffed00;fill-rule:nonzero;stroke:#2b2a29;stroke-width:0.0762026" />
    <polygon
   points="25.0605,0.0381013 25.0632,1.37345 26.3297,1.35985 26.3153,2.23298 25.0605,2.23668 25.0605,9.44882 24.096,9.44882 24.096,2.23128 22.8328,2.23698 22.8377,1.35985 24.096,1.37075 24.096,0.0381013 "
   id="_177691488"
   style="fill:#ffed00;stroke:#2b2a29;stroke-width:0.0762026" />
   </g>
  </g>
 </g>
</svg>